<?xml version="1.0" encoding="UTF-8"?><svg id="Capa_1" xmlns="http://www.w3.org/2000/svg" viewBox="0 0 485.52 197.3"><defs><style>.cls-1,.cls-2{fill:none;}.cls-1,.cls-3,.cls-4,.cls-5,.cls-6{stroke-width:0px;}.cls-2{stroke:#2a9b48;stroke-miterlimit:22.93;stroke-width:.49px;}.cls-3{fill:#2a9b48;}.cls-3,.cls-4{fill-rule:evenodd;}.cls-4,.cls-6{fill:#d12e26;}.cls-5{fill:#1f1f1d;}</style></defs><path class="cls-5" d="M382.65,157.6l-.02-9.84h1.62s0,1.49,0,1.49c.41-.7.79-1.16,1.14-1.38.35-.22.73-.34,1.15-.34.61,0,1.22.18,1.85.53l-.62,1.55c-.44-.24-.88-.36-1.31-.36-.39,0-.75.11-1.06.33-.31.22-.53.53-.66.92-.2.59-.3,1.24-.3,1.95v5.15s-1.78,0-1.78,0ZM372.65,151.76h5.92c-.08-.84-.31-1.46-.68-1.87-.57-.64-1.32-.96-2.23-.96-.82,0-1.52.26-2.08.77-.56.51-.87,1.2-.93,2.06M378.55,154.44l1.86.21c-.29,1.01-.83,1.79-1.62,2.35-.79.56-1.8.84-3.03.84-1.55,0-2.78-.44-3.69-1.32-.91-.88-1.37-2.12-1.37-3.72,0-1.66.45-2.94,1.37-3.86.92-.92,2.1-1.38,3.57-1.38,1.42,0,2.58.44,3.47,1.34.9.89,1.35,2.15,1.36,3.78v.44s-7.91.02-7.91.02c.07,1.08.4,1.91.99,2.48.59.57,1.33.86,2.22.86.66,0,1.22-.16,1.68-.49.47-.32.83-.83,1.1-1.54M368,154.03l1.76.21c-.19,1.13-.68,2.02-1.48,2.66-.79.64-1.77.96-2.93.97-1.45,0-2.62-.43-3.5-1.31-.88-.88-1.33-2.14-1.33-3.78,0-1.06.19-1.99.56-2.79.38-.8.95-1.4,1.73-1.8.77-.4,1.61-.6,2.53-.6,1.15,0,2.09.27,2.83.81.73.54,1.21,1.3,1.41,2.3l-1.75.25c-.17-.66-.46-1.16-.88-1.49-.42-.33-.94-.5-1.53-.5-.91,0-1.64.3-2.2.91-.56.6-.85,1.56-.84,2.86,0,1.32.28,2.28.83,2.88.55.6,1.26.9,2.14.89.7,0,1.29-.21,1.76-.61.47-.4.77-1.02.89-1.85M349.73,157.68l-.02-9.84h1.61s0,1.39,0,1.39c.78-1.08,1.9-1.63,3.37-1.63.64,0,1.23.1,1.76.32.54.21.94.49,1.2.84.27.34.46.76.56,1.23.06.31.1.85.1,1.62v6.05s-1.78,0-1.78,0v-5.99c-.01-.68-.08-1.19-.22-1.52-.14-.34-.39-.6-.75-.8-.36-.2-.77-.3-1.25-.3-.76,0-1.42.23-1.98.68-.56.45-.83,1.31-.83,2.57v5.37s-1.78,0-1.78,0ZM341.61,146.63l1.32-2.6h2.35s-2.19,2.59-2.19,2.59h-1.49ZM345.12,152.75c-.65.25-1.63.46-2.93.64-.74.1-1.26.21-1.57.34-.31.12-.54.3-.71.55-.17.24-.25.5-.25.79,0,.45.19.82.55,1.11.36.29.89.44,1.59.44s1.31-.14,1.85-.43c.54-.28.94-.67,1.19-1.16.19-.38.29-.93.28-1.67v-.61ZM345.28,156.47c-.67.53-1.31.9-1.92,1.12-.62.22-1.28.33-1.98.33-1.17,0-2.06-.26-2.69-.78-.62-.53-.94-1.2-.94-2.02,0-.49.11-.92.35-1.32.23-.4.54-.72.92-.96.38-.24.81-.43,1.29-.55.35-.09.88-.17,1.59-.25,1.45-.16,2.52-.36,3.2-.58v-.43c0-.68-.16-1.16-.5-1.43-.46-.38-1.14-.56-2.04-.56-.85,0-1.47.14-1.87.42-.4.28-.7.76-.89,1.46l-1.75-.22c.16-.7.42-1.26.78-1.69.36-.43.89-.77,1.58-1,.69-.23,1.49-.35,2.4-.35.91,0,1.64.1,2.2.29.57.2.98.44,1.25.74.27.3.45.67.56,1.13.06.28.09.8.09,1.54v2.22c0,1.55.05,2.53.13,2.94.07.41.23.81.45,1.18h-1.88c-.18-.34-.31-.74-.36-1.21M335.05,154.1l1.77.21c-.19,1.13-.68,2.02-1.48,2.66-.79.64-1.77.96-2.93.97-1.45,0-2.62-.43-3.5-1.31-.88-.88-1.33-2.14-1.33-3.78,0-1.06.19-1.99.56-2.79.38-.8.95-1.4,1.73-1.8.77-.4,1.62-.6,2.53-.6,1.15,0,2.09.27,2.83.81.73.54,1.2,1.3,1.42,2.3l-1.75.25c-.17-.66-.46-1.16-.89-1.49-.42-.33-.93-.5-1.53-.5-.91,0-1.64.3-2.2.91-.56.6-.84,1.56-.84,2.86s.28,2.28.83,2.88c.55.6,1.26.9,2.14.89.7,0,1.29-.21,1.76-.61.47-.4.77-1.02.89-1.85M317.86,144.17h1.8s.03,13.58.03,13.58h-1.8s-.03-13.58-.03-13.58ZM307.91,151.9h5.92c-.08-.84-.31-1.46-.68-1.87-.58-.64-1.32-.96-2.23-.96-.82,0-1.52.26-2.08.77-.56.51-.87,1.2-.93,2.06M313.81,154.59l1.86.21c-.29,1.01-.83,1.79-1.62,2.35-.79.56-1.8.84-3.03.84-1.55,0-2.78-.44-3.69-1.32-.91-.88-1.37-2.12-1.37-3.72,0-1.66.45-2.94,1.37-3.86.92-.92,2.11-1.38,3.57-1.38,1.42,0,2.58.44,3.47,1.34.9.89,1.35,2.15,1.36,3.78v.44s-7.91.02-7.91.02c.07,1.08.4,1.91.99,2.48.59.57,1.33.86,2.22.86.66,0,1.22-.16,1.68-.49.47-.32.83-.83,1.1-1.54M296.38,152.88c0,1.26.29,2.2.86,2.83.57.62,1.25.93,2.03.93.78,0,1.45-.3,2-.9.55-.6.82-1.51.82-2.73,0-1.35-.28-2.33-.84-2.96-.56-.63-1.25-.94-2.07-.94-.8,0-1.46.31-2,.91-.53.61-.8,1.56-.8,2.86M302.07,157.78v-1.24c-.67.98-1.66,1.47-2.96,1.47-.85,0-1.62-.21-2.33-.64-.71-.43-1.26-1.03-1.65-1.81-.39-.77-.59-1.66-.59-2.67,0-.98.17-1.87.52-2.67.35-.8.88-1.41,1.58-1.84.7-.43,1.49-.64,2.37-.65.64,0,1.21.12,1.7.37.5.25.91.57,1.22.97v-4.87s1.77,0,1.77,0l.03,13.58h-1.67ZM284.91,144.24h1.8s.03,13.58.03,13.58h-1.8s-.03-13.58-.03-13.58ZM274.78,152.92c0,1.26.3,2.2.9,2.83.59.63,1.34.94,2.24.94.89,0,1.63-.32,2.22-.95.59-.63.88-1.59.88-2.88,0-1.22-.3-2.14-.9-2.76-.6-.62-1.34-.94-2.22-.93-.9,0-1.64.32-2.23.94-.59.63-.89,1.57-.88,2.83M272.94,152.93c0-1.82.54-3.17,1.63-4.05.91-.73,2.02-1.1,3.33-1.1,1.46,0,2.65.44,3.58,1.32.93.88,1.39,2.11,1.39,3.67,0,1.27-.2,2.27-.61,2.99-.41.73-1,1.29-1.78,1.7-.78.4-1.63.6-2.56.61-1.48,0-2.68-.43-3.6-1.32-.92-.88-1.38-2.15-1.38-3.81M266.79,157.86l-.02-9.84h1.61s0,1.49,0,1.49c.41-.7.79-1.16,1.14-1.38.35-.22.73-.34,1.15-.34.61,0,1.22.18,1.85.53l-.62,1.55c-.44-.24-.88-.36-1.31-.36-.39,0-.75.11-1.06.33-.31.22-.53.53-.67.92-.2.59-.3,1.24-.29,1.95v5.15s-1.78,0-1.78,0ZM265.05,156.37l.26,1.47c-.5.1-.96.15-1.36.15-.65,0-1.16-.09-1.52-.28-.36-.19-.61-.44-.76-.75-.15-.31-.22-.97-.22-1.97v-5.66s-1.33,0-1.33,0v-1.3s1.31,0,1.31,0v-2.44s1.78-1,1.78-1v3.44s1.81,0,1.81,0v1.3s-1.8,0-1.8,0v5.75c.01.48.04.78.11.92l.31.33c.14.08.35.12.61.12.2,0,.46-.02.79-.07M249.77,157.9l-.02-9.84h1.62s0,1.39,0,1.39c.78-1.08,1.9-1.63,3.37-1.63.64,0,1.23.1,1.76.32.54.21.94.49,1.2.84.27.34.45.76.56,1.23.07.31.1.85.1,1.62v6.05s-1.78,0-1.78,0v-5.99c-.01-.68-.08-1.19-.23-1.52-.14-.34-.39-.6-.74-.8-.36-.2-.77-.3-1.25-.3-.77,0-1.42.23-1.98.68-.55.45-.83,1.31-.82,2.57v5.37s-1.78,0-1.78,0ZM239.57,153c0,1.26.3,2.2.89,2.83.59.63,1.34.94,2.24.94.89,0,1.63-.32,2.23-.95.59-.63.88-1.59.88-2.88,0-1.22-.3-2.14-.9-2.76-.6-.62-1.34-.94-2.22-.93-.9,0-1.64.32-2.23.94-.59.63-.88,1.57-.88,2.83M237.72,153.01c0-1.82.54-3.17,1.63-4.05.91-.73,2.02-1.1,3.33-1.1,1.46,0,2.65.44,3.58,1.32.93.88,1.39,2.11,1.39,3.67,0,1.27-.2,2.27-.61,2.99-.41.73-1,1.29-1.78,1.7-.78.4-1.63.6-2.56.61-1.48,0-2.68-.43-3.6-1.32-.92-.88-1.38-2.15-1.38-3.81M235.09,154.33l1.77.21c-.19,1.13-.68,2.02-1.48,2.66-.79.64-1.77.96-2.93.97-1.45,0-2.62-.43-3.5-1.31-.88-.88-1.33-2.14-1.33-3.78,0-1.06.19-1.99.56-2.79.38-.8.95-1.4,1.73-1.8.77-.4,1.62-.6,2.53-.6,1.15,0,2.09.27,2.83.81.73.54,1.21,1.3,1.42,2.3l-1.75.25c-.17-.66-.46-1.16-.89-1.49-.42-.33-.93-.5-1.53-.5-.9,0-1.64.3-2.2.91-.56.6-.84,1.56-.84,2.86,0,1.32.28,2.28.83,2.88.55.6,1.26.9,2.14.89.71,0,1.29-.21,1.76-.61.47-.4.77-1.02.89-1.85M217.9,144.39h1.8s.03,13.58.03,13.58h-1.8s-.03-13.58-.03-13.58ZM207.95,152.13h5.92c-.08-.84-.31-1.46-.68-1.87-.57-.64-1.32-.96-2.23-.96-.82,0-1.52.26-2.08.77-.56.51-.87,1.2-.93,2.06M213.85,154.81l1.86.21c-.29,1.01-.83,1.79-1.62,2.35-.79.56-1.8.84-3.03.84-1.55,0-2.78-.44-3.69-1.32-.91-.88-1.37-2.12-1.37-3.72,0-1.66.45-2.94,1.37-3.86.92-.92,2.11-1.38,3.57-1.38,1.42,0,2.58.44,3.47,1.34.9.89,1.35,2.15,1.36,3.78v.44s-7.91.02-7.91.02c.07,1.08.4,1.91.99,2.48.59.57,1.33.86,2.21.86.66,0,1.22-.16,1.69-.49.47-.32.83-.83,1.1-1.54M194.1,158.02l-.02-9.84h1.61s0,1.49,0,1.49c.41-.7.79-1.16,1.14-1.38.35-.22.73-.34,1.15-.34.61,0,1.22.18,1.85.53l-.62,1.55c-.44-.24-.88-.36-1.32-.36-.39,0-.75.11-1.06.33-.31.22-.53.53-.67.92-.2.59-.3,1.24-.3,1.95v5.15s-1.78,0-1.78,0ZM183.92,153.13c0,1.26.3,2.2.89,2.83.59.63,1.34.94,2.24.94.89,0,1.63-.32,2.23-.95.59-.63.88-1.59.88-2.88,0-1.22-.3-2.14-.9-2.76-.6-.62-1.34-.94-2.22-.93-.9,0-1.64.32-2.23.94-.59.63-.88,1.57-.88,2.83M182.08,153.13c0-1.82.54-3.17,1.63-4.05.91-.73,2.02-1.1,3.33-1.1,1.46,0,2.65.44,3.57,1.32.93.88,1.39,2.11,1.39,3.67,0,1.27-.2,2.27-.61,2.99-.41.73-1,1.29-1.78,1.7-.78.4-1.63.6-2.56.61-1.48,0-2.68-.43-3.6-1.32-.92-.88-1.38-2.15-1.38-3.81M171.28,150.95h3.78c1.25-.01,2.14-.23,2.66-.66.52-.43.78-1.04.78-1.83,0-.57-.15-1.06-.47-1.46-.31-.4-.72-.67-1.22-.8-.33-.08-.93-.12-1.81-.12h-3.74s.01,4.86.01,4.86ZM169.36,158.08l-.03-13.58h5.52c.97-.01,1.71.03,2.22.11.72.11,1.32.32,1.81.63.48.31.88.75,1.17,1.31.3.56.45,1.18.45,1.85,0,1.16-.39,2.14-1.18,2.94-.79.8-2.22,1.2-4.29,1.21h-3.75s.01,5.53.01,5.53h-1.93Z"/><line class="cls-2" x1="167.74" y1="138.9" x2="443.82" y2="138.17"/><path class="cls-5" d="M269.24,128.44c0-1.13-.27-2.02-.8-2.65-.53-.63-1.27-.94-2.22-.94-.95,0-1.7.33-2.24.98-.54.65-.81,1.56-.81,2.72s.26,2.06.79,2.7c.53.63,1.27.95,2.22.94.9,0,1.64-.35,2.2-1.04.57-.69.85-1.59.85-2.71M271.69,133.96h-2.51s0-1.42,0-1.42c-.45.63-.97,1.11-1.57,1.41-.6.31-1.28.47-2.05.47-1.55,0-2.77-.52-3.67-1.58-.89-1.06-1.34-2.51-1.34-4.36,0-1.75.45-3.17,1.36-4.24.91-1.08,2.09-1.62,3.56-1.62.89,0,1.66.18,2.3.56.64.37,1.1.91,1.4,1.61v-1.79s2.51,0,2.51,0l.02,10.98ZM255.24,123.02h2.51s.02,10.97.02,10.97h-2.51s-.02-10.97-.02-10.97ZM254.89,118.27c0-.43.16-.79.47-1.1.31-.31.68-.46,1.11-.46.45,0,.82.15,1.12.44.3.3.45.67.45,1.12,0,.45-.15.82-.45,1.13-.3.31-.67.46-1.11.46-.43,0-.8-.16-1.11-.47-.31-.31-.47-.68-.47-1.11M243.82,116.07l.02,8.76c.29-.69.76-1.23,1.4-1.61.64-.38,1.41-.57,2.31-.57,1.46,0,2.64.53,3.55,1.61.91,1.07,1.37,2.49,1.37,4.24,0,1.85-.44,3.3-1.33,4.36-.89,1.06-2.11,1.6-3.66,1.6-.77,0-1.46-.15-2.06-.46-.6-.31-1.12-.78-1.57-1.41v1.42s-2.51,0-2.51,0l-.04-17.95h2.51ZM243.76,128.5c0,1.12.29,2.02.87,2.71.58.69,1.32,1.03,2.23,1.03.95,0,1.69-.32,2.2-.95.52-.64.78-1.54.78-2.7,0-1.16-.28-2.06-.82-2.71-.55-.65-1.29-.98-2.24-.97-.95,0-1.69.32-2.22.95-.53.64-.8,1.52-.8,2.65M223.1,134.07h-2.51s-.02-10.97-.02-10.97h2.36s0,1.79,0,1.79c.5-.77,1.07-1.33,1.7-1.68.64-.35,1.39-.53,2.25-.53s1.56.17,2.13.53c.57.36.99.9,1.29,1.64.58-.76,1.19-1.31,1.85-1.66.65-.35,1.39-.52,2.23-.53.72,0,1.36.13,1.9.4s.96.65,1.26,1.16c.14.24.25.52.31.86.07.33.1.81.1,1.43v.88s.02,6.66.02,6.66h-2.51s-.01-5.64-.01-5.64c0-1.47-.16-2.45-.48-2.91-.31-.47-.87-.7-1.67-.69-.99,0-1.69.32-2.11.95-.42.63-.63,1.73-.62,3.31v5s-2.53,0-2.53,0v-5.64c-.02-1.36-.18-2.3-.51-2.82-.33-.52-.89-.78-1.7-.78-.49,0-.94.11-1.35.34-.41.23-.73.54-.97.93-.15.26-.26.57-.32.94-.06.37-.09,1.05-.09,2.05v5ZM205.83,128.63c0-.8.15-1.56.45-2.27.3-.72.74-1.35,1.31-1.91.56-.55,1.21-.97,1.95-1.27.73-.29,1.5-.44,2.3-.44.83,0,1.6.14,2.33.43.73.29,1.38.72,1.97,1.29.58.56,1.02,1.2,1.33,1.91.3.71.45,1.45.46,2.23,0,.81-.15,1.57-.44,2.28-.29.71-.73,1.34-1.3,1.89-.6.58-1.27,1.02-2,1.32-.73.3-1.5.45-2.32.45-.8,0-1.56-.15-2.3-.44-.73-.29-1.39-.72-1.96-1.28-.58-.57-1.02-1.21-1.32-1.92-.3-.71-.45-1.46-.46-2.27M215.27,128.63c0-1.02-.33-1.88-.99-2.59-.66-.71-1.46-1.06-2.41-1.05s-1.74.36-2.4,1.07c-.66.71-.99,1.57-.99,2.59s.34,1.88,1,2.59c.66.71,1.46,1.06,2.41,1.05.94,0,1.74-.36,2.4-1.07.66-.71.99-1.57.99-2.59M200.51,116.17h2.51s.04,17.94.04,17.94h-2.51s-.04-17.94-.04-17.94ZM185.67,128.67c0-.8.15-1.56.45-2.27.3-.72.74-1.35,1.31-1.91.56-.55,1.21-.97,1.95-1.27.73-.29,1.5-.44,2.3-.44.83,0,1.6.14,2.33.43.73.29,1.38.72,1.97,1.29.58.56,1.02,1.2,1.33,1.91.3.71.45,1.45.46,2.23,0,.81-.15,1.57-.44,2.28-.29.71-.73,1.34-1.3,1.89-.6.58-1.27,1.02-2,1.32-.73.3-1.51.45-2.32.45-.8,0-1.56-.15-2.3-.44-.73-.29-1.39-.72-1.96-1.28-.58-.57-1.02-1.21-1.33-1.92-.3-.71-.45-1.46-.46-2.27M195.11,128.68c0-1.02-.33-1.88-.99-2.59-.66-.71-1.46-1.06-2.41-1.05s-1.74.36-2.4,1.07c-.66.71-.99,1.57-.99,2.59,0,1.02.34,1.88,1,2.59.66.71,1.46,1.06,2.41,1.05.94,0,1.74-.36,2.4-1.07.66-.71.99-1.57.99-2.59M183.25,121.33c-.78-.66-1.61-1.16-2.47-1.49-.87-.33-1.78-.49-2.74-.49-1.85,0-3.36.6-4.52,1.79-1.16,1.19-1.74,2.74-1.73,4.63,0,1.83.57,3.34,1.7,4.53,1.13,1.19,2.56,1.78,4.29,1.77,1,0,1.96-.18,2.86-.54.91-.36,1.77-.89,2.61-1.61v3.11c-.73.54-1.54.93-2.41,1.2-.87.27-1.82.4-2.84.4-1.3,0-2.5-.21-3.6-.63-1.1-.42-2.07-1.05-2.91-1.87-.83-.81-1.46-1.76-1.91-2.86-.44-1.1-.67-2.27-.67-3.51,0-1.25.22-2.41.66-3.5.44-1.1,1.08-2.05,1.92-2.88.84-.84,1.8-1.47,2.89-1.9,1.09-.43,2.26-.65,3.53-.65,1,0,1.95.14,2.85.43.9.29,1.78.72,2.63,1.31l-.14,2.78Z"/><path class="cls-5" d="M440.1,48.2h3.66s.06,26.15.06,26.15h-3.66s-.06-26.15-.06-26.15ZM431.34,66.33c0-1.65-.39-2.94-1.17-3.86-.77-.92-1.85-1.38-3.24-1.38-1.38,0-2.47.48-3.26,1.44-.79.95-1.18,2.27-1.18,3.96,0,1.7.39,3.01,1.15,3.93.77.92,1.85,1.38,3.24,1.38,1.32,0,2.39-.51,3.21-1.51.83-1.01,1.24-2.32,1.24-3.96M434.92,74.38h-3.66s0-2.07,0-2.07c-.65.92-1.41,1.61-2.28,2.06-.87.45-1.87.68-2.99.68-2.26,0-4.04-.76-5.35-2.31-1.3-1.54-1.96-3.66-1.96-6.35,0-2.55.65-4.62,1.98-6.19,1.32-1.58,3.05-2.36,5.19-2.37,1.3,0,2.42.26,3.35.81.93.55,1.61,1.33,2.04,2.35v-2.61s3.66,0,3.66,0l.04,16ZM399.55,74.45l-.04-16h3.45s0,2.61,0,2.61c.73-1.11,1.58-1.91,2.58-2.42.99-.51,2.19-.77,3.61-.77,1.19,0,2.21.18,3.05.56.84.38,1.49.94,1.97,1.68.28.44.49.95.61,1.53.12.59.19,1.61.19,3.07l.02,9.71h-3.7s-.02-8.21-.02-8.21c0-2.1-.26-3.5-.78-4.19-.52-.69-1.43-1.03-2.73-1.03-.86,0-1.62.16-2.29.48-.67.32-1.2.76-1.58,1.34-.27.39-.46.88-.56,1.48-.11.6-.16,1.56-.15,2.88l.02,7.29h-3.66ZM378.03,66.52c0-1.17.22-2.28.66-3.31.44-1.04,1.08-1.97,1.91-2.78.82-.8,1.77-1.42,2.84-1.85,1.06-.43,2.18-.64,3.36-.65s2.33.21,3.4.63c1.07.43,2.02,1.06,2.87,1.88.84.82,1.49,1.75,1.93,2.78.44,1.03.66,2.12.66,3.25,0,1.18-.21,2.29-.64,3.33-.43,1.04-1.06,1.95-1.89,2.76-.88.84-1.85,1.48-2.92,1.92-1.07.43-2.19.65-3.37.66-1.16,0-2.28-.21-3.35-.64-1.07-.43-2.02-1.06-2.86-1.87-.84-.83-1.49-1.77-1.93-2.8-.44-1.03-.66-2.14-.66-3.3M391.79,66.52c0-1.49-.48-2.74-1.44-3.77-.96-1.03-2.13-1.54-3.51-1.54-1.38,0-2.54.52-3.5,1.55-.96,1.03-1.44,2.29-1.44,3.78,0,1.49.49,2.74,1.45,3.77.97,1.03,2.13,1.54,3.51,1.54s2.53-.52,3.49-1.55c.96-1.03,1.44-2.29,1.44-3.78M370.3,58.52h3.66s.04,15.99.04,15.99h-3.66s-.04-15.99-.04-15.99ZM369.8,51.6c0-.62.23-1.16.68-1.61.45-.45.99-.68,1.62-.68.66,0,1.2.22,1.63.65.43.43.65.97.65,1.63,0,.65-.22,1.2-.65,1.64-.44.44-.98.67-1.62.67-.63,0-1.17-.23-1.63-.68-.46-.45-.69-1-.69-1.62M366.39,63.09c-.57-.62-1.22-1.09-1.97-1.41-.75-.33-1.56-.49-2.43-.48-1.49,0-2.69.49-3.59,1.46-.9.97-1.34,2.25-1.34,3.85,0,1.66.46,2.97,1.37,3.92.91.95,2.16,1.42,3.76,1.41.89,0,1.68-.17,2.38-.51.7-.33,1.31-.84,1.83-1.51v4.22c-.66.38-1.39.67-2.15.86-.77.19-1.59.29-2.46.29-2.51,0-4.55-.79-6.13-2.38-1.59-1.59-2.38-3.66-2.39-6.2s.81-4.66,2.44-6.24c1.63-1.59,3.77-2.38,6.42-2.39.83,0,1.6.08,2.29.24.7.16,1.35.41,1.96.74v4.12ZM345.83,66.52c0-1.65-.39-2.94-1.17-3.86-.77-.92-1.85-1.38-3.24-1.38s-2.47.48-3.26,1.44c-.79.95-1.18,2.27-1.18,3.96,0,1.7.39,3.01,1.16,3.93.77.92,1.85,1.38,3.24,1.38,1.32,0,2.39-.51,3.21-1.51.83-1.01,1.24-2.32,1.24-3.96M349.41,74.57h-3.66s0-2.07,0-2.07c-.65.92-1.41,1.61-2.28,2.06-.87.45-1.87.68-3,.68-2.26,0-4.04-.76-5.35-2.31-1.3-1.54-1.96-3.66-1.96-6.35,0-2.55.65-4.62,1.98-6.19,1.32-1.58,3.06-2.36,5.19-2.37,1.3,0,2.42.26,3.35.81.93.55,1.61,1.33,2.04,2.35v-2.61s3.66,0,3.66,0l.04,16ZM306.9,74.66l-.06-25.69,15.73,15.07c.43.42.87.88,1.31,1.36.44.48.9,1.03,1.39,1.64l-.04-17.13h3.72s.06,25.66.06,25.66l-16.05-15.34c-.43-.41-.84-.85-1.24-1.31-.4-.47-.79-.94-1.14-1.45l.04,17.18h-3.7ZM274.64,66.75c0-1.17.22-2.28.66-3.31.44-1.04,1.08-1.97,1.91-2.78.82-.8,1.77-1.42,2.84-1.85,1.07-.43,2.18-.64,3.36-.65,1.2,0,2.33.21,3.4.63,1.07.43,2.02,1.06,2.87,1.88.84.82,1.49,1.75,1.93,2.78.44,1.03.66,2.12.66,3.25,0,1.18-.21,2.29-.64,3.33-.43,1.04-1.06,1.95-1.89,2.76-.88.84-1.85,1.48-2.92,1.92-1.07.43-2.19.65-3.37.66-1.16,0-2.28-.21-3.35-.64-1.07-.43-2.02-1.06-2.85-1.87-.84-.83-1.49-1.77-1.93-2.8-.44-1.03-.66-2.14-.66-3.3M288.4,66.75c0-1.49-.49-2.74-1.44-3.77-.96-1.03-2.13-1.54-3.51-1.54s-2.54.52-3.5,1.55c-.96,1.03-1.44,2.29-1.44,3.78,0,1.49.49,2.74,1.45,3.77.97,1.03,2.13,1.54,3.51,1.54,1.37,0,2.53-.52,3.49-1.55.96-1.03,1.44-2.29,1.44-3.78M266.22,74.75l-.03-12.79h-2.8s0-3.2,0-3.2h2.8s-.01-6.07-.01-6.07h3.66s.01,6.05.01,6.05h2.8s0,3.2,0,3.2h-2.8s.03,12.8.03,12.8h-3.66ZM248.55,58.79l.02,9.01c0,1.56.33,2.67.97,3.34.64.67,1.68,1.01,3.12,1.01,1.43,0,2.48-.34,3.12-1.02.64-.68.96-1.79.95-3.34l-.02-9.01h3.66s.02,7.91.02,7.91c0,3.06-.6,5.28-1.82,6.67-1.22,1.39-3.18,2.08-5.87,2.09-2.73,0-4.71-.67-5.94-2.04-1.23-1.38-1.84-3.6-1.85-6.68l-.02-7.92h3.66ZM235.43,74.82l-.03-12.79h-2.8s0-3.2,0-3.2h2.8s-.01-6.07-.01-6.07h3.66s.01,6.05.01,6.05h2.8s0,3.2,0,3.2h-2.8s.03,12.8.03,12.8h-3.66ZM225.64,58.84h3.66s.04,15.99.04,15.99h-3.66s-.04-15.99-.04-15.99ZM225.13,51.93c0-.62.23-1.16.68-1.61.45-.45,1-.68,1.62-.68.66,0,1.2.22,1.63.65.43.43.65.97.65,1.63,0,.65-.22,1.2-.65,1.64-.44.44-.98.67-1.62.67s-1.17-.23-1.63-.68c-.46-.45-.69-1-.69-1.62M215.88,74.86l-.03-12.79h-2.8s0-3.2,0-3.2h2.8s-.01-6.07-.01-6.07h3.66s.01,6.05.01,6.05h2.8s0,3.2,0,3.2h-2.8s.03,12.8.03,12.8h-3.66ZM198.46,72l3.03-1.66c.23.8.64,1.4,1.25,1.82.61.41,1.39.62,2.35.62.82,0,1.46-.19,1.93-.57.47-.38.7-.89.7-1.55,0-.87-.83-1.61-2.5-2.22-.56-.2-1-.37-1.3-.5-1.71-.7-2.91-1.42-3.59-2.15-.68-.73-1.02-1.62-1.03-2.67,0-1.43.55-2.59,1.68-3.48,1.12-.89,2.6-1.34,4.44-1.34,1.24,0,2.3.22,3.19.68.88.45,1.53,1.1,1.93,1.94l-2.59,1.8c-.19-.51-.53-.91-1.01-1.21-.48-.3-1.03-.45-1.67-.45-.7,0-1.26.17-1.67.51-.42.33-.63.77-.63,1.33,0,.83.95,1.59,2.84,2.28.6.21,1.06.38,1.38.52,1.48.58,2.53,1.24,3.17,1.97.64.74.96,1.65.96,2.76,0,1.6-.58,2.85-1.73,3.75-1.16.91-2.75,1.37-4.79,1.37-1.57,0-2.86-.29-3.9-.87-1.04-.58-1.85-1.48-2.44-2.68M179.98,74.94l-.04-16h3.45s0,2.61,0,2.61c.73-1.11,1.58-1.91,2.58-2.42.99-.51,2.19-.77,3.61-.77,1.19,0,2.21.18,3.05.56.84.38,1.49.94,1.97,1.68.28.44.49.95.61,1.53.12.59.19,1.61.19,3.07l.02,9.71h-3.7s-.02-8.21-.02-8.21c0-2.1-.26-3.5-.78-4.19-.51-.69-1.43-1.03-2.73-1.03-.86,0-1.62.16-2.29.48-.67.32-1.2.76-1.58,1.34-.27.39-.46.88-.56,1.48-.11.6-.16,1.56-.15,2.88l.02,7.29h-3.66ZM170.45,50.26h4.02s.06,24.7.06,24.7h-4.02s-.06-24.7-.06-24.7Z"/><path class="cls-5" d="M423.22,100c0-1.65-.39-2.94-1.16-3.86-.78-.92-1.85-1.38-3.24-1.37-1.38,0-2.47.48-3.26,1.44-.79.95-1.18,2.27-1.18,3.96,0,1.7.39,3.01,1.15,3.93.77.92,1.85,1.38,3.24,1.38,1.32,0,2.39-.51,3.21-1.51.83-1.01,1.24-2.32,1.23-3.96M426.8,108.05h-3.66s0-2.07,0-2.07c-.65.92-1.41,1.61-2.28,2.06-.87.45-1.86.68-3,.68-2.26,0-4.04-.76-5.34-2.31-1.3-1.54-1.96-3.66-1.96-6.35,0-2.55.65-4.62,1.98-6.19,1.32-1.58,3.05-2.36,5.19-2.37,1.3,0,2.42.26,3.35.81.93.54,1.61,1.33,2.04,2.34v-2.61s3.66,0,3.66,0l.04,16ZM402.26,89.68l3.2-4.6h3.8s-4.92,4.59-4.92,4.59h-2.07ZM402.83,92.1h3.66s.04,15.99.04,15.99h-3.66s-.04-15.99-.04-15.99ZM397.62,107.12c0,3.13-.61,5.34-1.86,6.61-1.25,1.28-3.35,1.93-6.31,1.93-2.2,0-3.97-.46-5.29-1.38-1.32-.92-1.99-2.16-2.01-3.7l3.93-.03c.06.69.38,1.21.97,1.57.59.36,1.41.54,2.47.54,1.56,0,2.69-.35,3.37-1.04.69-.69,1.03-1.84,1.04-3.45l.03-2.13c-.65.92-1.41,1.61-2.28,2.06-.87.45-1.86.68-2.99.68-2.26,0-4.04-.76-5.35-2.31-1.3-1.54-1.96-3.66-1.96-6.35,0-2.55.65-4.62,1.98-6.19,1.32-1.58,3.05-2.36,5.19-2.37,1.3,0,2.42.26,3.35.81.93.54,1.61,1.33,2.04,2.34v-2.61s3.66,0,3.66,0l.03,15ZM394.05,100.07c0-1.65-.39-2.94-1.17-3.86-.77-.92-1.85-1.38-3.23-1.37-1.38,0-2.47.48-3.26,1.44-.79.95-1.18,2.27-1.18,3.96,0,1.7.39,3.01,1.16,3.93.77.92,1.85,1.38,3.24,1.38,1.32,0,2.39-.51,3.21-1.51.83-1.01,1.24-2.32,1.24-3.96M361.05,100.21c0-1.17.22-2.27.66-3.31.44-1.04,1.08-1.97,1.91-2.78.82-.8,1.77-1.42,2.84-1.85,1.06-.43,2.18-.64,3.36-.65,1.2,0,2.33.21,3.4.63,1.07.43,2.02,1.06,2.87,1.88.84.82,1.49,1.75,1.93,2.78.44,1.03.66,2.12.66,3.25,0,1.18-.21,2.29-.64,3.33-.43,1.04-1.06,1.96-1.89,2.76-.88.84-1.85,1.49-2.92,1.92-1.07.44-2.19.66-3.37.66s-2.28-.21-3.35-.64c-1.07-.43-2.02-1.06-2.86-1.87-.84-.83-1.49-1.76-1.93-2.8-.44-1.03-.66-2.14-.66-3.31M374.81,100.21c0-1.49-.48-2.74-1.44-3.77-.96-1.03-2.13-1.54-3.51-1.54s-2.54.52-3.5,1.55c-.96,1.03-1.44,2.29-1.44,3.78,0,1.49.49,2.74,1.46,3.77.96,1.03,2.13,1.54,3.51,1.54s2.53-.52,3.49-1.55c.96-1.03,1.44-2.29,1.44-3.78M353.31,82.05h3.66s.06,26.15.06,26.15h-3.66s-.06-26.15-.06-26.15ZM331.67,100.28c0-1.17.22-2.27.66-3.31.44-1.04,1.08-1.97,1.91-2.78.82-.8,1.77-1.42,2.84-1.85,1.06-.43,2.18-.64,3.36-.65,1.2,0,2.33.21,3.4.63,1.07.43,2.02,1.06,2.87,1.88.84.82,1.49,1.75,1.93,2.78.44,1.03.66,2.12.66,3.25,0,1.18-.21,2.29-.64,3.33-.43,1.04-1.06,1.96-1.89,2.76-.88.84-1.85,1.49-2.92,1.92-1.07.44-2.19.66-3.37.66s-2.28-.21-3.35-.64c-1.07-.43-2.02-1.06-2.86-1.87-.84-.83-1.49-1.76-1.93-2.8-.44-1.03-.66-2.14-.66-3.31M345.43,100.28c0-1.49-.48-2.74-1.44-3.77-.96-1.03-2.13-1.54-3.51-1.54-1.38,0-2.54.52-3.5,1.55-.96,1.03-1.44,2.29-1.44,3.78,0,1.49.49,2.74,1.45,3.77.96,1.03,2.13,1.54,3.51,1.54,1.37,0,2.53-.52,3.49-1.55.96-1.03,1.44-2.29,1.44-3.78M323.78,94.83c.39-1.06.91-1.84,1.56-2.35.64-.51,1.44-.76,2.41-.77.51,0,1.03.06,1.53.18.5.13.99.3,1.48.54l-1.31,3.11c-.31-.22-.65-.39-1.02-.49-.36-.11-.77-.16-1.22-.16-1.22,0-2.08.49-2.61,1.46-.53.97-.79,2.61-.78,4.91l.02,7.02h-3.66s-.04-16.03-.04-16.03h3.66s0,2.57,0,2.57ZM312.51,98.38c-.15-1.15-.59-2.02-1.32-2.62-.73-.6-1.73-.9-3-.9-1.2,0-2.17.3-2.9.88-.73.59-1.24,1.47-1.53,2.65l8.76-.02ZM316.32,100.84l-12.8.03c.1,1.5.54,2.66,1.34,3.5.8.83,1.86,1.25,3.19,1.25,1.18,0,2.17-.25,2.95-.75.79-.5,1.47-1.3,2.06-2.4l3.09,1.72c-.89,1.61-2.01,2.81-3.33,3.6-1.33.79-2.88,1.19-4.67,1.19-2.56,0-4.61-.77-6.13-2.33-1.52-1.56-2.29-3.65-2.3-6.26,0-2.51.77-4.57,2.34-6.19,1.56-1.62,3.58-2.43,6.04-2.43,2.58,0,4.59.73,6.03,2.2,1.44,1.47,2.17,3.53,2.17,6.19v.69ZM297.15,96.9c-.57-.62-1.22-1.09-1.97-1.41-.75-.33-1.56-.49-2.43-.48-1.49,0-2.69.49-3.59,1.46-.9.97-1.34,2.25-1.34,3.85,0,1.66.46,2.97,1.37,3.92.91.95,2.16,1.42,3.76,1.41.89,0,1.68-.17,2.38-.51.7-.33,1.31-.84,1.83-1.51v4.22c-.66.38-1.39.67-2.15.86-.77.19-1.59.29-2.46.29-2.51,0-4.55-.79-6.14-2.38-1.59-1.59-2.38-3.66-2.39-6.21,0-2.57.81-4.66,2.44-6.24,1.63-1.59,3.77-2.38,6.42-2.39.83,0,1.6.08,2.29.24.7.16,1.35.41,1.96.75v4.12ZM264.9,108.41l-.04-16h3.44s0,2.61,0,2.61c.73-1.11,1.59-1.91,2.58-2.42.99-.51,2.19-.77,3.61-.77,1.19,0,2.21.18,3.05.56.84.38,1.49.94,1.97,1.68.28.44.49.95.61,1.53.12.59.19,1.61.19,3.07l.02,9.71h-3.7s-.02-8.21-.02-8.21c0-2.1-.26-3.5-.78-4.19-.51-.69-1.42-1.03-2.73-1.03-.86,0-1.62.16-2.29.48-.67.32-1.2.76-1.57,1.33-.27.39-.46.88-.56,1.48-.11.6-.16,1.56-.15,2.88l.02,7.29h-3.66ZM256.26,100.38c0-1.65-.39-2.94-1.17-3.86-.77-.92-1.85-1.38-3.24-1.37s-2.47.48-3.26,1.44c-.79.95-1.18,2.27-1.18,3.96,0,1.7.39,3.01,1.16,3.93.77.92,1.85,1.38,3.24,1.38,1.32,0,2.39-.51,3.21-1.51.83-1.01,1.24-2.32,1.23-3.96M259.84,108.42h-3.66s0-2.07,0-2.07c-.65.92-1.41,1.61-2.28,2.06-.87.45-1.86.68-2.99.68-2.26,0-4.04-.76-5.35-2.31-1.3-1.54-1.96-3.66-1.96-6.35,0-2.55.65-4.62,1.98-6.19,1.32-1.58,3.05-2.36,5.19-2.37,1.3,0,2.42.26,3.35.81.93.54,1.61,1.33,2.04,2.34v-2.61s3.66,0,3.66,0l.04,16ZM240.07,89.76c-1.14-.97-2.34-1.69-3.61-2.17-1.27-.48-2.6-.72-3.99-.72-2.7,0-4.89.88-6.58,2.61-1.69,1.74-2.53,3.99-2.53,6.74,0,2.67.83,4.87,2.49,6.6,1.65,1.73,3.73,2.59,6.25,2.58,1.46,0,2.85-.27,4.17-.79,1.32-.52,2.58-1.3,3.8-2.35v4.54c-1.07.78-2.24,1.36-3.51,1.74-1.27.39-2.65.58-4.14.59-1.89,0-3.64-.3-5.24-.91-1.6-.62-3.02-1.53-4.23-2.73-1.21-1.18-2.13-2.57-2.79-4.17-.65-1.6-.98-3.31-.98-5.12s.31-3.51.96-5.11c.65-1.6,1.58-2.99,2.8-4.2,1.22-1.22,2.63-2.14,4.22-2.77,1.58-.63,3.3-.95,5.14-.95,1.45,0,2.83.21,4.16.62,1.31.42,2.59,1.05,3.84,1.9l-.21,4.05ZM201.91,98.62c-.15-1.15-.59-2.02-1.32-2.62-.73-.6-1.73-.9-3-.9-1.2,0-2.17.3-2.9.88-.73.59-1.24,1.47-1.53,2.65l8.76-.02ZM205.71,101.08l-12.8.03c.1,1.5.54,2.66,1.34,3.5.8.83,1.86,1.25,3.19,1.25,1.18,0,2.17-.25,2.95-.75.79-.5,1.47-1.3,2.06-2.4l3.09,1.72c-.89,1.61-2.01,2.81-3.33,3.6-1.33.79-2.88,1.19-4.68,1.19-2.56,0-4.61-.77-6.13-2.33-1.52-1.56-2.29-3.65-2.3-6.26,0-2.51.77-4.57,2.34-6.19,1.56-1.62,3.58-2.43,6.04-2.43,2.58,0,4.59.73,6.03,2.2,1.44,1.47,2.17,3.53,2.17,6.19v.69ZM181.53,82.43h3.66s.06,26.15.06,26.15h-3.66s0-2.07,0-2.07c-.65.92-1.41,1.61-2.28,2.06-.87.45-1.87.68-2.99.68-2.26,0-4.04-.76-5.35-2.31-1.3-1.54-1.96-3.66-1.96-6.35,0-2.55.65-4.62,1.98-6.19,1.32-1.58,3.05-2.36,5.19-2.37,1.3,0,2.42.26,3.35.81.93.54,1.61,1.33,2.04,2.34l-.03-12.77ZM181.68,100.54c0-1.65-.39-2.94-1.17-3.86-.77-.92-1.85-1.38-3.24-1.37-1.38,0-2.47.48-3.26,1.44-.79.95-1.18,2.27-1.18,3.96s.39,3.01,1.16,3.93c.77.92,1.85,1.38,3.24,1.38,1.33,0,2.4-.5,3.22-1.5.82-1,1.23-2.32,1.22-3.97"/><polygon class="cls-3" points="87.92 135.78 87.94 142.59 77.34 142.61 77.33 135.8 71.66 135.81 71.64 128.03 77.52 128.01 82.46 57.28 87.7 127.99 93.57 127.98 93.59 135.76 87.92 135.78"/><path class="cls-4" d="M87.07,33.67c28.54-.06,53.18,16.77,64.46,41.06l-18.02,6.75c-8.49-17.02-26.09-28.7-46.4-28.65-28.55.06-51.65,23.27-51.58,51.81.06,28.55,23.27,51.65,51.81,51.58,19.95-.04,37.24-11.39,45.82-27.96l18.36,6.07c-11.23,24.18-35.71,40.99-64.13,41.05-39.13.09-70.93-31.57-71.01-70.7-.09-39.13,31.57-70.93,70.7-71.01"/><path class="cls-1" d="M87.07,33.67c28.54-.06,53.18,16.77,64.46,41.06l-18.02,6.75c-8.49-17.02-26.09-28.7-46.4-28.65-28.55.06-51.65,23.27-51.58,51.81.06,28.55,23.27,51.65,51.81,51.58,19.95-.04,37.24-11.39,45.82-27.96l18.36,6.07c-11.23,24.18-35.71,40.99-64.13,41.05-39.13.09-70.93-31.57-71.01-70.7-.09-39.13,31.57-70.93,70.7-71.01Z"/><rect class="cls-6" x="52.93" y="85.55" width="13.11" height="40.35" transform="translate(-.24 .13) rotate(-.13)"/><polygon class="cls-4" points="122.16 85.41 132.16 85.39 132.25 125.74 122.25 125.76 109.1 102.8 109.15 125.79 99.15 125.81 99.06 85.47 109.06 85.44 122.21 108.56 122.16 85.41"/></svg>