<?xml version="1.0" encoding="UTF-8"?><svg id="Capa_1" xmlns="http://www.w3.org/2000/svg" viewBox="0 0 514.03 134.35"><defs><style>.cls-1{fill:#077c8b;}.cls-1,.cls-2,.cls-3{stroke-width:0px;}.cls-2{fill:#1da290;}.cls-3{fill:#fff;}</style></defs><path class="cls-1" d="M207.31,21.43v-3.07c0-1.06-.36-1.93-1.09-2.63-.72-.69-1.61-1.04-2.67-1.04h-3.76c-.99,0-1.86.35-2.62,1.03-.76.69-1.14,1.56-1.14,2.61v42.73c0,1.05.38,1.94,1.14,2.66.76.72,1.63,1.08,2.62,1.08h3.76c1.05,0,1.94-.36,2.67-1.09s1.09-1.61,1.09-2.67v-6.71h10.11v8.56c0,1.51-.3,2.94-.89,4.28s-1.39,2.53-2.41,3.54-2.2,1.82-3.54,2.41c-1.34.59-2.77.89-4.28.89h-9.25c-1.51,0-2.94-.3-4.28-.88-1.34-.59-2.52-1.39-3.54-2.41-1.02-1.02-1.82-2.2-2.41-3.54s-.89-2.77-.89-4.28V16.49c0-1.51.3-2.95.89-4.33.59-1.38,1.39-2.57,2.41-3.59,1.02-1.02,2.2-1.82,3.54-2.41s2.77-.89,4.28-.89h9.25c1.51,0,2.94.3,4.28.89s2.52,1.39,3.54,2.41,1.82,2.22,2.41,3.59.89,2.82.89,4.33v4.92h-10.11Z"/><path class="cls-1" d="M240.54,20.45c1.51,0,2.93.3,4.28.88,1.34.59,2.52,1.39,3.54,2.41,1.02,1.02,1.82,2.2,2.41,3.54s.89,2.8.89,4.37v31.35c0,1.51-.3,2.93-.89,4.28s-1.39,2.52-2.41,3.54c-1.02,1.02-2.2,1.82-3.54,2.41s-2.77.88-4.28.88h-8.46c-1.51,0-2.93-.3-4.28-.88s-2.52-1.39-3.54-2.41c-1.02-1.02-1.82-2.2-2.41-3.54s-.89-2.77-.89-4.28v-31.35c0-1.57.3-3.03.89-4.37s1.39-2.52,2.41-3.54c1.02-1.02,2.2-1.82,3.54-2.41,1.34-.59,2.77-.88,4.28-.88h8.46ZM241.46,33.41c0-.98-.36-1.85-1.09-2.61s-1.61-1.13-2.67-1.13h-2.87c-.99,0-1.86.38-2.62,1.13-.76.75-1.14,1.62-1.14,2.61v27.74c0,.98.38,1.84,1.14,2.56.76.72,1.63,1.08,2.62,1.08h2.87c1.05,0,1.94-.36,2.67-1.08.72-.72,1.09-1.57,1.09-2.56v-27.74Z"/><path class="cls-2" d="M276.59,21.43v-3.07c0-1.06-.36-1.93-1.09-2.63-.72-.69-1.61-1.04-2.67-1.04h-3.76c-.99,0-1.86.35-2.62,1.03-.76.69-1.14,1.56-1.14,2.61v42.73c0,1.05.38,1.94,1.14,2.66.76.72,1.63,1.08,2.62,1.08h3.76c1.05,0,1.94-.36,2.67-1.09s1.09-1.61,1.09-2.67v-6.71h10.11v8.56c0,1.51-.3,2.94-.89,4.28s-1.39,2.53-2.41,3.54-2.2,1.82-3.54,2.41c-1.34.59-2.77.89-4.28.89h-9.25c-1.51,0-2.94-.3-4.28-.88-1.34-.59-2.52-1.39-3.54-2.41-1.02-1.02-1.82-2.2-2.41-3.54s-.89-2.77-.89-4.28V16.49c0-1.51.3-2.95.89-4.33.59-1.38,1.39-2.57,2.41-3.59,1.02-1.02,2.2-1.82,3.54-2.41s2.77-.89,4.28-.89h9.25c1.51,0,2.94.3,4.28.89s2.52,1.39,3.54,2.41,1.82,2.22,2.41,3.59.89,2.82.89,4.33v4.92h-10.11Z"/><path class="cls-2" d="M309.78,20.45c1.38,0,2.7.26,3.98.79,1.28.52,2.41,1.24,3.39,2.16l-7.57,7.46c-.66-.79-1.54-1.18-2.66-1.18h-2.75c-1.05,0-1.93.38-2.66,1.13-.72.75-1.08,1.62-1.08,2.61v39.72h-10.2V21.43h10.2v1.38c.92-.72,1.95-1.29,3.1-1.72s2.38-.64,3.69-.64h2.56Z"/><path class="cls-2" d="M318.09,38.37v-6.69c0-1.57.3-3.03.89-4.38.59-1.34,1.38-2.53,2.36-3.54s2.15-1.82,3.49-2.41c1.34-.59,2.8-.89,4.38-.89h8.27c1.51,0,2.94.3,4.28.88,1.34.59,2.53,1.38,3.54,2.36,1.02.98,1.82,2.13,2.41,3.44.59,1.31.89,2.72.89,4.23v16.41h-20.31v12.4c0,1.05.36,1.94,1.09,2.66.72.72,1.62,1.08,2.67,1.08h2.77c.99,0,1.86-.36,2.62-1.08.76-.72,1.14-1.6,1.14-2.65v-1.77h10.11v3.53c0,1.57-.3,3.03-.89,4.37s-1.39,2.52-2.41,3.53-2.2,1.82-3.54,2.41-2.8.88-4.38.88h-8.26c-1.57,0-3.03-.29-4.38-.88s-2.51-1.39-3.49-2.41-1.77-2.2-2.36-3.54-.89-2.77-.89-4.28v-14.26h-13.77v-9.4h13.77ZM328.29,38.37h10.29v-4.94c0-.99-.38-1.86-1.14-2.62-.76-.76-1.63-1.14-2.62-1.14h-2.77c-1.06,0-1.95.38-2.67,1.14-.73.76-1.09,1.63-1.09,2.62v4.94Z"/><path class="cls-2" d="M383.81,73.13h-10.2v-1.38c-1.97,1.57-4.23,2.35-6.79,2.35h-3.44c-1.51,0-2.94-.3-4.28-.88-1.34-.59-2.52-1.39-3.54-2.41-1.02-1.02-1.82-2.2-2.41-3.54s-.88-2.77-.88-4.28v-12.09c0-1.57.29-3.03.88-4.37s1.39-2.52,2.41-3.54c1.02-1.02,2.2-1.82,3.54-2.41s2.77-.89,4.28-.89h6.49c1.05,0,1.93-.36,2.66-1.08s1.08-1.6,1.08-2.65v-2.56c0-.98-.36-1.85-1.08-2.6-.72-.75-1.61-1.13-2.66-1.13h-2.76c-1.05,0-1.94.38-2.66,1.13-.72.76-1.08,1.63-1.08,2.61v.69h-10.15v-2.46c0-1.57.3-3.03.89-4.37.59-1.34,1.39-2.52,2.41-3.54,1.02-1.01,2.2-1.82,3.54-2.41,1.34-.59,2.77-.88,4.28-.88h8.36c1.57,0,3.03.3,4.38.89s2.51,1.39,3.49,2.41c.98,1.02,1.77,2.2,2.36,3.54.59,1.34.89,2.8.89,4.37v41.48ZM373.61,46.66c-2.04,1.5-4.35,2.26-6.92,2.26h-.59c-.99,0-1.86.36-2.62,1.09-.76.72-1.14,1.64-1.14,2.76v8.38c0,.99.38,1.84,1.14,2.57.76.72,1.63,1.08,2.62,1.08h3.76c1.05,0,1.94-.36,2.67-1.08s1.09-1.58,1.09-2.56v-14.49Z"/><path class="cls-2" d="M422.55,20.45c1.51,0,2.93.3,4.28.89,1.34.59,2.52,1.39,3.54,2.41,1.02,1.02,1.82,2.2,2.41,3.54.59,1.34.89,2.8.89,4.37v41.48h-10.11v-39.72c0-.98-.36-1.85-1.08-2.61-.72-.75-1.61-1.13-2.66-1.13h-.49c-.99,0-1.86.36-2.61,1.08-.76.72-1.13,1.61-1.13,2.65v39.72h-10.11v-39.72c0-.98-.36-1.85-1.09-2.61s-1.61-1.13-2.66-1.13h-.39c-1.05,0-1.94.38-2.66,1.13s-1.09,1.62-1.09,2.61v39.72h-10.2V21.43h10.2l.02,1.38c.92-.72,1.97-1.29,3.14-1.72,1.18-.42,2.43-.64,3.74-.64,1.9,0,3.62.43,5.16,1.28,1.54.85,2.83,2,3.88,3.44.2-.33.42-.66.69-.98.26-.33.49-.59.69-.79.26-.26.49-.46.69-.59.98-.72,2.06-1.29,3.24-1.72s2.43-.64,3.74-.64Z"/><path class="cls-2" d="M456.82,20.45c1.51,0,2.93.3,4.28.88,1.34.59,2.52,1.39,3.54,2.41,1.02,1.02,1.82,2.2,2.41,3.54s.89,2.8.89,4.37v31.35c0,1.51-.3,2.93-.89,4.28s-1.39,2.52-2.41,3.54c-1.02,1.02-2.2,1.82-3.54,2.41s-2.77.88-4.28.88h-8.46c-1.51,0-2.93-.3-4.28-.88s-2.52-1.39-3.54-2.41c-1.02-1.02-1.82-2.2-2.41-3.54s-.89-2.77-.89-4.28v-31.35c0-1.57.3-3.03.89-4.37s1.39-2.52,2.41-3.54c1.02-1.02,2.2-1.82,3.54-2.41,1.34-.59,2.77-.88,4.28-.88h8.46ZM457.74,33.41c0-.98-.36-1.85-1.09-2.61s-1.61-1.13-2.67-1.13h-2.87c-.99,0-1.86.38-2.62,1.13-.76.75-1.14,1.62-1.14,2.61v27.74c0,.98.38,1.84,1.14,2.56.76.72,1.63,1.08,2.62,1.08h2.87c1.05,0,1.94-.36,2.67-1.08.72-.72,1.09-1.57,1.09-2.56v-27.74Z"/><path class="cls-2" d="M502.09,63c0,1.51-.3,2.93-.89,4.28s-1.39,2.52-2.41,3.54-2.2,1.82-3.54,2.41c-1.34.59-2.77.88-4.28.88h-8.36c-1.51,0-2.94-.3-4.28-.88-1.34-.59-2.52-1.39-3.54-2.41s-1.82-2.19-2.41-3.53-.89-2.77-.89-4.27v-7.27h10.11v5.41c0,.98.38,1.84,1.14,2.56.76.72,1.63,1.08,2.62,1.08h2.87c1.05,0,1.94-.36,2.67-1.09s1.09-1.58,1.09-2.57v-7.5c0-.99-.36-1.86-1.08-2.62-.72-.76-1.61-1.13-2.66-1.13h-5.61c-1.51,0-2.94-.29-4.28-.88-1.35-.59-2.53-1.37-3.55-2.36-1.02-.98-1.82-2.14-2.41-3.49s-.89-2.8-.89-4.37v-7.17c0-1.57.29-3.03.88-4.37s1.39-2.52,2.41-3.53,2.19-1.82,3.53-2.4,2.76-.88,4.27-.88h7.38c1.57,0,3.03.3,4.38.88,1.34.59,2.51,1.39,3.49,2.41.98,1.02,1.77,2.2,2.36,3.54.59,1.34.89,2.8.89,4.37v2.46h-10.13v-.69c0-.98-.36-1.85-1.08-2.61-.72-.76-1.61-1.13-2.66-1.13h-1.87c-.98,0-1.85.38-2.61,1.13s-1.13,1.62-1.13,2.6v2.56c0,1.05.38,1.93,1.13,2.65s1.63,1.08,2.61,1.08h5.61c1.51,0,2.94.3,4.28.89,1.35.59,2.53,1.39,3.55,2.41,1.02,1.02,1.82,2.2,2.41,3.54s.89,2.8.89,4.37v12.09Z"/><path class="cls-2" d="M185.94,100.3v-22.85h1.84v21.13h8.46v1.72h-10.3Z"/><path class="cls-2" d="M206.87,100.36c-.28.06-.51.1-.7.12-.19.02-.37.03-.55.03-.45,0-.83-.12-1.13-.35-.3-.23-.54-.6-.71-1.09-.48.57-1.03,1-1.65,1.29-.62.29-1.31.43-2.07.43-1.24,0-2.21-.41-2.9-1.24-.7-.82-1.05-1.97-1.05-3.44,0-1.29.31-2.32.94-3.11.62-.78,1.7-1.47,3.24-2.07.32-.12.75-.27,1.3-.46,1.48-.51,2.22-1.18,2.22-2.02v-1.41c0-.9-.19-1.55-.58-1.96-.39-.41-1.02-.61-1.9-.61-.93,0-1.63.26-2.12.79-.48.53-.74,1.32-.77,2.37h-1.74v-.36c0-1.29.42-2.31,1.27-3.07.85-.76,1.99-1.14,3.41-1.14.85,0,1.56.1,2.14.31.58.21,1.04.53,1.39.97.24.3.41.65.52,1.06.1.4.16.99.16,1.76v10c0,.85.07,1.37.22,1.57.15.2.44.3.88.3h.18v1.32ZM203.74,91.29c-2.6,1.01-4.21,1.82-4.83,2.44-.62.62-.94,1.42-.94,2.4s.22,1.7.66,2.25c.44.55,1.04.82,1.8.82,1.14,0,1.97-.41,2.51-1.24.53-.82.8-2.12.8-3.89v-2.78Z"/><path class="cls-2" d="M208.77,100.3v-22.85h1.78v7.58c.41-.69.91-1.2,1.5-1.54.59-.34,1.27-.51,2.05-.51,1.74,0,3.03.74,3.89,2.22.85,1.48,1.28,3.72,1.28,6.74s-.41,5.32-1.22,6.72c-.81,1.41-2.09,2.11-3.84,2.11-.76,0-1.43-.18-2.02-.54-.59-.36-1.13-.92-1.63-1.68v1.75h-1.78ZM210.55,91.87c0,2.66.27,4.54.8,5.67.53,1.12,1.41,1.68,2.63,1.68s2.03-.57,2.56-1.71c.53-1.14.79-3,.79-5.59s-.28-4.38-.83-5.56c-.55-1.18-1.42-1.77-2.58-1.77s-2.06.55-2.58,1.66c-.52,1.11-.79,2.98-.79,5.62Z"/><path class="cls-2" d="M221.4,91.93c0-2.95.45-5.17,1.36-6.65.9-1.48,2.25-2.22,4.05-2.22s3.14.74,4.04,2.22c.9,1.48,1.35,3.69,1.35,6.65s-.45,5.17-1.34,6.63c-.89,1.47-2.24,2.2-4.05,2.2s-3.17-.73-4.07-2.2c-.89-1.47-1.34-3.68-1.34-6.63ZM223.33,91.93c0,2.38.29,4.17.88,5.38.58,1.21,1.45,1.82,2.6,1.82s2.02-.61,2.61-1.83c.59-1.22.88-3.01.88-5.38s-.29-4.16-.88-5.38c-.59-1.22-1.46-1.83-2.61-1.83s-2.01.61-2.6,1.82c-.58,1.21-.88,3.01-.88,5.38Z"/><path class="cls-2" d="M234.83,100.3v-16.83h1.78v1.84c.38-.72.87-1.25,1.46-1.59.59-.34,1.33-.51,2.22-.51h.33v1.81c-1.54.06-2.59.45-3.16,1.18-.57.72-.85,2.17-.85,4.35v9.75h-1.78Z"/><path class="cls-2" d="M251.85,100.36c-.28.06-.51.1-.7.12-.19.02-.37.03-.55.03-.45,0-.83-.12-1.13-.35-.3-.23-.54-.6-.71-1.09-.48.57-1.03,1-1.65,1.29-.62.29-1.31.43-2.07.43-1.24,0-2.21-.41-2.9-1.24-.7-.82-1.05-1.97-1.05-3.44,0-1.29.31-2.32.94-3.11.62-.78,1.7-1.47,3.24-2.07.32-.12.75-.27,1.3-.46,1.48-.51,2.22-1.18,2.22-2.02v-1.41c0-.9-.19-1.55-.58-1.96-.39-.41-1.02-.61-1.9-.61-.93,0-1.63.26-2.12.79-.48.53-.74,1.32-.77,2.37h-1.74v-.36c0-1.29.42-2.31,1.27-3.07.85-.76,1.99-1.14,3.41-1.14.85,0,1.56.1,2.14.31.58.21,1.04.53,1.39.97.24.3.41.65.52,1.06.1.4.16.99.16,1.76v10c0,.85.07,1.37.22,1.57.15.2.44.3.88.3h.18v1.32ZM248.72,91.29c-2.6,1.01-4.21,1.82-4.83,2.44-.62.62-.94,1.42-.94,2.4s.22,1.7.66,2.25c.44.55,1.04.82,1.8.82,1.14,0,1.97-.41,2.51-1.24.53-.82.8-2.12.8-3.89v-2.78Z"/><path class="cls-2" d="M258.14,100.39c-.21.05-.42.09-.64.11-.21.02-.46.04-.74.04-1.03,0-1.73-.24-2.1-.73-.37-.48-.56-1.67-.56-3.56v-11.29h-1.69v-1.5h1.69v-4.76h1.77v4.76h2.28v1.5h-2.28v11.65c0,1.13.1,1.82.29,2.09.19.26.56.4,1.1.4.11,0,.24,0,.39-.02.15-.02.31-.04.49-.07v1.38Z"/><path class="cls-2" d="M259.48,91.93c0-2.95.45-5.17,1.36-6.65.9-1.48,2.25-2.22,4.05-2.22s3.14.74,4.04,2.22c.9,1.48,1.35,3.69,1.35,6.65s-.45,5.17-1.34,6.63c-.89,1.47-2.24,2.2-4.05,2.2s-3.17-.73-4.07-2.2c-.89-1.47-1.34-3.68-1.34-6.63ZM261.41,91.93c0,2.38.29,4.17.88,5.38.58,1.21,1.45,1.82,2.6,1.82s2.02-.61,2.61-1.83c.59-1.22.88-3.01.88-5.38s-.29-4.16-.88-5.38c-.59-1.22-1.46-1.83-2.61-1.83s-2.01.61-2.6,1.82c-.58,1.21-.88,3.01-.88,5.38Z"/><path class="cls-2" d="M272.91,100.3v-16.83h1.78v1.84c.38-.72.87-1.25,1.46-1.59.59-.34,1.33-.51,2.22-.51h.33v1.81c-1.54.06-2.59.45-3.16,1.18-.57.72-.85,2.17-.85,4.35v9.75h-1.78Z"/><path class="cls-2" d="M280.86,80.37v-2.92h2.02v2.92h-2.02ZM280.92,100.3v-16.83h1.87v16.83h-1.87Z"/><path class="cls-2" d="M285.92,91.93c0-2.95.45-5.17,1.36-6.65.9-1.48,2.25-2.22,4.05-2.22s3.14.74,4.04,2.22c.9,1.48,1.35,3.69,1.35,6.65s-.45,5.17-1.34,6.63c-.89,1.47-2.24,2.2-4.05,2.2s-3.17-.73-4.07-2.2c-.89-1.47-1.34-3.68-1.34-6.63ZM287.85,91.93c0,2.38.29,4.17.88,5.38.58,1.21,1.45,1.82,2.6,1.82s2.02-.61,2.61-1.83c.59-1.22.88-3.01.88-5.38s-.29-4.16-.88-5.38c-.59-1.22-1.46-1.83-2.61-1.83s-2.01.61-2.6,1.82c-.58,1.21-.88,3.01-.88,5.38Z"/><path class="cls-2" d="M315.75,77.45v22.85h-1.78v-1.75c-.5.76-1.04,1.32-1.63,1.68-.59.36-1.26.54-2.02.54-1.76,0-3.04-.7-3.85-2.11-.81-1.41-1.21-3.65-1.21-6.72s.43-5.26,1.28-6.74c.85-1.48,2.14-2.22,3.87-2.22.79,0,1.47.17,2.06.51.58.34,1.09.85,1.5,1.54v-7.58h1.78ZM313.97,91.87c0-2.64-.26-4.51-.79-5.62-.52-1.11-1.38-1.66-2.58-1.66s-2.04.59-2.59,1.77c-.55,1.18-.82,3.04-.82,5.56s.26,4.45.79,5.59c.53,1.14,1.38,1.71,2.56,1.71s2.09-.56,2.63-1.68c.53-1.12.8-3.01.8-5.67Z"/><path class="cls-2" d="M328.3,94.91c-.11,1.91-.58,3.36-1.41,4.36-.83,1-1.99,1.5-3.47,1.5-1.69,0-2.94-.72-3.75-2.16-.81-1.44-1.22-3.67-1.22-6.67s.42-5.25,1.26-6.69c.84-1.45,2.13-2.17,3.86-2.17,1.58,0,2.77.61,3.59,1.84.82,1.23,1.23,3.03,1.23,5.42v1.42h-8.01v.94c0,2.17.25,3.79.76,4.86.51,1.07,1.27,1.61,2.28,1.61.93,0,1.66-.37,2.19-1.11.53-.74.83-1.79.88-3.14h1.81ZM320.37,90.24h6.14c0-.08,0-.2.01-.37,0-.17.02-.29.02-.36,0-1.56-.26-2.76-.79-3.61-.52-.85-1.27-1.27-2.22-1.27-1.03,0-1.81.47-2.35,1.4-.54.93-.81,2.29-.81,4.07v.15Z"/><path class="cls-2" d="M337.18,80.84v-3.59h3.98v3.59h-3.98ZM337.18,100.3v-17.32h3.98v17.32h-3.98Z"/><path class="cls-2" d="M343.87,100.3v-17.32h3.92v1.75c.42-.73.93-1.28,1.54-1.65.61-.37,1.3-.56,2.08-.56,1.26,0,2.22.36,2.89,1.08.67.72,1,1.75,1,3.1v13.61h-3.86v-11.62c0-1.02-.13-1.73-.39-2.15-.26-.41-.69-.62-1.3-.62-.67,0-1.15.25-1.44.76-.29.51-.43,1.37-.43,2.59v11.04h-4.01Z"/><path class="cls-2" d="M357.98,100.3v-17.32h3.92v1.75c.42-.73.93-1.28,1.54-1.65.61-.37,1.3-.56,2.08-.56,1.26,0,2.22.36,2.89,1.08.67.72,1,1.75,1,3.1v13.61h-3.86v-11.62c0-1.02-.13-1.73-.39-2.15-.26-.41-.69-.62-1.3-.62-.67,0-1.15.25-1.44.76-.29.51-.43,1.37-.43,2.59v11.04h-4.01Z"/><path class="cls-2" d="M371.55,91.65c0-3.49.45-5.89,1.35-7.19.9-1.3,2.48-1.95,4.75-1.95s3.86.65,4.76,1.95c.9,1.3,1.35,3.69,1.35,7.19s-.45,5.89-1.35,7.18c-.9,1.29-2.49,1.94-4.76,1.94s-3.85-.65-4.75-1.94c-.9-1.29-1.35-3.69-1.35-7.18ZM375.66,91.47v.4c0,2.69.13,4.33.4,4.93.27.6.79.9,1.56.9s1.34-.28,1.62-.85c.28-.56.42-2.03.42-4.39v-1.69c0-2.27-.14-3.69-.43-4.27s-.81-.88-1.58-.88-1.28.27-1.56.8c-.28.53-.43,1.82-.43,3.86v1.2Z"/><path class="cls-2" d="M388.57,100.3l-4.01-17.32h4.25l2.31,13.25,2.2-13.25h4.15l-4,17.32h-4.9Z"/><path class="cls-2" d="M407,100.3c-.09-.13-.17-.32-.23-.58-.07-.26-.13-.62-.2-1.09-.42.7-.96,1.23-1.62,1.59-.66.36-1.44.55-2.33.55-1.32,0-2.34-.44-3.08-1.33-.73-.89-1.1-2.12-1.1-3.7,0-1.43.32-2.56.97-3.41.64-.84,1.92-1.69,3.83-2.54.19-.09.46-.21.81-.36,1.57-.67,2.35-1.45,2.35-2.35,0-.55-.15-.97-.46-1.27-.3-.29-.75-.44-1.33-.44-.73,0-1.27.19-1.61.58-.34.39-.52,1-.52,1.83v.34h-3.89c0-1.95.48-3.36,1.43-4.25.95-.89,2.48-1.33,4.59-1.33s3.58.41,4.43,1.22c.85.81,1.27,2.24,1.27,4.27v9.78c0,.48.04.92.13,1.31.09.39.24.79.45,1.18h-3.89ZM406.45,91.23c-1.51.76-2.53,1.44-3.06,2.04-.53.6-.8,1.31-.8,2.13,0,.77.14,1.34.43,1.7.28.36.73.55,1.34.55.7,0,1.22-.3,1.57-.91.35-.61.52-1.52.52-2.74v-2.76Z"/><path class="cls-2" d="M423.83,93.5c0,.12.02.25.02.38,0,.13,0,.33,0,.59,0,2.15-.46,3.73-1.37,4.75-.91,1.02-2.33,1.53-4.24,1.53-2.18,0-3.7-.64-4.56-1.93-.86-1.29-1.3-3.68-1.3-7.19s.43-5.89,1.3-7.19c.86-1.3,2.38-1.95,4.56-1.95,1.91,0,3.31.47,4.22,1.42.91.95,1.36,2.42,1.36,4.4v.61h-3.83v-.39c0-1.05-.13-1.8-.4-2.26-.27-.46-.71-.69-1.32-.69s-1.07.22-1.34.67c-.27.45-.41,1.2-.41,2.25v5.97c0,1.19.13,2.02.39,2.49.26.47.7.7,1.33.7.68,0,1.15-.27,1.42-.81.26-.54.4-1.55.4-3.02v-.37h3.77Z"/><path class="cls-2" d="M426.04,80.84v-3.59h3.98v3.59h-3.98ZM426.04,100.3v-17.32h3.98v17.32h-3.98Z"/><path class="cls-2" d="M432.21,91.65c0-3.49.45-5.89,1.35-7.19.9-1.3,2.48-1.95,4.75-1.95s3.86.65,4.76,1.95c.9,1.3,1.35,3.69,1.35,7.19s-.45,5.89-1.35,7.18c-.9,1.29-2.49,1.94-4.76,1.94s-3.85-.65-4.75-1.94c-.9-1.29-1.35-3.69-1.35-7.18ZM436.19,81.14l2.61-4.27h3.83l-4.57,4.27h-1.87ZM436.31,91.47v.4c0,2.69.13,4.33.4,4.93.27.6.79.9,1.56.9s1.34-.28,1.62-.85c.28-.56.42-2.03.42-4.39v-1.69c0-2.27-.14-3.69-.43-4.27s-.81-.88-1.58-.88-1.28.27-1.56.8c-.28.53-.43,1.82-.43,3.86v1.2Z"/><path class="cls-2" d="M446.63,100.3v-17.32h3.92v1.75c.42-.73.93-1.28,1.54-1.65.61-.37,1.3-.56,2.08-.56,1.26,0,2.22.36,2.89,1.08.67.72,1,1.75,1,3.1v13.61h-3.86v-11.62c0-1.02-.13-1.73-.39-2.15-.26-.41-.69-.62-1.3-.62-.67,0-1.15.25-1.44.76-.29.51-.43,1.37-.43,2.59v11.04h-4.01Z"/><path class="cls-2" d="M467.58,100.3v-22.85h1.93v22.85h-1.93Z"/><path class="cls-2" d="M473.1,100.3v-22.85h2.19l8.7,19.93v-19.93h1.81v22.85h-2.23l-8.65-19.54v19.54h-1.81Z"/><path class="cls-2" d="M502.09,92.64c-.18,2.68-.82,4.7-1.91,6.07-1.09,1.37-2.61,2.06-4.56,2.06-2.32,0-4.02-.96-5.11-2.88-1.09-1.92-1.63-4.93-1.63-9.02s.54-7.08,1.63-8.99c1.09-1.91,2.79-2.87,5.11-2.87,1.93,0,3.45.62,4.57,1.87,1.12,1.25,1.7,2.98,1.75,5.2l-1.96.02c-.08-1.7-.5-3.01-1.26-3.95-.76-.93-1.79-1.4-3.1-1.4-1.62,0-2.81.82-3.59,2.46-.77,1.64-1.16,4.2-1.16,7.66s.39,6.02,1.16,7.66c.77,1.64,1.97,2.46,3.59,2.46,1.32,0,2.37-.55,3.16-1.65.79-1.1,1.25-2.67,1.38-4.69h1.93Z"/><path class="cls-1" d="M306.47,119.59v-14.34h7.37v2.38h-4.71v3.32h4.39v2.27h-4.39v3.95h4.82v2.42h-7.48Z"/><path class="cls-1" d="M314.35,119.59l2.84-5.51-2.72-5.26h2.84l1.16,2.69,1.16-2.69h2.72l-2.66,5.26,2.73,5.51h-2.77l-1.24-2.88-1.25,2.88h-2.82Z"/><path class="cls-1" d="M323.17,123.21v-14.4h2.37v1.13c.2-.47.48-.83.85-1.06.37-.24.82-.35,1.34-.35,1.04,0,1.78.41,2.2,1.24.43.83.64,2.29.64,4.39s-.21,3.67-.62,4.49c-.41.82-1.13,1.23-2.17,1.23-.51,0-.94-.1-1.28-.3-.34-.2-.62-.5-.83-.9v4.54h-2.5ZM325.59,113.75c0,1.75.09,2.85.27,3.32.18.47.52.7,1.02.7.44,0,.74-.2.9-.61.16-.4.24-1.4.24-3s-.08-2.53-.24-2.95c-.16-.42-.46-.63-.9-.63-.5,0-.84.19-1.02.58-.18.39-.27,1.25-.27,2.59Z"/><path class="cls-1" d="M336.71,115.89h2.35s0,.12,0,.21c0,.09,0,.16,0,.2,0,1.23-.29,2.13-.88,2.71s-1.52.86-2.79.86c-.67,0-1.23-.08-1.69-.25-.45-.17-.83-.43-1.12-.78-.35-.42-.59-.94-.74-1.57-.14-.63-.21-1.77-.21-3.42,0-1.31.06-2.25.19-2.81.12-.57.34-1.03.63-1.39.31-.37.72-.65,1.22-.84.5-.19,1.09-.28,1.78-.28s1.24.1,1.72.3c.48.2.88.51,1.2.92.27.36.46.81.57,1.36.11.54.17,1.42.17,2.63v.82h-4.9c-.01.08-.02.17-.02.26,0,.09,0,.23,0,.43,0,1.02.09,1.74.28,2.15.19.41.51.61.96.61s.76-.17.96-.5c.2-.33.3-.87.3-1.62ZM334.21,112.83h2.42v-.46c0-.74-.09-1.25-.27-1.53-.18-.28-.5-.42-.95-.42s-.75.14-.94.43c-.19.29-.28.79-.28,1.51.01.2.02.36.02.46Z"/><path class="cls-1" d="M340.59,119.59v-10.78h2.38v1.75c.34-.73.71-1.24,1.09-1.56.39-.31.86-.47,1.42-.47v3.03c-.09-.01-.19-.02-.28-.03-.09,0-.21,0-.34,0-.53,0-.96.16-1.27.48-.31.32-.47.74-.47,1.28v6.32h-2.53Z"/><path class="cls-1" d="M346.52,107.48v-2.24h2.48v2.24h-2.48ZM346.52,119.59v-10.78h2.48v10.78h-2.48Z"/><path class="cls-1" d="M350.7,119.59v-10.78h2.31v1.24c.29-.56.62-.96,1.02-1.19.39-.23.92-.34,1.59-.34.53,0,.99.12,1.38.36.39.24.67.57.84,1,.33-.48.69-.83,1.07-1.04.38-.21.85-.32,1.41-.32.85,0,1.49.23,1.92.7.43.47.65,1.16.65,2.08v8.28h-2.44v-6.88c0-.85-.09-1.4-.26-1.65-.17-.25-.49-.37-.96-.37-.43,0-.74.14-.93.42-.18.28-.27.8-.27,1.54v6.94h-2.46v-7c0-.73-.09-1.23-.26-1.5-.17-.27-.47-.4-.89-.4-.45,0-.77.14-.96.43-.2.29-.29.76-.29,1.43v7.04h-2.46Z"/><path class="cls-1" d="M369.28,115.89h2.35s0,.12,0,.21c0,.09,0,.16,0,.2,0,1.23-.29,2.13-.88,2.71-.59.57-1.52.86-2.79.86-.67,0-1.23-.08-1.69-.25-.45-.17-.83-.43-1.12-.78-.35-.42-.59-.94-.74-1.57-.14-.63-.21-1.77-.21-3.42,0-1.31.06-2.25.19-2.81.12-.57.34-1.03.63-1.39.31-.37.72-.65,1.22-.84.5-.19,1.09-.28,1.78-.28s1.24.1,1.72.3c.48.2.88.51,1.2.92.27.36.46.81.57,1.36.11.54.17,1.42.17,2.63v.82h-4.9c-.01.08-.02.17-.02.26,0,.09,0,.23,0,.43,0,1.02.09,1.74.28,2.15.19.41.51.61.96.61s.76-.17.96-.5c.2-.33.3-.87.3-1.62ZM366.77,112.83h2.42v-.46c0-.74-.09-1.25-.27-1.53-.18-.28-.5-.42-.95-.42s-.75.14-.94.43c-.19.29-.28.79-.28,1.51.01.2.02.36.02.46Z"/><path class="cls-1" d="M373.13,119.59v-10.78h2.44v1.09c.26-.45.58-.8.96-1.03.38-.23.81-.35,1.29-.35.78,0,1.38.22,1.8.67.42.45.62,1.09.62,1.93v8.47h-2.4v-7.23c0-.63-.08-1.08-.24-1.34-.16-.26-.43-.39-.81-.39-.42,0-.71.16-.89.48-.18.32-.27.85-.27,1.61v6.86h-2.5Z"/><path class="cls-1" d="M384.53,115.6v.73c0,.58.05.94.16,1.1.11.16.31.23.6.23.07,0,.12,0,.16,0,.04,0,.08,0,.11,0v1.94c-.36.04-.64.06-.84.07-.2.01-.36.02-.49.02-.84,0-1.41-.17-1.73-.5-.31-.33-.47-1.02-.47-2.05v-6.46h-.97v-1.85h.97v-2.94h2.5v2.94h1.03v1.85h-1.03v4.94Z"/><path class="cls-1" d="M386.29,114.2c0-2.17.28-3.66.84-4.47.56-.81,1.54-1.21,2.95-1.21s2.4.4,2.96,1.21c.56.81.84,2.3.84,4.47s-.28,3.66-.84,4.47c-.56.8-1.55,1.21-2.96,1.21s-2.39-.4-2.95-1.21c-.56-.8-.84-2.29-.84-4.47ZM388.84,114.09v.25c0,1.67.08,2.69.25,3.06.17.37.49.56.97.56s.83-.18,1.01-.53c.17-.35.26-1.26.26-2.73v-1.05c0-1.41-.09-2.3-.27-2.66-.18-.36-.5-.54-.98-.54s-.8.17-.97.5c-.18.33-.27,1.13-.27,2.4v.75Z"/><path class="cls-1" d="M402.18,115.6v.73c0,.58.05.94.16,1.1.11.16.31.23.6.23.07,0,.12,0,.16,0,.04,0,.08,0,.11,0v1.94c-.36.04-.64.06-.84.07-.2.01-.36.02-.49.02-.84,0-1.41-.17-1.73-.5-.31-.33-.47-1.02-.47-2.05v-6.46h-.97v-1.85h.97v-2.94h2.5v2.94h1.03v1.85h-1.03v4.94Z"/><path class="cls-1" d="M404.28,119.59v-10.78h2.38v1.75c.34-.73.71-1.24,1.09-1.56.39-.31.86-.47,1.42-.47v3.03c-.09-.01-.19-.02-.28-.03-.09,0-.21,0-.34,0-.53,0-.96.16-1.27.48-.31.32-.47.74-.47,1.28v6.32h-2.53Z"/><path class="cls-1" d="M415.33,119.59c-.06-.08-.1-.2-.14-.36-.04-.16-.08-.39-.13-.68-.26.43-.6.77-1.01.99-.41.23-.9.34-1.45.34-.82,0-1.46-.28-1.91-.83-.46-.55-.68-1.32-.68-2.3,0-.89.2-1.59.6-2.12.4-.52,1.19-1.05,2.38-1.58.12-.06.29-.13.5-.22.97-.42,1.46-.9,1.46-1.46,0-.34-.09-.6-.28-.79-.19-.18-.46-.27-.82-.27-.45,0-.79.12-1,.36-.21.24-.32.62-.32,1.14v.21h-2.42c0-1.21.3-2.09.89-2.65.59-.55,1.54-.83,2.85-.83s2.23.25,2.76.76c.53.51.79,1.39.79,2.66v6.08c0,.3.03.57.08.82.06.25.15.49.28.73h-2.42ZM414.98,113.94c-.94.47-1.57.89-1.9,1.27-.33.37-.5.81-.5,1.32,0,.48.09.83.27,1.06.18.23.45.34.83.34.43,0,.76-.19.98-.57.22-.38.33-.95.33-1.7v-1.71Z"/><path class="cls-1" d="M419,119.59v-10.78h2.44v1.09c.26-.45.58-.8.96-1.03.38-.23.81-.35,1.29-.35.78,0,1.38.22,1.8.67.42.45.62,1.09.62,1.93v8.47h-2.4v-7.23c0-.63-.08-1.08-.24-1.34-.16-.26-.43-.39-.81-.39-.42,0-.71.16-.89.48-.18.32-.27.85-.27,1.61v6.86h-2.5Z"/><path class="cls-1" d="M427.4,116h2.24v.31c0,.62.09,1.06.28,1.32.19.26.5.39.95.39.35,0,.62-.09.82-.28.2-.19.3-.44.3-.77,0-.41-.4-.88-1.2-1.42-.2-.14-.36-.24-.47-.32-.02-.02-.07-.05-.12-.08-1.83-1.25-2.74-2.48-2.74-3.69,0-.96.3-1.69.89-2.19.59-.5,1.45-.75,2.58-.75s1.91.28,2.46.83c.55.56.82,1.4.82,2.53v.22h-2.2v-.22c0-.52-.1-.9-.3-1.15-.2-.24-.51-.36-.94-.36-.31,0-.56.09-.75.26-.19.17-.28.4-.28.68,0,.26.08.5.25.71.16.21.53.51,1.1.89.13.09.32.21.57.38,1.81,1.19,2.71,2.39,2.71,3.59,0,.96-.31,1.7-.92,2.22-.61.52-1.48.78-2.61.78-1.19,0-2.06-.28-2.62-.84-.56-.56-.84-1.43-.84-2.62,0-.04,0-.11,0-.2,0-.09,0-.16,0-.21Z"/><path class="cls-1" d="M435.92,119.59v-8.92h-.97v-1.85h.97v-1.07c0-.93.18-1.58.53-1.97.35-.39.95-.58,1.78-.58.17,0,.35,0,.55.01.2,0,.42.02.65.04v1.87s-.07,0-.13,0c-.06,0-.09,0-.11,0-.27,0-.47.06-.59.17-.12.11-.18.3-.18.55v1h1.01v1.85h-1.01v8.92h-2.51Z"/><path class="cls-1" d="M440.13,114.2c0-2.17.28-3.66.84-4.47.56-.81,1.54-1.21,2.95-1.21s2.4.4,2.96,1.21c.56.81.84,2.3.84,4.47s-.28,3.66-.84,4.47c-.56.8-1.55,1.21-2.96,1.21s-2.39-.4-2.95-1.21c-.56-.8-.84-2.29-.84-4.47ZM442.69,114.09v.25c0,1.67.08,2.69.25,3.06.17.37.49.56.97.56s.83-.18,1.01-.53c.17-.35.26-1.26.26-2.73v-1.05c0-1.41-.09-2.3-.27-2.66-.18-.36-.5-.54-.98-.54s-.8.17-.97.5c-.18.33-.27,1.13-.27,2.4v.75Z"/><path class="cls-1" d="M449.12,119.59v-10.78h2.38v1.75c.34-.73.71-1.24,1.09-1.56.39-.31.86-.47,1.42-.47v3.03c-.09-.01-.19-.02-.28-.03-.09,0-.21,0-.34,0-.53,0-.96.16-1.27.48-.31.32-.47.74-.47,1.28v6.32h-2.53Z"/><path class="cls-1" d="M455.09,119.59v-10.78h2.31v1.24c.29-.56.62-.96,1.02-1.19.39-.23.92-.34,1.59-.34.53,0,.99.12,1.38.36.39.24.67.57.84,1,.33-.48.69-.83,1.07-1.04.38-.21.85-.32,1.41-.32.85,0,1.49.23,1.92.7.43.47.65,1.16.65,2.08v8.28h-2.44v-6.88c0-.85-.09-1.4-.26-1.65-.17-.25-.49-.37-.96-.37-.43,0-.74.14-.93.42-.18.28-.27.8-.27,1.54v6.94h-2.46v-7c0-.73-.09-1.23-.26-1.5-.17-.27-.47-.4-.89-.4-.45,0-.77.14-.96.43-.2.29-.29.76-.29,1.43v7.04h-2.46Z"/><path class="cls-1" d="M474.02,119.59c-.06-.08-.1-.2-.14-.36-.04-.16-.08-.39-.13-.68-.26.43-.6.77-1.01.99-.41.23-.9.34-1.45.34-.82,0-1.46-.28-1.91-.83-.46-.55-.68-1.32-.68-2.3,0-.89.2-1.59.6-2.12.4-.52,1.19-1.05,2.38-1.58.12-.06.29-.13.5-.22.97-.42,1.46-.9,1.46-1.46,0-.34-.09-.6-.28-.79-.19-.18-.46-.27-.82-.27-.45,0-.79.12-1,.36-.21.24-.32.62-.32,1.14v.21h-2.42c0-1.21.3-2.09.89-2.65.59-.55,1.54-.83,2.85-.83s2.23.25,2.76.76c.53.51.79,1.39.79,2.66v6.08c0,.3.03.57.08.82.06.25.15.49.28.73h-2.42ZM473.67,113.94c-.94.47-1.57.89-1.9,1.27-.33.37-.5.81-.5,1.32,0,.48.09.83.27,1.06.18.23.45.34.83.34.43,0,.76-.19.98-.57.22-.38.33-.95.33-1.7v-1.71Z"/><path class="cls-1" d="M480.32,115.6v.73c0,.58.05.94.16,1.1.11.16.31.23.6.23.07,0,.12,0,.16,0,.04,0,.08,0,.11,0v1.94c-.36.04-.64.06-.84.07-.2.01-.36.02-.49.02-.84,0-1.41-.17-1.73-.5-.31-.33-.47-1.02-.47-2.05v-6.46h-.97v-1.85h.97v-2.94h2.5v2.94h1.03v1.85h-1.03v4.94Z"/><path class="cls-1" d="M482.39,107.48v-2.24h2.48v2.24h-2.48ZM482.39,119.59v-10.78h2.48v10.78h-2.48Z"/><path class="cls-1" d="M488.17,119.59l-2.5-10.78h2.65l1.43,8.24,1.37-8.24h2.58l-2.49,10.78h-3.05Z"/><path class="cls-1" d="M494.21,114.2c0-2.17.28-3.66.84-4.47.56-.81,1.54-1.21,2.95-1.21s2.4.4,2.96,1.21c.56.81.84,2.3.84,4.47s-.28,3.66-.84,4.47c-.56.8-1.55,1.21-2.96,1.21s-2.39-.4-2.95-1.21c-.56-.8-.84-2.29-.84-4.47ZM496.76,114.09v.25c0,1.67.08,2.69.25,3.06.17.37.49.56.97.56s.83-.18,1.01-.53c.17-.35.26-1.26.26-2.73v-1.05c0-1.41-.09-2.3-.27-2.66-.18-.36-.5-.54-.98-.54s-.8.17-.97.5c-.18.33-.27,1.13-.27,2.4v.75Z"/><rect class="cls-2" x="400.04" y="122.33" width="101.76" height="1.76"/><polygon class="cls-2" points="79.42 79.5 78.21 79.5 78.21 60.21 84.88 53.54 85.73 54.39 79.42 60.71 79.42 79.5"/><path class="cls-3" d="M83.96,52.76c.71-.71,1.85-.71,2.56,0,.71.71.71,1.85,0,2.56-.71.71-1.85.71-2.56,0s-.71-1.85,0-2.56Z"/><path class="cls-2" d="M83.79,52.59c-.8.8-.8,2.1,0,2.9.8.8,2.1.8,2.9,0,.8-.8.8-2.1,0-2.9-.8-.8-2.1-.8-2.9,0-.8.8.8-.8,0,0ZM86.35,55.14c-.61.61-1.61.61-2.22,0-.61-.61-.61-1.61,0-2.22.61-.61,1.61-.61,2.22,0s.61,1.61,0,2.22c-.61.61.61-.61,0,0Z"/><path class="cls-3" d="M77,79.4c0,1,.81,1.81,1.81,1.81s1.81-.81,1.81-1.81-.81-1.81-1.81-1.81-1.81.81-1.81,1.81Z"/><path class="cls-2" d="M76.76,79.4c0-1.13.92-2.05,2.05-2.05s2.05.92,2.05,2.05-.92,2.05-2.05,2.05-2.05-.92-2.05-2.05,0,1.13,0,0ZM80.38,79.4c0-.86-.7-1.57-1.57-1.57s-1.57.7-1.57,1.57.7,1.57,1.57,1.57,1.57-.7,1.57-1.57,0,.86,0,0Z"/><polygon class="cls-2" points="134.08 58.19 104.57 28.68 96.5 28.68 96.5 27.48 105.07 27.48 134.93 57.34 134.08 58.19"/><path class="cls-3" d="M135.71,56.42c.71.71.71,1.85,0,2.56-.71.71-1.85.71-2.56,0-.71-.71-.71-1.85,0-2.56s1.85-.71,2.56,0Z"/><path class="cls-2" d="M135.88,56.25c-.8-.8-2.1-.8-2.9,0-.8.8-.8,2.1,0,2.9.8.8,2.1.8,2.9,0,.8-.8.8-2.1,0-2.9-.8-.8.8.8,0,0ZM133.33,58.81c-.61-.61-.61-1.61,0-2.22.61-.61,1.61-.61,2.22,0,.61.61.61,1.61,0,2.22-.61.61-1.61.61-2.22,0-.61-.61.61.61,0,0Z"/><path class="cls-3" d="M96.61,26.27c-1,0-1.81.81-1.81,1.81s.81,1.81,1.81,1.81,1.81-.81,1.81-1.81-.81-1.81-1.81-1.81Z"/><path class="cls-2" d="M96.61,26.03c1.13,0,2.05.92,2.05,2.05s-.92,2.05-2.05,2.05-2.05-.92-2.05-2.05.92-2.05,2.05-2.05-1.13,0,0,0ZM96.61,29.65c.86,0,1.57-.7,1.57-1.57s-.7-1.57-1.57-1.57-1.57.7-1.57,1.57.7,1.57,1.57,1.57-.86,0,0,0Z"/><polygon class="cls-2" points="84.66 93.93 83.46 93.93 83.46 62.18 87.18 58.46 88.03 59.31 84.66 62.67 84.66 93.93"/><path class="cls-3" d="M86.25,57.68c.71-.71,1.85-.71,2.56,0s.71,1.85,0,2.56c-.71.71-1.85.71-2.56,0s-.71-1.85,0-2.56Z"/><path class="cls-2" d="M86.08,57.51c-.8.8-.8,2.1,0,2.9.8.8,2.1.8,2.9,0,.8-.8.8-2.1,0-2.9-.8-.8-2.1-.8-2.9,0-.8.8.8-.8,0,0ZM88.64,60.06c-.61.61-1.61.61-2.22,0-.61-.61-.61-1.61,0-2.22.61-.61,1.61-.61,2.22,0,.61.61.61,1.61,0,2.22-.61.61.61-.61,0,0Z"/><circle class="cls-3" cx="84.06" cy="93.83" r="1.81"/><path class="cls-2" d="M82.01,93.83c0-1.13.92-2.05,2.05-2.05s2.05.92,2.05,2.05-.92,2.05-2.05,2.05-2.05-.92-2.05-2.05,0,1.13,0,0ZM85.63,93.83c0-.86-.7-1.57-1.57-1.57s-1.57.7-1.57,1.57.7,1.57,1.57,1.57,1.57-.7,1.57-1.57,0,.86,0,0Z"/><rect class="cls-2" x="114.93" y="26.9" width="1.2" height="43.46" transform="translate(-.55 95.94) rotate(-45)"/><path class="cls-3" d="M132.11,62.64c.71.71.71,1.85,0,2.56-.71.71-1.85.71-2.56,0-.71-.71-.71-1.85,0-2.56.71-.71,1.85-.71,2.56,0Z"/><path class="cls-2" d="M132.28,62.47c-.8-.8-2.1-.8-2.9,0-.8.8-.8,2.1,0,2.9.8.8,2.1.8,2.9,0,.8-.8.8-2.1,0-2.9-.8-.8.8.8,0,0ZM129.72,65.03c-.61-.61-.61-1.61,0-2.22.61-.61,1.61-.61,2.22,0,.61.61.61,1.61,0,2.22-.61.61-1.61.61-2.22,0-.61-.61.61.61,0,0Z"/><path class="cls-3" d="M101.52,32.06c-.71-.71-1.85-.71-2.56,0-.71.71-.71,1.85,0,2.56.71.71,1.85.71,2.56,0,.71-.71.71-1.85,0-2.56Z"/><path class="cls-2" d="M101.69,31.89c.8.8.8,2.1,0,2.9-.8.8-2.1.8-2.9,0-.8-.8-.8-2.1,0-2.9.8-.8,2.1-.8,2.9,0,.8.8-.8-.8,0,0ZM99.13,34.45c.61.61,1.61.61,2.22,0,.61-.61.61-1.61,0-2.22-.61-.61-1.61-.61-2.22,0-.61.61-.61,1.61,0,2.22.61.61-.61-.61,0,0Z"/><rect class="cls-2" x="124.88" y="55.28" width="1.2" height="23.99" transform="translate(-10.46 109.61) rotate(-45.5)"/><circle class="cls-3" cx="117" cy="58.94" r="1.81"/><path class="cls-2" d="M115.56,60.4c.81.79,2.11.78,2.9-.03.79-.81.78-2.11-.03-2.9-.81-.79-2.11-.78-2.9.03-.79.81-.78,2.11.03,2.9.81.79-.81-.79,0,0ZM118.09,57.82c.62.61.63,1.6.02,2.22s-1.6.63-2.22.02c-.62-.61-.63-1.6-.02-2.22.61-.62,1.6-.63,2.22-.02.62.61-.62-.61,0,0Z"/><path class="cls-3" d="M132.69,76.9c.71.7,1.86.69,2.56-.02s.69-1.86-.02-2.56c-.71-.7-1.86-.69-2.56.02-.7.71-.69,1.86.02,2.56Z"/><path class="cls-2" d="M132.52,77.07c-.81-.79-.82-2.09-.03-2.9.79-.81,2.09-.82,2.9-.03.81.79.82,2.09.03,2.9-.79.81-2.09.82-2.9.03-.81-.79.81.79,0,0ZM135.06,74.49c-.62-.61-1.61-.6-2.22.02-.61.62-.6,1.61.02,2.22.62.61,1.61.6,2.22-.02.61-.62.6-1.61-.02-2.22-.62-.61.62.61,0,0Z"/><polygon class="cls-2" points="90.24 102.25 89.04 102.25 89.04 88.09 95.6 81.53 95.6 64.04 96.8 64.04 96.8 82.03 90.24 88.59 90.24 102.25"/><path class="cls-3" d="M91.45,102.14c0,1-.81,1.81-1.81,1.81s-1.81-.81-1.81-1.81.81-1.81,1.81-1.81,1.81.81,1.81,1.81Z"/><path class="cls-2" d="M91.69,102.14c0-1.13-.92-2.05-2.05-2.05s-2.05.92-2.05,2.05.92,2.05,2.05,2.05,2.05-.92,2.05-2.05,0,1.13,0,0ZM88.07,102.14c0-.86.7-1.57,1.57-1.57s1.57.7,1.57,1.57-.7,1.57-1.57,1.57-1.57-.7-1.57-1.57,0,.86,0,0Z"/><circle class="cls-3" cx="96.2" cy="64.15" r="1.81"/><path class="cls-2" d="M98.25,64.15c0,1.13-.92,2.05-2.05,2.05s-2.05-.92-2.05-2.05.92-2.05,2.05-2.05,2.05.92,2.05,2.05,0-1.13,0,0ZM94.63,64.15c0,.86.7,1.57,1.57,1.57s1.57-.7,1.57-1.57-.7-1.57-1.57-1.57-1.57.7-1.57,1.57,0-.86,0,0Z"/><rect class="cls-2" x="123.04" y="61.16" width="1.2" height="27.54" transform="translate(-16.77 109.38) rotate(-45)"/><circle class="cls-3" cx="113.98" cy="65.27" r="1.81" transform="translate(41.12 174.55) rotate(-86.11)"/><path class="cls-2" d="M112.53,66.72c.8.8,2.1.8,2.9,0,.8-.8.8-2.1,0-2.9-.8-.8-2.1-.8-2.9,0-.8.8-.8,2.1,0,2.9.8.8-.8-.8,0,0ZM115.09,64.16c.61.61.61,1.61,0,2.22-.61.61-1.61.61-2.22,0-.61-.61-.61-1.61,0-2.22.61-.61,1.61-.61,2.22,0,.61.61-.61-.61,0,0Z"/><path class="cls-3" d="M132.03,85.88c.71.71,1.85.71,2.56,0,.71-.71.71-1.85,0-2.56-.71-.71-1.85-.71-2.56,0-.71.71-.71,1.85,0,2.56Z"/><path class="cls-2" d="M131.86,86.05c-.8-.8-.8-2.1,0-2.9.8-.8,2.1-.8,2.9,0,.8.8.8,2.1,0,2.9-.8.8-2.1.8-2.9,0-.8-.8.8.8,0,0ZM134.42,83.49c-.61-.61-1.61-.61-2.22,0-.61.61-.61,1.61,0,2.22.61.61,1.61.61,2.22,0,.61-.61.61-1.61,0-2.22-.61-.61.61.61,0,0Z"/><polygon class="cls-2" points="95.49 112.96 94.28 112.96 94.28 92.14 103.53 82.9 103.53 71.59 104.73 71.59 104.73 83.4 95.49 92.64 95.49 112.96"/><circle class="cls-3" cx="94.89" cy="112.85" r="1.81"/><path class="cls-2" d="M96.93,112.85c0-1.13-.92-2.05-2.05-2.05s-2.05.92-2.05,2.05.92,2.05,2.05,2.05,2.05-.92,2.05-2.05,0,1.13,0,0ZM93.32,112.85c0-.86.7-1.57,1.57-1.57s1.57.7,1.57,1.57-.7,1.57-1.57,1.57-1.57-.7-1.57-1.57,0,.86,0,0Z"/><circle class="cls-3" cx="104.13" cy="71.69" r="1.81"/><path class="cls-2" d="M106.18,71.69c0,1.13-.92,2.05-2.05,2.05s-2.05-.92-2.05-2.05.92-2.05,2.05-2.05,2.05.92,2.05,2.05,0-1.13,0,0ZM102.56,71.69c0,.86.7,1.57,1.57,1.57s1.57-.7,1.57-1.57-.7-1.57-1.57-1.57-1.57.7-1.57,1.57,0-.86,0,0Z"/><polygon class="cls-2" points="99.39 120.5 98.19 120.5 98.19 97.57 108.17 87.59 109.02 88.44 99.39 98.07 99.39 120.5"/><path class="cls-3" d="M107.24,86.81c.71-.71,1.85-.71,2.56,0s.71,1.85,0,2.56c-.71.71-1.85.71-2.56,0s-.71-1.85,0-2.56Z"/><path class="cls-2" d="M107.07,86.64c-.8.8-.8,2.1,0,2.9.8.8,2.1.8,2.9,0,.8-.8.8-2.1,0-2.9-.8-.8-2.1-.8-2.9,0-.8.8.8-.8,0,0ZM109.63,89.2c-.61.61-1.61.61-2.22,0-.61-.61-.61-1.61,0-2.22.61-.61,1.61-.61,2.22,0,.61.61.61,1.61,0,2.22-.61.61.61-.61,0,0Z"/><path class="cls-3" d="M96.98,120.4c0,1,.81,1.81,1.81,1.81s1.81-.81,1.81-1.81-.81-1.81-1.81-1.81-1.81.81-1.81,1.81Z"/><path class="cls-2" d="M96.74,120.4c0-1.13.92-2.05,2.05-2.05s2.05.92,2.05,2.05-.92,2.05-2.05,2.05-2.05-.92-2.05-2.05,0,1.13,0,0ZM100.36,120.4c0-.86-.7-1.57-1.57-1.57s-1.57.7-1.57,1.57.7,1.57,1.57,1.57,1.57-.7,1.57-1.57,0,.86,0,0Z"/><rect class="cls-2" x="122.85" y="73.04" width="1.2" height="21.06" transform="translate(-22.93 111.77) rotate(-45)"/><path class="cls-3" d="M132.11,89.66c.71.71.71,1.85,0,2.56-.71.71-1.85.71-2.56,0-.71-.71-.71-1.85,0-2.56.71-.71,1.85-.71,2.56,0Z"/><path class="cls-2" d="M132.28,89.49c-.8-.8-2.1-.8-2.9,0-.8.8-.8,2.1,0,2.9.8.8,2.1.8,2.9,0,.8-.8.8-2.1,0-2.9-.8-.8.8.8,0,0ZM129.72,92.05c-.61-.61-.61-1.61,0-2.22.61-.61,1.61-.61,2.22,0,.61.61.61,1.61,0,2.22-.61.61-1.61.61-2.22,0-.61-.61.61.61,0,0Z"/><path class="cls-3" d="M117.36,74.92c-.71-.71-1.85-.71-2.56,0s-.71,1.85,0,2.56c.71.71,1.85.71,2.56,0,.71-.71.71-1.85,0-2.56Z"/><path class="cls-2" d="M117.53,74.75c.8.8.8,2.1,0,2.9-.8.8-2.1.8-2.9,0-.8-.8-.8-2.1,0-2.9.8-.8,2.1-.8,2.9,0,.8.8-.8-.8,0,0ZM114.97,77.31c.61.61,1.61.61,2.22,0,.61-.61.61-1.61,0-2.22-.61-.61-1.61-.61-2.22,0-.61.61-.61,1.61,0,2.22.61.61-.61-.61,0,0Z"/><polygon class="cls-2" points="104.01 122.14 102.81 122.14 102.81 100.22 112.87 90.16 113.72 91.01 104.01 100.72 104.01 122.14"/><path class="cls-3" d="M105.22,122.04c0,1-.81,1.81-1.81,1.81s-1.81-.81-1.81-1.81.81-1.81,1.81-1.81,1.81.81,1.81,1.81Z"/><path class="cls-2" d="M105.46,122.04c0-1.13-.92-2.05-2.05-2.05s-2.05.92-2.05,2.05.92,2.05,2.05,2.05,2.05-.92,2.05-2.05,0,1.13,0,0ZM101.84,122.04c0-.86.7-1.57,1.57-1.57s1.57.7,1.57,1.57-.7,1.57-1.57,1.57-1.57-.7-1.57-1.57,0,.86,0,0Z"/><path class="cls-3" d="M114.5,91.94c.71-.71.71-1.85,0-2.56-.71-.71-1.85-.71-2.56,0-.71.71-.71,1.85,0,2.56s1.85.71,2.56,0Z"/><path class="cls-2" d="M114.67,92.11c-.8.8-2.1.8-2.9,0-.8-.8-.8-2.1,0-2.9.8-.8,2.1-.8,2.9,0,.8.8.8,2.1,0,2.9-.8.8.8-.8,0,0ZM112.11,89.55c-.61.61-.61,1.61,0,2.22.61.61,1.61.61,2.22,0,.61-.61.61-1.61,0-2.22-.61-.61-1.61-.61-2.22,0-.61.61.61-.61,0,0Z"/><polygon class="cls-2" points="107.91 122.14 106.7 122.14 106.7 103.9 116.98 93.62 125.75 102.39 124.9 103.24 116.98 95.32 107.91 104.4 107.91 122.14"/><path class="cls-3" d="M126.53,101.46c.71.71.71,1.85,0,2.56-.71.71-1.85.71-2.56,0-.71-.71-.71-1.85,0-2.56.71-.71,1.85-.71,2.56,0Z"/><path class="cls-2" d="M126.7,101.29c-.8-.8-2.1-.8-2.9,0-.8.8-.8,2.1,0,2.9.8.8,2.1.8,2.9,0,.8-.8.8-2.1,0-2.9-.8-.8.8.8,0,0ZM124.14,103.85c-.61-.61-.61-1.61,0-2.22.61-.61,1.61-.61,2.22,0,.61.61.61,1.61,0,2.22-.61.61-1.61.61-2.22,0-.61-.61.61.61,0,0Z"/><path class="cls-3" d="M105.5,122.04c0,1,.81,1.81,1.81,1.81s1.81-.81,1.81-1.81-.81-1.81-1.81-1.81-1.81.81-1.81,1.81Z"/><path class="cls-2" d="M105.26,122.04c0-1.13.92-2.05,2.05-2.05s2.05.92,2.05,2.05-.92,2.05-2.05,2.05-2.05-.92-2.05-2.05,0,1.13,0,0ZM108.87,122.04c0-.86-.7-1.57-1.57-1.57s-1.57.7-1.57,1.57.7,1.57,1.57,1.57,1.57-.7,1.57-1.57,0,.86,0,0Z"/><polygon class="cls-2" points="113.13 120.5 111.93 120.5 111.93 106.45 116.9 101.48 123.36 107.95 122.51 108.8 116.9 103.19 113.13 106.95 113.13 120.5"/><path class="cls-3" d="M114.34,120.4c0,1-.81,1.81-1.81,1.81s-1.81-.81-1.81-1.81.81-1.81,1.81-1.81,1.81.81,1.81,1.81Z"/><path class="cls-2" d="M114.58,120.4c0-1.13-.92-2.05-2.05-2.05s-2.05.92-2.05,2.05.92,2.05,2.05,2.05,2.05-.92,2.05-2.05,0,1.13,0,0ZM110.96,120.4c0-.86.7-1.57,1.57-1.57s1.57.7,1.57,1.57-.7,1.57-1.57,1.57-1.57-.7-1.57-1.57,0,.86,0,0Z"/><path class="cls-3" d="M121.58,109.58c.71.71,1.85.71,2.56,0,.71-.71.71-1.85,0-2.56-.71-.71-1.85-.71-2.56,0-.71.71-.71,1.85,0,2.56Z"/><path class="cls-2" d="M121.41,109.75c-.8-.8-.8-2.1,0-2.9.8-.8,2.1-.8,2.9,0,.8.8.8,2.1,0,2.9-.8.8-2.1.8-2.9,0-.8-.8.8.8,0,0ZM123.97,107.19c-.61-.61-1.61-.61-2.22,0-.61.61-.61,1.61,0,2.22.61.61,1.61.61,2.22,0,.61-.61.61-1.61,0-2.22-.61-.61.61.61,0,0Z"/><rect class="cls-2" x="116.46" y="110.01" width="1.2" height="4.33" transform="translate(-45.03 115.63) rotate(-45)"/><path class="cls-3" d="M117.24,114.9c.71.71,1.85.71,2.56,0,.71-.71.71-1.85,0-2.56-.71-.71-1.85-.71-2.56,0-.71.71-.71,1.85,0,2.56Z"/><path class="cls-2" d="M117.07,115.08c-.8-.8-.8-2.1,0-2.9s2.1-.8,2.9,0c.8.8.8,2.1,0,2.9-.8.8-2.1.8-2.9,0-.8-.8.8.8,0,0ZM119.63,112.52c-.61-.61-1.61-.61-2.22,0-.61.61-.61,1.61,0,2.22.61.61,1.61.61,2.22,0,.61-.61.61-1.61,0-2.22-.61-.61.61.61,0,0Z"/><polygon class="cls-2" points="140.97 56.23 140.12 55.38 146.27 49.22 146.27 21.35 140.53 15.6 141.38 14.75 147.47 20.85 147.47 49.72 140.97 56.23"/><path class="cls-3" d="M141.89,57.01c-.71.71-1.85.71-2.56,0-.71-.71-.71-1.85,0-2.56.71-.71,1.85-.71,2.56,0,.71.71.71,1.85,0,2.56Z"/><path class="cls-2" d="M142.06,57.18c.8-.8.8-2.1,0-2.9-.8-.8-2.1-.8-2.9,0-.8.8-.8,2.1,0,2.9.8.8,2.1.8,2.9,0,.8-.8-.8.8,0,0ZM139.5,54.62c.61-.61,1.61-.61,2.22,0,.61.61.61,1.61,0,2.22-.61.61-1.61.61-2.22,0-.61-.61-.61-1.61,0-2.22.61-.61-.61.61,0,0Z"/><path class="cls-3" d="M142.3,13.97c-.71-.71-1.85-.71-2.56,0-.71.71-.71,1.85,0,2.56.71.71,1.85.71,2.56,0,.71-.71.71-1.85,0-2.56Z"/><path class="cls-2" d="M142.47,13.8c.8.8.8,2.1,0,2.9-.8.8-2.1.8-2.9,0-.8-.8-.8-2.1,0-2.9.8-.8,2.1-.8,2.9,0,.8.8-.8-.8,0,0ZM139.91,16.36c.61.61,1.61.61,2.22,0,.61-.61.61-1.61,0-2.22-.61-.61-1.61-.61-2.22,0s-.61,1.61,0,2.22c.61.61-.61-.61,0,0Z"/><polygon class="cls-2" points="137.69 52.29 136.84 51.44 141.02 47.25 141.02 24.63 135.04 18.65 135.89 17.8 142.23 24.13 142.23 47.75 137.69 52.29"/><path class="cls-3" d="M138.61,53.07c-.71.71-1.85.71-2.56,0-.71-.71-.71-1.85,0-2.56.71-.71,1.85-.71,2.56,0,.71.71.71,1.85,0,2.56Z"/><path class="cls-2" d="M138.78,53.24c.8-.8.8-2.1,0-2.9-.8-.8-2.1-.8-2.9,0-.8.8-.8,2.1,0,2.9.8.8,2.1.8,2.9,0,.8-.8-.8.8,0,0ZM136.22,50.68c.61-.61,1.61-.61,2.22,0,.61.61.61,1.61,0,2.22-.61.61-1.61.61-2.22,0-.61-.61-.61-1.61,0-2.22.61-.61-.61.61,0,0Z"/><path class="cls-3" d="M136.82,17.02c-.71-.71-1.85-.71-2.56,0-.71.71-.71,1.85,0,2.56.71.71,1.85.71,2.56,0,.71-.71.71-1.85,0-2.56Z"/><path class="cls-2" d="M136.99,16.85c.8.8.8,2.1,0,2.9-.8.8-2.1.8-2.9,0-.8-.8-.8-2.1,0-2.9.8-.8,2.1-.8,2.9,0,.8.8-.8-.8,0,0ZM134.43,19.4c.61.61,1.61.61,2.22,0,.61-.61.61-1.61,0-2.22-.61-.61-1.61-.61-2.22,0-.61.61-.61,1.61,0,2.22.61.61-.61-.61,0,0Z"/><polygon class="cls-2" points="132.83 50.56 126.86 44.59 127.71 43.74 132.83 48.86 136.9 44.79 136.9 29.53 127.65 20.28 128.5 19.43 138.1 29.03 138.1 45.29 132.83 50.56"/><path class="cls-3" d="M126.87,21.2c-.71-.71-.71-1.85,0-2.56.71-.71,1.85-.71,2.56,0,.71.71.71,1.85,0,2.56-.71.71-1.85.71-2.56,0Z"/><path class="cls-2" d="M126.7,21.37c.8.8,2.1.8,2.9,0,.8-.8.8-2.1,0-2.9-.8-.8-2.1-.8-2.9,0-.8.8-.8,2.1,0,2.9.8.8-.8-.8,0,0ZM129.26,18.81c.61.61.61,1.61,0,2.22-.61.61-1.61.61-2.22,0-.61-.61-.61-1.61,0-2.22.61-.61,1.61-.61,2.22,0,.61.61-.61-.61,0,0Z"/><path class="cls-3" d="M128.64,42.96c-.71-.71-1.85-.71-2.56,0-.71.71-.71,1.85,0,2.56.71.71,1.85.71,2.56,0,.71-.71.71-1.85,0-2.56Z"/><path class="cls-2" d="M128.81,42.79c.8.8.8,2.1,0,2.9-.8.8-2.1.8-2.9,0-.8-.8-.8-2.1,0-2.9.8-.8,2.1-.8,2.9,0,.8.8-.8-.8,0,0ZM126.25,45.35c.61.61,1.61.61,2.22,0,.61-.61.61-1.61,0-2.22-.61-.61-1.61-.61-2.22,0-.61.61-.61,1.61,0,2.22.61.61-.61-.61,0,0Z"/><polygon class="cls-2" points="132.38 43.87 123.88 35.37 119.62 39.64 110.81 30.83 111.66 29.98 119.62 37.94 123.88 33.67 131.18 40.97 131.18 32.5 120.92 22.24 121.77 21.39 132.38 32 132.38 43.87"/><path class="cls-3" d="M120.14,23.17c-.71-.71-.71-1.85,0-2.56s1.85-.71,2.56,0c.71.71.71,1.85,0,2.56-.71.71-1.85.71-2.56,0Z"/><path class="cls-2" d="M119.97,23.34c.8.8,2.1.8,2.9,0,.8-.8.8-2.1,0-2.9-.8-.8-2.1-.8-2.9,0-.8.8-.8,2.1,0,2.9.8.8-.8-.8,0,0ZM122.53,20.78c.61.61.61,1.61,0,2.22-.61.61-1.61.61-2.22,0-.61-.61-.61-1.61,0-2.22.61-.61,1.61-.61,2.22,0,.61.61-.61-.61,0,0Z"/><path class="cls-3" d="M112.59,29.2c-.71-.71-1.85-.71-2.56,0-.71.71-.71,1.85,0,2.56.71.71,1.85.71,2.56,0,.71-.71.71-1.85,0-2.56Z"/><path class="cls-2" d="M112.76,29.03c.8.8.8,2.1,0,2.9s-2.1.8-2.9,0c-.8-.8-.8-2.1,0-2.9.8-.8,2.1-.8,2.9,0,.8.8-.8-.8,0,0ZM110.2,31.59c.61.61,1.61.61,2.22,0,.61-.61.61-1.61,0-2.22-.61-.61-1.61-.61-2.22,0-.61.61-.61,1.61,0,2.22.61.61-.61-.61,0,0Z"/><rect class="cls-2" x="116.06" y="23.32" width="1.2" height="7.88" transform="translate(14.89 90.47) rotate(-45)"/><path class="cls-3" d="M120.65,28.7c.71.71.71,1.85,0,2.56-.71.71-1.85.71-2.56,0-.71-.71-.71-1.85,0-2.56.71-.71,1.85-.71,2.56,0Z"/><path class="cls-2" d="M120.82,28.53c-.8-.8-2.1-.8-2.9,0-.8.8-.8,2.1,0,2.9.8.8,2.1.8,2.9,0,.8-.8.8-2.1,0-2.9-.8-.8.8.8,0,0ZM118.26,31.09c-.61-.61-.61-1.61,0-2.22.61-.61,1.61-.61,2.22,0,.61.61.61,1.61,0,2.22-.61.61-1.61.61-2.22,0-.61-.61.61.61,0,0Z"/><path class="cls-3" d="M115.22,23.27c-.71-.71-1.85-.71-2.56,0s-.71,1.85,0,2.56c.71.71,1.85.71,2.56,0,.71-.71.71-1.85,0-2.56Z"/><path class="cls-2" d="M115.39,23.1c.8.8.8,2.1,0,2.9-.8.8-2.1.8-2.9,0-.8-.8-.8-2.1,0-2.9.8-.8,2.1-.8,2.9,0,.8.8-.8-.8,0,0ZM112.83,25.66c.61.61,1.61.61,2.22,0,.61-.61.61-1.61,0-2.22-.61-.61-1.61-.61-2.22,0-.61.61-.61,1.61,0,2.22.61.61-.61-.61,0,0Z"/><polygon class="cls-2" points="126.54 94.93 108.67 77.07 108.67 67.27 91.43 50.02 92.28 49.17 109.88 66.77 109.88 76.57 127.39 94.08 126.54 94.93"/><path class="cls-3" d="M128.17,93.15c.71.71.71,1.85,0,2.56-.71.71-1.85.71-2.56,0-.71-.71-.71-1.85,0-2.56.71-.71,1.85-.71,2.56,0Z"/><path class="cls-2" d="M128.34,92.98c-.8-.8-2.1-.8-2.9,0-.8.8-.8,2.1,0,2.9.8.8,2.1.8,2.9,0,.8-.8.8-2.1,0-2.9-.8-.8.8.8,0,0ZM125.78,95.54c-.61-.61-.61-1.61,0-2.22.61-.61,1.61-.61,2.22,0,.61.61.61,1.61,0,2.22-.61.61-1.61.61-2.22,0-.61-.61.61.61,0,0Z"/><path class="cls-3" d="M93.2,48.39c-.71-.71-1.85-.71-2.56,0-.71.71-.71,1.85,0,2.56.71.71,1.85.71,2.56,0,.71-.71.71-1.85,0-2.56Z"/><path class="cls-2" d="M93.37,48.22c.8.8.8,2.1,0,2.9-.8.8-2.1.8-2.9,0-.8-.8-.8-2.1,0-2.9.8-.8,2.1-.8,2.9,0,.8.8-.8-.8,0,0ZM90.82,50.77c.61.61,1.61.61,2.22,0,.61-.61.61-1.61,0-2.22-.61-.61-1.61-.61-2.22,0-.61.61-.61,1.61,0,2.22.61.61-.61-.61,0,0Z"/><polygon class="cls-2" points="109.37 61.04 94.28 45.95 94.28 31.76 95.49 31.76 95.49 45.45 110.22 60.19 109.37 61.04"/><polygon class="cls-2" points="110.57 54.15 99.62 43.2 99.62 39.21 100.82 39.21 100.82 42.7 111.42 53.3 110.57 54.15"/><circle class="cls-3" cx="100.22" cy="39.32" r="1.81"/><path class="cls-2" d="M98.17,39.32c0,1.13.92,2.05,2.05,2.05s2.05-.92,2.05-2.05-.92-2.05-2.05-2.05-2.05.92-2.05,2.05,0-1.13,0,0ZM101.79,39.32c0,.86-.7,1.57-1.57,1.57s-1.57-.7-1.57-1.57.7-1.57,1.57-1.57,1.57.7,1.57,1.57,0-.86,0,0Z"/><path class="cls-3" d="M109.64,54.93c.71.71,1.85.71,2.56,0s.71-1.85,0-2.56c-.71-.71-1.85-.71-2.56,0-.71.71-.71,1.85,0,2.56Z"/><path class="cls-2" d="M109.47,55.1c-.8-.8-.8-2.1,0-2.9.8-.8,2.1-.8,2.9,0,.8.8.8,2.1,0,2.9-.8.8-2.1.8-2.9,0-.8-.8.8.8,0,0ZM112.03,52.54c-.61-.61-1.61-.61-2.22,0-.61.61-.61,1.61,0,2.22.61.61,1.61.61,2.22,0,.61-.61.61-1.61,0-2.22-.61-.61.61.61,0,0Z"/><rect class="cls-2" x="144.93" y="11.03" width="1.2" height="5.33" transform="translate(32.95 106.92) rotate(-45)"/><path class="cls-3" d="M146.07,16.78c.71.71,1.85.71,2.56,0,.71-.71.71-1.85,0-2.56-.71-.71-1.85-.71-2.56,0s-.71,1.85,0,2.56Z"/><path class="cls-2" d="M145.9,16.95c-.8-.8-.8-2.1,0-2.9.8-.8,2.1-.8,2.9,0,.8.8.8,2.1,0,2.9-.8.8-2.1.8-2.9,0-.8-.8.8.8,0,0ZM148.45,14.39c-.61-.61-1.61-.61-2.22,0-.61.61-.61,1.61,0,2.22.61.61,1.61.61,2.22,0,.61-.61.61-1.61,0-2.22-.61-.61.61.61,0,0Z"/><path class="cls-2" d="M78.81,52.05s-.07,0-.11,0c-.29-.05-.49-.3-.49-.59v-18.11h1.2v14.83l11.22-29.58c.05-.13.15-.24.27-.31l17.45-9.7.58,1.05-17.25,9.59-12.31,32.44c-.09.24-.32.39-.56.39Z"/><path class="cls-3" d="M107.68,7.57c.87-.49,1.97-.17,2.46.7.49.87.17,1.97-.7,2.46-.87.49-1.97.17-2.46-.7-.49-.87-.17-1.97.7-2.46Z"/><path class="cls-2" d="M107.56,7.36c-.99.55-1.34,1.8-.8,2.79.55.99,1.8,1.34,2.79.8.99-.55,1.34-1.8.8-2.79-.55-.99-1.8-1.34-2.79-.8-.99.55.99-.55,0,0ZM109.32,10.53c-.76.42-1.71.15-2.13-.61s-.15-1.71.61-2.13c.76-.42,1.71-.15,2.13.61s.15,1.71-.61,2.13c-.76.42.76-.42,0,0Z"/><circle class="cls-3" cx="78.81" cy="33.48" r="2.49"/><path class="cls-2" d="M81.63,33.48c0,1.55-1.26,2.82-2.82,2.82s-2.82-1.26-2.82-2.82,1.26-2.82,2.82-2.82,2.82,1.26,2.82,2.82,0-1.55,0,0ZM76.66,33.48c0,1.19.97,2.16,2.16,2.16s2.16-.97,2.16-2.16-.97-2.16-2.16-2.16-2.16.97-2.16,2.16,0-1.19,0,0Z"/><path class="cls-1" d="M78.81,52.05c-.25,0-.47-.15-.56-.39l-12.31-32.44-17.25-9.59.58-1.05,17.45,9.7c.12.07.22.18.27.31l11.22,29.58v-14.83h1.2v18.11c0,.29-.21.54-.49.59-.04,0-.07,0-.11,0Z"/><path class="cls-3" d="M48.19,10.74c-.87-.49-1.19-1.59-.7-2.46.49-.87,1.59-1.19,2.46-.7.87.49,1.19,1.59.7,2.46-.49.87-1.59,1.19-2.46.7Z"/><path class="cls-1" d="M48.07,10.95c.99.55,2.24.19,2.79-.8.55-.99.19-2.24-.8-2.79-.99-.55-2.24-.19-2.79.8-.55.99-.19,2.24.8,2.79.99.55-.99-.55,0,0ZM49.83,7.78c.76.42,1.03,1.38.61,2.13s-1.38,1.03-2.13.61c-.76-.42-1.03-1.38-.61-2.13s1.38-1.03,2.13-.61c.76.42-.76-.42,0,0Z"/><circle class="cls-3" cx="78.81" cy="33.48" r="2.49"/><path class="cls-1" d="M81.63,33.48c0,1.55-1.26,2.82-2.82,2.82s-2.82-1.26-2.82-2.82,1.26-2.82,2.82-2.82,2.82,1.26,2.82,2.82,0-1.55,0,0ZM76.66,33.48c0,1.19.97,2.16,2.16,2.16s2.16-.97,2.16-2.16-.97-2.16-2.16-2.16-2.16.97-2.16,2.16,0-1.19,0,0Z"/><path class="cls-1" d="M50.45,123.45c-1.8,0-3.64-.47-5.51-1.4-6.42-3.2-12.9-9.12-17.78-16.23-2.26-3.3-4.08-6.72-5.26-9.92-1.25-3.37-1.77-6.36-1.55-8.89.32-3.67,2.22-6.12,5.51-7.1,6.74-2,14.39-3.82,20.25-5.1-2.89.13-6.19.18-9.54.05-5.78-.23-10.6-.98-14.32-2.21-4.77-1.58-7.77-3.97-8.93-7.13-2.23-6.05-4.31-16.75-5.07-26.02-.45-5.56-.45-10.46,0-14.57.53-4.79,1.68-8.38,3.42-10.68,1.68-2.22,3.91-3.24,6.61-3.03,3.95.31,8.97,1.73,14.13,4.01,5.62,2.47,11.26,5.87,16.31,9.81,5.79,4.52,10.67,9.6,14.51,15.12,4.38,6.29,7.29,13,8.64,19.95v.06s.01,31.24.01,31.24v.06c-.03.06-1.35,6.37-4.03,13.27-1.58,4.06-3.32,7.54-5.18,10.32-2.35,3.53-4.89,5.98-7.55,7.27-1.52.74-3.08,1.11-4.68,1.11ZM55.62,72.83l.19,1.19c-.16.03-16.61,3.19-29.62,7.05-2.81.83-4.37,2.87-4.65,6.05-.41,4.66,2.06,11.4,6.61,18.02,4.77,6.95,11.09,12.73,17.33,15.84,1.66.83,3.29,1.25,4.86,1.27,1.45.02,2.88-.31,4.27-.99,2.47-1.2,4.85-3.5,7.07-6.85,1.8-2.71,3.51-6.11,5.06-10.09,2.51-6.45,3.82-12.38,3.96-13.04v-31c-1.33-6.76-4.16-13.3-8.43-19.44-3.77-5.42-8.57-10.42-14.26-14.86-4.98-3.88-10.53-7.22-16.06-9.66-5.04-2.22-9.92-3.61-13.74-3.91-2.3-.18-4.12.66-5.56,2.56-1.61,2.12-2.68,5.51-3.19,10.09-.45,4.03-.45,8.86,0,14.34.61,7.5,2.44,18.75,5,25.7,1.03,2.79,3.78,4.94,8.18,6.4,3.61,1.2,8.32,1.92,13.98,2.15,9.69.39,18.93-.82,19.03-.83Z"/><path class="cls-1" d="M38.73,44.56l-.67-1c1.08-.72,1.89-1.87,2.28-3.21s.33-2.75-.18-3.94c-.51-1.19-1.48-2.2-2.74-2.84-1.25-.64-2.64-.83-3.9-.55-2.03.46-3.62,1.9-5.3,3.42-.57.52-1.16,1.06-1.77,1.55-1.96,1.59-4.33,2.69-6.68,3.12-2.64.48-5.1.09-7.1-1.14-1.89-1.15-3.31-3.15-3.89-5.49-.58-2.33-.26-4.76.87-6.67l1.03.62c-2.04,3.43-.8,8.44,2.61,10.51,1.75,1.07,3.92,1.41,6.26.98,2.15-.39,4.34-1.41,6.14-2.87.58-.47,1.16-.99,1.72-1.5,1.72-1.56,3.5-3.18,5.84-3.71,1.54-.35,3.21-.11,4.71.65,1.5.76,2.67,1.98,3.29,3.43.62,1.45.71,3.14.23,4.75-.47,1.62-1.46,2.99-2.76,3.87Z"/><path class="cls-1" d="M48.07,55.4l-.23-1.18c1.66-.32,3.08-1.8,3.54-3.69.5-2.07-.13-4.16-.76-5.54-.68-1.51-1.62-2.88-2.78-4.06-.22-.22-.46-.45-.69-.67-.55-.52-1.12-1.06-1.59-1.7-1.49-2.02-1.76-4.89-.67-7.15,1.09-2.26,3.51-3.84,6.02-3.93l.04,1.2c-2.07.07-4.07,1.38-4.98,3.25-.9,1.87-.68,4.25.55,5.92.41.56.92,1.04,1.45,1.55.24.22.48.46.72.7,1.26,1.28,2.28,2.77,3.02,4.41.7,1.56,1.41,3.91.83,6.32-.57,2.34-2.37,4.19-4.48,4.59Z"/><path class="cls-1" d="M47.66,62.35c-1.8,0-3.43-.37-4.85-1.09-2.28-1.16-3.9-3.15-5.47-5.08-1.41-1.73-2.73-3.37-4.5-4.46-1.59-.98-3.52-1.47-5.6-1.42-1.98.05-3.97.59-5.77,1.54-3.15,1.67-5.89,4.51-8.37,8.67l-1.03-.62c2.6-4.36,5.49-7.34,8.84-9.12,1.96-1.04,4.14-1.62,6.3-1.68,2.31-.06,4.48.49,6.26,1.6,1.94,1.2,3.4,3,4.8,4.73,1.56,1.92,3.02,3.73,5.08,4.77,1.46.74,4.64,1.73,9.54-.02,2.17-.78,3.76-1.75,4.87-2.98,1.33-1.47,1.93-3.41,1.57-5.05l1.17-.26c.23,1.04.16,2.18-.2,3.29-.33,1.02-.91,2-1.65,2.83-1.25,1.38-3,2.46-5.36,3.31-1.81.65-3.58,1-5.26,1.05-.13,0-.25,0-.38,0Z"/><path class="cls-1" d="M26.1,100.51l-1.17-.26c.55-2.47,1.61-5.83,4.52-6.43.91-.19,1.79-.04,2.65.1.4.07.78.13,1.16.16,1.37.1,3.47-.21,5.67-2.3,1.53-1.45,2.85-3.51,3.69-5.8l.04-.1c.26-.71.56-1.52,1.24-2.08.88-.73,2.08-.76,2.96-.78,2.61-.06,5.26-.23,7.86-.48,2.14-.21,4.54-.57,6.08-2.07,1.16-1.13,1.82-2.92,1.97-5.32.11-1.73-.15-3.46-.72-4.86-.45-1.09-1.33-2.54-2.96-3.19-2-.8-4.3-.14-6.53.5l-.18.05c-3.73,1.07-8.12,2.02-12.39,1.04-2.12-.49-4.14-1.56-5.69-3-1.7-1.59-2.74-3.51-3-5.57l1.19-.15c.22,1.78,1.13,3.45,2.62,4.84,1.4,1.3,3.22,2.27,5.14,2.71,4,.93,8.2,0,11.78-1.02l.18-.05c2.31-.66,4.92-1.41,7.3-.46,1.6.64,2.86,1.97,3.63,3.85.64,1.56.93,3.48.81,5.39-.17,2.71-.95,4.76-2.33,6.11-1.82,1.78-4.47,2.17-6.81,2.41-2.63.26-5.3.43-7.95.49-.78.02-1.66.04-2.22.5-.42.35-.64.94-.88,1.57l-.04.1c-.91,2.45-2.33,4.67-3.99,6.25-2,1.89-4.27,2.8-6.59,2.62-.43-.03-.85-.1-1.26-.17-.78-.13-1.52-.25-2.21-.11-2.22.46-3.11,3.36-3.58,5.51Z"/><path class="cls-1" d="M66.06,108.04c-1.37-.43-2.62-1.32-3.61-2.57-.91-1.15-1.56-2.54-1.88-4.03-.55-2.55-.21-5.21.27-7.42-2.44.87-4.79,1.1-6.86.66-2.95-.63-5.33-2.69-6.06-5.26l1.16-.33c.3,1.07.97,2.06,1.92,2.85.91.75,2.05,1.31,3.23,1.56,2.13.45,4.62.1,7.22-1.02l1.11-.48-.29,1.17c-.59,2.42-1.12,5.26-.53,8,.6,2.77,2.43,5.01,4.67,5.71l-.36,1.15Z"/><path class="cls-1" d="M41.77,120.04l-.64-1.02c1.53-.96,3-2.26,4.42-3.51,1.94-1.71,3.94-3.48,6.21-4.52,1.23-.57,2.97-.94,4.64-.98,2.56-.08,4.04.58,4.84,1.14,1.24.88,1.82,2.22,1.67,3.89l-1.2-.11c.11-1.25-.27-2.16-1.16-2.8-.92-.65-2.38-.98-4.11-.92-1.5.04-3.1.38-4.17.87-2.11.97-4.04,2.68-5.92,4.33-1.46,1.29-2.97,2.62-4.58,3.63Z"/><path class="cls-1" d="M60.55,89.35l-.45-1.12c3.26-1.3,5.87-4.45,6.8-8.22.84-3.38.41-7.28-1.22-10.98-.38-.87-.83-1.73-1.26-2.57-.63-1.21-1.27-2.45-1.76-3.77-.46-1.25-.71-2.46-.76-3.61-.05-1.35.18-2.58.7-3.65.46-.93,1.12-1.73,1.76-2.51.83-1,1.62-1.95,1.9-3.1l1.17.28c-.34,1.42-1.25,2.52-2.14,3.59-.62.75-1.21,1.46-1.61,2.26-.82,1.67-.78,3.92.1,6.32.46,1.24,1.09,2.45,1.69,3.63.44.85.9,1.73,1.3,2.64,1.74,3.94,2.19,8.11,1.29,11.75-1.03,4.14-3.91,7.6-7.52,9.04Z"/><path class="cls-1" d="M27.16,28.52c-.77,0-1.53-.06-2.29-.19-1.56-.26-2.76-.75-3.66-1.51-1.1-.93-1.88-2.38-2.24-4.2-.71-3.54.21-7.33,2.47-10.14l.94.75c-2.04,2.54-2.87,5.96-2.23,9.15.22,1.09.72,2.58,1.84,3.52.73.61,1.74,1.02,3.08,1.24,3.2.53,6.6-.19,9.31-1.98l.66,1c-2.32,1.53-5.1,2.35-7.88,2.35Z"/><path class="cls-1" d="M37.49,110.84c-.54,0-1.09-.04-1.63-.12-2.12-.32-4.05-1.2-5.93-2.06l.5-1.09c1.8.82,3.66,1.67,5.61,1.96,2.97.45,6.04-.51,8.02-2.5.99-1,1.73-2.32,2.07-3.73.35-1.45.29-2.9-.19-4.2l1.09-.49c.53.99,1.5,1.77,2.68,2.15,1.17.38,2.42.31,3.43-.18l.53,1.08c-1.96.96-4.4.6-6.13-.68.05.85-.03,1.73-.24,2.6-.4,1.64-1.22,3.13-2.38,4.3-1.88,1.89-4.62,2.96-7.42,2.96Z"/></svg>