<?xml version="1.0" encoding="UTF-8"?><svg id="Capa_1" xmlns="http://www.w3.org/2000/svg" viewBox="0 0 210.8 176.47"><defs><style>.cls-1{fill:#fff;stroke-width:0px;}</style></defs><g id="NFcD6v"><path class="cls-1" d="M95.87,8.63c34.18-.29,65.07,24.13,71.08,59.62,3.1,18.31-.56,35.35-10.55,51-.76,1.19-.73,1.87.29,2.87,7.79,7.71,15.55,15.46,23.27,23.25,4.78,4.82,5.26,11.97,1.27,17.27-4.79,6.36-14,6.99-19.79,1.27-7.69-7.6-15.3-15.27-22.94-22.92-1.62-1.62-1.61-1.6-3.54-.38-10.06,6.36-20.98,10.2-32.88,11.02-22.62,1.57-41.94-5.78-57.69-22.02-10.76-11.1-17.23-24.49-19.08-39.87-2.95-24.47,4.59-45.35,22.51-62.23,11.62-10.95,25.64-17,41.57-18.61,2.33-.23,4.64-.24,6.49-.27ZM162.25,80.39c.25-35.78-28.89-65.87-65.69-65.96-36.46-.08-66.05,29.38-66.1,65.76-.04,36.44,29.37,65.93,65.83,66.01,36.49.08,65.91-29.27,65.95-65.81ZM178.1,154.76c.1-2.28-.84-4.12-2.41-5.69-7.53-7.53-15.08-15.05-22.58-22.61-.9-.91-1.39-.84-2.17.11-2.46,3.01-5.18,5.78-8.2,8.22-1.08.87-1.14,1.38-.12,2.38,6.3,6.21,12.53,12.48,18.78,18.73,1.39,1.39,2.72,2.84,4.19,4.14,2.44,2.15,5.26,2.58,8.23,1.31,2.84-1.22,4.22-3.52,4.28-6.6Z"/><path class="cls-1" d="M96.4,141.37c-33.42-.1-61-26.74-61.03-61.01-.03-33.8,26.95-61.02,60.98-61.02,34.51,0,61.06,27.87,61.05,61.15,0,33.53-27.45,60.88-61.01,60.88ZM122.98,59.75c0,6.26.01,12.52-.01,18.77,0,.95.14,1.58,1.32,1.58,8.69-.03,17.38-.02,26.07,0,1.05,0,1.33-.5,1.31-1.44-.03-1.34-.13-2.68-.27-4.02-1.3-12.54-6.27-23.45-15.02-32.46-12.2-12.56-27.17-18.27-44.7-16.92-13.26,1.02-24.76,6.24-34.09,15.63-13.76,13.84-18.89,30.63-15.53,49.85,1.41,8.05,4.71,15.39,9.55,22.01.52.71.9,1.19,1.78.34.97-.93,2.26-1.15,3.6-1.13,2.84.04,5.69.01,8.53,0q4.17,0,4.18-4.12c.01-4.42,2.11-6.55,6.57-6.6,2.74-.04,5.48,0,8.22,0,3.8,0,3.95,0,3.76-3.76-.24-4.76,2.7-6.94,6.8-6.84,3.36.08,6.72-.01,10.09.03,1.12.01,1.59-.4,1.57-1.54-.03-1.49-.13-3,.2-4.48.51-2.36,1.92-3.81,4.29-4.35,1.44-.33,2.89-.23,4.33-.18,1.39.06,1.82-.51,1.77-1.83-.08-1.91-.02-3.83-.02-5.74q0-2.57-2.51-2.57c-6.93,0-13.86.02-20.79-.02-2.44-.01-4.31-1.12-5.26-3.41-.91-2.23-.44-4.26,1.25-5.99.98-1,1.93-2.03,2.97-2.95.85-.75.95-1.3.04-2.1-1.13-.99-2.14-2.1-3.19-3.17-.89-.92-1.42-2.02-1.48-3.32-.18-3.43,2.24-5.88,5.91-5.9,6.72-.03,13.45,0,20.17,0q2.57,0,2.98-2.5c.33-1.98,1.78-3.1,3.44-2.65,1.42.38,2.15,1.42,2.16,3.17.01,6.21,0,12.41,0,18.62ZM64.35,117.5c-1.97,0-3.93-.01-5.9,0-.53,0-1.23-.23-1.51.46-.28.71.08,1.29.62,1.78.81.72,1.6,1.47,2.41,2.19,16.12,14.45,40.61,17.98,60.04,8.39,17.74-8.75,28.08-23.09,31.23-42.61.27-1.66.07-1.89-1.64-1.89-10.86,0-21.73-.02-32.59.01-1.43,0-3.24-.63-4.21.29-1.04.99-.34,2.85-.37,4.32-.08,3.69-2.23,5.91-5.89,5.93-3.67.02-7.35.04-11.02-.01-1.15-.02-1.57.42-1.54,1.55.03,1.29.03,2.59-.12,3.87-.4,3.38-2.42,5.14-5.83,5.15-3.67.02-7.35.05-11.02-.02-1.24-.02-1.66.43-1.59,1.63.07,1.13.04,2.28,0,3.41-.12,3.3-2.38,5.5-5.65,5.53-1.81.02-3.62,0-5.43,0ZM94.21,63.97c.75.18.9.25,1.05.25,6.87,0,13.75,0,20.62.03,1.26,0,1.42-.67,1.42-1.68-.02-3.98-.05-7.96.01-11.94.02-1.33-.41-1.81-1.78-1.8-6.56.05-13.13.02-19.69.03-.36,0-.83-.2-1.2.53,1.03.98,2.15,1.97,3.19,3.04,2.48,2.55,2.48,5.7-.03,8.25-1.04,1.06-2.19,2.02-3.59,3.29Z"/></g></svg>