<?xml version="1.0" encoding="UTF-8"?><svg id="Capa_1" xmlns="http://www.w3.org/2000/svg" viewBox="0 0 210.8 176.47"><defs><style>.cls-1{fill:#fff;stroke-width:0px;}</style></defs><g id="Ba8gST"><path class="cls-1" d="M104.33,26.88c-17.77,0-35.54,0-53.3,0q-2.17,0-2.18,2.19c0,23.5,0,47,0,70.51,0,3.47-.65,4.11-4.18,4.11-2.1,0-4.2-.06-6.29.02-4.62.17-8.04,3.53-8.05,7.8,0,4.27,3.42,7.61,8.04,7.81,1.32.06,2.65.04,3.97.02.83,0,1.13.37,1.21,1.19.41,4.3.38,4.15-3.86,4.38-8.67.48-13.53-5.3-14.68-10.48-.21-.93-.24-1.86-.24-2.79,0-30.12,0-60.25,0-90.37,0-7.29,5.87-13.14,13.14-13.18,2.59-.01,5.19-.02,7.78,0,2.16.02,3.13.98,3.15,3.14.03,2.76.08,5.52-.02,8.27-.06,1.5.5,1.86,1.91,1.85,7.83-.06,15.67-.03,23.51-.03,27.75,0,55.51,0,83.26,0q2.35,0,2.35-2.34c0-2.54-.01-5.08,0-7.61.02-2.36.94-3.27,3.34-3.28,2.48-.02,4.97-.01,7.45,0,7.41.03,13.28,5.83,13.29,13.2.02,30.12.02,60.25,0,90.37,0,7.3-5.86,13.15-13.13,13.2-3.03.02-6.07-.04-9.1.02-1.3.03-1.9-.31-1.87-1.74.12-4.49-.49-3.75,3.74-3.81,1.93-.03,3.86,0,5.79,0,5.36-.02,9.01-3.23,8.96-7.86-.05-4.63-3.62-7.76-8.88-7.78-1.99,0-3.97,0-5.96,0-2.81,0-3.63-.83-3.63-3.66,0-23.45,0-46.89,0-70.34,0-3.12.28-2.8-2.88-2.8-17.55,0-35.09,0-52.64,0ZM43.3,55.88c0-12.91.01-25.82,0-38.72,0-4.07.56-3.45-3.48-3.52-2.3-.04-4.52.23-6.42,1.71-2.4,1.86-3.09,4.44-3.09,7.33,0,25.26,0,50.53,0,75.79,0,.33,0,.66,0,.99-.01.74.33.9.92.52,3.06-1.95,6.48-1.92,9.92-1.85,2.15.04,2.15,0,2.15-2.2,0-13.35,0-26.7,0-40.05ZM165.4,55.79c0,12.41-.02,24.82.02,37.23,0,1.63-.73,3.68.38,4.77,1.04,1.02,3.06.33,4.63.32,2.2,0,4.26.46,6.22,1.43q1.73.86,1.74-1.16c0-25.1,0-50.2,0-75.29,0-.39,0-.77,0-1.16-.23-5.16-3.4-8.23-8.58-8.3-.77,0-1.56.08-2.31-.02-1.7-.23-2.14.45-2.13,2.12.07,13.35.04,26.7.04,40.05Z"/><path class="cls-1" d="M88.33,114.99c0-2.59-.08-5.19.03-7.77.08-1.85-.4-3.38-1.46-4.92-2.24-3.27-4.63-6.46-6.38-10.04-7.12-14.62-.65-31.57,14.31-37.46,15.4-6.06,33.07,3.93,35.77,20.28,1.2,7.26-.22,14.04-4.15,20.26-1.71,2.7-3.51,5.35-5.31,7.99-.55.81-.8,1.64-.79,2.62.03,5.96,0,11.91.03,17.87,0,1.19-.23,2.27-.77,3.33-1.49,2.89-2.95,5.8-4.37,8.73-.75,1.56-1.85,2.3-3.64,2.27-4.85-.08-9.71-.07-14.56,0-1.72.02-2.8-.67-3.53-2.17-1.5-3.07-3.04-6.13-4.59-9.17-.44-.86-.61-1.75-.6-2.71.02-3.03,0-6.07,0-9.1ZM83.29,79.69c.26,1.85.31,3.89.81,5.89,1.41,5.63,5.19,9.91,8.22,14.62.65,1.02,1.87.73,2.74.46.83-.26.26-1.19.15-1.75-1.33-6.81-2.71-13.61-4.08-20.41-.3-1.49-.31-2.92,1.18-3.8,1.31-.78,2.53-.37,3.67.5,2.37,1.8,4.79,3.54,7.14,5.38.9.71,1.58.69,2.48-.01,2.3-1.8,4.68-3.51,7-5.28,1.18-.91,2.42-1.39,3.81-.56,1.42.85,1.46,2.23,1.18,3.66-.44,2.27-.91,4.54-1.36,6.8-.93,4.64-1.89,9.28-2.77,13.94-.1.51-.72,1.44.36,1.62,1.05.17,2.15.3,2.91-.93,1.66-2.67,3.5-5.22,5.15-7.89,2.72-4.4,3.72-9.2,3.31-14.38-.8-10.09-10.47-19.91-22.99-18.66-9.24.92-18.5,8.65-18.9,20.82ZM104.35,106.34c-3.03,0-6.06.02-9.1-.01-.97-.01-1.4.32-1.39,1.34.03,4.3.04,8.6,0,12.9,0,1.09.42,1.44,1.47,1.43,6.01-.03,12.02-.03,18.03,0,1.04,0,1.49-.33,1.48-1.42-.04-4.24-.05-8.49,0-12.73.01-1.17-.43-1.54-1.56-1.52-2.98.05-5.95.02-8.93.02ZM110.55,84.49c-.14-.07-.27-.14-.41-.21-1.19.88-2.36,1.77-3.56,2.63-1.74,1.25-2.74,1.24-4.5-.03-.94-.68-1.85-1.39-2.79-2.07-.26-.19-.52-.55-.85-.39-.46.23-.19.67-.12,1.03.74,3.73,1.48,7.45,2.22,11.18.88,4.44.88,4.42,5.48,4.19.93-.05,1.38-.38,1.55-1.31.39-2.22.87-4.43,1.31-6.64.56-2.79,1.11-5.58,1.66-8.36ZM104.4,127.52h-4.8c-3.94,0-3.88-.03-2.21,3.48.6,1.26,1.37,1.65,2.69,1.6,2.2-.09,4.41-.03,6.62-.03,4.01,0,3.99-.01,5.66-3.71.47-1.04.29-1.37-.85-1.35-2.37.04-4.74.01-7.11.01Z"/><path class="cls-1" d="M154.8,116.8c0,9.38-.01,18.75.02,28.13,0,1.32-.29,2.46-.99,3.59-2.28,3.71-4.47,7.48-6.74,11.2-1.9,3.11-4.12,3.11-6.02,0-2.35-3.86-4.65-7.75-6.99-11.62-.5-.83-.73-1.69-.73-2.66.01-19.08,0-38.16.01-57.24,0-2.35.94-3.26,3.35-3.27,4.91-.01,9.82-.01,14.73,0,2.46,0,3.35.91,3.35,3.44,0,9.49,0,18.97,0,28.46ZM138.91,125.91c0,5.18,0,10.37,0,15.55,0,.82-.16,1.7,1.16,1.72,1.27.02,1.25-.75,1.25-1.63,0-10.31,0-20.63,0-30.94,0-.88.02-1.66-1.24-1.64-1.32.02-1.16.9-1.16,1.72,0,5.07,0,10.15,0,15.22ZM149.26,126.07c0-5.07,0-10.15,0-15.22,0-.82.31-1.85-1.15-1.88-1.43-.03-1.24.93-1.24,1.8,0,10.2,0,20.41,0,30.61,0,.87-.19,1.83,1.24,1.8,1.46-.03,1.15-1.06,1.15-1.88.02-5.07,0-10.15,0-15.22ZM144.09,90.44c-.55,0-1.1-.01-1.65,0-3.99.1-3.5-.85-3.54,3.79,0,.92.38,1.28,1.29,1.27,1.87-.03,3.74.02,5.61-.01,3.89-.07,3.42.77,3.45-3.7,0-.06,0-.11,0-.17.05-.84-.37-1.19-1.19-1.18-1.32.02-2.64,0-3.96,0ZM144,103.44c1.32,0,2.65-.03,3.97,0,.9.02,1.31-.31,1.29-1.25-.02-.87-.41-1.16-1.22-1.16-2.64.02-5.29.02-7.93,0-.82,0-1.2.31-1.21,1.17-.02.95.42,1.26,1.3,1.24,1.27-.03,2.53,0,3.8,0ZM144.09,148.69c-.82.18-2.03-.43-2.45.3-.42.74.6,1.54,1.03,2.27,1.56,2.66,1.28,2.58,2.83-.06.43-.72,1.45-1.49.97-2.27-.38-.61-1.55-.11-2.39-.24Z"/><path class="cls-1" d="M52.94,161.95c-6.56,0-13.13-.02-19.69,0-3.73.01-6.31-1.79-7.84-5.06-1.48-3.18-.77-6.73,1.8-9.3,12.82-12.85,25.64-25.68,38.5-38.49,3.17-3.16,6.99-3.88,11.13-2.31,4.13,1.57,6.45,5.18,6.45,9.66,0,11.53.01,23.05,0,34.58,0,6.36-4.58,10.9-10.98,10.91-6.45.01-12.91,0-19.36,0ZM70.43,156.41c5.64,0,7.3-1.67,7.3-7.31,0-.28,0-.55,0-.83,0-2.2,0-2.19-2.15-2.21-3.45-.03-3.13.38-3.14-3.06-.01-2.47,0-2.46,2.41-2.48,3.2-.02,2.87.34,2.88-2.96,0-2.08,0-2.07-2.44-2.09-3.1-.02-2.84.27-2.85-2.86-.01-2.68,0-2.68,2.7-2.68q2.6,0,2.6-2.59t-2.4-2.46c-.61,0-1.21-.01-1.82-.02-.65,0-.96-.3-1.07-.98-.64-3.86-.16-4.47,3.64-4.55.28,0,.55,0,.83-.03.44-.03.66-.27.79-.7.88-3.01-1.1-6.38-4.12-6.84-1.94-.3-3.35.75-4.64,2.04-9.2,9.21-18.4,18.4-27.6,27.6-3.24,3.24-6.47,6.47-9.71,9.71-.94.94-1.58,1.98-1.03,3.4.58,1.47,1.8,1.82,3.19,1.88.83.03,1.66.05,2.48,0,1.36-.08,2.99.55,4.01-.31.94-.8.23-2.4.36-3.64.07-.63.08-1.15.91-1.31,3.67-.74,4.58-.07,4.64,3.55,0,.17.01.33,0,.5-.07.94.42,1.2,1.3,1.25,3.69.2,3.68.22,3.75-3.44.01-.58-.23-1.47.4-1.66,1.49-.44,3.12-.47,4.57-.03,1.09.33.52,1.65.55,2.51.07,2.6.03,2.6,2.61,2.6.11,0,.22-.01.33,0,1.63.26,2.22-.34,2.17-2.07-.09-3.6-.47-3.2,3.27-3.23,2.23-.01,2.22,0,2.24,2.32.02,3.33-.37,2.94,3.04,2.97Z"/><path class="cls-1" d="M74.45,51c0-.67.46-.94.79-1.29q2.8-2.92,5.61-.12c.12.12.23.23.35.35,3.06,3.06,3.03,3.34-.48,6.08-.53.42-.93.48-1.42,0-1.47-1.48-2.95-2.95-4.42-4.43-.19-.19-.32-.43-.44-.59Z"/><path class="cls-1" d="M128.78,56.42c-.7-.13-1.04-.68-1.46-1.09q-2.63-2.58-.07-5.13c.31-.31.59-.66.94-.92.89-.67,1.46-2.34,2.59-1.96,1.39.47,2.29,1.97,3.33,3.1.32.34.15.73-.14,1.02-1.55,1.56-3.1,3.11-4.66,4.65-.15.15-.36.23-.51.33Z"/><path class="cls-1" d="M107.12,41.46c-.11,4.51.85,3.89-4.07,3.96-1.04.01-1.51-.35-1.48-1.43.05-1.82.03-3.64,0-5.45-.01-.88.34-1.25,1.26-1.32,4.29-.35,4.29-.37,4.29,4.24Z"/><path class="cls-1" d="M68.59,74.31h.33c4.06,0,4.28.27,3.76,4.43-.09.74-.38,1.1-1.12,1.1-1.98,0-3.99.17-5.94-.05-2.03-.23-.97-1.99-1.06-3.05-.08-.85-.7-2.28,1.07-2.4.99-.07,1.98-.01,2.97-.01,0,0,0-.01,0-.02Z"/><path class="cls-1" d="M140.23,79.85c-.11,0-.22,0-.33,0-4.29,0-4.27,0-3.89-4.31.07-.79.32-1.23,1.17-1.23,1.93.01,3.88-.18,5.78.05,2.36.28.94,2.25,1.2,3.43.19.88.35,2.11-1.29,2.05-.88-.03-1.76,0-2.64,0h0Z"/><path class="cls-1" d="M57.92,146.06c-2.1,0-4.19-.02-6.29,0-1.29.02-2.29-.46-2.79-1.66-.52-1.24-.21-2.36.75-3.32,4.3-4.28,8.59-8.58,12.88-12.87.96-.97,2.09-1.23,3.33-.69,1.19.53,1.61,1.55,1.61,2.83-.02,4.19,0,8.39-.02,12.58-.01,2.15-.99,3.09-3.17,3.12-2.1.02-4.19,0-6.29,0Z"/></g></svg>