<?xml version="1.0" encoding="UTF-8"?><svg id="Capa_1" xmlns="http://www.w3.org/2000/svg" viewBox="0 0 210.8 176.47"><defs><style>.cls-1{fill:#fff;stroke-width:0px;}</style></defs><g id="Ba8gST"><path class="cls-1" d="M104.32,36.57c-15.78,0-31.55,0-47.33,0q-1.93,0-1.93,1.94c0,20.87,0,41.74,0,62.6,0,3.08-.58,3.65-3.71,3.65-1.86,0-3.73-.05-5.58.02-4.1.15-7.14,3.13-7.14,6.92,0,3.79,3.03,6.76,7.14,6.94,1.17.05,2.35.03,3.53.02.74,0,1,.33,1.07,1.06.37,3.82.34,3.68-3.43,3.89-7.7.43-12.01-4.7-13.04-9.3-.18-.83-.22-1.65-.22-2.48,0-26.75,0-53.49,0-80.24,0-6.47,5.21-11.66,11.67-11.7,2.3-.01,4.61-.02,6.91,0,1.92.02,2.78.87,2.8,2.79.02,2.45.08,4.9-.02,7.35-.05,1.33.44,1.65,1.7,1.64,6.96-.05,13.91-.02,20.87-.02,24.64,0,49.29,0,73.93,0q2.09,0,2.09-2.08c0-2.25-.01-4.51,0-6.76.02-2.1.83-2.9,2.96-2.91,2.2-.01,4.41-.01,6.61,0,6.58.03,11.79,5.17,11.8,11.72.01,26.75.01,53.49,0,80.24,0,6.48-5.2,11.68-11.66,11.72-2.69.02-5.39-.04-8.08.02-1.15.03-1.69-.27-1.66-1.55.1-3.99-.44-3.33,3.32-3.39,1.71-.03,3.43,0,5.14,0,4.76-.01,8-2.87,7.96-6.98-.05-4.11-3.21-6.89-7.89-6.91-1.76,0-3.53,0-5.29,0-2.5,0-3.23-.73-3.23-3.25,0-20.82,0-41.64,0-62.46,0-2.77.25-2.49-2.56-2.49-15.58,0-31.16,0-46.74,0ZM50.14,62.32c0-11.46.01-22.92,0-34.38,0-3.61.5-3.07-3.09-3.13-2.05-.03-4.02.21-5.7,1.51-2.13,1.65-2.74,3.94-2.74,6.51,0,22.43,0,44.86,0,67.3,0,.29,0,.59,0,.88-.01.66.29.8.82.46,2.72-1.73,5.75-1.7,8.81-1.64,1.91.04,1.91,0,1.91-1.96,0-11.85,0-23.71,0-35.56ZM158.55,62.24c0,11.02-.01,22.04.02,33.06,0,1.44-.65,3.27.34,4.24.92.91,2.71.29,4.12.28,1.96,0,3.78.41,5.52,1.27q1.54.77,1.54-1.03c0-22.28,0-44.57,0-66.85,0-.34,0-.69,0-1.03-.2-4.58-3.02-7.31-7.62-7.37-.69,0-1.38.07-2.06-.02-1.51-.2-1.9.4-1.89,1.89.06,11.85.03,23.71.03,35.56Z"/><path class="cls-1" d="M90.12,114.8c0-2.3-.08-4.61.02-6.9.07-1.64-.36-3-1.29-4.37-1.99-2.9-4.11-5.73-5.66-8.92-6.33-12.99-.58-28.03,12.7-33.26,13.68-5.38,29.37,3.49,31.76,18.01,1.06,6.45-.19,12.47-3.68,17.99-1.52,2.4-3.12,4.75-4.72,7.09-.49.72-.71,1.45-.7,2.33.03,5.29,0,10.58.02,15.86,0,1.06-.2,2.02-.68,2.96-1.32,2.57-2.62,5.15-3.88,7.75-.67,1.38-1.64,2.04-3.23,2.02-4.31-.07-8.62-.06-12.93,0-1.53.02-2.48-.59-3.13-1.93-1.33-2.73-2.7-5.44-4.07-8.14-.39-.77-.54-1.55-.53-2.4.02-2.69,0-5.39,0-8.08ZM85.65,83.47c.23,1.65.28,3.46.72,5.23,1.25,5,4.61,8.8,7.3,12.98.58.9,1.66.65,2.43.4.73-.23.23-1.05.13-1.55-1.18-6.05-2.41-12.09-3.62-18.13-.27-1.32-.28-2.59,1.05-3.38,1.16-.69,2.24-.33,3.26.44,2.11,1.6,4.25,3.14,6.34,4.77.8.63,1.41.61,2.2-.01,2.04-1.6,4.15-3.12,6.21-4.69,1.05-.8,2.15-1.23,3.38-.5,1.26.75,1.3,1.98,1.05,3.25-.39,2.02-.81,4.03-1.21,6.04-.83,4.12-1.68,8.24-2.46,12.37-.09.45-.64,1.28.32,1.44.93.15,1.91.27,2.59-.82,1.47-2.37,3.11-4.64,4.58-7.01,2.41-3.91,3.31-8.17,2.94-12.77-.71-8.96-9.3-17.67-20.42-16.57-8.2.82-16.43,7.68-16.78,18.49ZM104.35,107.12c-2.69,0-5.38.02-8.08-.01-.86,0-1.24.28-1.23,1.19.03,3.82.03,7.63,0,11.45,0,.97.37,1.28,1.3,1.27,5.34-.03,10.67-.03,16.01,0,.93,0,1.32-.29,1.31-1.26-.04-3.77-.04-7.54,0-11.3.01-1.04-.38-1.37-1.38-1.35-2.64.05-5.29.02-7.93.02ZM109.85,87.72c-.12-.06-.24-.13-.36-.19-1.05.78-2.1,1.57-3.16,2.33-1.54,1.11-2.43,1.1-3.99-.02-.83-.6-1.65-1.23-2.47-1.84-.23-.17-.46-.49-.75-.34-.41.2-.17.6-.11.91.65,3.31,1.31,6.62,1.97,9.92.78,3.95.78,3.93,4.87,3.72.83-.04,1.23-.34,1.38-1.17.35-1.97.77-3.93,1.17-5.9.49-2.48.99-4.95,1.48-7.43ZM104.39,125.93h-4.26c-3.5,0-3.45-.03-1.96,3.09.53,1.11,1.22,1.47,2.39,1.42,1.95-.08,3.92-.02,5.87-.02,3.56,0,3.54-.01,5.03-3.29.42-.92.25-1.22-.76-1.2-2.1.04-4.21.01-6.32.01Z"/><path class="cls-1" d="M149.14,116.41c0,8.32-.01,16.65.01,24.97,0,1.17-.26,2.18-.88,3.19-2.03,3.29-3.97,6.64-5.98,9.94-1.69,2.76-3.66,2.76-5.34,0-2.09-3.43-4.13-6.89-6.21-10.32-.45-.74-.64-1.5-.64-2.37.01-16.94,0-33.88.01-50.83,0-2.09.84-2.9,2.97-2.9,4.36-.01,8.72-.01,13.08,0,2.19,0,2.97.81,2.98,3.05,0,8.42,0,16.84,0,25.27ZM135.03,124.5c0,4.6,0,9.21,0,13.81,0,.73-.15,1.51,1.03,1.53,1.13.02,1.11-.67,1.11-1.45,0-9.16,0-18.31,0-27.47,0-.78.02-1.47-1.11-1.45-1.17.02-1.03.8-1.03,1.52,0,4.51,0,9.01,0,13.52ZM144.21,124.65c0-4.51,0-9.01,0-13.52,0-.73.28-1.64-1.02-1.67-1.27-.03-1.1.82-1.1,1.6,0,9.06,0,18.12,0,27.18,0,.78-.16,1.62,1.1,1.59,1.3-.03,1.02-.94,1.02-1.67.02-4.51,0-9.01,0-13.52ZM139.63,93.01c-.49,0-.98-.01-1.47,0-3.55.09-3.11-.76-3.14,3.36,0,.82.34,1.14,1.14,1.12,1.66-.03,3.32.02,4.98-.01,3.46-.06,3.04.69,3.06-3.29,0-.05,0-.1,0-.15.04-.75-.33-1.06-1.06-1.04-1.17.02-2.35,0-3.52,0ZM139.55,104.55c1.17,0,2.35-.02,3.52,0,.8.02,1.16-.28,1.15-1.11-.01-.77-.36-1.03-1.08-1.03-2.35.02-4.7.02-7.04,0-.73,0-1.06.27-1.08,1.04-.02.85.37,1.12,1.16,1.1,1.12-.03,2.25,0,3.38,0ZM139.63,144.73c-.72.16-1.8-.39-2.17.27-.37.66.54,1.36.92,2.02,1.39,2.36,1.13,2.29,2.52-.06.38-.64,1.29-1.32.86-2.02-.34-.54-1.37-.1-2.12-.21Z"/><path class="cls-1" d="M58.69,156.5c-5.83,0-11.66-.02-17.48,0-3.31.01-5.6-1.59-6.96-4.49-1.32-2.82-.68-5.97,1.6-8.26,11.38-11.41,22.77-22.8,34.18-34.18,2.81-2.8,6.21-3.45,9.88-2.05,3.67,1.4,5.72,4.6,5.73,8.58,0,10.23,0,20.47,0,30.7,0,5.65-4.07,9.68-9.75,9.69-5.73,0-11.46,0-17.19,0ZM74.23,151.58c5.01,0,6.48-1.48,6.49-6.49,0-.24,0-.49,0-.73,0-1.96,0-1.95-1.91-1.96-3.06-.03-2.78.34-2.79-2.72-.01-2.19,0-2.19,2.14-2.2,2.84-.02,2.55.3,2.56-2.63,0-1.85,0-1.84-2.17-1.85-2.75-.01-2.52.24-2.53-2.54,0-2.38,0-2.38,2.4-2.38q2.31,0,2.3-2.3t-2.13-2.18c-.54,0-1.08-.01-1.62-.02-.58,0-.85-.27-.95-.87-.57-3.43-.15-3.97,3.24-4.04.24,0,.49,0,.73-.02.39-.03.59-.24.7-.62.78-2.67-.98-5.66-3.66-6.07-1.72-.26-2.98.67-4.12,1.81-8.17,8.17-16.34,16.34-24.51,24.51-2.87,2.87-5.75,5.74-8.62,8.62-.84.84-1.4,1.76-.91,3.02.51,1.31,1.6,1.62,2.84,1.67.73.03,1.47.05,2.2,0,1.21-.07,2.66.49,3.56-.28.84-.71.2-2.13.32-3.24.06-.56.07-1.02.81-1.17,3.26-.66,4.07-.06,4.12,3.15,0,.15.01.29,0,.44-.06.84.37,1.07,1.16,1.11,3.28.18,3.27.2,3.33-3.06.01-.52-.2-1.31.35-1.47,1.32-.39,2.77-.42,4.05-.03.97.29.46,1.46.49,2.23.06,2.31.03,2.31,2.32,2.31.1,0,.2-.01.29,0,1.45.23,1.97-.3,1.93-1.84-.08-3.2-.42-2.85,2.9-2.86,1.98-.01,1.97,0,1.98,2.06.02,2.95-.33,2.61,2.7,2.64Z"/><path class="cls-1" d="M77.79,57.99c0-.59.41-.84.7-1.14q2.49-2.6,4.98-.1c.1.1.21.21.31.31,2.72,2.72,2.69,2.97-.42,5.4-.47.37-.83.43-1.26,0-1.3-1.31-2.62-2.62-3.93-3.93-.17-.17-.28-.38-.39-.52Z"/><path class="cls-1" d="M126.03,62.8c-.63-.12-.92-.6-1.3-.97q-2.33-2.29-.06-4.56c.28-.28.52-.59.83-.82.79-.6,1.3-2.08,2.3-1.74,1.24.42,2.03,1.75,2.95,2.75.28.31.14.64-.13.91-1.38,1.38-2.75,2.76-4.14,4.13-.13.13-.32.21-.46.29Z"/><path class="cls-1" d="M106.8,49.52c-.1,4.01.75,3.46-3.61,3.52-.92.01-1.34-.31-1.32-1.27.04-1.61.03-3.23,0-4.84,0-.79.3-1.11,1.12-1.17,3.81-.31,3.81-.33,3.81,3.77Z"/><path class="cls-1" d="M72.59,78.68h.29c3.61,0,3.8.24,3.34,3.93-.08.66-.34.98-1,.97-1.76,0-3.54.15-5.28-.04-1.8-.2-.86-1.76-.94-2.71-.07-.75-.62-2.03.95-2.13.88-.06,1.76-.01,2.64-.01,0,0,0-.01,0-.02Z"/><path class="cls-1" d="M136.2,83.6c-.1,0-.2,0-.29,0-3.81,0-3.79,0-3.45-3.83.06-.7.28-1.09,1.04-1.09,1.71.01,3.44-.16,5.13.04,2.09.25.84,2,1.06,3.05.17.78.31,1.88-1.14,1.82-.78-.03-1.57,0-2.35,0h0Z"/><path class="cls-1" d="M63.11,142.39c-1.86,0-3.72-.02-5.59,0-1.14.01-2.03-.4-2.48-1.47-.46-1.1-.19-2.09.67-2.94,3.82-3.8,7.63-7.62,11.43-11.43.86-.86,1.86-1.1,2.95-.61,1.06.47,1.43,1.37,1.43,2.51-.02,3.72,0,7.45-.01,11.17-.01,1.91-.88,2.74-2.82,2.77-1.86.02-3.72,0-5.59,0Z"/></g></svg>