<?xml version="1.0" encoding="UTF-8"?><svg id="Capa_1" xmlns="http://www.w3.org/2000/svg" viewBox="0 0 210.8 176.47"><defs><style>.cls-1{fill:#fff;stroke-width:0px;}</style></defs><g id="eAqJ7D"><path class="cls-1" d="M78.03,127.94c-6.3-3.06-12.6-6.13-18.9-9.19-4.08-1.99-8.17-3.97-12.25-5.96-.45-.22-.92-.43-1.33-.71-1.18-.79-1.5-1.98-.9-3.15.58-1.14,1.81-1.61,3.09-1.1,1.08.43,2.12.94,3.16,1.45,10.21,4.97,20.41,9.96,30.61,14.93.35.17.71.33,1.16.34-3.03-2.3-6.06-4.61-9.1-6.91-5.15-3.9-10.31-7.79-15.46-11.69-.4-.3-.83-.59-1.15-.98-.84-1.02-.92-2.15-.1-3.19.8-1,1.92-1.17,3-.56,1,.57,1.89,1.34,2.82,2.04,13.33,10.08,26.66,20.14,39.95,30.26,1.29.99,2.11.95,3.38-.02,13.73-10.47,27.5-20.87,41.27-31.29.4-.3.79-.63,1.23-.89,1.18-.7,2.52-.49,3.28.47.78,1,.64,2.46-.37,3.42-.4.38-.86.7-1.31,1.03-8.05,6.09-16.1,12.18-24.07,18.42.46-.21.93-.41,1.38-.63,10.85-5.27,21.69-10.55,32.54-15.82.36-.18.73-.36,1.11-.48,1.23-.39,2.22,0,2.85,1.09.68,1.17.42,2.27-.64,3.09-.55.43-1.21.72-1.85,1.03-9.8,4.77-19.61,9.53-29.41,14.29-.49.24-.96.5-1.37.93,5.33-1.48,10.67-2.96,16-4.43.87-.24,1.75-.51,2.63-.7,1.64-.36,2.86.3,3.21,1.7.33,1.31-.37,2.53-1.9,2.98-3.63,1.07-7.28,2.06-10.93,3.07-10.06,2.78-20.13,5.56-30.19,8.34-1.86.51-1.85.53-1.08,2.34,1.46,3.43,1.45,3.39,5.11,2.45,17.79-4.55,35.58-9.08,53.37-13.62.49-.12.98-.25,1.47-.36.69-.16.88-.57.68-1.23-.46-1.55-.9-3.1-1.34-4.65-.22-.76-.69-.87-1.4-.66-1.64.49-3.3.95-4.96,1.36-1.67.41-2.95-.29-3.32-1.74-.34-1.33.47-2.51,2.1-2.98,2.33-.67,4.66-1.33,7-1.93,2.24-.58,4.02.4,4.72,2.63.68,2.17,1.29,4.35,1.88,6.54.21.79.55,1.17,1.43,1.23,3.81.26,6.53,2.72,6.81,6.05.32,3.79-1.77,6.74-5.57,7.72-7.57,1.95-15.15,3.86-22.73,5.79-11.53,2.94-23.06,5.9-34.6,8.82-.9.23-1.45.69-1.91,1.51-2.81,5.02-7.17,7.55-12.9,7.53-5.67-.01-9.97-2.56-12.75-7.53-.5-.89-1.12-1.31-2.06-1.55-13.49-3.42-26.98-6.87-40.47-10.32-.54-.14-1.09-.26-1.59-.49-1.13-.52-1.73-1.4-1.48-2.67.25-1.28,1.33-2.1,2.68-1.89,1.44.22,2.86.61,4.27.98,13.15,3.35,26.29,6.73,39.44,10.05,1.57.4,2.49,1.2,3.13,2.7,1.62,3.82,4.61,5.75,8.77,5.79,4.15.04,7.23-1.77,8.89-5.59.74-1.71,1.82-2.55,3.6-3,19.26-4.88,38.51-9.82,57.76-14.74.24-.06.5-.1.74-.18,1.42-.45,2.12-1.4,1.81-2.53-.4-1.43-1.5-1.72-2.75-1.42-3.83.91-7.64,1.87-11.45,2.85-16.81,4.29-33.61,8.61-50.43,12.88-1.55.39-2.4,1.07-2.63,2.79-.43,3.18-2.42,4.82-5.4,4.82-2.99,0-5-1.64-5.42-4.8-.23-1.71-1.05-2.42-2.61-2.81-20.29-5.15-40.57-10.33-60.85-15.5-.54-.14-1.08-.26-1.63-.3-1.17-.08-1.99.44-2.2,1.62-.2,1.1.36,1.9,1.39,2.22,1.73.54,3.49.98,5.25,1.45.95.25,1.65.77,1.91,1.75.45,1.68-.78,3.26-2.56,2.99-2.53-.39-5.1-.86-7.41-2.03-2.68-1.36-4.07-4.62-3.41-7.6.66-2.98,3.27-5.25,6.36-5.34,1.12-.03,1.6-.43,1.86-1.49.48-1.96,1.09-3.88,1.66-5.82.82-2.84,2.52-3.78,5.4-2.98,11.95,3.31,23.91,6.62,35.86,9.93.04-.07.08-.13.11-.2ZM98.09,144.64c.58.22.87-.14,1.08-.67.32-.8.65-1.58.99-2.37q.85-1.99-1.29-2.58c-3.84-1.05-7.68-2.1-11.52-3.16-14.92-4.13-29.84-8.25-44.74-12.41-1.12-.31-1.57-.02-1.82,1.04-.29,1.23-.61,2.45-1.04,3.63-.44,1.19-.13,1.63,1.13,1.95,14.86,3.75,29.7,7.57,44.55,11.37,4.2,1.07,8.41,2.13,12.67,3.21ZM104.3,144.99c-2.06,2.06-.96,4.31-.45,6.52.04.16.24.35.39.39.29.08.47-.15.53-.41.51-2.21,1.58-4.46-.47-6.5Z"/><path class="cls-1" d="M106.3,74.17c-2.36-1.83-3.04-4.25-3.65-6.71-.26-1.04-.85-1.77-1.91-2.16-2.6-.98-3.85-3-4.04-5.69-.17-2.42-.05-4.84.53-7.22.81-3.33,2.74-5.77,5.96-6.92,4.46-1.59,8.97-3.08,13.51-4.44,2.86-.85,5.67-.58,7.85,1.75,2.22,2.38,2.39,5.23,1.48,8.21-.58,1.9-1.56,3.6-2.63,5.26-1.04,1.61-2.13,3.19-2.86,4.98-.88,2.16-.97,4.27.13,6.43.54,1.05.95,1.22,1.89.47,3.65-2.93,6.5-6.48,8.39-10.76,3.42-7.75,3.78-15.58.67-23.53-.41-1.05-.86-1.61-2.1-1.2-1.88.63-3.81,0-5.71.02-.93.01-1.76.18-2.53.79-2.78,2.22-5.57,1.44-6.75-1.93-1.46-4.17-1.23-8.26,1.07-12.09.68-1.12.47-1.51-.66-1.92-2.91-1.05-5.87-1.8-8.99-1.88-1.01-.03-1.6.23-1.83,1.31-.37,1.72-1.44,3.09-2.41,4.5-.63.91-1.26,1.83-1.79,2.8-.56,1.05-.5,2.08.24,3.12,2.72,3.88,2.44,6.83-.89,10.23-.28.29-.55.6-.87.84-2.23,1.67-2.8,3.62-1.65,6.32.94,2.22.81,4.65-1.16,6.43-1.96,1.78-4.29,1.83-6.67.89-3.44-1.35-5.44-4.05-6.78-7.34-.84-2.06-1.37-4.22-1.83-6.39-.38-1.78-.86-3.53-1.64-5.18-.16-.34-.23-.89-.74-.83-.37.04-.45.5-.59.82-1.22,2.69-1.99,5.52-2.25,8.44-.59,6.82.56,13.27,4.33,19.11,1.04,1.62.86,3.04-.4,3.85-1.32.85-2.71.43-3.78-1.29-6.16-9.93-7.07-20.41-2.6-31.13,4.75-11.39,13.25-18.61,25.52-20.99,19.02-3.7,37.9,10.26,40.25,29.37,2.39,19.41-11.11,35.54-29.15,38.39-9.21,1.46-17.63-.68-25.17-6.17-.2-.15-.41-.3-.6-.47-1.19-1.07-1.39-2.38-.53-3.48.82-1.05,2.28-1.26,3.53-.35,2.47,1.79,5.09,3.26,7.97,4.29,3.61,1.31,8.06,1.9,11.87,1.44ZM101.69,57.25c-.52,2.02.25,3.47,2.49,4.35,1.5.59,2.57,2.02,2.82,3.57.6,3.8,2.76,5.97,6.36,6.9.19.05.35.2.54.27,1.04.38,1.93-.14,2.66-.69.7-.53,0-1.23-.26-1.75-1.29-2.68-1.85-5.41-1.04-8.35.63-2.26,1.68-4.31,2.93-6.27,1.03-1.61,2.17-3.17,2.88-4.96.53-1.33.96-2.83-.08-4.02-1.05-1.21-2.54-.69-3.82-.29-3.75,1.16-7.47,2.45-11.22,3.61-2.79.86-4.05,2.81-4.24,5.59-.04.6,0,1.21,0,2.05ZM99.1,16.21c-.19-.08-.29-.16-.37-.14-7,1.39-12.71,4.91-17.3,10.34-.59.69-.41,1.26.04,1.88,1.95,2.72,2.91,5.84,3.62,9.06.52,2.36,1.08,4.72,2.2,6.89.64,1.24,1.5,2.27,2.73,2.96.62.35,1.36.74,1.98.26.66-.52.01-1.2-.1-1.8-.05-.29-.18-.58-.28-.86-1.14-3.23-.45-6.04,1.95-8.46.71-.72,1.45-1.41,2.14-2.13,1.58-1.65,1.64-2.37.3-4.17-1.54-2.06-1.86-4.29-1.06-6.72.56-1.71,1.6-3.13,2.61-4.57.57-.8,1.25-1.55,1.54-2.53ZM126.26,27.94c.6-.08,1.29.23,1.54-.21.32-.58-.4-.95-.72-1.35-1.52-1.9-3.29-3.53-5.2-5.05-.93-.74-1.43-.55-2.02.38-1.23,1.95-1.4,4.06-1.2,6.26.06.67.42.86,1.04.6,2.15-.92,4.38-1.08,6.56-.63Z"/><path class="cls-1" d="M173.17,31.58c.06,1.5-.51,2.81-1.83,3.4-3.66,1.62-6.14,4.19-7.9,7.82-1.38,2.84-5.48,2.76-6.89-.1-1.7-3.44-4.01-5.9-7.53-7.57-3.02-1.44-3.03-5.64-.02-7.07,3.52-1.67,5.85-4.11,7.55-7.57,1.47-2.98,5.41-2.81,7.12.08.03.04.05.09.07.13,1.32,3.41,3.71,5.71,7.07,7.17,1.81.79,2.37,1.98,2.38,3.69ZM160.14,38.61c.12-.15.32-.32.41-.53,1.14-2.8,3.05-4.8,5.88-5.92.95-.38.67-.88-.07-1.18-2.65-1.08-4.57-2.86-5.63-5.55-.39-.99-1-.97-1.38,0-1.06,2.69-2.99,4.47-5.63,5.55-.76.31-.99.81-.06,1.18,2.78,1.1,4.67,3.06,5.8,5.8.11.27.22.57.67.65Z"/><path class="cls-1" d="M60.8,68.61c-.03,1.3-.6,2.43-1.76,3.23-.25.17-.5.34-.78.46-2.96,1.22-5.18,3.15-6.36,6.22-.66,1.73-2.01,2.82-3.93,2.8-1.99-.02-3.27-1.2-3.99-2.97-1.13-2.8-3.06-4.75-5.88-5.87-1.75-.7-2.96-1.96-2.93-4,.02-1.95,1.15-3.15,2.82-3.93.05-.02.09-.06.13-.07,2.91-1.09,4.81-3.18,5.94-6.03.13-.32.33-.63.53-.92,1.77-2.59,5.5-2.62,6.85.18,1.6,3.33,3.78,5.81,7.24,7.23,1.46.6,2.11,1.95,2.12,3.66ZM41.29,68.76c2.91,1.01,4.97,2.87,6.16,5.67.41.98.92.59,1.19-.11.99-2.55,2.83-4.21,5.3-5.26.85-.36.84-.82,0-1.16-2.45-.99-4.24-2.63-5.23-5.12-.42-1.05-.97-1.08-1.42.01-.99,2.41-2.69,4.08-5.11,5.04-.31.12-.66.28-.89.93Z"/><path class="cls-1" d="M91.77,107.14c-.03-1.62.58-2.81,1.91-3.61.09-.05.17-.12.26-.15,3.39-1.29,5.49-3.75,7.06-6.99,1.46-3.03,5.54-3.07,7.03-.04,1.61,3.29,3.9,5.52,7.17,7.13,3.03,1.5,3.02,5.53-.04,7.03-3.29,1.61-5.52,3.88-7.14,7.15-1.49,3.03-5.33,2.88-7.1-.03-.08-.13-.16-.26-.22-.4-1.18-3.16-3.41-5.22-6.5-6.51-1.55-.64-2.48-1.87-2.44-3.58ZM104.67,114.02c1.19-3.27,3.09-5.4,6.02-6.6,1.14-.47.14-.84-.25-1.01-2.33-1.05-4.19-2.55-5.14-5.03-.13-.35-.28-.87-.73-.87-.53,0-.67.58-.83.96-.94,2.26-2.55,3.82-4.8,4.75-.35.15-.89.26-.91.7-.02.53.57.69.95.84,2.4.95,3.93,2.72,4.92,5.04.13.31.36.58.77,1.23Z"/></g></svg>