<?xml version="1.0" encoding="UTF-8"?><svg id="Capa_1" xmlns="http://www.w3.org/2000/svg" viewBox="0 0 210.8 176.47"><defs><style>.cls-1{fill:#fff;stroke-width:0px;}</style></defs><g id="vIVzCy"><path class="cls-1" d="M104.22,124.23c-21.04,0-42.08,0-63.12,0-1.17,0-2.29-.07-3.25-.86-1.12-.92-1.26-2.16-1.26-3.51.02-24.83.01-49.66.01-74.48,0-3.79,0-7.58,0-11.37,0-2.93,1.27-4.21,4.17-4.22,6.58-.01,13.16-.06,19.74.03,1.63.02,1.91-.61,1.85-2.02-.1-2.07-.02-2.09-1.92-2.09-7.03,0-14.06-.02-21.09,0-4.18.01-6.8,2.56-7,6.74-.02.4,0,.8,0,1.2,0,28.92,0,57.83,0,86.75,0,1.61.09,3.21.96,4.62,1.22,1.99,2.95,3.22,5.37,3.25.7.01,1.4.02,2.09.02,34.5,0,69.01,0,103.51,0,.9,0,1.8-.06,2.68.18,1.29.35,1.96,1.23,1.85,2.53-.1,1.23-.88,1.98-2.12,2.15-.49.07-1,.04-1.49.04-7.78,0-15.56.03-23.33-.03-1.4-.01-1.96.33-1.89,1.82.12,2.34.09,4.69,0,7.03-.04,1.22.3,1.72,1.59,1.91,5.92.89,9.75,4.28,11.33,10.06.67,2.47.7,5.04.33,7.57-.33,2.2-1.69,3.35-3.88,3.35-16.65.01-33.31.01-49.96,0-2.21,0-3.65-1.13-3.91-3.32-.78-6.73.63-12.37,6.54-15.97,1.65-1.01,3.46-1.55,5.36-1.74,1.03-.11,1.35-.52,1.33-1.52-.05-2.54-.06-5.09,0-7.63.03-1.17-.36-1.57-1.54-1.55-3.79.06-7.58.02-11.37.02-12.07,0-24.13-.14-36.2.05-6.56.1-12.06-5.2-12.02-12.07.15-29.46.16-58.93,0-88.39-.04-6.62,5.31-12.23,12.05-12.03,7.02.21,14.06.02,21.09.07,1.2,0,1.84-.26,2.24-1.54,1.5-4.74,5.75-7.75,10.74-7.76,20.44,0,40.89,0,61.33,0,4.98,0,9.2,3.03,10.72,7.79.37,1.17.92,1.52,2.11,1.52,7.18-.05,14.36-.04,21.54-.02,6.83.01,11.65,4.85,11.65,11.71,0,29.66,0,59.33,0,88.99,0,6.82-4.85,11.66-11.68,11.68-3.94.01-7.88.01-11.82,0-1.87,0-2.98-.91-3.01-2.38-.02-1.37,1.04-2.42,2.83-2.46,3.84-.09,7.69-.2,11.51-.01,4.64.23,7.49-3.13,7.48-7.55-.04-29.22-.04-58.43,0-87.65,0-4.41-2.92-7.6-7.4-7.48-6.93.19-13.86.04-20.79.06-.61,0-1.49-.28-1.69.53-.26,1.04-.37,2.2.09,3.22.25.55,1,.3,1.53.31,6.53.01,13.06,0,19.59,0,3.2,0,4.4,1.21,4.4,4.44,0,28.52,0,57.03,0,85.55,0,3.22-1.21,4.44-4.41,4.44-21.14,0-42.28,0-63.42,0ZM141.42,70.14c0-15.55-.07-31.11.04-46.66.03-4.09-2.78-7.23-7.18-7.23-19.99,0-39.98-.01-59.97.02-4.44,0-7.06,2.7-7.07,7.11-.02,5.73,0,11.47-.01,17.2,0,.7-.01,1.4-.11,2.09-.23,1.63-1.13,2.44-2.54,2.34-1.39-.1-2.21-1.02-2.23-2.66-.03-1.99-.08-3.99.01-5.98.06-1.35-.48-1.7-1.74-1.69-5.83.05-11.67.06-17.5,0-1.48-.02-1.83.51-1.83,1.91.03,26.97.04,53.94,0,80.9,0,1.44.43,1.89,1.87,1.88,5.68-.07,11.37-.03,17.05-.03q2.13,0,2.14-2.15c0-20.84,0-41.67,0-62.51,0-.55-.03-1.1.03-1.64.13-1.31.87-2.14,2.18-2.25,1.32-.11,2.22.57,2.48,1.88.17.87.2,1.78.2,2.67.01,20.59,0,41.17,0,61.76,0,2.23,0,2.24,2.24,2.24,23.23,0,46.46,0,69.69,0,2.24,0,2.25,0,2.25-2.24,0-15.65,0-31.3,0-46.96ZM146.32,76.86c0,13.55.02,27.11-.02,40.66,0,1.33.33,1.85,1.75,1.84,5.88-.06,11.76-.06,17.64,0,1.34.01,1.68-.48,1.68-1.75-.03-27.06-.03-54.11,0-81.17,0-1.43-.51-1.77-1.83-1.76-5.73.05-11.46.02-17.19.02-2.03,0-2.03,0-2.03,2.1,0,13.35,0,26.71,0,40.06ZM104.26,160.22c3.64,0,7.27,0,10.91,0,3.93,0,7.87,0,11.8,0,.62,0,1.29.16,1.48-.8,1.1-5.59-2.93-10.65-8.61-10.67-10.36-.03-20.72,0-31.07,0-.75,0-1.48.03-2.22.23-4.17,1.11-6.34,4.38-6.39,9.42-.02,1.43.39,1.88,1.84,1.86,7.42-.07,14.84-.03,22.26-.03ZM104.37,133.21c-3.09,0-6.17.03-9.26-.02-1.04-.01-1.57.26-1.54,1.42.05,2.59.05,5.18,0,7.76-.02,1.14.47,1.44,1.53,1.44,6.17-.03,12.34-.03,18.51,0,1.12,0,1.48-.43,1.47-1.5-.04-2.54-.06-5.08,0-7.61.03-1.22-.49-1.53-1.61-1.51-3.03.05-6.07.02-9.11.02Z"/><path class="cls-1" d="M133.16,53.85c0,16.05-12.82,28.74-28.93,28.83-15.87.08-28.89-13.36-28.79-29.02.1-15.76,13.37-28.9,29.13-28.69,15.82.21,28.59,12.94,28.59,28.89ZM104.31,77.95c13.52-.33,24.07-10.63,24.05-24.14-.02-13.44-10.44-23.95-23.95-24.01-13.32-.06-24.08,10.25-24.12,23.99-.04,13.61,10.59,23.82,24.02,24.16Z"/><path class="cls-1" d="M104.5,92.61c8.22,0,16.44,0,24.66,0,.5,0,1.01-.05,1.49.06,1.21.29,1.9,1.09,1.88,2.35-.02,1.19-.71,1.96-1.85,2.22-.52.12-1.09.07-1.64.07-16.49,0-32.97,0-49.46,0-.45,0-.9.02-1.34-.03-1.22-.14-2.1-1.13-2.11-2.31,0-1.19.86-2.19,2.08-2.34.49-.06.99-.03,1.49-.03,8.27,0,16.54,0,24.81,0Z"/><path class="cls-1" d="M104.34,110.78c-8.32,0-16.64,0-24.95,0-.59,0-1.23.02-1.76-.18-1.02-.39-1.59-1.21-1.49-2.34.1-1.18.79-1.91,1.95-2.14.48-.09.99-.05,1.49-.05,16.49,0,32.97,0,49.46,0,.3,0,.6,0,.9,0,1.56.06,2.57.95,2.6,2.29.03,1.4-1.01,2.4-2.64,2.4-8.52.02-17.04,0-25.55,0Z"/><path class="cls-1" d="M99.81,67.99c-2.3-.1-4.25-.86-5.86-2.43-1.71-1.68-3.41-3.35-5.07-5.08-2.65-2.77-2.68-6.86-.11-9.58,2.48-2.63,6.57-2.85,9.48-.51q1.68,1.36,3.26-.22c2.75-2.75,5.47-5.53,8.26-8.23,3.02-2.92,7.14-3,9.92-.27,2.62,2.58,2.92,6.78.34,9.46-4.83,5.03-9.82,9.91-14.79,14.81-1.48,1.46-3.44,1.94-5.42,2.05ZM99.81,63.03c1.38.11,2.31-.72,3.2-1.61,4.23-4.22,8.45-8.45,12.68-12.68.25-.25.52-.48.7-.77.64-.99.7-2.02-.21-2.84-.85-.76-1.84-.67-2.72.06-.38.31-.73.68-1.08,1.03-3.24,3.24-6.46,6.49-9.73,9.71-1.99,1.96-3.72,1.93-5.7,0-.5-.49-.97-1-1.49-1.47-1.07-.98-2.24-1.08-3.06-.3-.84.8-.81,2.18.17,3.2,1.52,1.58,3.08,3.11,4.65,4.65.7.69,1.55,1.08,2.58,1.02Z"/></g></svg>