<svg xmlns="http://www.w3.org/2000/svg" enable-background="new 0 0 249.493 251.792" viewBox="0 0 249.493 251.792" id="mammogram">
  <path d="M99,238.792H80.194v-95.291h100.197c1.104,0,2-0.896,2-2v-15.518c-8.966,3.758-20.597,6.788-35.56,7.788
		c-0.212,0.012-0.416,0.02-0.615,0.02c-4.714,0-8.654-3.686-8.972-8.392c-0.162-2.397,0.618-4.716,2.198-6.527
		c1.58-1.811,3.771-2.899,6.17-3.062c16.973-1.163,30.483-5.221,40.156-12.058c6.982-4.955,9.926-9.928,11.061-12.451
		c0.195-0.44,0.281-0.691,0.303-0.749c1.117-3.722,4.658-6.356,8.596-6.356c0.834,0,1.665,0.115,2.475,0.346
		c2.309,0.658,4.226,2.177,5.395,4.278c1.169,2.101,1.45,4.531,0.792,6.844c-0.267,0.961-2.94,9.743-13.136,18.76
		c-3.508,3.114-8.279,6.533-14.619,9.637c-0.707,20.633-2.891,45.064-18.227,67.706c16.522,8.812,30.52,11.831,42.004,11.833
		c22.926,0.004,36.027-12.087,38.875-15.02c0.078-0.08,0.147-0.151,0.207-0.216c-0.034-1.346-0.143-4.92-0.437-10.045
		c-0.381-6.597-1.068-15.735-2.297-25.882c-2.448-20.285-7.115-44.638-15.656-60.593c-5.726-10.678-12.919-17.331-22.071-17.315
		c-0.817,0-1.652,0.052-2.51,0.159c-9.279,1.239-13.65,5.465-16.313,12.411c-0.12,0.322-0.231,0.657-0.343,0.992
		c-1.264,0.786-2.509,1.493-3.718,2.148c-6.984,3.79-12.674,5.849-12.674,11.28c0,2.57,0.822,5.142,2.179,7.48H98.186v-61h84.706
		c1.104,0,2-0.896,2-2V18.458c0-1.106-0.896-2-2-2L88.892,0c-1.105,0-2,0.896-2,2v33.958h-6.697V25.501H18.807v213.291H0v11h99
		V238.792z M26.725,39.292h43.5v4.5h-43.5V39.292z M26.725,50.042h43.5v4.5h-43.5V50.042z M26.725,60.792h43.5v4.5h-43.5V60.792z"></path>
  <path d="M116.685 50.458v17.649l-8-.606c-1.103 0-2 .895-2 2v9.957c0 1.105.896 2 2 2h74.206c1.104 0 2-.895 2-2v-4.332c0-1.105-.896-2-2-2l-45.706-3.465V50.458H116.685zM200.671 205.929l-3.885 34.752c-.614 5.489 3.339 10.435 8.827 11.049.377.042.752.063 1.123.063 5.025.001 9.354-3.778 9.925-8.89l4.151-37.139c-3.225.524-6.687.835-10.401.837C207.328 206.601 204.08 206.392 200.671 205.929zM213.265 71.966c10.188-.511 19.067-7.946 20.981-18.417 2.234-12.221-5.863-23.937-18.084-26.172-12.219-2.238-23.939 5.859-26.174 18.082-2.215 12.121 5.736 23.744 17.793 26.109.098.019.193.043.291.061C209.822 71.95 211.561 72.052 213.265 71.966zM199.928 112.927c9.687-8.563 12.285-16.901 12.537-17.81 1.061-3.719-1.096-7.591-4.813-8.65-3.686-1.052-7.521 1.055-8.621 4.713-.002.002-.098.317-.376.942-.989 2.198-3.994 7.774-11.731 13.265-7.748 5.476-20.384 10.994-41.175 12.42-3.856.261-6.77 3.602-6.508 7.46.25 3.694 3.326 6.524 6.975 6.524.16 0 .321-.005.483-.017C173.667 129.973 190.26 121.508 199.928 112.927z"></path>
</svg>
