<svg xmlns="http://www.w3.org/2000/svg" viewBox="0 0 64 64" id="mammogram-machine">
  <g>
    <path d="M56 10H54V8a1 1 0 0 0-1-1H49a1 1 0 0 0-1 1v2H46a1 1 0 0 0-1 1v4a1 1 0 0 0 1 1h2v2a1 1 0 0 0 1 1h4a1 1 0 0 0 1-1V16h2a1 1 0 0 0 1-1V11A1 1 0 0 0 56 10zM19 8a1 1 0 0 0-1-1H8A1 1 0 0 0 7 8v3H19zM38 7H26a5.00837 5.00837 0 0 0-4.89893 4H42.89893A5.00837 5.00837 0 0 0 38 7zM38 51H19V41h1V29H19V13H17V51H15V13H7V56a1 1 0 0 0 1 1H42a1 1 0 0 0 1-1A5.00588 5.00588 0 0 0 38 51zM37.05127 22.31641A1 1 0 0 0 38 23h4a1 1 0 0 0 1-1V18H35.61243zM42.31641 28.05127L38 26.61243V31H37V26a1 1 0 0 0-1-1H30v6h5v1a1 1 0 0 0 1 1h6a1 1 0 0 0 1-1V29A1 1 0 0 0 42.31641 28.05127z"></path>
    <path d="M21,41h.18433A2.995,2.995,0,0,0,24,43h4a.99949.99949,0,0,0,.2749-.03857L35.14014,41H42a1,1,0,0,0,1-1V36a1,1,0,0,0-1-1H30v6H29V17H43V13H21Zm3-23h2V38H24Z"></path>
  </g>
</svg>
