<svg xmlns="http://www.w3.org/2000/svg" viewBox="0 0 128 128"><path fill="#ffb255" d="M97.28,27.845c-2.292-7.053-6.3-13.575-12.028-17.412a11.654,11.654,0,0,0-7.821-2.011,1.963,1.963,0,0,1-1.511-.493C61.577-4.286,37.361,7.408,30.72,27.845c-5.786,17.809-7.313,32.843,9.907,54.569,3.777,5.5,6,4.82,14.331,4.782H73.042c8.328.038,10.554.72,14.331-4.782C104.593,60.688,103.066,45.654,97.28,27.845Z"/><path fill="#ff7b7b" d="M90.829,124.041H37.171c-9.39,0-14.292-9.24-7.842-16.063a43.023,43.023,0,0,1,3.431-3.247c3.34-2.85,10.84-7.08,16-10.1a15.041,15.041,0,0,0,6.45-8.26,21.83,21.83,0,0,0,1.07-4.98H71.72a21.83,21.83,0,0,0,1.07,4.98,15.041,15.041,0,0,0,6.45,8.26c5.16,3.02,12.66,7.25,16,10.1a43.023,43.023,0,0,1,3.431,3.247C105.121,114.8,100.219,124.041,90.829,124.041Z"/><path fill="#fcd7d4" d="M95.243 103.727c-3.348-2.845-10.84-6.079-16-9.1v30.412H105.3a1.991 1.991 0 0 0 1.977-2.324C106.355 117.644 102.971 110.3 95.243 103.727zM22.694 125.041H48.755V94.629c-5.161 3.019-12.653 6.253-16 9.1-7.729 6.57-11.113 13.917-12.037 18.99A1.99 1.99 0 0 0 22.694 125.041z"/><path fill="#ff7b7b" d="M33.738 49.332c-3.129 1.589-3.551 5.715-2.5 8.671 1.35 3.8 5.382 7.182 9.854 5.735L39.045 49.447A6.519 6.519 0 0 0 33.738 49.332zM94.262 49.332a6.519 6.519 0 0 0-5.307.115L86.909 63.738c4.472 1.447 8.5-1.935 9.854-5.735C97.813 55.047 97.391 50.921 94.262 49.332z"/><path fill="#f74b5b" d="M87.374 58.237a1.5 1.5 0 0 1-1.124-2.492A7 7 0 0 1 92.993 53.2a1.5 1.5 0 0 1-.733 2.909 4.1 4.1 0 0 0-3.76 1.616A1.5 1.5 0 0 1 87.374 58.237zM40.626 58.237a1.5 1.5 0 0 1-1.126-.508 4.077 4.077 0 0 0-3.764-1.615 1.511 1.511 0 0 1-1.8-1.109 1.489 1.489 0 0 1 1.068-1.8 7 7 0 0 1 6.743 2.541 1.5 1.5 0 0 1-1.124 2.492zM72.79 86.371c-3.28 1.83-6.7 3.22-8.79 3.22s-5.51-1.39-8.79-3.22a21.83 21.83 0 0 0 1.07-4.98H71.72A21.83 21.83 0 0 0 72.79 86.371z"/><path fill="#ff8c83" d="M39.045,49.447c8.426-7.044,11.994-37.068,30.61-26.394a3.315,3.315,0,0,0,2.642.235c8.532-2.637,16.658,11.438,16.658,26.159C88.882,64.11,83.3,73.918,78.5,77.648c-4.154,3.231-11.084,6.943-14.5,6.943s-10.349-3.712-14.5-6.943C44.7,73.918,39.118,64.11,39.045,49.447Z"/><path fill="#ff6464" d="M64.035,61.5a5.268,5.268,0,0,1-3.435-1.43A1.5,1.5,0,1,1,62.557,57.8a1.918,1.918,0,0,0,2.957,0,1.5,1.5,0,0,1,1.957,2.273A5.272,5.272,0,0,1,64.035,61.5Z"/><path fill="#f74b5b" d="M71.317 65.919a1.5 1.5 0 0 0-1.884-.975 4.414 4.414 0 0 1-2.508.3c-.149-.025-.291-.049-.438-.066a3.191 3.191 0 0 0-2.341.512.326.326 0 0 1-.292 0 3.2 3.2 0 0 0-2.341-.512c-.147.017-.289.041-.438.066a4.4 4.4 0 0 1-2.508-.3 1.5 1.5 0 0 0-.91 2.86 7.343 7.343 0 0 0 3.926.393c.1-.016.188-.033.283-.045a1.064 1.064 0 0 1 .382.067 3.283 3.283 0 0 0 1.64.568c.037 0 .075 0 .112 0s.075 0 .112 0a3.283 3.283 0 0 0 1.64-.568.643.643 0 0 1 .382-.067c.095.012.186.029.283.045a7.363 7.363 0 0 0 3.926-.393A1.5 1.5 0 0 0 71.317 65.919zM65.261 73.538H62.739a1.5 1.5 0 1 1 0-3h2.522a1.5 1.5 0 0 1 0 3z"/><circle cx="50.949" cy="49.166" r="3.111" fill="#bc465a"/><path fill="#ad3645" d="M56.908 43.9c-1.061-.275-2.234-.536-3.372-.761s-2.293-.42-3.435-.616c-.57-.089-1.144-.175-1.714-.218a9 9 0 0 0-1.638-.033 11.882 11.882 0 0 0-3.282.773l-.008 0a.8.8 0 0 1-.716-1.426 11.76 11.76 0 0 1 3.641-1.569 11.6 11.6 0 0 1 2.017-.3c.654-.047 1.3-.047 1.95-.042a19.292 19.292 0 0 1 3.813.505 18.814 18.814 0 0 1 3.687 1.222 1.319 1.319 0 0 1-.882 2.475zM54.33 48.623a4.241 4.241 0 0 0-1.853-.884 10.752 10.752 0 0 0-2.42-.211c-.42.009-2.09.274-2.662.291a5.681 5.681 0 0 1-3.374-.8.816.816 0 0 1 .464-1.494l.062 0a5.875 5.875 0 0 0 2.355-.43 7.958 7.958 0 0 1 1.442-.41 13.872 13.872 0 0 1 1.623-.186 9.428 9.428 0 0 1 3.327.452A5.787 5.787 0 0 1 56.3 47.076 1.253 1.253 0 0 1 54.415 48.7z"/><circle cx="77.051" cy="49.166" r="3.111" fill="#bc465a"/><path fill="#ad3645" d="M70.149 41.438a18.814 18.814 0 0 1 3.687-1.222 19.292 19.292 0 0 1 3.813-.505c.649 0 1.3 0 1.95.042a11.6 11.6 0 0 1 2.017.3 11.76 11.76 0 0 1 3.641 1.569.8.8 0 0 1-.715 1.426l-.009 0a11.882 11.882 0 0 0-3.282-.773 9 9 0 0 0-1.638.033c-.57.043-1.144.129-1.714.218-1.142.2-2.29.381-3.435.616s-2.311.486-3.372.761l-.061.016a1.319 1.319 0 0 1-.882-2.475zM71.7 47.076a5.787 5.787 0 0 1 3.008-2.128 9.428 9.428 0 0 1 3.327-.452 13.872 13.872 0 0 1 1.623.186 7.958 7.958 0 0 1 1.442.41 5.875 5.875 0 0 0 2.355.43l.057 0a.816.816 0 0 1 .832.8.826.826 0 0 1-.363.7 5.681 5.681 0 0 1-3.374.8c-.572-.017-1.137-.2-1.4-.208a11.044 11.044 0 0 0-1.267-.083 10.752 10.752 0 0 0-2.42.211 4.241 4.241 0 0 0-1.853.884l-.085.079A1.253 1.253 0 0 1 71.7 47.076z"/><path fill="#38acb2" d="M77.521,100.411l-11.575,9.853a3.033,3.033,0,0,1-3.892,0l-11.575-9.853v24.63H77.521Z"/><path fill="#ffe8e6" d="M89.22 114.22l-8.35 10.82H69.89a307.816 307.816 0 0 0 8.07-30.16 1.826 1.826 0 0 1 .39-.83 2.017 2.017 0 0 1 2.48-.57l1.88.92a10.517 10.517 0 0 1 4.7 4.58 9.085 9.085 0 0 1 .6 1.35 63.673 63.673 0 0 1 2.44 9.06A5.848 5.848 0 0 1 89.22 114.22zM58.11 125.04H47.13l-8.35-10.82a5.848 5.848 0 0 1-1.23-4.83 63.673 63.673 0 0 1 2.44-9.06 9.085 9.085 0 0 1 .6-1.35 10.517 10.517 0 0 1 4.7-4.58l1.88-.92a2.017 2.017 0 0 1 2.48.57 1.826 1.826 0 0 1 .39.83A307.816 307.816 0 0 0 58.11 125.04z"/></svg>