<svg xmlns="http://www.w3.org/2000/svg" viewBox="0 0 128 128"><path fill="#f7bfd4" d="M22.815,60.459a1.5,1.5,0,0,1-1.439-1.081L17.425,45.8a1.5,1.5,0,1,1,2.881-.838l3.951,13.58a1.5,1.5,0,0,1-1.442,1.919Z"/><path fill="#ff7b7b" d="M94.894,49.29c-2.675-1.352-5.285-1.541-6.181-.921L86.786,63.563c4.3,1.39,9.213-2.3,10.51-5.944C98.3,54.779,97.9,50.811,94.894,49.29Z"/><path fill="#f74b5b" d="M87.823,58.075a1.5,1.5,0,0,1-1.143-2.469c2.1-2.486,5.807-2.11,5.964-2.095a1.5,1.5,0,0,1-.32,2.983,4.321,4.321,0,0,0-3.355,1.05A1.5,1.5,0,0,1,87.823,58.075Z"/><path fill="#ff7b7b" d="M33.106,49.29c2.675-1.352,5.285-1.541,6.181-.921l1.927,15.194c-4.3,1.39-9.213-2.3-10.51-5.944C29.7,54.779,30.1,50.811,33.106,49.29Z"/><path fill="#f74b5b" d="M40.177,58.075a1.5,1.5,0,0,1-1.146-.531,4.324,4.324,0,0,0-3.355-1.05,1.5,1.5,0,0,1-.32-2.983c.158-.015,3.86-.391,5.964,2.095a1.5,1.5,0,0,1-1.143,2.469Z"/><path fill="#ff9595" d="M89.713,40.5H38.35s-.036,6.652,0,8.869c.242,14.851,5.262,24.8,10.267,28.687,4.534,3.527,11.683,7.578,15.415,7.578s10.88-4.051,15.415-7.578c5-3.891,10.025-13.836,10.266-28.687C89.749,47.152,89.713,40.5,89.713,40.5Z"/><path fill="#ff7b7b" d="M94.885,104.419c-4.583-3.6-10.726-6.015-15.833-9-4.417-2.584-5.9-7.017-6.446-12.57H55.394c-.55,5.553-2.029,9.986-6.446,12.57-5.107,2.987-11.25,5.4-15.833,9-8.7,6.831-12,16.206-12.184,21.091h86.138C106.885,120.625,103.583,111.25,94.885,104.419Z"/><path fill="#ffccdc" d="M107.07,125.51H20.93c.19-4.88,3.49-14.26,12.19-21.09,4.58-3.6,10.72-6.02,15.83-9a11.359,11.359,0,0,0,4.52-4.87c10.23,4.98,18.17,2.71,21.7,1.14a11.215,11.215,0,0,0,3.88,3.73c5.11,2.98,11.25,5.4,15.83,9C103.58,111.25,106.88,120.62,107.07,125.51Z"/><path fill="#bc465a" d="M73.5 51.257c1.156.456 1.948.266 3.563-.4a9.568 9.568 0 0 1 1.439-.467 3.673 3.673 0 0 1 2.09.118 3.839 3.839 0 0 0 1.176.359l.294-.007a1.035 1.035 0 0 1 1.058 1.011 1.051 1.051 0 0 1-.072.405 2.191 2.191 0 0 1-1.5 1.26 2.713 2.713 0 0 1-1.169.035 3.121 3.121 0 0 1-.542-.148 1.385 1.385 0 0 0-.628-.017 7.3 7.3 0 0 0-.93.368 9.2 9.2 0 0 1-2.828.864 5.6 5.6 0 0 1-3.271-.683 1.5 1.5 0 0 1 1.3-2.7zM70.073 45.706a19.2 19.2 0 0 1 7.218-1.1 19.806 19.806 0 0 1 3.6.47 17.517 17.517 0 0 1 3.471 1.153 1.164 1.164 0 0 1-.911 2.141l-.032-.013a16.611 16.611 0 0 0-6.172-1.088 16.38 16.38 0 0 0-6.1 1.237l-.009 0a1.5 1.5 0 0 1-1.136-2.778zM55.882 53.951a5.592 5.592 0 0 1-3.271.683 9.216 9.216 0 0 1-2.828-.864 7.246 7.246 0 0 0-.93-.368 1.3 1.3 0 0 0-.389-.067l-.032.007c.01-.009-.142.055-.206.077a3.132 3.132 0 0 1-.543.148 2.714 2.714 0 0 1-1.169-.035 2.19 2.19 0 0 1-1.5-1.26 1.035 1.035 0 0 1 .581-1.344 1.021 1.021 0 0 1 .4-.072l.3.007a1.237 1.237 0 0 0 .694-.1c.039-.023.05-.049.08-.064a.407.407 0 0 0 .057-.036c.033-.018-.022.005.085-.043l.259-.112a3.674 3.674 0 0 1 2.09-.118A9.53 9.53 0 0 1 51 50.853c1.616.67 2.408.86 3.564.4l.022-.009a1.5 1.5 0 0 1 1.3 2.7zM56.913 48.506a16.376 16.376 0 0 0-6.1-1.237 16.615 16.615 0 0 0-6.172 1.088l-.028.011a1.164 1.164 0 0 1-.915-2.139 17.56 17.56 0 0 1 3.471-1.153 19.806 19.806 0 0 1 3.6-.47 19.2 19.2 0 0 1 7.219 1.1 1.5 1.5 0 1 1-1 2.829l-.063-.023z"/><path fill="#ffccdc" d="M94.681,19.193C88,12.008,76.584,6.767,64.032,6.767S40.066,12.008,33.383,19.193c-4.218,4.535-1.609,31.185-1.609,31.185,7.453-4.646,17.547-8.065,32.253-8.065h.009c14.707,0,24.8,3.446,32.254,8.093C96.29,50.406,98.9,23.728,94.681,19.193Z"/><path fill="#ffe3ee" d="M116.846 99.357c-.187-.719-1.47-1.115-2.533-.751-2.1.72-2.65 3.826-2.769 5.844a.2.2 0 0 1-.383.057c-1.984-4.743-5.476-9.217-9.411-9.694-4.86-.591-9.385 4.319-11.126 8.695-2.693 6.771 5.091 16.386 7.66 22h16.7a2 2 0 0 0 2-1.888C117.267 118.345 117.94 103.55 116.846 99.357zM65.9 95.1A29.707 29.707 0 0 1 52.813 91.9a1.5 1.5 0 0 1 1.313-2.7c9.53 4.639 16.9 2.693 20.435 1.118a1.5 1.5 0 0 1 1.218 2.742A24.372 24.372 0 0 1 65.9 95.1z"/><path fill="#ffccdc" d="M82.329,93.867c-.156,0-.312-.005-.469-.013a5.7,5.7,0,0,1-4.546-2.279,1.5,1.5,0,1,1,2.473-1.7,2.852,2.852,0,0,0,2.24.981,4.472,4.472,0,0,0,3.219-.942,1.5,1.5,0,0,1,2.27,1.963A7.07,7.07,0,0,1,82.329,93.867Z"/><path fill="#ffe3ee" d="M38.166,85.757c-3.6-1.438-9.606,8.192-12.439,4.559l-.77-1.8a13.69,13.69,0,0,1,.7-12.187c1.043-1.828,2.019-3.314,2.227-3.666a2.624,2.624,0,0,0,.238-2.7,2.39,2.39,0,0,0-3.188-1.063c-3.266,1.444-6.75,5.577-7.766,9.57a14.919,14.919,0,0,0-2.315-2.163c-2.416-1.75-4.294.208-5.106,1.187-1.926,2.32-2.833,5.958-2.833,11.24,0,5.911,5.583,13.315,4.895,16.438L5.323,122.819A2,2,0,0,0,7.2,125.51H23.333s2.35-13.937,4.25-18.677c1.679-4.187,7.556-10.525,11.48-15.558C40.875,88.95,39.934,86.463,38.166,85.757Z"/><path fill="#ffccdc" d="M82.25 65.8a1.5 1.5 0 0 1-1.075-2.546c4.061-4.169 6.317-10.6 7.015-14.835a1.5 1.5 0 1 1 2.96.487c-.278 1.689-1.963 10.422-7.825 16.44A1.493 1.493 0 0 1 82.25 65.8zM45.75 65.8a1.493 1.493 0 0 1-1.075-.454C38.813 59.33 37.128 50.6 36.85 48.908a1.5 1.5 0 1 1 2.96-.487c.7 4.237 2.954 10.666 7.015 14.835A1.5 1.5 0 0 1 45.75 65.8z"/><path fill="#ffe3ee" d="M96.289 51.906a1.5 1.5 0 0 1-.793-.227c-8.489-5.293-18.779-7.866-31.46-7.866-12.72 0-23.011 2.564-31.468 7.838a1.5 1.5 0 0 1-1.588-2.546c8.949-5.579 19.758-8.292 33.047-8.292 13.267 0 24.077 2.722 33.057 8.32a1.5 1.5 0 0 1-.8 2.773zM82.782 66.2A6.7 6.7 0 0 0 79.4 61.043c-3.553-1.923-9.3-3.366-15.366-3.366S52.219 59.12 48.666 61.043A6.7 6.7 0 0 0 45.282 66.2 16.772 16.772 0 0 0 49.6 78.8c4.246 4.441 10.434 7.441 14.434 7.441s10.187-3 14.434-7.441A16.776 16.776 0 0 0 82.782 66.2z"/><path fill="#ffe3ee" d="M64.032 87.739c-4.612 0-11.138-3.324-15.518-7.9a18.193 18.193 0 0 1-4.72-13.821 8.246 8.246 0 0 1 4.158-6.29c4.041-2.188 10.2-3.547 16.08-3.547s12.038 1.359 16.079 3.547a8.251 8.251 0 0 1 4.16 6.289h0A18.2 18.2 0 0 1 79.55 79.835C75.171 84.415 68.645 87.739 64.032 87.739zm0-28.562c-5.408 0-11.022 1.22-14.652 3.185a5.179 5.179 0 0 0-2.609 4.019 15.22 15.22 0 0 0 3.911 11.381c4.176 4.367 10.068 6.977 13.35 6.977s9.174-2.61 13.35-6.977a15.222 15.222 0 0 0 3.912-11.38 5.187 5.187 0 0 0-2.61-4.02C75.054 60.4 69.44 59.177 64.032 59.177zM79.573 92.545a3.017 3.017 0 0 1-1.987-.67c-2.068-1.74-.746-5.606.514-7.105a4.184 4.184 0 0 1 5.886-.51h0a4.174 4.174 0 0 1 .509 5.886 7.616 7.616 0 0 1-2.935 1.987A5.547 5.547 0 0 1 79.573 92.545zm-.035-2.993c.432.362 2.067-.629 2.661-1.336a1.176 1.176 0 0 0-.142-1.659h0A1.181 1.181 0 0 0 80.4 86.7C79.8 87.407 79.1 89.184 79.538 89.552z"/><path fill="#ffccdc" d="M27.458,59.511a1.827,1.827,0,0,0-2.265-1.244L20.44,59.651A1.826,1.826,0,0,0,19.2,61.915l7.46,25.638,8.262-2.4Z"/><polygon fill="#466dce" points="34.92 85.15 26.66 87.55 20.3 65.71 28.56 63.3 34.92 85.15"/><path fill="#4c60bf" d="M27.041 70.663a1.5 1.5 0 0 1-.418-2.941l2.973-.865a1.5 1.5 0 0 1 .838 2.881l-2.973.865A1.491 1.491 0 0 1 27.041 70.663zM28.749 76.533a1.5 1.5 0 0 1-.418-2.941l2.973-.865a1.5 1.5 0 0 1 .838 2.881l-2.973.865A1.491 1.491 0 0 1 28.749 76.533zM30.457 82.4a1.5 1.5 0 0 1-.418-2.941l2.973-.865a1.5 1.5 0 0 1 .838 2.881l-2.973.865A1.528 1.528 0 0 1 30.457 82.4z"/><path fill="#ffccdc" d="M20.3,67.21a1.5,1.5,0,0,1-.419-2.94l8.26-2.41a1.5,1.5,0,1,1,.839,2.88L20.72,67.15A1.5,1.5,0,0,1,20.3,67.21Z"/><rect width="3.883" height="10.231" x="30.275" y="86.148" fill="#f7bfd4" transform="rotate(-16.223 32.218 91.263)"/><path fill="#ffccdc" d="M28.747 99.1a1.5 1.5 0 0 1-.418-2.941l9.8-2.85a1.5 1.5 0 0 1 .838 2.881l-9.8 2.85A1.491 1.491 0 0 1 28.747 99.1zM24.134 89.787a1.5 1.5 0 0 1-.418-2.941l13.3-3.871a1.5 1.5 0 0 1 .837 2.881l-13.3 3.871A1.5 1.5 0 0 1 24.134 89.787zM17.359 90.239a4.39 4.39 0 0 1-1.966-.447 3.99 3.99 0 0 1-2.1-2.718c-.622-2.479-1.106-2.8-2.54-3.441a1.5 1.5 0 0 1 1.224-2.739c2.5 1.116 3.445 2.338 4.226 5.449a1.032 1.032 0 0 0 .529.765 1.685 1.685 0 0 0 1.248.025 1.774 1.774 0 0 0 .94-1.634 10.95 10.95 0 0 0-2.878-6.034A1.5 1.5 0 1 1 18.3 77.486a13.885 13.885 0 0 1 3.614 7.767A4.747 4.747 0 0 1 19.143 89.9 4.725 4.725 0 0 1 17.359 90.239z"/></svg>