<svg xmlns="http://www.w3.org/2000/svg" viewBox="0 0 128 128"><path fill="#466dce" d="M99.661 109.271c6.235-1.678 6.166-7.461 5.025-10.173-1.009-2.4 1.534-3.446 1.261-6.559-.325-3.7-4.073-4.207-5.594-5.712-1.825-1.806.208-5.854-1.667-7.6-2.747-2.563-2.483-1.287-4.875-2.5-3.445-1.75-1.46-4.079-2.469-6.25-.769-1.657-2.343-2.594-5.309-1.936H41.967c-2.966-.658-4.54.279-5.309 1.936-1.009 2.171.976 4.5-2.469 6.25-2.392 1.214-2.128-.062-4.875 2.5-1.875 1.749.158 5.8-1.667 7.6-1.521 1.5-5.269 2.007-5.594 5.712-.273 3.113 2.27 4.158 1.261 6.559-1.141 2.712-1.21 8.5 5.025 10.173zM64 3C42.762 3 27.418 22.307 32.305 50.61H95.7C100.582 22.307 85.238 3 64 3z"/><path fill="#ff7b7b" d="M33.138 49.29c-3.006 1.525-3.411 5.489-2.4 8.329 1.3 3.649 5.214 7.334 9.51 5.944L38.318 49.369A6.471 6.471 0 0 0 33.138 49.29zM94.862 49.29a6.471 6.471 0 0 0-5.18.079L87.754 63.563c4.3 1.39 8.214-2.3 9.51-5.944C98.273 54.779 97.868 50.815 94.862 49.29z"/><path fill="#f74b5b" d="M87.6 58.438A1.5 1.5 0 0 1 86.437 56a6.568 6.568 0 0 1 5.857-2.307 1.5 1.5 0 0 1-.456 2.965 3.546 3.546 0 0 0-3.067 1.225A1.5 1.5 0 0 1 87.6 58.438zM40.4 58.438a1.5 1.5 0 0 1-1.168-.559 3.56 3.56 0 0 0-3.054-1.227 1.5 1.5 0 1 1-.469-2.963A6.569 6.569 0 0 1 41.563 56 1.5 1.5 0 0 1 40.4 58.438z"/><path fill="#ff9595" d="M63.969 18.792h0zM87.522 39c-.4-3.268.679-6.674-.505-9.139-1.362-2.836-4.746-3.953-6.991-5.8s-3.961-4.949-6.924-5.887c-2.686-.85-5.962.764-9.1.616-3.14.148-6.416-1.466-9.1-.616-2.963.938-4.674 4.037-6.924 5.887s-5.629 2.965-6.991 5.8c-1.184 2.465-.109 5.871-.5 9.139-.326 2.692-2.438 7.095-2.16 10.365.242 14.851 5.263 24.8 10.267 28.687C53.119 81.583 60.268 85.634 64 85.634s10.881-4.051 15.415-7.578c5-3.891 10.025-13.836 10.267-28.687C89.96 46.1 87.848 41.7 87.522 39z"/><path fill="#ff7b7b" d="M94.917,105.419c-3.312-2.816-10.727-7.015-15.834-10-4.416-2.584-6.9-7.017-7.445-12.57H56.362c-.55,5.553-3.029,9.986-7.445,12.57-5.107,2.987-12.522,7.186-15.834,10a41.99,41.99,0,0,0-3.343,3.165c-6.035,6.4-1.433,15.926,7.364,15.926H90.9c8.8,0,13.4-9.525,7.364-15.926A41.99,41.99,0,0,0,94.917,105.419Z"/><path fill="#ffccdc" d="M106.1,125.51H21.9c.18-4.89,2.27-13.51,11.18-21.09,3.32-2.82,10.73-6.02,15.84-9a14.09,14.09,0,0,0,5.22-5.29,13.025,13.025,0,0,0,.69-1.34c5.27,3.4,11.59,3.17,14.43,2.84a2.026,2.026,0,0,1,2.08,1.32,3.735,3.735,0,0,0,1.32-.81c-.01-.01,0-.01,0-.01a8.213,8.213,0,0,0,1.45-1.58,14.229,14.229,0,0,0,4.97,4.87c5.11,2.98,12.52,6.18,15.84,9C103.83,112,105.92,120.62,106.1,125.51Z"/><path fill="#f7bfd4" d="M106.1,125.51H80.27c-.84-9.21-7.03-27.19-8.93-32.56a6.819,6.819,0,0,0,2.77-2.4,14.229,14.229,0,0,0,4.97,4.87c5.11,2.98,12.52,6.18,15.84,9C103.83,112,105.92,120.62,106.1,125.51Z"/><path fill="#ffccdc" d="M82.75,66.2a6.7,6.7,0,0,0-3.384-5.155c-3.553-1.923-9.3-3.366-15.366-3.366S52.187,59.12,48.634,61.043A6.7,6.7,0,0,0,45.25,66.2a16.776,16.776,0,0,0,4.316,12.6C53.812,83.239,60,86.239,64,86.239s10.187-3,14.434-7.441A16.776,16.776,0,0,0,82.75,66.2Z"/><path fill="#ffccdc" d="M64,87.739c-4.612,0-11.139-3.324-15.518-7.9a18.2,18.2,0,0,1-4.721-13.821,8.252,8.252,0,0,1,4.159-6.29c4.042-2.188,10.2-3.547,16.08-3.547s12.038,1.359,16.08,3.547a8.252,8.252,0,0,1,4.159,6.29,18.2,18.2,0,0,1-4.721,13.821C75.139,84.415,68.612,87.739,64,87.739Zm0-28.562c-5.408,0-11.022,1.22-14.652,3.185a5.179,5.179,0,0,0-2.609,4.02,15.216,15.216,0,0,0,3.911,11.38c4.177,4.367,10.067,6.977,13.35,6.977s9.173-2.61,13.35-6.977a15.216,15.216,0,0,0,3.911-11.38h0a5.179,5.179,0,0,0-2.609-4.02C75.022,60.4,69.408,59.177,64,59.177Z"/><path fill="#ffe3ee" d="M91.22,44.06c0,5.94-2.15,13.46-5.81,14.63-3.16,1-10.83,2.38-13.16.81-3.52-2.37-4.19-8.15-8.25-8.15s-4.73,5.78-8.25,8.15c-2.33,1.57-10,.19-13.16-.81-3.66-1.17-5.81-8.69-5.81-14.63a1.3,1.3,0,0,1,.15-.1,7.118,7.118,0,0,1,1.91-.79c6.02-1.41,18.5-1.92,25.16-1.92s19.14.51,25.16,1.92a7.118,7.118,0,0,1,1.91.79A1.3,1.3,0,0,1,91.22,44.06Z"/><path fill="#3e3466" d="M92.755,47.449a1.5,1.5,0,0,1-1.485-1.3c-.049-.368-1.256-1.241-2.453-1.521C82.976,43.26,70.5,42.75,64,42.75s-18.976.51-24.817,1.878c-1.2.28-2.4,1.153-2.453,1.521a1.5,1.5,0,0,1-2.974-.4c.334-2.484,3.537-3.761,4.743-4.043,6.13-1.436,18.609-1.957,25.5-1.957s19.371.521,25.5,1.957c1.206.282,4.409,1.559,4.743,4.043a1.5,1.5,0,0,1-1.287,1.686A1.544,1.544,0,0,1,92.755,47.449Z"/><circle cx="51.83" cy="50.335" r="4.94" fill="#ff9595"/><circle cx="76.17" cy="50.335" r="4.94" fill="#ff9595"/><path fill="#4261ba" d="M51.83 56.775a6.44 6.44 0 1 1 6.44-6.44A6.446 6.446 0 0 1 51.83 56.775zm0-9.88a3.44 3.44 0 1 0 3.44 3.44A3.443 3.443 0 0 0 51.83 46.9zM76.17 56.775a6.44 6.44 0 1 1 6.439-6.44A6.447 6.447 0 0 1 76.17 56.775zm0-9.88a3.44 3.44 0 1 0 3.439 3.44A3.444 3.444 0 0 0 76.17 46.9z"/><circle cx="64" cy="41.688" r="4.302" fill="#94ccff"/><path fill="#fff" d="M64,47.491a5.8,5.8,0,1,1,5.8-5.8A5.809,5.809,0,0,1,64,47.491Zm0-8.6a2.8,2.8,0,1,0,2.8,2.8A2.805,2.805,0,0,0,64,38.886Z"/><path fill="#f7bfd4" d="M81.77,125.51h-3c-.99-10.47-7-27.18-8.82-32.07a.482.482,0,0,0-.5-.32c-3.36.39-9.78.51-15.31-2.99a.746.746,0,0,1-.12-.07,1.5,1.5,0,0,1,1.62-2.53c4.96,3.19,11.07,2.89,13.46,2.61a3.488,3.488,0,0,1,3.56,1.99s-.01,0,0,.01c.03.08.07.16.1.25,1.87,5,8.02,22.16,9,32.98C81.76,125.42,81.77,125.46,81.77,125.51Z"/><path fill="#f7bfd4" d="M71.388,94.505a1.5,1.5,0,0,1-.373-2.953,5.948,5.948,0,0,0,1.824-1.834,1.5,1.5,0,1,1,2.5,1.654c-.64.968-2.113,2.708-3.579,3.085A1.525,1.525,0,0,1,71.388,94.505Z"/><path fill="#ffe3ee" d="M34.737 104.712c-1.645-4.137-6.505-8-11.1-7.442-3.595.436-6.583 4.257-8.339 8.4a.2.2 0 0 1-.383-.058c-.107-1.922-.6-4.859-2.57-5.534-1.005-.345-2.217.03-2.394.709-1.027 3.937-.406 17.759-.136 22.834a1.994 1.994 0 0 0 2 1.887H27.5C29.926 120.2 37.283 111.111 34.737 104.712zM117.984 100.787c-.178-.679-1.39-1.054-2.395-.709-1.967.675-2.463 3.612-2.57 5.534a.2.2 0 0 1-.382.058c-1.757-4.143-4.744-7.964-8.34-8.4-4.594-.558-9.454 3.305-11.1 7.442-2.545 6.4 4.812 15.488 7.241 20.8h15.684a1.994 1.994 0 0 0 2-1.887C118.39 118.546 119.011 104.724 117.984 100.787z"/></svg>