<svg xmlns="http://www.w3.org/2000/svg" viewBox="0 0 128 128"><path fill="#d6d9f2" d="M104.95,102.71C98.167,96,91.272,92.6,86,89.517c-4.56-2.667-7.015-4.015-8.074-7.1H50.074C49.015,85.5,46.56,86.85,42,89.517,36.728,92.6,29.833,96,23.05,102.71A52.193,52.193,0,0,0,10.5,122.892a2,2,0,0,0,1.9,2.624H115.6a2,2,0,0,0,1.9-2.624A52.193,52.193,0,0,0,104.95,102.71Z"/><path fill="#fafaff" d="M77.926,82.416H50.074c-.757,2.2-2.225,3.522-4.665,5.067a5.681,5.681,0,0,0-2.446,6.111L50.5,125.516H77.926L84.65,93.137a5.641,5.641,0,0,0-2.412-5.88C80.009,85.806,78.645,84.512,77.926,82.416Z"/><path fill="#f0f1ff" d="M47.654 125.516c-5.708-7.578-14.765-13.506-15.959-17.34-.862-2.768 8.532-21.435 16.4-22.7-1.833 19.234 5.329 40.045 5.329 40.045zM74.574 125.516s7.162-20.811 5.329-40.045c7.87 1.27 17.264 19.937 16.4 22.705-1.194 3.834-10.251 9.761-15.959 17.34z"/><path fill="#ffdbd7" d="M90.809,14C85.375,7.25,78.375,2.362,64,2.362S42.626,7.25,37.192,14c-6.662,8.276-8.36,25.54-6.672,34.408H97.481C99.169,39.54,97.471,22.276,90.809,14Z"/><path fill="#ff7b7b" d="M30.52 47.408C27.458 48.667 25.7 53.274 27.006 57.7c1.16 3.919 6.042 8.651 11.706 7.694l-2.224-17.91C35.259 46.756 32.086 46.765 30.52 47.408zM97.481 47.408a8.721 8.721 0 0 0-3.111-.477 6.3 6.3 0 0 0-2.858.55l-2.224 17.91a8.889 8.889 0 0 0 1.053.114c5.208.255 9.566-4.134 10.654-7.808C102.3 53.274 100.542 48.667 97.481 47.408z"/><path fill="#f74b5b" d="M38.157 57.977a1.5 1.5 0 0 1-1.246-.664c-1.362-2.028-4.18-1.632-4.3-1.614a1.5 1.5 0 0 1-.472-2.963c.194-.031 4.815-.735 7.26 2.9a1.5 1.5 0 0 1-1.244 2.337zM89.843 57.977A1.5 1.5 0 0 1 88.6 55.64c2.446-3.64 7.063-2.937 7.26-2.9a1.5 1.5 0 0 1-.473 2.963c-.134-.02-2.937-.409-4.3 1.614A1.5 1.5 0 0 1 89.843 57.977z"/><path fill="#ffa6a2" d="M87.036,25.623a19.776,19.776,0,0,0-6.161-8.748c-10-7.3-8.262,7.647-16.875,7.647S57.125,9.573,47.126,16.875a19.776,19.776,0,0,0-6.161,8.748c-1.431,5.4,1.575,13.772-4.477,21.858C37.2,66.785,40.9,74.3,47.7,80.525a25.864,25.864,0,0,0,16.3,6.6,25.866,25.866,0,0,0,16.3-6.6c6.8-6.223,10.5-13.74,11.215-33.044C85.461,39.4,88.467,31.026,87.036,25.623Z"/><path fill="#ff7b7b" d="M64.011,61.144c-1.033,0-6-1.5-6-3.742a1.5,1.5,0,0,1,2.872-.606,9.481,9.481,0,0,0,3.135,1.348A9.47,9.47,0,0,0,67.163,56.8a1.5,1.5,0,0,1,2.872.606C70.035,59.641,65.048,61.144,64.011,61.144Zm-3-3.742h0Z"/><path fill="#ffdbd7" d="M42,46.292a1.5,1.5,0,0,1-1.284-2.274c2.581-4.287,12.543-2.532,16.961-1.011a1.5,1.5,0,0,1-.977,2.837c-5.468-1.882-12.362-2.025-13.414-.279A1.5,1.5,0,0,1,42,46.292Z"/><path fill="#ff7b7b" d="M64.033,68.25a20.833,20.833,0,0,1-5.6-.574,1.5,1.5,0,0,1,.871-2.871,19.177,19.177,0,0,0,4.733.445,19.184,19.184,0,0,0,4.743-.447,1.5,1.5,0,0,1,.863,2.873A20.849,20.849,0,0,1,64.033,68.25Z"/><path fill="#ff7b7b" d="M73.184,71.279a1.5,1.5,0,0,1-1.294-2.258c1.056-1.8-.98-3.826-1.067-3.911a1.5,1.5,0,0,1,2.08-2.161c1.433,1.371,3.375,4.512,1.576,7.588A1.5,1.5,0,0,1,73.184,71.279Z"/><path fill="#fff" d="M44.092,48.2H57.653a2.263,2.263,0,0,1,2.263,2.263v0a5.255,5.255,0,0,1-5.255,5.255H47.083a5.255,5.255,0,0,1-5.255-5.255v0A2.263,2.263,0,0,1,44.092,48.2Z"/><path fill="#fff" d="M73.339,48.2h7.579a5.255,5.255,0,0,1,5.255,5.255v0a2.263,2.263,0,0,1-2.263,2.263H70.348a2.263,2.263,0,0,1-2.263-2.263v0A5.255,5.255,0,0,1,73.339,48.2Z" transform="rotate(180 77.129 51.954)"/><path fill="#ffdbd7" d="M54.662 57.213H47.083a6.762 6.762 0 0 1-6.755-6.755A3.768 3.768 0 0 1 44.092 46.7H57.653a3.767 3.767 0 0 1 3.764 3.763A6.762 6.762 0 0 1 54.662 57.213zM44.092 49.7a.765.765 0 0 0-.764.763 3.759 3.759 0 0 0 3.755 3.755h7.579a3.759 3.759 0 0 0 3.755-3.755.765.765 0 0 0-.764-.763zM86 46.292a1.5 1.5 0 0 1-1.286-.727c-1.052-1.747-7.947-1.6-13.414.279a1.5 1.5 0 0 1-.977-2.837c4.42-1.521 14.382-3.277 16.961 1.011A1.5 1.5 0 0 1 86 46.292zM80.918 57.213H73.339a6.762 6.762 0 0 1-6.755-6.755A3.767 3.767 0 0 1 70.348 46.7H83.909a3.768 3.768 0 0 1 3.764 3.763A6.762 6.762 0 0 1 80.918 57.213zM70.348 49.7a.765.765 0 0 0-.764.763 3.759 3.759 0 0 0 3.755 3.755h7.579a3.759 3.759 0 0 0 3.755-3.755.765.765 0 0 0-.764-.763z"/><path fill="#519e9c" d="M66.008,97.208H61.992c-2.037,6.113-3.566,22.867-3.566,28.308H69.575C69.575,120.075,68.046,103.321,66.008,97.208Z"/><path fill="#519e9c" d="M69.2,93.54c-.68,1.32-3.06,4.45-5.2,4.45s-4.53-3.13-5.2-4.45c1.1-.83,1.91-1.7,2.69-2.36A3.807,3.807,0,0,1,64,90.06C65.96,90.06,66.99,91.88,69.2,93.54Z"/><path fill="#3b726f" d="M59.736 111.149a1.5 1.5 0 0 1-.276-2.975 17.594 17.594 0 0 0 7.133-3.322 1.5 1.5 0 0 1 2.072 2.169c-2.2 2.1-6.459 3.688-8.648 4.1A1.588 1.588 0 0 1 59.736 111.149zM58.767 119.994a1.5 1.5 0 0 1-.187-2.988c2.835-.36 6.876-1.1 9.218-3.32a1.5 1.5 0 1 1 2.066 2.174c-2.981 2.832-7.652 3.709-10.907 4.122A1.515 1.515 0 0 1 58.767 119.994z"/><path fill="#ffdbd7" d="M59.915,51.959a1.5,1.5,0,0,1-.264-2.977,24.642,24.642,0,0,1,8.7,0,1.5,1.5,0,0,1-.526,2.955,21.634,21.634,0,0,0-7.638,0A1.534,1.534,0,0,1,59.915,51.959Z"/><circle cx="51.083" cy="48.633" r="3.321" fill="#bc465a"/><circle cx="76.917" cy="48.633" r="3.321" fill="#bc465a"/><path fill="#519e9c" d="M54.157,97.141a5.976,5.976,0,0,1-.607-.031,1.5,1.5,0,0,1,.3-2.985c1.475.146,2.863-.892,3.974-1.729a20.724,20.724,0,0,0,1.765-1.52c1.218-1.137,2.477-2.314,4.4-2.314s3.192,1.176,4.409,2.313A20.6,20.6,0,0,0,70.1,92.339c1.185.893,2.58,1.932,4.048,1.786a1.5,1.5,0,1,1,.3,2.985c-2.657.272-4.718-1.289-6.087-2.321a23.384,23.384,0,0,1-2.006-1.722c-1.058-.989-1.644-1.5-2.355-1.5s-1.3.517-2.363,1.507A23.105,23.105,0,0,1,59.7,94.74C58.378,95.738,56.517,97.141,54.157,97.141Z"/></svg>