<svg xmlns="http://www.w3.org/2000/svg" viewBox="0 0 128 128"><path fill="#ff7b7b" d="M102.646,124.51h-77.3c-4.167,0-6.926-1.348-5.125-5.106A35.478,35.478,0,0,1,32.17,105.42c6.27-4.42,8.84-6.69,13.94-9.68,1.815-1.061,3.43-3.122,4.74-4.389a11.791,11.791,0,0,0,.96-1.031,10.771,10.771,0,0,0,1.81-3.17,12.441,12.441,0,0,0,.69-3.12H73.68a12.9,12.9,0,0,0,.69,3.12,11.147,11.147,0,0,0,2.871,4.3c1.292,1.225,2.87,3.259,4.639,4.293,5.11,2.99,7.68,5.26,13.95,9.68a35.5,35.5,0,0,1,11.942,13.985C109.572,123.162,106.813,124.51,102.646,124.51Z"/><path fill="#f74b5b" d="M74.37,87.15a19.606,19.606,0,0,1-20.75,0,12.441,12.441,0,0,0,.69-3.12H73.68A12.9,12.9,0,0,0,74.37,87.15Z"/><path fill="#94ccff" d="M109.941,122.875a2,2,0,0,1-1.9,2.635H19.948a2,2,0,0,1-1.9-2.635A36.311,36.311,0,0,1,32.17,103.42a150.1,150.1,0,0,1,13.94-8.68,20.646,20.646,0,0,0,5.7-4.42C54.54,92,60.88,93.4,64,93.4s9.447-1.408,12.177-3.088a20.832,20.832,0,0,0,5.7,4.428,148.81,148.81,0,0,1,13.95,8.68A36.334,36.334,0,0,1,109.941,122.875Z"/><path fill="#bbdfff" d="M109.941,122.875a2,2,0,0,1-1.9,2.635H19.948a2,2,0,0,1-1.9-2.635A36.311,36.311,0,0,1,32.17,103.42a150.1,150.1,0,0,1,13.94-8.68,20.646,20.646,0,0,0,5.7-4.42C54.54,92,60.88,93.4,64,93.4s9.447-1.408,12.177-3.088a20.832,20.832,0,0,0,5.7,4.428,148.81,148.81,0,0,1,13.95,8.68A36.334,36.334,0,0,1,109.941,122.875Z"/><path fill="#fafaff" d="M76.177,90.312C73.446,91.991,67.119,93.4,64,93.4S54.542,92,51.81,90.32a17.045,17.045,0,0,0-2.727,12.962c1.334,7.968,6.25,22.234,6.25,22.234H73.167s5.916-14.453,5.916-22.234A28.716,28.716,0,0,0,76.177,90.312Z"/><path fill="#94ccff" d="M51.81 90.32C45.256 91.364 36.8 109.231 37.667 112c1.193 3.833 9.279 5.938 14.987 13.516h5.772S49.977 109.554 51.81 90.32zM76.177 90.312c1.833 19.234-6.6 35.2-6.6 35.2h5.771c5.709-7.578 13.794-9.683 14.988-13.516C91.2 109.231 82.731 91.356 76.177 90.312z"/><path fill="#ffccdc" d="M66.008,103.083H61.992a90.485,90.485,0,0,0-3.566,22.433H69.575A90.442,90.442,0,0,0,66.008,103.083Z"/><path fill="#ffccdc" d="M67.96,100.37c-.67,1.33-1.82,3.62-3.96,3.62s-3.29-2.29-3.97-3.61c.84-.64,1.46-1.3,2.05-1.81A2.933,2.933,0,0,1,64,97.72C65.5,97.72,66.28,99.11,67.96,100.37Z"/><path fill="#bc465a" d="M96.647,35.833c-.5-16.387-12.254-24.495-19.525-24.043a5.985,5.985,0,0,1-3.5-.8C63.787,5.014,41.228,6.5,33.678,25.571,30.244,36.25,32,45.656,32.817,53.1H95.174C95.991,45.656,96.77,39.854,96.647,35.833Z"/><path fill="#ff7b7b" d="M32.817 52.1c-2.923 1.663-2.893 5.923-2.15 8.564.886 3.154 5.213 7.771 10.849 6.328L38.7 51.514A7.313 7.313 0 0 0 32.817 52.1zM95.174 52.1a7.313 7.313 0 0 0-5.885-.589L86.474 67c5.636 1.443 9.963-3.174 10.85-6.328C98.066 58.026 98.1 53.766 95.174 52.1z"/><path fill="#f74b5b" d="M41 61.313a1.494 1.494 0 0 1-1.127-.51 4.207 4.207 0 0 0-3.709-1.247 1.5 1.5 0 0 1-.58-2.943 7.251 7.251 0 0 1 6.541 2.209A1.5 1.5 0 0 1 41 61.313zM87 61.313a1.5 1.5 0 0 1-1.125-2.491 7.251 7.251 0 0 1 6.541-2.209 1.5 1.5 0 1 1-.592 2.941 4.2 4.2 0 0 0-3.7 1.249A1.5 1.5 0 0 1 87 61.313z"/><path fill="#ff9595" d="M86.812,35c-2.188-4.443-9.265-13.531-12.692-12-3.453,3.667-11.692,13.663-23.62,8.333-3.427-1.531-6.467.576-8.8,3.431-3.41,4.169-3.615,14.793-2.365,23.248C41.112,70.042,48.371,87.125,64,87.125S86.879,70.042,88.657,58.012C89.907,49.557,89.583,40.625,86.812,35Z"/><path fill="#fff" d="M84.82 52.81c0 2.694-3.648 5.2-8.149 5.2s-8.149-2.508-8.149-5.2 3.648-3.48 8.149-3.48S84.82 50.116 84.82 52.81zM43.18 52.81c0 2.694 3.648 5.2 8.149 5.2s8.149-2.508 8.149-5.2-3.648-3.48-8.149-3.48S43.18 50.116 43.18 52.81z"/><path fill="#ff6464" d="M65.973 60.945a1.5 1.5 0 0 0-1.168.559 3.416 3.416 0 0 1-.822.146 3.454 3.454 0 0 1-.835-.147 1.5 1.5 0 0 0-2.667.942c0 1.809 2.529 2.205 3.5 2.205.036 0 3.49-.06 3.49-2.205A1.5 1.5 0 0 0 65.973 60.945zM59.954 71.781a3.19 3.19 0 0 1-1.4-.272A1.5 1.5 0 0 1 59.851 68.8a13.032 13.032 0 0 0 1.8-.232 15.558 15.558 0 0 1 2.337-.266 17.1 17.1 0 0 1 2.337.246 9.121 9.121 0 0 0 1.88.181 1.461 1.461 0 0 1 1.963.705 1.537 1.537 0 0 1-.732 2.023 6.239 6.239 0 0 1-3.572.055A14.637 14.637 0 0 0 64 71.3a13.373 13.373 0 0 0-1.864.227A14.115 14.115 0 0 1 59.954 71.781z"/><path fill="#bc465a" d="M85.292 46.157a1.491 1.491 0 0 1-.781-.22c-2.405-1.471-7.369-2.6-13.449-.947a1.5 1.5 0 0 1-.788-2.9c6.992-1.9 12.747-.586 15.8 1.282a1.5 1.5 0 0 1-.783 2.78zM42.708 46.157a1.5 1.5 0 0 1-.783-2.78c3.054-1.867 8.811-3.185 15.8-1.282a1.5 1.5 0 0 1-.788 2.9c-6.081-1.657-11.044-.525-13.449.947A1.491 1.491 0 0 1 42.708 46.157z"/><path fill="#ffccdc" d="M56.5,102.48a4.841,4.841,0,0,1-.505-.026,1.5,1.5,0,1,1,.3-2.984,4.355,4.355,0,0,0,2.781-1.249A15.577,15.577,0,0,0,60.4,97.085,5.175,5.175,0,0,1,64,95.223a5.171,5.171,0,0,1,3.606,1.86,15.734,15.734,0,0,0,1.262,1.094c.9.676,1.856,1.394,2.838,1.293a1.5,1.5,0,1,1,.305,2.984,6.948,6.948,0,0,1-4.892-1.839,18.339,18.339,0,0,1-1.561-1.34c-.8-.747-1.164-1.052-1.553-1.052s-.759.305-1.561,1.054a18.012,18.012,0,0,1-1.505,1.3A7.457,7.457,0,0,1,56.5,102.48Z"/><path fill="#bc465a" d="M76.671 59.513c-5.231 0-9.65-3.07-9.65-6.7 0-3.3 3.247-4.98 9.65-4.98s9.649 1.675 9.649 4.98C86.32 56.443 81.9 59.513 76.671 59.513zm0-8.683c-4.164 0-6.65.74-6.65 1.98 0 1.712 2.905 3.7 6.65 3.7s6.649-1.991 6.649-3.7C83.32 51.57 80.835 50.83 76.671 50.83zM51.329 59.513c-5.23 0-9.649-3.07-9.649-6.7 0-3.3 3.246-4.98 9.649-4.98s9.65 1.675 9.65 4.98C60.979 56.443 56.56 59.513 51.329 59.513zm0-8.683c-4.164 0-6.649.74-6.649 1.98 0 1.712 2.9 3.7 6.649 3.7s6.65-1.991 6.65-3.7C57.979 51.57 55.493 50.83 51.329 50.83z"/><path fill="#bc465a" d="M68.547,54.311a1.49,1.49,0,0,1-.541-.1,10.676,10.676,0,0,0-7.991,0,1.5,1.5,0,1,1-1.073-2.8,13.734,13.734,0,0,1,10.146,0,1.5,1.5,0,0,1-.541,2.9Z"/><circle cx="76.874" cy="50.817" r="2.755" fill="#cc526c"/><path fill="#bc465a" d="M82.137,51.057a1.5,1.5,0,0,1-1.095-.474,6.077,6.077,0,0,0-4.054-1.165A4.543,4.543,0,0,0,74.362,50a1.532,1.532,0,0,1-2.115.153,1.471,1.471,0,0,1-.2-2.063c1.117-1.356,3.379-1.626,4.627-1.666,2.172-.07,5,.45,6.555,2.107a1.5,1.5,0,0,1-1.094,2.526Z"/><circle cx="51.126" cy="50.817" r="2.755" fill="#cc526c"/><path fill="#bc465a" d="M45.863,51.057a1.5,1.5,0,0,1-1.094-2.526c1.553-1.657,4.377-2.178,6.555-2.107,1.248.04,3.51.31,4.627,1.666A1.5,1.5,0,0,1,53.638,50a4.544,4.544,0,0,0-2.626-.582,6.045,6.045,0,0,0-4.054,1.165A1.5,1.5,0,0,1,45.863,51.057Z"/></svg>