<svg xmlns="http://www.w3.org/2000/svg" viewBox="0 0 128 128"><path fill="#ffe8e6" d="M100.46,86.14c-.82-7.22-2.8-24.54-4.11-34.62v-.01c-.81-6.23-1.41-10.77-1.46-11.06a199.6,199.6,0,0,0-61.72,0c-.05.32-.66,4.85-1.47,11.07-1.31,10.08-3.28,27.4-4.1,34.62a5.013,5.013,0,0,0,2.63,4.98c2.05,1.09,5.04,2.61,8.55,4.17,7.43,3.3,17.18,5.79,25.25,5.79s17.83-2.49,25.26-5.78c3.49-1.56,6.49-3.08,8.54-4.18A5.013,5.013,0,0,0,100.46,86.14Z"/><path fill="#ff7b7b" d="M96.48,123.52h-64.9c-8.743,0-13.791-5.857-8.744-13a38.323,38.323,0,0,1,6.212-6.814c5.25-4.56,8.93-7.81,14.2-10.9,3.52-2.05,5.98-4.01,7.17-7.43a14.957,14.957,0,0,0,.73-3.45H76.92a14.364,14.364,0,0,0,.73,3.44c1.19,3.43,3.63,5.38,7.16,7.44,5.28,3.09,8.96,6.34,14.2,10.9a38.357,38.357,0,0,1,6.212,6.812C110.272,117.66,105.224,123.52,96.48,123.52Z"/><path fill="#26b1d1" d="M112.38,125.52H15.68c2.07-7.33,4.25-15.88,13.37-23.81a42.192,42.192,0,0,1,6.84-4.86c.41-.23,5.39-2.88,7.36-4.04a21.54,21.54,0,0,0,4.6-3.36h.02c5.94,2.79,11.74,4.18,16.16,4.17s10.22-1.38,16.17-4.17a21.875,21.875,0,0,0,4.61,3.36c1.97,1.16,6.96,3.81,7.36,4.04a40.755,40.755,0,0,1,6.84,4.86C108.13,109.64,110.32,118.19,112.38,125.52Z"/><path fill="#1587aa" d="M89.3,95.3c-7.43,3.29-17.2,5.78-25.274,5.78s-17.82-2.49-25.25-5.79c1.6-.86,3.44-1.87,4.47-2.48a21.54,21.54,0,0,0,4.6-3.36h.02c5.94,2.79,11.74,4.18,16.16,4.17s10.22-1.38,16.17-4.17a21.875,21.875,0,0,0,4.61,3.36C85.84,93.42,87.7,94.43,89.3,95.3Z"/><path fill="#26b1d1" d="M64,2.661C38.539,2.661,25.022,18,31.688,51.52H96.354C103.021,18,89.456,2.661,64,2.661Z"/><path fill="#45dded" d="M96.35,51.51v.01H31.7c.81-6.22,1.42-10.75,1.47-11.07a199.6,199.6,0,0,1,61.72,0C94.94,40.74,95.54,45.28,96.35,51.51Z"/><path fill="#ff7b7b" d="M30.331 55.192c.624 6.865 7.056 10.087 11.308 8.785L39.007 48.65C34.845 47.51 29.862 50.042 30.331 55.192zM89.057 48.65L86.425 63.977c4.252 1.3 10.684-1.92 11.308-8.785C98.2 50.042 93.219 47.51 89.057 48.65z"/><path fill="#f74b5b" d="M39.743 56.822a1.494 1.494 0 0 1-.828-.25A4.908 4.908 0 0 0 35.7 55.86a1.5 1.5 0 1 1-.646-2.929 7.813 7.813 0 0 1 5.523 1.141 1.5 1.5 0 0 1-.83 2.75zM88.324 56.818a1.5 1.5 0 0 1-.834-2.746 7.8 7.8 0 0 1 5.525-1.141 1.5 1.5 0 1 1-.647 2.929 4.944 4.944 0 0 0-3.226.716A1.5 1.5 0 0 1 88.324 56.818zM77.65 85.37a24.093 24.093 0 0 1-2.97 2.02 21.275 21.275 0 0 1-21.3 0 25.932 25.932 0 0 1-2.96-2.01 14.957 14.957 0 0 0 .73-3.45H76.92A14.364 14.364 0 0 0 77.65 85.37z"/><path fill="#ff9595" d="M88.988,37.6H39.076A36.8,36.8,0,0,0,38.007,48.65a74.438,74.438,0,0,0,2.632,15.327c1.211,3.988,2.731,13.6,12.744,19.412a21.257,21.257,0,0,0,21.3,0c10.013-5.815,11.533-15.424,12.744-19.412A74.438,74.438,0,0,0,90.057,48.65,36.8,36.8,0,0,0,88.988,37.6Z"/><path fill="#f9b9b7" d="M63.868,95.12c-4.15,0-10.322-1.36-16.584-4.288a1.5,1.5,0,0,1,.566-2.882,1.587,1.587,0,0,1,.658.143c5.676,2.666,11.17,4.027,15.354,4.027h.165c4.229,0,9.813-1.344,15.536-4.028a1.5,1.5,0,1,1,1.274,2.717c-6.26,2.935-12.271,4.311-16.807,4.311Z"/><path fill="#3ec6e5" d="M22.585 94.7c-3.944.479-7.218 4.689-9.131 9.238a.2.2 0 0 1-.384-.059c-.108-2.095-.637-5.369-2.809-6.114-1.1-.377-2.42.032-2.613.774-1.133 4.342-.429 19.7-.139 25.091a2 2 0 0 0 2 1.889H26.8c2.651-5.794 10.681-15.713 7.9-22.7C32.9 98.3 27.6 94.088 22.585 94.7zM120.417 98.536c-.194-.742-1.517-1.151-2.613-.774-2.173.745-2.7 4.019-2.809 6.114a.2.2 0 0 1-.384.059c-1.913-4.549-5.187-8.759-9.131-9.238-5.014-.609-10.318 3.607-12.114 8.122-2.779 6.984 5.251 16.9 7.9 22.7h17.29a2 2 0 0 0 2-1.889C120.846 118.234 121.549 102.878 120.417 98.536z"/><path fill="#1587aa" d="M64,39.052c4.974,0,19.438.466,30.017,3.026a1.782,1.782,0,0,0,2.189-1.758,9.3,9.3,0,0,0-5.35-7.938C84.692,29.507,71.526,28.325,64,28.325S43.307,29.507,37.14,32.382a9.306,9.306,0,0,0-5.351,7.938,1.782,1.782,0,0,0,2.189,1.758C44.557,39.518,59.029,39.052,64,39.052Z"/><path fill="#ffe8e6" d="M82.56,67.748c-.808-7.4-12.369-17.133-18.56-17.133S46.248,60.353,45.44,67.748c-.566,5.185,1,10.673,3.992,13.981,3.9,4.317,10.6,6.988,14.568,6.988s10.666-2.671,14.569-6.988C81.56,78.421,83.126,72.933,82.56,67.748Z"/><rect width="8.667" height="7.173" x="59.726" y="67.75" fill="#fff" rx="2" ry="2" transform="rotate(180 64.059 71.337)"/><path fill="#fff" d="M64,53.2c3.061,0,3.858,3.55,7.573,4.894,5.089,1.842,11.8.445,14.281-.035,3.405-.658,6.364-3.034,6.369-10.088a3.556,3.556,0,0,0-2.637-3.657C82.439,42.64,71.906,44.09,64,44.09s-18.44-1.45-25.585.224a3.556,3.556,0,0,0-2.638,3.657c.006,7.054,2.964,9.43,6.369,10.088,2.483.48,9.192,1.877,14.281.035C60.142,56.75,60.938,53.2,64,53.2Z"/><path fill="#ff5050" d="M77.668,60.522a19.567,19.567,0,0,1-6.606-1.017,11.545,11.545,0,0,1-4.394-3.11c-1.1-1.114-1.716-1.7-2.669-1.7s-1.57.581-2.668,1.7a11.553,11.553,0,0,1-4.394,3.11c-5.32,1.923-11.983.628-14.83.075l-.246-.048c-5.028-.973-7.58-4.862-7.586-11.56a5.051,5.051,0,0,1,3.8-5.118c5.149-1.208,11.743-.869,18.118-.541,2.783.142,5.41.277,7.809.277s5.027-.135,7.81-.277c6.377-.328,12.968-.666,18.118.541a5.051,5.051,0,0,1,3.8,5.118c-.006,6.7-2.558,10.587-7.585,11.56l-.247.048A43,43,0,0,1,77.668,60.522ZM64,51.7c2.253,0,3.608,1.375,4.805,2.587a8.681,8.681,0,0,0,3.279,2.4c4.536,1.639,10.632.457,13.235-.05l.25-.048c2.209-.428,5.149-1.787,5.155-8.617a2.086,2.086,0,0,0-1.48-2.2c-4.736-1.11-11.114-.783-17.281-.466-2.821.144-5.486.281-7.963.281s-5.141-.137-7.962-.281c-6.169-.317-12.547-.644-17.281.466a2.086,2.086,0,0,0-1.481,2.2c.006,6.83,2.946,8.189,5.156,8.617l.249.048c2.6.508,8.7,1.69,13.237.05a8.694,8.694,0,0,0,3.278-2.4C60.391,53.075,61.747,51.7,64,51.7Z"/><circle cx="76.853" cy="51.13" r="2.75" fill="#cc526c"/><path fill="#bc465a" d="M72.666,50.238a1.5,1.5,0,0,1-1.016-2.6c2.642-2.433,8.917-2.549,11.38-.211A1.5,1.5,0,1,1,80.966,49.6c-1.252-1.186-5.668-1.244-7.284.242A1.5,1.5,0,0,1,72.666,50.238Z"/><circle cx="51.147" cy="51.13" r="2.75" fill="#cc526c"/><path fill="#bc465a" d="M46.024,50.259a1.5,1.5,0,0,1-1.089-2.531c2.332-2.464,8.6-2.686,11.375-.4A1.5,1.5,0,0,1,54.4,49.643c-1.691-1.4-6.1-1.106-7.285.147A1.5,1.5,0,0,1,46.024,50.259Z"/></svg>