<svg xmlns="http://www.w3.org/2000/svg" viewBox="0 0 128 128"><path fill="#26b1d1" d="M101.578,38.32C100.953,19.882,88.119,2.513,63.967,2.513S27.047,19.882,26.422,38.32c-.416,12.268.3,25.666,16.02,33.185H85.558C101.282,63.986,102,50.588,101.578,38.32Z"/><path fill="#c1ecf7" d="M93.859,41.434q-29.964-12.442-59.718,0A468.408,468.408,0,0,0,29.2,90.443a4.089,4.089,0,0,0,2.426,3.938,81.712,81.712,0,0,0,64.744,0A4.089,4.089,0,0,0,98.8,90.443,468.408,468.408,0,0,0,93.859,41.434Z"/><path fill="#59cfe2" d="M96.64,62.51a27.643,27.643,0,0,1-11.08,9H42.44a27.643,27.643,0,0,1-11.08-9c.71-6.65,1.62-13.87,2.78-21.08Q63.9,29,93.86,41.43C95.02,48.64,95.93,55.86,96.64,62.51Z"/><path fill="#ff7b7b" d="M97.657,124.49H30.282c-5.489,0-8.191-4.736-5.794-9.674a27.2,27.2,0,0,1,7.7-10.006c3.41-2.89,11.03-7.18,16.28-10.25a11.991,11.991,0,0,0,5.32-6.58,49.5,49.5,0,0,0,1.18-5.34c.05-.33.09-.66.12-1H72.84c.03.34.07.67.12,1a45.342,45.342,0,0,0,1.2,5.37,11.988,11.988,0,0,0,5.31,6.55c5.25,3.07,12.87,7.36,16.27,10.25a27.217,27.217,0,0,1,7.71,10C105.849,119.752,103.146,124.49,97.657,124.49Z"/><path fill="#f74b5b" d="M74.16,88.01a21.142,21.142,0,0,1-20.37-.03,49.5,49.5,0,0,0,1.18-5.34H72.96A45.342,45.342,0,0,0,74.16,88.01Z"/><path fill="#ff9595" d="M90.4,38.215q-26.437-12.44-52.79,0s-.037,7.28,0,9.706c.248,16.252,5.409,27.134,10.552,31.392,4.66,3.859,12.008,8.293,15.843,8.293s11.183-4.434,15.843-8.293c5.143-4.258,10.3-15.14,10.552-31.392C90.432,45.5,90.4,38.215,90.4,38.215Z"/><path fill="#ffe3ee" d="M107.24,125.49H20.7c.19-5.02,2.33-13.89,11.49-21.68,2.14-1.82,5.95-3.79,9.78-5.77,2.27-1.17,4.54-2.34,6.5-3.48a11.634,11.634,0,0,0,2.77-2.23,49.389,49.389,0,0,0,25.46,0,11.634,11.634,0,0,0,2.77,2.23c1.96,1.15,4.24,2.32,6.52,3.49,3.83,1.98,7.62,3.95,9.75,5.76C104.91,111.6,107.05,120.47,107.24,125.49Z"/><rect width="8.667" height="7.173" x="59.635" y="67.736" fill="#fff" rx="2" ry="2"/><path fill="#1587aa" d="M63.971,39.038c4.974,0,17.438.467,28.017,3.027a1.782,1.782,0,0,0,2.189-1.758,9.306,9.306,0,0,0-5.35-7.939c-6.167-2.875-17.332-4.056-24.86-4.056s-18.692,1.181-24.859,4.056a9.309,9.309,0,0,0-5.351,7.939,1.783,1.783,0,0,0,2.19,1.758C46.526,39.505,59,39.038,63.971,39.038Z"/><path fill="#f7b5cd" d="M85.99,98.05A82.885,82.885,0,0,1,64,101.07a82.64,82.64,0,0,1-22.03-3.03c2.27-1.17,4.54-2.34,6.5-3.48a11.634,11.634,0,0,0,2.77-2.23,49.389,49.389,0,0,0,25.46,0,11.634,11.634,0,0,0,2.77,2.23C81.43,95.71,83.71,96.88,85.99,98.05Z"/><path fill="#ffccdc" d="M63.966,95.489A51.1,51.1,0,0,1,50.854,93.78a1.5,1.5,0,0,1,.772-2.9,48.144,48.144,0,0,0,24.689,0,1.5,1.5,0,1,1,.77,2.9A51.171,51.171,0,0,1,63.966,95.489Z"/><path fill="#ffe3ee" d="M64,53.115c-5.235,0-16.208,8.385-17.069,15.8-.737,6.354,1.124,10.719,3.812,13.693,3.665,4.053,9.805,5.612,13.257,5.612s9.592-1.559,13.257-5.612c2.688-2.974,4.549-7.339,3.812-13.693C80.208,61.5,69.235,53.115,64,53.115Z"/><path fill="#fff" d="M63.967,55.187c3.061,0,3.858,3.549,7.573,4.894,5.089,1.842,11.8.445,14.281-.035,3.405-.659,6.364-3.035,6.37-10.088A3.557,3.557,0,0,0,89.553,46.3c-7.145-1.674-17.679-.225-25.586-.225s-18.44-1.449-25.585.225a3.556,3.556,0,0,0-2.638,3.657c.006,7.053,2.964,9.429,6.37,10.088,2.482.48,9.191,1.877,14.281.035C60.11,58.736,60.906,55.187,63.967,55.187Z"/><circle cx="77.241" cy="51.405" r="3.164" fill="#cc526c"/><circle cx="50.694" cy="51.405" r="3.164" fill="#cc526c"/><path fill="#bc465a" d="M54.15,50.839a4.31,4.31,0,0,0-1.895-.909A12.344,12.344,0,0,0,48.5,49.8c-.266.005-.839.194-1.419.213a5.769,5.769,0,0,1-3.423-.809.814.814,0,0,1,.47-1.493h.056a5.957,5.957,0,0,0,2.4-.426,8.039,8.039,0,0,1,1.466-.415,14.067,14.067,0,0,1,1.647-.189,9.591,9.591,0,0,1,3.377.458,5.874,5.874,0,0,1,3.049,2.153,1.253,1.253,0,0,1-1.89,1.625Z"/><path fill="#ff4d5e" d="M77.638,62.509a19.613,19.613,0,0,1-6.609-1.017,11.558,11.558,0,0,1-4.393-3.111c-1.1-1.113-1.715-1.694-2.668-1.694s-1.572.581-2.669,1.694a11.554,11.554,0,0,1-4.394,3.111c-5.321,1.924-11.986.628-14.832.074l-.244-.047c-5.027-.973-7.579-4.862-7.585-11.56a5.05,5.05,0,0,1,3.8-5.119c5.148-1.206,11.742-.868,18.118-.541,2.782.142,5.41.277,7.81.277s5.026-.135,7.808-.277c6.377-.328,12.971-.665,18.119.541a5.049,5.049,0,0,1,3.8,5.119c0,6.7-2.557,10.587-7.584,11.56l-.243.047A43.008,43.008,0,0,1,77.638,62.509Zm-13.67-8.822c2.252,0,3.608,1.375,4.8,2.587a8.678,8.678,0,0,0,3.28,2.4c4.541,1.643,10.636.457,13.239-.049l.246-.048c2.21-.427,5.149-1.785,5.154-8.617a2.087,2.087,0,0,0-1.479-2.2C84.476,46.652,78.1,46.979,71.93,47.3c-2.822.144-5.487.281-7.962.281s-5.142-.137-7.963-.281c-6.167-.316-12.545-.643-17.281.466a2.087,2.087,0,0,0-1.48,2.2c.006,6.832,2.944,8.19,5.154,8.617l.248.048c2.6.507,8.7,1.692,13.238.049a8.666,8.666,0,0,0,3.279-2.4C60.359,55.062,61.715,53.687,63.968,53.687Z"/><path fill="#bc465a" d="M71.813,49.292a5.874,5.874,0,0,1,3.049-2.153,9.591,9.591,0,0,1,3.377-.458,14.067,14.067,0,0,1,1.647.189,8.088,8.088,0,0,1,1.466.415,5.957,5.957,0,0,0,2.4.426h.054a.814.814,0,0,1,.471,1.493,5.766,5.766,0,0,1-3.422.809c-.58-.019-1.153-.208-1.419-.213a12.35,12.35,0,0,0-3.761.131,4.311,4.311,0,0,0-1.894.909l-.081.077a1.253,1.253,0,0,1-1.891-1.624Z"/><rect width="8.667" height="7.173" x="59.635" y="67.736" fill="#fff" rx="2" ry="2"/><path fill="#3ec6e5" d="M23.66 97.252c-3.851.467-7 4.818-8.695 9.287l.02-.07c0-1.7-.284-5.609-2.617-6.409-1.005-.345-2.217.029-2.394.709-1.027 3.937-.406 17.759-.136 22.834a1.994 1.994 0 0 0 2 1.887H27.519c2.429-5.308 9.787-14.4 7.241-20.8C33.115 100.556 28.255 96.694 23.66 97.252zM104.32 97.252c3.851.467 7.005 4.818 8.7 9.287l-.021-.07c0-1.7.284-5.609 2.617-6.409 1.005-.345 2.217.029 2.4.709 1.027 3.937.406 17.759.135 22.834a1.994 1.994 0 0 1-2 1.887H100.461c-2.429-5.308-9.787-14.4-7.241-20.8C94.866 100.556 99.726 96.694 104.32 97.252z"/></svg>