<svg xmlns="http://www.w3.org/2000/svg" viewBox="0 0 128 128"><path fill="#ff7b7b" d="M74.2,90.79Q63.985,104.1,55.357,93.006,54.573,92,53.8,90.79a21.6,21.6,0,0,0,1.35-3.5,22.24,22.24,0,0,0,.55-4.74H72.29a21.515,21.515,0,0,0,.56,4.74A21.6,21.6,0,0,0,74.2,90.79Z"/><path fill="#f74b64" d="M72.85,87.29c-3.33,1.59-6.73,2.69-8.85,2.69s-5.52-1.1-8.85-2.69a22.112,22.112,0,0,0,.55-4.74H72.29A21.515,21.515,0,0,0,72.85,87.29Z"/><path fill="#94ccff" d="M107.21,125.5H20.79a1.992,1.992,0,0,1-1.93-2.54,41.437,41.437,0,0,1,12.26-18.49,58.687,58.687,0,0,1,15.54-9.49.035.035,0,0,1,.02-.01,52.116,52.116,0,0,0,5.64,1.92,43.2,43.2,0,0,0,23.36,0,47.969,47.969,0,0,0,5.63-1.92c.01,0,.02.01.03.01a58.846,58.846,0,0,1,15.54,9.49,41.491,41.491,0,0,1,12.25,18.49A1.99,1.99,0,0,1,107.21,125.5Z"/><path fill="#ff7b7b" d="M31.369 49.176c-3.208 1.455-3.981 5.426-2.928 9.05A8.9 8.9 0 0 0 39.394 64.3l-2.47-15.053A7.544 7.544 0 0 0 31.369 49.176zM96.626 49.176a7.547 7.547 0 0 0-5.556.07L88.6 64.3a8.9 8.9 0 0 0 10.953-6.073C100.606 54.6 99.833 50.631 96.626 49.176z"/><path fill="#ff9595" d="M36.924,49.246c1.1,16.472,5.342,25.213,11.936,30.329,4.394,3.3,11.569,6.4,15.137,6.4s10.743-3.1,15.137-6.4c6.595-5.116,10.839-13.857,11.936-30.329C91.07,6.375,36.924,4,36.924,49.246Z"/><path fill="#eefdff" d="M74.191,90.791c-1.9,2.678-5.748,4.5-10.2,4.5s-8.3-1.824-10.2-4.5c-4.871,4.87-5.359,12.963-5.359,12.963l1,21.75H78.562s1.688-13.812,1.688-21.812S74.191,90.791,74.191,90.791Z"/><path fill="#3f3772" d="M97.087,50.414c5.986-2,6.288-11.664,2.163-20.539C93.193,16.843,76.071-3.873,55.766,5.97a7.336,7.336,0,0,1-3.558.656C42.952,6.2,33.522,17.726,28.93,29.854c-2.281,6.024-6.922,16.508,1.679,20.746a16.749,16.749,0,0,0,6.183.421c11.665-2.559,9.375-28.188,19.951-28.188a2.245,2.245,0,0,0,1.482-.319c9.69-7.839,10.658,24.24,32.812,28.221A10.637,10.637,0,0,0,97.087,50.414Z"/><path fill="#ff6464" d="M65.64 60.245a1.5 1.5 0 0 0-1.114.5 2.541 2.541 0 0 1-.537.09 2.608 2.608 0 0 1-.549-.09 1.5 1.5 0 0 0-2.613 1c0 2.061 3.131 2.085 3.162 2.085s3.151-.024 3.151-2.085A1.5 1.5 0 0 0 65.64 60.245zM64 70.58a13.426 13.426 0 0 1-4.632-.913 1.5 1.5 0 1 1 1.307-2.7 9.324 9.324 0 0 0 6.65 0 1.5 1.5 0 1 1 1.308 2.7A13.428 13.428 0 0 1 64 70.58z"/><circle cx="50.637" cy="51.939" r="2.945" fill="#4a4587"/><path fill="#3f3772" d="M53.906,51.331a1.583,1.583,0,0,0,1.291-2.5,6.555,6.555,0,0,0-5.521-2.6,5.289,5.289,0,0,0-4.425,2.1,1.582,1.582,0,1,0,2.649,1.73,2.337,2.337,0,0,1,1.833-.667,3.5,3.5,0,0,1,2.878,1.261A1.585,1.585,0,0,0,53.906,51.331Z"/><circle cx="77.357" cy="51.939" r="2.945" fill="#4a4587"/><path fill="#3f3772" d="M74.089 51.331a1.583 1.583 0 0 1-1.291-2.5 6.553 6.553 0 0 1 5.521-2.6 5.291 5.291 0 0 1 4.425 2.1 1.582 1.582 0 0 1-2.65 1.73 2.335 2.335 0 0 0-1.832-.667 3.506 3.506 0 0 0-2.879 1.261A1.583 1.583 0 0 1 74.089 51.331zM83.957 41.831a16.287 16.287 0 0 0-12.693-.665 1.821 1.821 0 0 0-1.07 2.16h0a1.829 1.829 0 0 0 2.1 1.35c2.21-.4 6.167-.958 9.023-.4 2.137.418 2.975-.119 3.285-.743A1.318 1.318 0 0 0 83.957 41.831zM44.037 41.831a16.287 16.287 0 0 1 12.693-.665 1.822 1.822 0 0 1 1.071 2.16h0a1.829 1.829 0 0 1-2.1 1.35c-2.21-.4-6.167-.958-9.024-.4-2.136.418-2.975-.119-3.285-.743A1.318 1.318 0 0 1 44.037 41.831z"/><path fill="#bbdfff" d="M52.74 125.5H44.67a55.583 55.583 0 0 1-3.52-13.07c-.2-1.66 1.03-4.77 4.57-7.32a.2.2 0 0 0-.15-.36c-1.69.41-4.69.99-4.5-.01a15.67 15.67 0 0 1 3.87-8.13 15.391 15.391 0 0 1 1.72-1.63.035.035 0 0 1 .02-.01 24.9 24.9 0 0 1 7.12-4.18 37.022 37.022 0 0 0-1.48 6.1C50.5 108.07 52.2 121.74 52.74 125.5zM82.27 105.11c3.54 2.55 4.77 5.66 4.57 7.32a55.616 55.616 0 0 1-3.51 13.07H75.26c.54-3.76 2.24-17.43.42-28.61a37.022 37.022 0 0 0-1.48-6.1 25.128 25.128 0 0 1 7.14 4.19 16.129 16.129 0 0 1 1.71 1.63 15.51 15.51 0 0 1 3.87 8.13c.2 1-2.8.42-4.5.01A.2.2 0 0 0 82.27 105.11z"/><path fill="#6395e5" d="M111.143,96.594a5.352,5.352,0,0,1-10.7,0,5.428,5.428,0,0,1,5.351-5.351A5.164,5.164,0,0,1,111.143,96.594Z"/><path fill="#5275cc" d="M77.425,120.979A14.941,14.941,0,0,1,62.5,106.054V88.938a1.5,1.5,0,1,1,3,0v17.116a11.926,11.926,0,0,0,23.851,0V87.632a8.963,8.963,0,1,1,17.926,0v8.889a1.5,1.5,0,0,1-3,0V87.632a5.963,5.963,0,1,0-11.926,0v18.422A14.942,14.942,0,0,1,77.425,120.979Z"/><path fill="#6395e5" d="M64.014,90.438c-13.815,0-29.039-12.043-30.6-32.2a1.5,1.5,0,1,1,2.991-.232C37.831,76.43,51.563,87.438,64.014,87.438S90.2,76.43,91.626,58.009a1.5,1.5,0,1,1,2.992.232C93.053,78.4,77.829,90.438,64.014,90.438Z"/><path fill="#5275cc" d="M32.011,55.4h2.448a2,2,0,0,1,2,2v0a2,2,0,0,1-2,2H33.421a2.41,2.41,0,0,1-2.41-2.41V56.4a1,1,0,0,1,1-1Z" transform="rotate(180 33.734 57.404)"/><path fill="#5275cc" d="M93.98,55.4h1.038a2,2,0,0,1,2,2v0a2,2,0,0,1-2,2H92.57a1,1,0,0,1-1-1v-.588a2.41,2.41,0,0,1,2.41-2.41Z"/></svg>