<svg xmlns="http://www.w3.org/2000/svg" viewBox="0 0 128 128"><path fill="#85dddd" d="M122.16,126.04H5.84c.2-5.43,7.13-19.1,17.55-26.91a75.365,75.365,0,0,1,7.72-5.19,9.181,9.181,0,0,0,3.8-12.19A87.612,87.612,0,0,1,26.18,40.5C27.34,19.77,42.98,2.91,64,2.91s36.66,16.86,37.82,37.59a87.612,87.612,0,0,1-8.73,41.25,9.181,9.181,0,0,0,3.8,12.19,75.365,75.365,0,0,1,7.72,5.19C115.03,106.94,121.96,120.61,122.16,126.04Z"/><path fill="#ffc1bb" d="M92.211,48.522l0-.078a15.793,15.793,0,0,0-15.766-14.9H51.559A15.793,15.793,0,0,0,35.794,48.428l0,.094c-.175,3.132.314,12.442,1.547,16.771.676,2.376,3.735,15.409,17.223,21.428A26.843,26.843,0,0,0,64,89.116a26.843,26.843,0,0,0,9.441-2.395C86.929,80.7,89.988,67.669,90.664,65.293,91.9,60.964,92.386,51.654,92.211,48.522Z"/><path fill="#5dc1b9" d="M64 28.437c4.839 0 16.966.454 27.26 2.944a1.734 1.734 0 0 0 2.13-1.71 9.058 9.058 0 0 0-5.206-7.724C82.187 19.15 71.324 18 64 18s-18.187 1.15-24.188 3.947a9.058 9.058 0 0 0-5.206 7.724 1.734 1.734 0 0 0 2.131 1.71C47.03 28.891 59.164 28.437 64 28.437zM65.5 96v30.04h-3V96a1.5 1.5 0 0 1 3 0z"/><path fill="#9aedef" d="M33.116 100.878c-1.991-5-7.871-9.678-13.43-9-4.4.534-8.047 5.256-10.162 10.334a.2.2 0 0 1-.381-.06c-.109-2.317-.676-6.039-3.119-6.877-1.216-.417-2.682.036-2.9.859-1.27 4.87-.457 22.243-.142 28.023a2 2 0 0 0 2 1.886H24.355C27.294 119.618 36.2 108.621 33.116 100.878zM124.873 96.131c-.215-.823-1.681-1.276-2.9-.859-2.443.838-3.01 4.56-3.119 6.877a.2.2 0 0 1-.381.06c-2.115-5.078-5.763-9.8-10.162-10.334-5.559-.675-11.439 4-13.43 9-3.08 7.743 5.822 18.74 8.761 25.162h19.373a2 2 0 0 0 2-1.886C125.33 118.374 126.143 101 124.873 96.131z"/><path fill="#fff" d="M83.487,68.055C82.473,59.315,70.085,50.072,64,50.072S45.527,59.315,44.513,68.055c-.734,6.324.746,11.578,4.4,15.617,3.982,4.4,10.613,6.411,15.09,6.411s11.108-2.007,15.09-6.411C82.741,79.633,84.221,74.379,83.487,68.055Z"/><rect width="9.138" height="7.563" x="59.431" y="66.812" fill="#ffdbd7" rx="2.109" ry="2.109"/><path fill="#5dc1b9" d="M64,90.616A28.039,28.039,0,0,1,53.947,88.09c-6.188-2.761-14.328-8.827-17.959-22.043l-.094-.344c-1.263-4.432-1.794-13.849-1.6-17.265A17.322,17.322,0,0,1,51.559,32.049H76.441A17.3,17.3,0,0,1,93.7,48.359c0,.01.006.1.006.107.19,3.388-.341,12.805-1.6,17.238l-.094.343C88.381,79.263,80.241,85.329,74.053,88.09A28.039,28.039,0,0,1,64,90.616ZM51.559,35.049A14.3,14.3,0,0,0,37.291,48.514l0,.1c-.177,3.144.332,12.187,1.492,16.264l.1.37c3.32,12.086,10.69,17.6,16.289,20.1A25.626,25.626,0,0,0,64,87.616a25.626,25.626,0,0,0,8.83-2.265c5.6-2.5,12.969-8.013,16.289-20.1l.1-.369c1.16-4.078,1.669-13.121,1.491-16.277A14.315,14.315,0,0,0,76.441,35.049Z"/><path fill="#fff" d="M64,52.253c3.446,0,4.343,4,8.526,5.51,5.73,2.073,13.284.5,16.08-.04,3.834-.741,7.165-3.416,7.171-11.358a4,4,0,0,0-2.97-4.118C84.762,40.363,72.9,42,64,42s-20.762-1.632-28.807.252a4,4,0,0,0-2.97,4.118c.006,7.942,3.337,10.617,7.171,11.358,2.8.541,10.35,2.113,16.08.04C59.657,56.249,60.554,52.253,64,52.253Z"/><path fill="#ff7b7b" d="M48.609,60.308a48.228,48.228,0,0,1-9.225-1.059l-.275-.053c-5.558-1.075-8.38-5.391-8.386-12.83a5.5,5.5,0,0,1,4.128-5.579c5.771-1.351,13.18-.972,20.347-.6,3.135.161,6.1.313,8.8.313s5.667-.152,8.8-.313c7.165-.369,14.576-.748,20.347.6a5.5,5.5,0,0,1,4.128,5.579c-.006,7.439-2.828,11.755-8.386,12.83l-.275.053c-3.19.621-10.659,2.074-16.6-.076a12.815,12.815,0,0,1-4.877-3.458c-1.273-1.289-1.991-1.963-3.139-1.963s-1.866.674-3.139,1.963a12.815,12.815,0,0,1-4.877,3.458A21.857,21.857,0,0,1,48.609,60.308Zm-3.4-17.471a43.6,43.6,0,0,0-9.671.871,2.531,2.531,0,0,0-1.811,2.655c.006,7.832,3.4,9.394,5.957,9.887l.277.054c2.946.573,9.847,1.916,15.006.048a10.062,10.062,0,0,0,3.763-2.743c1.32-1.339,2.817-2.857,5.274-2.857s3.954,1.518,5.274,2.857a10.062,10.062,0,0,0,3.763,2.743c5.158,1.867,12.06.524,15.006-.048l.277-.054c2.555-.493,5.951-2.055,5.957-9.887a2.531,2.531,0,0,0-1.811-2.655c-5.358-1.255-12.553-.886-19.511-.53-3.174.163-6.172.317-8.955.317s-5.781-.154-8.955-.317C51.744,43.009,48.39,42.837,45.205,42.837Z"/></svg>