<svg xmlns="http://www.w3.org/2000/svg" viewBox="0 0 128 128"><ellipse cx="64" cy="43.75" fill="#287577" rx="33.083" ry="11.417"/><path fill="#a85050" d="M32.22 47.469c-3.146 1.357-4.58 5.428-3.344 9.6 1.094 3.7 5.673 8.3 11.687 6.916L38.3 47.334C37.143 46.65 33.5 46.916 32.22 47.469zM95.885 47.469c-1.281-.553-4.923-.819-6.082-.135L87.542 63.985c6.014 1.385 10.593-3.218 11.688-6.916C100.465 52.9 99.031 48.826 95.885 47.469z"/><path fill="#913a3a" d="M38.807 57.015a1.5 1.5 0 0 1-1.184-.577 3.8 3.8 0 0 0-3.059-1.585 1.5 1.5 0 0 1-.28-2.987 6.829 6.829 0 0 1 5.7 2.726 1.5 1.5 0 0 1-1.181 2.423zM89.3 57.015a1.5 1.5 0 0 1-1.182-2.423 6.835 6.835 0 0 1 5.7-2.726 1.5 1.5 0 0 1-.262 2.988 3.844 3.844 0 0 0-3.077 1.584A1.5 1.5 0 0 1 89.3 57.015z"/><path fill="#a85050" d="M117.207,122.851a48.593,48.593,0,0,0-14.1-21.731c-5.35-4.7-12.03-7.5-16.82-9.63-1.45-.64-2.72-1.22-3.74-1.77a12.17,12.17,0,0,1-4.24-3.65,14.979,14.979,0,0,1-1.8-5.44l-25.02-.06v.01a15.318,15.318,0,0,1-1.77,5.43,12.031,12.031,0,0,1-4.27,3.71c-1.02.55-2.29,1.13-3.74,1.77-4.79,2.13-11.47,4.93-16.82,9.63a48.593,48.593,0,0,0-14.1,21.731,1.993,1.993,0,0,0,1.935,2.509H115.272A1.993,1.993,0,0,0,117.207,122.851Z"/><path fill="#913a3a" d="M76.51,80.63l-25.02-.05a15.318,15.318,0,0,1-1.77,5.43A23.647,23.647,0,0,0,64,91.49a23.994,23.994,0,0,0,14.31-5.42A14.979,14.979,0,0,1,76.51,80.63Z"/><path fill="#119699" d="M115.272,125.36H12.728a1.993,1.993,0,0,1-1.935-2.509,48.593,48.593,0,0,1,14.1-21.731c5.35-4.7,12.03-7.5,16.82-9.63C44.32,101.25,56.7,112.02,64,115c7.3-2.98,19.68-13.75,22.29-23.51,4.79,2.13,11.47,4.93,16.82,9.63a48.593,48.593,0,0,1,14.1,21.731A1.993,1.993,0,0,1,115.272,125.36Z"/><path fill="#1a6c82" d="M64,122.688a1.334,1.334,0,0,1-.179-.011c-7.5-.9-21.282-12.96-26.815-23.456a1.5,1.5,0,1,1,2.655-1.4C44.992,107.937,57.99,118.767,64,119.674c6.01-.907,19.008-11.737,24.339-21.852a1.5,1.5,0,0,1,2.655,1.4c-5.533,10.5-19.316,22.553-26.815,23.456A1.334,1.334,0,0,1,64,122.688Z"/><path fill="#ad6666" d="M37.3,45.243v2.091c.672,18.211,5.125,26.3,11.544,32.167A23.822,23.822,0,0,0,64,85.727,24.1,24.1,0,0,0,79.259,79.5C85.678,73.63,90.131,65.545,90.8,47.334V45.289C90.821,23.934,37.321,23.888,37.3,45.243Z"/><path fill="#b55e5e" d="M37.3,45.243v2.091c.672,18.211,5.125,26.3,11.544,32.167A23.822,23.822,0,0,0,64,85.727,24.1,24.1,0,0,0,79.259,79.5C85.678,73.63,90.131,65.545,90.8,47.334V45.289C90.821,23.934,37.321,23.888,37.3,45.243Z"/><path fill="#974141" d="M63.989,61.269c-.047,0-4.616-.112-4.616-2.6a1.5,1.5,0,0,1,2.791-.764,6.035,6.035,0,0,0,1.825.369,6.156,6.156,0,0,0,1.848-.37,1.5,1.5,0,0,1,2.79.765C68.627,61.157,64.035,61.269,63.989,61.269Zm-1.616-2.6h0Z"/><path fill="#823939" d="M64 70.125c-2.866 0-6.031-.3-7.776-2.51a1.5 1.5 0 1 1 2.354-1.859c1.081 1.369 4.234 1.369 5.422 1.369s4.341 0 5.422-1.369a1.5 1.5 0 1 1 2.354 1.859C70.031 69.827 66.866 70.125 64 70.125zM43.1 45.022a1.5 1.5 0 0 1-.7-2.825c3.828-2.032 10.033-2.279 14.752-.587a1.5 1.5 0 1 1-1.012 2.824C52.2 43.023 46.9 43.2 43.8 44.847A1.5 1.5 0 0 1 43.1 45.022z"/><circle cx="50.905" cy="50.155" r="2.961" fill="#974141"/><path fill="#823939" d="M84.9,45.022a1.5,1.5,0,0,1-.7-.175c-3.1-1.646-8.4-1.823-12.333-.413a1.5,1.5,0,1,1-1.012-2.824c4.72-1.692,10.923-1.445,14.752.587a1.5,1.5,0,0,1-.7,2.825Z"/><circle cx="77.095" cy="50.155" r="2.961" fill="#974141"/><path fill="#119699" d="M96.212,15.7C89.188,8.15,77.192,2.642,64,2.642S38.812,8.15,31.789,15.7C27.355,20.468,30.1,49.072,30.1,49.072,37.931,44.188,48.539,40,64,40h.01c15.456,0,26.065,4.187,33.9,9.071C97.9,49.072,100.645,20.468,96.212,15.7Z"/><path fill="#ffdbd7" d="M30.1,50.634a1.5,1.5,0,0,1-.8-2.773c10.035-6.257,21.383-9.3,34.692-9.3s24.665,3.041,34.7,9.3a1.5,1.5,0,0,1-1.587,2.546c-9.545-5.951-20.373-8.844-33.1-8.844s-23.568,2.893-33.114,8.844A1.489,1.489,0,0,1,30.1,50.634Z"/><path fill="#823939" d="M45.609 49.608a1.5 1.5 0 0 1-1.129-2.487c1.63-1.866 4.587-2.242 5.783-2.316 1.07-.068 3.73-.08 5.238 1.263a1.5 1.5 0 0 1-1.995 2.241 5.019 5.019 0 0 0-3.055-.51 5.867 5.867 0 0 0-3.711 1.3A1.5 1.5 0 0 1 45.609 49.608zM82.391 49.608A1.5 1.5 0 0 1 81.26 49.1a5.867 5.867 0 0 0-3.711-1.3 5.028 5.028 0 0 0-3.055.51 1.5 1.5 0 0 1-2-2.241c1.507-1.343 4.166-1.331 5.238-1.263 1.2.074 4.153.45 5.783 2.316a1.5 1.5 0 0 1-1.129 2.487z"/></svg>