<svg xmlns="http://www.w3.org/2000/svg" viewBox="0 0 128 128"><path fill="#9b4242" d="M90.266,16C85.891,12.044,78.375,3.362,64,3.362S42.109,12.044,37.734,16C30.5,22.537,29.084,40.005,30.2,49.527H97.8C98.916,40.005,97.5,22.537,90.266,16Z"/><path fill="#94ccff" d="M105.439,100.308c-4.609-3.994-10.393-6.85-15.568-8.982a10.191,10.191,0,0,0-3.884-.77H42.013a10.191,10.191,0,0,0-3.884.77c-5.175,2.132-10.959,4.988-15.568,8.982A49.023,49.023,0,0,0,8.285,123.087a2,2,0,0,0,1.938,2.5H117.777a2,2,0,0,0,1.938-2.5A49.023,49.023,0,0,0,105.439,100.308Z"/><path fill="#fafaff" d="M82.62,125.59h-35A55.075,55.075,0,0,1,44.5,95.62a20.721,20.721,0,0,1,3.52-8.82,1.431,1.431,0,0,1,.11-.15,25.71,25.71,0,0,1,2.35-2.88,32.213,32.213,0,0,1,2.42-2.36l22.28-.43a27.284,27.284,0,0,1,2.29,2.77,36.039,36.039,0,0,1,2.1,3.16,1.4,1.4,0,0,1,.1.16,33.9,33.9,0,0,1,3.95,10.02C85.36,105.31,82.62,125.59,82.62,125.59Z"/><path fill="#fc7070" d="M30.52 48.408C27.458 49.667 25.7 54.274 27.006 58.7c1.16 3.919 6.042 8.651 11.706 7.694l-2.224-17.91C35.26 47.756 32.086 47.765 30.52 48.408zM97.48 48.408c-1.566-.643-4.739-.652-5.968.073l-2.224 17.91c5.664.957 10.546-3.775 11.706-7.694C102.3 54.274 100.542 49.667 97.48 48.408z"/><path fill="#ea424f" d="M89.843 58.977a1.5 1.5 0 0 1-1.182-2.423c2.42-3.1 7.165-2.985 7.366-2.977a1.5 1.5 0 0 1 1.451 1.548 1.525 1.525 0 0 1-1.544 1.45c-.944-.035-3.684.254-4.908 1.824A1.5 1.5 0 0 1 89.843 58.977zM38.157 58.977a1.5 1.5 0 0 1-1.183-.578c-1.225-1.57-3.958-1.852-4.909-1.824a1.523 1.523 0 0 1-1.541-1.455 1.5 1.5 0 0 1 1.449-1.543c.2-.008 4.947-.123 7.366 2.977a1.5 1.5 0 0 1-1.182 2.423z"/><path fill="#f48d7f" d="M83.307,23.122c-3.049-3.407-8.3-7.429-15.528-6.015a19.653,19.653,0,0,1-7.558,0c-7.23-1.414-12.479,2.608-15.528,6.015-4.131,4.617-4.026,18.461-8.2,25.359C37.2,67.785,40.9,75.3,47.7,81.525a25.861,25.861,0,0,0,16.3,6.6,25.861,25.861,0,0,0,16.3-6.6C87.1,75.3,90.8,67.785,91.512,48.481,87.333,41.583,87.438,27.739,83.307,23.122Z"/><path fill="#ff8680" d="M83.307,23.122c-3.049-3.407-8.3-7.429-15.528-6.015a19.653,19.653,0,0,1-7.558,0c-7.23-1.414-12.479,2.608-15.528,6.015-4.131,4.617-4.026,18.461-8.2,25.359C37.2,67.785,40.9,75.3,47.7,81.525a25.861,25.861,0,0,0,16.3,6.6,25.861,25.861,0,0,0,16.3-6.6C87.1,75.3,90.8,67.785,91.512,48.481,87.333,41.583,87.438,27.739,83.307,23.122Z"/><path fill="#47304c" d="M46.453,50.657a1.5,1.5,0,0,1-1.13-2.487c1.637-1.874,5.421-2.531,8.135-2.087,2.249.37,3.106,1.378,3.429,2.159a1.5,1.5,0,0,1-2.75,1.2,4.6,4.6,0,0,0-2.464-.49,6.229,6.229,0,0,0-4.09,1.194A1.5,1.5,0,0,1,46.453,50.657Z"/><path fill="#ef5959" d="M66.763,59.039a1.5,1.5,0,0,0-1.256.679,5.31,5.31,0,0,1-1.494.289,5.2,5.2,0,0,1-1.474-.288,1.5,1.5,0,0,0-2.757.82c0,2.4,4.189,2.468,4.231,2.468s4.25-.067,4.25-2.468A1.5,1.5,0,0,0,66.763,59.039Z"/><path fill="#47304c" d="M81.547,50.657a1.5,1.5,0,0,1-1.13-.513,6.229,6.229,0,0,0-4.09-1.194,4.341,4.341,0,0,0-2.48.506,1.463,1.463,0,0,1-1.941.779,1.529,1.529,0,0,1-.793-1.993c.323-.781,1.18-1.789,3.429-2.159,2.713-.445,6.5.213,8.135,2.087a1.5,1.5,0,0,1-1.13,2.487Z"/><path fill="#913c3c" d="M42.882 45.689a1.5 1.5 0 0 1-.848-2.738c3.86-2.642 10.6-3.2 16.02-1.338a1.5 1.5 0 0 1-.976 2.837c-4.448-1.53-10.312-1.1-13.35.977A1.5 1.5 0 0 1 42.882 45.689zM85.118 45.689a1.5 1.5 0 0 1-.846-.262c-3.038-2.078-8.9-2.508-13.35-.977a1.5 1.5 0 0 1-.976-2.837c5.422-1.865 12.159-1.3 16.02 1.338a1.5 1.5 0 0 1-.848 2.738z"/><path fill="#ef3a65" d="M66.313,98.291l-4.607.018c-2.309,6.928-4.04,21.112-4.04,27.279H70.4C70.4,119.421,68.622,105.219,66.313,98.291Z"/><path fill="#ef3a65" d="M68.84,95.06v.01c-.77,1.49-2.41,4.04-4.84,4.04s-4.08-2.55-4.84-4.04v-.01c.75-.7,1.41-1.45,2.04-2.08A4.126,4.126,0,0,1,64,91.42C65.81,91.42,67.03,93.38,68.84,95.06Z"/><path fill="#ef5959" d="M64.034,71.183a15.817,15.817,0,0,1-4.252-.44,1.5,1.5,0,1,1,.871-2.871h0a14.009,14.009,0,0,0,3.381.311,13.842,13.842,0,0,0,3.392-.315,1.5,1.5,0,0,1,.859,2.875A15.813,15.813,0,0,1,64.034,71.183Z"/><path fill="#f7e2e8" d="M82.994 57.366c-3.093.2-9.143.088-12.307 0a2.744 2.744 0 0 1-2.6-2.292 26.9 26.9 0 0 1-.524-4.879 2.753 2.753 0 0 1 2.6-2.828 112.922 112.922 0 0 1 13.356 0 2.773 2.773 0 0 1 2.6 2.828 25.482 25.482 0 0 1-.524 4.879A2.854 2.854 0 0 1 82.994 57.366zM45.006 57.366c3.093.2 9.143.088 12.307 0a2.744 2.744 0 0 0 2.6-2.292 26.9 26.9 0 0 0 .524-4.879 2.753 2.753 0 0 0-2.6-2.828 112.922 112.922 0 0 0-13.356 0 2.773 2.773 0 0 0-2.6 2.828 25.482 25.482 0 0 0 .524 4.879A2.854 2.854 0 0 0 45.006 57.366z"/><path fill="#913c3c" d="M64,62.569c4.212,0,6.144,1.317,8.7,2.768A1.424,1.424,0,0,1,72.139,68c-3.345.228-6.4-1.023-8.139-1.023h0c-1.735,0-4.794,1.251-8.139,1.023a1.424,1.424,0,0,1-.56-2.658C57.856,63.886,59.788,62.569,64,62.569Z"/><path fill="#af5454" d="M78.068 58.977c-3.034 0-6.164-.077-7.422-.111A4.212 4.212 0 0 1 66.623 55.4a28.174 28.174 0 0 1-.56-5.22 4.254 4.254 0 0 1 3.993-4.308 114.156 114.156 0 0 1 13.593 0 4.247 4.247 0 0 1 3.969 4.3 26.732 26.732 0 0 1-.569 5.261 4.368 4.368 0 0 1-3.959 3.425h0C81.754 58.948 79.929 58.977 78.068 58.977zM83 57.366h0zm-5.76-8.7c-2.589 0-5.234.073-6.966.2a1.26 1.26 0 0 0-1.206 1.348 25.316 25.316 0 0 0 .489 4.538 1.286 1.286 0 0 0 1.177 1.118c4.117.113 9.476.174 12.17 0h0a1.383 1.383 0 0 0 1.24-1.159 24.147 24.147 0 0 0 .479-4.5 1.284 1.284 0 0 0-1.231-1.353C81.852 48.726 79.565 48.667 77.235 48.667zM49.932 58.977c-1.861 0-3.686-.029-5.022-.114h0a4.368 4.368 0 0 1-3.959-3.425 26.732 26.732 0 0 1-.569-5.261 4.247 4.247 0 0 1 3.968-4.3 114.579 114.579 0 0 1 13.593 0 4.254 4.254 0 0 1 3.994 4.308 28.174 28.174 0 0 1-.56 5.22 4.212 4.212 0 0 1-4.023 3.467C56.1 58.9 52.966 58.977 49.932 58.977zM45.1 55.869c2.694.172 8.053.111 12.17 0a1.286 1.286 0 0 0 1.177-1.118 25.316 25.316 0 0 0 .489-4.538 1.26 1.26 0 0 0-1.206-1.348 111.064 111.064 0 0 0-13.119 0 1.283 1.283 0 0 0-1.23 1.352 24.148 24.148 0 0 0 .479 4.5 1.383 1.383 0 0 0 1.24 1.159z"/><path fill="#af5454" d="M60.41,51.7a1.5,1.5,0,0,1-.4-2.947,14.8,14.8,0,0,1,7.917,0,1.5,1.5,0,0,1-.787,2.9,11.711,11.711,0,0,0-6.335,0A1.527,1.527,0,0,1,60.41,51.7Z"/><path fill="#bbdfff" d="M49.43 87.7c-3.59 15.53-.59 37.89-.59 37.89H38.7a53.363 53.363 0 0 1-4.56-15.08c-.235-1.951 2.268-5.637 6.658-8.6a.2.2 0 0 0-.142-.364c-2.174.419-7.018 1.212-7.026-.052-.01-1.65 2.25-6.25 6.42-10.93a29.018 29.018 0 0 1 6.78-5.1 21.722 21.722 0 0 1 3.65-1.69c.02-.01.05-.02.07-.03A39.988 39.988 0 0 0 49.43 87.7zM87.354 101.542a.2.2 0 0 0-.142.364c4.39 2.967 6.893 6.653 6.658 8.6a53.363 53.363 0 0 1-4.56 15.08H79.16s3.01-22.37-.58-37.9a39.783 39.783 0 0 0-1.12-3.95l.01.01a21.86 21.86 0 0 1 3.7 1.71 29.1 29.1 0 0 1 6.79 5.1c4.17 4.68 6.43 9.28 6.42 10.93C94.372 102.754 89.528 101.961 87.354 101.542z"/><path fill="#ef3a65" d="M74.269,98.95A8.7,8.7,0,0,1,68.9,97.081a19.567,19.567,0,0,1-2.447-2.3c-.94-1-1.752-1.861-2.447-1.861s-1.513.862-2.453,1.861a19.547,19.547,0,0,1-2.446,2.3A8.687,8.687,0,0,1,52.748,98.9a1.5,1.5,0,1,1,.3-2.984A5.671,5.671,0,0,0,57.3,94.683a16.836,16.836,0,0,0,2.067-1.961c1.3-1.378,2.64-2.8,4.631-2.8s3.339,1.426,4.637,2.8A16.856,16.856,0,0,0,70.7,94.684a5.666,5.666,0,0,0,4.245,1.231,1.5,1.5,0,1,1,.3,2.984A9.679,9.679,0,0,1,74.269,98.95Z"/><circle cx="51.396" cy="50.195" r="2.354" fill="#913c3c"/><circle cx="76.604" cy="50.195" r="2.354" fill="#913c3c"/></svg>