<svg xmlns="http://www.w3.org/2000/svg" viewBox="0 0 128 128"><path fill="#473c59" d="M110.588,81.527a10.854,10.854,0,0,1-1.1-8.543,18.781,18.781,0,0,0-1.316-15.93A47.072,47.072,0,0,1,102.5,41.46C100.738,31.029,91.025,7.5,76.33,7.5,59.25-1.625,45.509,13.417,41.535,18.167c-5.35,6.393-9.111,18.069-10.868,28.5.351,46.289,10.134,75.014,78.8,63.455-1.715-6.112-.62-8.868,2.535-15.747A13.03,13.03,0,0,0,110.588,81.527Z"/><path fill="#c15764" d="M96.9,49.481a7.621,7.621,0,0,0-5.391,0l-1.69,14.891c4.892,1.411,9.286-2.435,10.391-6.24C101.2,54.746,99.9,50.841,96.9,49.481Z"/><path fill="#a53d4c" d="M90.239,58.728A1.5,1.5,0,0,1,89.06,56.3a6.655,6.655,0,0,1,6.128-2.638,1.5,1.5,0,0,1-.5,2.958,3.679,3.679,0,0,0-3.265,1.533A1.5,1.5,0,0,1,90.239,58.728Z"/><circle cx="93.26" cy="65.572" r="2.824" fill="#ffa95c"/><path fill="#c15764" d="M104.17,104.2C101.8,102.372,95,97,89.726,95.244c-4.958-1.651-13.247-4.614-13.247-13.709H51.521c0,9.095-8.289,12.058-13.247,13.709C33,97,26.2,102.372,23.83,104.2a33.421,33.421,0,0,0-7.2,7.785c-4.468,6.6.159,12.5,8.127,12.5h78.5c7.8,0,12.64-5.687,8.33-12.183A33.616,33.616,0,0,0,104.17,104.2Z"/><path fill="#c15764" d="M104.17,104.2C101.8,102.372,95,97,89.726,95.244c-4.958-1.651-13.247-4.614-13.247-13.709H51.521c0,9.095-8.289,12.058-13.247,13.709C33,97,26.2,102.372,23.83,104.2a33.421,33.421,0,0,0-7.2,7.785c-4.468,6.6.159,12.5,8.127,12.5h78.5c7.8,0,12.64-5.687,8.33-12.183A33.616,33.616,0,0,0,104.17,104.2Z"/><path fill="#c15764" d="M89.73,94.24H38.27c3.64-1.21,9.07-2.59,11.7-6.83a10.852,10.852,0,0,0,1.55-5.88H76.48a10.852,10.852,0,0,0,1.55,5.88C80.66,91.65,86.09,93.03,89.73,94.24Z"/><path fill="#94ccff" d="M104.17 102.2C101.8 100.372 95 96 89.726 94.244l-8.891 31.24h34.516a2 2 0 0 0 1.932-2.525C115.682 116.892 111.61 107.925 104.17 102.2zM38.274 94.244C33 96 26.2 100.372 23.83 102.2c-7.44 5.726-11.512 14.693-13.113 20.76a2 2 0 0 0 1.932 2.525H46.235z"/><path fill="#a53d4c" d="M78.03,87.41C74,90.5,68.75,93.13,64,93.13S54,90.5,49.97,87.41a10.852,10.852,0,0,0,1.55-5.88H76.48A10.852,10.852,0,0,0,78.03,87.41Z"/><path fill="#c9616e" d="M38.869,48.159a18.265,18.265,0,0,0-1.748,10.049c1.442,12.18,4.947,16.163,10.582,21.317,4.162,3.807,10.594,7.6,16.3,7.6s12.135-3.793,16.3-7.6C87.1,73.3,90.8,68.785,91.512,49.481c-4-6.606-4.171-27.753-16.329-26.637a2.875,2.875,0,0,1-2.54-1.17c-4.352-5.825-16.59-7.651-24.018,1.951C42.742,31.23,42.684,40.209,38.869,48.159Z"/><path fill="#b24d5e" d="M66.351,59.111a1.5,1.5,0,0,0-1.212.616,4.344,4.344,0,0,1-1.124.208,4.248,4.248,0,0,1-1.108-.207,1.5,1.5,0,0,0-2.712.883c0,2.26,3.782,2.324,3.82,2.324s3.836-.064,3.836-2.324A1.5,1.5,0,0,0,66.351,59.111Z"/><circle cx="49.916" cy="50.51" r="2.75" fill="#4c4260"/><path fill="#473c59" d="M53.02 50.139a18.663 18.663 0 0 0-2.112-1.345 5.785 5.785 0 0 0-2.139-.661 11.055 11.055 0 0 0-2.442.082 16.687 16.687 0 0 1-2.824.406.491.491 0 0 1-.189-.941l.1-.043c.67-.294 1.489-.832 2.406-1.2a9.91 9.91 0 0 1 2.975-.631 7.779 7.779 0 0 1 3.177.5 17.362 17.362 0 0 1 2.675 1.309 1.5 1.5 0 0 1-1.483 2.614A1.539 1.539 0 0 1 53.02 50.139zM55.491 45a40.345 40.345 0 0 0-6.973-1.692 12.074 12.074 0 0 0-3.376.091 8.188 8.188 0 0 0-3.053 1.18 1.026 1.026 0 1 1-1.12-1.72l.012-.008a11.462 11.462 0 0 1 3.759-1.511 14.63 14.63 0 0 1 3.96-.224 50.8 50.8 0 0 1 7.434 1.315h.005a1.325 1.325 0 1 1-.527 2.6C55.572 45.019 55.53 45.008 55.491 45z"/><circle cx="78.084" cy="50.51" r="2.75" fill="#4c4260"/><path fill="#473c59" d="M73.353 47.618a17.362 17.362 0 0 1 2.675-1.309 7.779 7.779 0 0 1 3.177-.5 9.91 9.91 0 0 1 2.975.631c.917.365 1.736.9 2.406 1.2l.1.043a.491.491 0 0 1-.189.941 16.687 16.687 0 0 1-2.824-.406 11.055 11.055 0 0 0-2.442-.082 5.785 5.785 0 0 0-2.139.661 18.663 18.663 0 0 0-2.112 1.345 1.5 1.5 0 1 1-1.77-2.428C73.255 47.678 73.306 47.646 73.353 47.618zM71.866 42.428A50.8 50.8 0 0 1 79.3 41.113a14.63 14.63 0 0 1 3.96.224 11.462 11.462 0 0 1 3.759 1.511 1.027 1.027 0 0 1-1.1 1.736l-.012-.008a8.188 8.188 0 0 0-3.053-1.18 12.074 12.074 0 0 0-3.376-.091A40.345 40.345 0 0 0 72.509 45a1.326 1.326 0 1 1-.77-2.538c.04-.012.08-.022.119-.03z"/><path fill="#fff" d="M58.759,66.108a1.147,1.147,0,0,0-1.207,1.375c.424,2.075,1.825,5.367,6.448,5.367s6.024-3.292,6.448-5.367a1.147,1.147,0,0,0-1.207-1.375c-1.526.091-3.681-.149-5.241-.149S60.285,66.2,58.759,66.108Z"/><path fill="#466dce" d="M65.292,118.822a1.989,1.989,0,0,1-2.583,0c-5.851-4.969-13.939-12.638-17.943-18.754v25.416H83.235V100.068C79.231,106.184,71.143,113.853,65.292,118.822Z"/><path fill="#bbdfff" d="M87.98 125.484l9.62-10.458a6.735 6.735 0 0 0 1.409-5.559c-.524-2.663-2.513-7.969-5.279-13.79a2.009 2.009 0 0 0-1.019-.981L86.7 92.107a2 2 0 0 0-2.75 1.437 271.36 271.36 0 0 1-8.614 31.94zM52.666 125.484a271.36 271.36 0 0 1-8.614-31.94 2 2 0 0 0-2.75-1.437L35.289 94.7a2.009 2.009 0 0 0-1.019.981c-2.766 5.821-4.755 11.127-5.279 13.79a6.735 6.735 0 0 0 1.409 5.559l9.62 10.458z"/><path fill="#473c59" d="M76.33,7.5s-.47,6.33-1.5,15.34a2.893,2.893,0,0,1-2.19-1.17c-4.35-5.82-16.59-7.65-24.02,1.95-5.88,7.61-5.94,16.59-9.75,24.54a18.275,18.275,0,0,0-1.75,10.05c1.44,12.18,4.95,16.16,10.58,21.31a33.867,33.867,0,0,0,8.46,5.65,97.355,97.355,0,0,0-8.6,8.02c-2.81,3.25.61,10.29-7.48,13.11-1.71.6-3.79,2.42-4.63,6.48-1.51,7.24-4.2,9.49-9.78,9.39-11.79-.23-13.34-13.96-11.09-20.59C16,97.42,16,96,13.58,92c-1.82-3.01-2.29-5.94.83-10.47a10.892,10.892,0,0,0,1.11-8.55A17.7,17.7,0,0,1,18.7,55.99a28.094,28.094,0,0,0,6.8-14.53C27.26,31.03,32.84,21.39,38.19,15,42.17,10.25,59.62-5.12,76.33,7.5Z"/></svg>