<svg xmlns="http://www.w3.org/2000/svg" viewBox="0 0 128 128"><path fill="#ff7b7b" d="M95.754 47.6c-1.863-.837-6.068-.462-7.141.2l-.93 14.947c5.143 1.483 9.785-2.259 10.946-6.26C99.663 52.932 98.91 49.02 95.754 47.6zM32.246 47.6c-3.156 1.416-3.909 5.328-2.875 8.887 1.161 4 5.8 7.743 10.946 6.26L39.387 47.8C38.314 47.142 34.109 46.767 32.246 47.6z"/><path fill="#f74b5b" d="M88.141 56.9a1.5 1.5 0 0 1-1.2-2.4c2.182-2.925 6.056-2.755 6.22-2.741a1.5 1.5 0 0 1-.155 3A4.792 4.792 0 0 0 89.344 56.3 1.5 1.5 0 0 1 88.141 56.9zM39.859 56.9a1.5 1.5 0 0 1-1.2-.6c-1.215-1.627-3.921-1.54-3.951-1.539a1.5 1.5 0 1 1-.149-3c.172-.008 4.324-.18 6.5 2.741a1.5 1.5 0 0 1-1.2 2.4z"/><path fill="#58bdc2" d="M100.685,104.151a57.42,57.42,0,0,0-15.48-9.535H42.8a57.42,57.42,0,0,0-15.48,9.535,42.355,42.355,0,0,0-12.532,18.935,2,2,0,0,0,1.928,2.543h94.578a2,2,0,0,0,1.928-2.543A42.355,42.355,0,0,0,100.685,104.151Z"/><path fill="#ff7b7b" d="M76.492,89.148c-8.266,10.088-16.594,10.171-24.984,0a12.152,12.152,0,0,0,1.761-4.434,14.7,14.7,0,0,0,.29-2.91H74.441a14.815,14.815,0,0,0,.29,2.921A12.3,12.3,0,0,0,76.492,89.148Z"/><path fill="#f74b5b" d="M74.731,84.725c-7.106,7.468-14.263,7.509-21.462-.011a14.7,14.7,0,0,0,.29-2.91H74.441A14.815,14.815,0,0,0,74.731,84.725Z"/><path fill="#ffa6a2" d="M89.719,46.783c-.166,2.393-.456,6.619-.663,9.84v.021c-.124,1.937-.217,3.5-.238,4.091-.207,4.869-.466,11.446-6.173,15.9-1.948,1.512-6.63,6.95-10.949,8.825a18.078,18.078,0,0,1-15.392,0c-4.319-1.875-9-7.313-10.949-8.825-5.707-4.454-5.966-11.031-6.173-15.9-.031-.611-.124-2.175-.238-4.07,0-.021-.011-.042,0-.063-.238-3.615-.56-8.379-.684-10.057C43.242,10.1,84.778,3.735,89.719,46.783Z"/><path fill="#291821" d="M64,58.564c-.037,0-3.678-.063-3.678-2.3a1.554,1.554,0,0,1,2.766-.972,3.768,3.768,0,0,0,.912.162,3.683,3.683,0,0,0,.9-.161,1.554,1.554,0,0,1,2.766.971C67.668,58.5,64.04,58.564,64,58.564Zm-.57-2.3h0Zm0,0Zm1.127,0Z"/><path fill="#ff5e4d" d="M70.584,25.858a3.8,3.8,0,0,1,6.55-.72c3.4,4.321,4.336,16.293,10.258,21.349,2.048,1.749,5.237,1.2,7.735.894,4.2-.509,4.874-8.363,3.039-16.4C97.34,27.367,93.861,8.4,75.115,5.3,60.66-1.986,35.786,9.543,32.123,24.387,30.4,31.353,28.008,38.2,28.936,42.181c.471,2.019,2.252,6.1,4.876,6.047,3.559-.07,6.508-.8,10.335-4.05C52.58,37.008,63.834,42.089,70.584,25.858Z"/><path fill="#ff5e4d" d="M70.141 43.735a1.554 1.554 0 0 1-.482-3.031 50.969 50.969 0 0 1 11.889-1.343 9.019 9.019 0 0 1 4.177 1.59 1.553 1.553 0 0 1-1.9 2.459h0a6.135 6.135 0 0 0-2.656-.964 50.269 50.269 0 0 0-10.545 1.211A1.545 1.545 0 0 1 70.141 43.735zM43.246 43.905a1.551 1.551 0 0 1-1.053-2.692 8.11 8.11 0 0 1 4.247-1.851A51.42 51.42 0 0 1 58.347 40.7a1.554 1.554 0 1 1-.961 2.955A50.522 50.522 0 0 0 46.82 42.446a5.181 5.181 0 0 0-2.541 1.069A1.558 1.558 0 0 1 43.246 43.905z"/><path fill="#ff6464" d="M66.12,54.714a1.553,1.553,0,0,0-1.212.581,3.768,3.768,0,0,1-.912.162,3.683,3.683,0,0,1-.9-.161,1.554,1.554,0,0,0-2.766.971c0,2.234,3.628,2.3,3.664,2.3s3.678-.063,3.678-2.3A1.553,1.553,0,0,0,66.12,54.714Z"/><path fill="#ff5e4d" d="M89.056,56.644c-.124,1.937-.217,3.5-.238,4.091-.207,4.869-.466,11.446-6.173,15.9-1.948,1.512-6.63,6.95-10.949,8.825a18.078,18.078,0,0,1-15.392,0c-4.319-1.875-9-7.313-10.949-8.825-5.707-4.454-5.966-11.031-6.173-15.9-.031-.611-.124-2.175-.238-4.07.29,2.175,2.341,5.4,4.92,7.261a5.724,5.724,0,0,0,6.681-.052c2.662-1.927,7.6-3.615,13.455-3.615a28.876,28.876,0,0,1,7.924,1.087,18.284,18.284,0,0,1,5.531,2.528,5.724,5.724,0,0,0,6.681.052C86.726,62.051,88.777,58.819,89.056,56.644Z"/><path fill="#fafaff" d="M76.492,89.148C74.019,92,68.14,92.99,64,92.99a21.943,21.943,0,0,1-12.487-3.846s-5.9,4.537-6.242,18.242c-.1,7.555,2.288,18.243,2.288,18.243H81.35s3.237-16.464,1.036-25.005S76.492,89.148,76.492,89.148Z"/><path fill="#66cad1" d="M42.8 94.616c-3.691 4.15-5.691 8.215-5.683 9.682 0 .886 2.7.626 4.779.3a.515.515 0 0 1 .4.915c-3.155 2.449-4.909 5.225-4.725 6.774A47.157 47.157 0 0 0 41.6 125.629h8.982s-3.738-22.9.927-36.485A23.289 23.289 0 0 0 42.8 94.616zM90.888 104.3c.008-1.467-1.992-5.532-5.683-9.682a23.289 23.289 0 0 0-8.715-5.472c4.665 13.584.927 36.485.927 36.485H86.4a47.157 47.157 0 0 0 4.038-13.347c.184-1.549-1.57-4.325-4.725-6.774a.515.515 0 0 1 .4-.915C88.185 104.924 90.883 105.184 90.888 104.3z"/><path fill="#58bdc2" d="M66.015,103.321h-4.03a89.278,89.278,0,0,0-3.578,22.308H69.593A89.278,89.278,0,0,0,66.015,103.321Z"/><path fill="#58bdc2" d="M68.278,100.438v.01c-.673,1.326-2.123,3.584-4.278,3.584s-3.6-2.258-4.288-3.584c.673-.621,1.243-1.284,1.8-1.843A3.65,3.65,0,0,1,64,97.217C65.605,97.217,66.683,98.946,68.278,100.438Z"/><path fill="#58bdc2" d="M54.914,104.113a8.959,8.959,0,0,1-.9-.047,1.554,1.554,0,0,1,.318-3.092,4.758,4.758,0,0,0,3.593-1.047,8.193,8.193,0,0,0,.714-.6c.412-.38.764-.756,1.1-1.113.232-.247.457-.485.68-.708A5.082,5.082,0,0,1,64,95.663c1.865,0,3.087,1.3,4.268,2.55.336.357.688.731,1.071,1.09a8.175,8.175,0,0,0,.719.608,4.759,4.759,0,0,0,3.613,1.063,1.554,1.554,0,1,1,.318,3.092A7.864,7.864,0,0,1,68.2,102.4c-.361-.265-1.811-1.653-2.191-2.056-.762-.809-1.483-1.574-2.006-1.574-.323,0-.749.286-1.38.926-.209.209-1.409,1.483-1.854,1.894a11.278,11.278,0,0,1-.964.811A7.864,7.864,0,0,1,54.914,104.113Z"/><path fill="#de3636" d="M64,67.008c-1.909,0-4.433-.2-5.613-1.175a1.554,1.554,0,0,1,1.974-2.4A9.3,9.3,0,0,0,64,63.9a8.9,8.9,0,0,0,3.674-.484,1.541,1.541,0,0,1,2.176.221,1.565,1.565,0,0,1-.224,2.2C68.674,66.613,66.781,67.008,64,67.008Z"/><path fill="#fff" d="M42.393 47.04a32.764 32.764 0 0 0 .938 8.362 3.422 3.422 0 0 0 3.036 2.318 60.084 60.084 0 0 0 10.907-.209 2.8 2.8 0 0 0 2.45-2.334s1.226-7.571.56-9.155a2.423 2.423 0 0 0-1.928-1.331 96.319 96.319 0 0 0-13.318-.165A2.821 2.821 0 0 0 42.393 47.04zM85.615 47.04a32.808 32.808 0 0 1-.938 8.362 3.422 3.422 0 0 1-3.036 2.318 60.093 60.093 0 0 1-10.908-.209 2.8 2.8 0 0 1-2.449-2.334s-1.226-7.571-.561-9.155a2.423 2.423 0 0 1 1.929-1.331 96.317 96.317 0 0 1 13.318-.165A2.821 2.821 0 0 1 85.615 47.04z"/><circle cx="51.839" cy="48.11" r="2.882" fill="#35b8a8"/><circle cx="76.161" cy="48.11" r="2.882" fill="#35b8a8"/><path fill="#ffdbd7" d="M50.189 59.439a38.9 38.9 0 0 1-3.989-.174 4.98 4.98 0 0 1-4.353-3.4 33.863 33.863 0 0 1-1.007-8.889c0-.032 0-.063.007-.094a4.393 4.393 0 0 1 4.075-3.9 98.083 98.083 0 0 1 13.593.168A3.982 3.982 0 0 1 61.658 45.3c.021.041.041.082.058.125.757 1.8-.068 7.6-.458 10.005a4.377 4.377 0 0 1-3.806 3.629A68.317 68.317 0 0 1 50.189 59.439zm-6.246-12.28a31.658 31.658 0 0 0 .871 7.78 1.931 1.931 0 0 0 1.72 1.237A58.443 58.443 0 0 0 57.1 55.967a1.242 1.242 0 0 0 1.1-1.039c.528-3.265.914-7.3.67-8.266a.854.854 0 0 0-.665-.426 95.885 95.885 0 0 0-13.042-.16A1.276 1.276 0 0 0 43.943 47.159zM77.819 59.439a68.322 68.322 0 0 1-7.264-.384 4.375 4.375 0 0 1-3.805-3.629c-.39-2.409-1.216-8.206-.459-10.005.018-.043.038-.084.059-.125a3.98 3.98 0 0 1 3.143-2.151 97.462 97.462 0 0 1 13.593-.168 4.394 4.394 0 0 1 4.075 3.9c0 .031 0 .062.006.094a33.834 33.834 0 0 1-1.007 8.89 4.978 4.978 0 0 1-4.352 3.4A38.911 38.911 0 0 1 77.819 59.439zM69.143 46.668c-.244.924.143 4.982.674 8.261a1.242 1.242 0 0 0 1.094 1.038 58.626 58.626 0 0 0 10.562.209 1.931 1.931 0 0 0 1.72-1.236 31.67 31.67 0 0 0 .872-7.781 1.276 1.276 0 0 0-1.211-1.083 95.738 95.738 0 0 0-13.043.16A.855.855 0 0 0 69.143 46.668z"/><path fill="#ffdbd7" d="M67.723,47.576H60.284a1.554,1.554,0,1,1,0-3.107h7.439a1.554,1.554,0,1,1,0,3.107Z"/></svg>