<svg xmlns="http://www.w3.org/2000/svg" viewBox="0 0 128 128"><path fill="#d3624f" d="M91.314,102.517S88.02,85.791,74.858,80.253l-6.775,3.183,12.834,23.741Z"/><path fill="#f88" d="M91.327,124.49H36.673c-10.838,0-13.786-6.6-6.52-14.642a25.581,25.581,0,0,1,3.387-3.138,153.408,153.408,0,0,1,15.6-10.87,13.749,13.749,0,0,0,4.679-4.435A16.243,16.243,0,0,0,55.73,87.26a20.84,20.84,0,0,0,.75-3.82H71.52a20.84,20.84,0,0,0,.75,3.82,16.463,16.463,0,0,0,1.911,4.145A13.621,13.621,0,0,0,78.86,95.84a153.408,153.408,0,0,1,15.6,10.87,25.581,25.581,0,0,1,3.387,3.138C105.113,117.89,102.165,124.49,91.327,124.49Z"/><path fill="#d3624f" d="M85.624,17.375c-9.731-10.341-25.287-12.237-33.79-4.2a2.1,2.1,0,0,1-1.252.559C37.436,14.965,29.706,38.893,34.1,53.481H93.9C96.625,41.375,93.666,25.92,85.624,17.375Z"/><path fill="#f88" d="M35.1 51.481c-3 1.36-4.293 5.265-3.31 8.651 1.105 3.805 6 7.034 10.9 5.624L40.711 51.744A8.144 8.144 0 0 0 35.1 51.481zM92.9 51.481a8.144 8.144 0 0 0-5.614.263L85.317 65.756c4.892 1.41 9.791-1.819 10.9-5.624C97.2 56.746 95.9 52.841 92.9 51.481z"/><path fill="#f74b5b" d="M72.27,87.26c-3.11,1.7-6.29,2.99-8.27,2.99s-5.16-1.29-8.27-2.99a20.84,20.84,0,0,0,.75-3.82H71.52A20.84,20.84,0,0,0,72.27,87.26Z"/><path fill="#ffa6a2" d="M56.625,26.125c-12.773-2.59-16.019,19.58-16.914,25.24,1.025,15.387,3.951,23.388,10.15,28.117C53.94,82.594,60.667,86.25,64,86.25s10.06-3.656,14.139-6.768c6.2-4.729,9.04-12.708,10.065-28.095C85.435,39.581,75,12.125,56.625,26.125Z"/><path fill="#fcd7d4" d="M94.46 104.708c-5.352-4.119-10.568-5.927-15.6-8.87L67.583 125.487h35.67a2 2 0 0 0 1.975-2.33C104.36 117.942 101.223 109.912 94.46 104.708zM49.139 95.838c-5.031 2.943-10.247 4.751-15.6 8.87-6.763 5.2-9.9 13.234-10.768 18.449a2 2 0 0 0 1.975 2.33h36.17z"/><circle cx="77.084" cy="52.36" r="2.75" fill="#e26a5a"/><path fill="#b5574b" d="M72.4 49.631a7.986 7.986 0 0 1 2.164-1.5 7.71 7.71 0 0 1 2.608-.728 7.275 7.275 0 0 1 2.732.288A4.165 4.165 0 0 1 82.1 49.161a.923.923 0 0 1-.831 1.464l-.119-.011a11.843 11.843 0 0 1-1.936-.438 5.587 5.587 0 0 0-1.788-.109 6.145 6.145 0 0 0-1.774.462 9.127 9.127 0 0 0-1.679.938l-.037.026A1.21 1.21 0 0 1 72.4 49.631zM70.839 43.935c1.137-.335 2.27-.671 3.447-.9a19.5 19.5 0 0 1 3.586-.432A13.377 13.377 0 0 1 81.527 43a18.754 18.754 0 0 1 3.385 1.251l.01.005a1.027 1.027 0 1 1-.858 1.866l-.046-.023a12.6 12.6 0 0 0-2.96-1.17 10.367 10.367 0 0 0-3.1-.244 15.279 15.279 0 0 0-3.133.583 21.834 21.834 0 0 0-3.041 1.144l-.037.016a1.328 1.328 0 1 1-.91-2.489z"/><circle cx="50.916" cy="52.36" r="2.75" fill="#e26a5a"/><path fill="#b5574b" d="M54.1 51.531a9.148 9.148 0 0 0-1.679-.937 6.137 6.137 0 0 0-1.774-.462 5.562 5.562 0 0 0-1.788.109 11.923 11.923 0 0 1-1.936.438l-.117.011a.922.922 0 0 1-.832-1.464 4.166 4.166 0 0 1 2.193-1.468A7.237 7.237 0 0 1 50.9 47.47a7.7 7.7 0 0 1 2.609.728 7.981 7.981 0 0 1 2.163 1.5 1.21 1.21 0 0 1-1.534 1.862zM56.214 46.408a21.834 21.834 0 0 0-3.041-1.144 15.279 15.279 0 0 0-3.133-.583 10.367 10.367 0 0 0-3.1.244 12.6 12.6 0 0 0-2.96 1.17 1.027 1.027 0 0 1-.949-1.821l.042-.02.013-.007A18.754 18.754 0 0 1 46.473 43a13.377 13.377 0 0 1 3.655-.392 19.5 19.5 0 0 1 3.586.432c1.177.228 2.31.564 3.447.9a1.328 1.328 0 1 1-.751 2.548 1.523 1.523 0 0 1-.152-.055z"/><path fill="#ff6464" d="M65.855,57.861a1.5,1.5,0,0,0-1.149.536,3.107,3.107,0,0,1-.714.124,3.168,3.168,0,0,1-.728-.125,1.5,1.5,0,0,0-2.648.965c0,2.136,3.342,2.16,3.376,2.16.936,0,3.363-.387,3.363-2.16A1.5,1.5,0,0,0,65.855,57.861Z"/><path fill="#fff" d="M59.654,67.061a.913.913,0,0,0-.914,1.064,5.367,5.367,0,0,0,10.52,0,.913.913,0,0,0-.914-1.064Z"/><path fill="snow" d="M74.181,91.405c-2.721,1.678-7.057,6-10.181,6s-7.46-4.317-10.181-6c0,0-7.612,9.8-2.9,19.257a54.72,54.72,0,0,0,10.571,14.825h5.388s9.381-9.574,10.209-16.216C78.417,98.583,74.181,91.405,74.181,91.405Z"/><path fill="#ffe8e6" d="M74.181 91.405C76.014 110.639 64 125.487 64 125.487h5.367c5.709-7.578 19.773-9.654 20.966-13.487C91.2 109.231 80.734 92.449 74.181 91.405zM53.819 91.405C47.266 92.449 36.8 109.231 37.667 112c1.193 3.833 15.257 5.909 20.966 13.487H64S51.986 110.639 53.819 91.405z"/><path fill="#ffdbd7" d="M58.955 105.781c-.127 0-.256-.006-.388-.019a1.5 1.5 0 0 1 .306-2.985 2.716 2.716 0 0 0 1.522-.742 10.341 10.341 0 0 0 .845-.729 3.443 3.443 0 0 1 5.519 0 9.709 9.709 0 0 0 .808.7c.53.4 1.089.824 1.561.772a1.5 1.5 0 0 1 .306 2.985 5.138 5.138 0 0 1-3.636-1.333 12.988 12.988 0 0 1-1.087-.933 3.585 3.585 0 0 0-.7-.575 3.249 3.249 0 0 0-.72.577 12.7 12.7 0 0 1-1.051.905A5.5 5.5 0 0 1 58.955 105.781zM111.143 96.594a5.352 5.352 0 0 1-10.7 0 5.428 5.428 0 0 1 5.351-5.351A5.164 5.164 0 0 1 111.143 96.594z"/><path fill="#ffc1bb" d="M77.425,120.979A14.941,14.941,0,0,1,62.5,106.054V89a1.5,1.5,0,0,1,3,0v17.059a11.926,11.926,0,0,0,23.851,0V87.632a8.963,8.963,0,1,1,17.926,0v8.889a1.5,1.5,0,0,1-3,0V87.632a5.963,5.963,0,0,0-11.926,0v18.422A14.942,14.942,0,0,1,77.425,120.979Z"/><path fill="#ffdbd7" d="M64.014,90.5C50.5,90.5,36.141,79.15,36.141,58.125a1.5,1.5,0,0,1,3,0c0,19.076,12.815,29.37,24.873,29.37S88.888,77.2,88.888,58.125a1.5,1.5,0,0,1,3,0C91.888,79.15,77.526,90.5,64.014,90.5Z"/><path fill="#ffe8e6" d="M34.67,55.4h2.448a2,2,0,0,1,2,2v0a2,2,0,0,1-2,2H36.08a2.41,2.41,0,0,1-2.41-2.41V56.4A1,1,0,0,1,34.67,55.4Z" transform="rotate(-180 36.393 57.404)"/><path fill="#ffe8e6" d="M91.321,55.4H92.36a2,2,0,0,1,2,2v0a2,2,0,0,1-2,2H89.911a1,1,0,0,1-1-1v-.588A2.41,2.41,0,0,1,91.321,55.4Z"/></svg>