<svg xmlns="http://www.w3.org/2000/svg" viewBox="0 0 128 128"><path fill="#553670" d="M121.375,88.239c-3.737-5-11.542-9.489-8.625-17.125,4.561-11.939-1.765-18.345-7.3-21.8-6.417-4-8.68-13.148-10.7-19.812C90.353,14.971,78.562,6.364,64,6.364S37.647,14.971,33.248,29.505c-2.016,6.664-4.279,15.812-10.7,19.812-5.537,3.452-11.863,9.858-7.3,21.8,2.917,7.636-4.888,12.126-8.625,17.125-11.5,15.386-.251,32.312,16.813,35.011h81.125C121.626,120.551,132.875,103.625,121.375,88.239Z"/><path fill="#ff7b7b" d="M33.065 52.6c-3.041 1.38-3.773 5.144-2.776 8.58a8.442 8.442 0 0 0 10.385 5.758L38.332 52.662A7.155 7.155 0 0 0 33.065 52.6zM94.935 52.6a7.155 7.155 0 0 0-5.267.067L87.326 66.933a8.442 8.442 0 0 0 10.385-5.758C98.708 57.739 97.976 53.975 94.935 52.6z"/><path fill="#f74b5b" d="M41.084 62.224a1.5 1.5 0 0 1-1.2-.592c-1.685-2.215-4.97-2.268-5-2.269a1.5 1.5 0 0 1 .007-3c.194 0 4.787.039 7.384 3.452a1.5 1.5 0 0 1-1.193 2.409zM86.916 62.224a1.5 1.5 0 0 1-1.193-2.409c2.6-3.413 7.19-3.452 7.384-3.452a1.5 1.5 0 0 1 .007 3h0c-.033 0-3.318.054-5 2.269A1.5 1.5 0 0 1 86.916 62.224z"/><path fill="#ffe3ee" d="M104.863,125.51H23.137a1,1,0,0,1-.978-1.234c1.333-5.452,5.585-13.533,10.731-18.836a44.518,44.518,0,0,1,12.17-8.331.926.926,0,0,0,.275-.207,24.606,24.606,0,0,1,8.6-5.612c.17-.26,19.93-.27,20.11,0l.01.01a24.422,24.422,0,0,1,8.605,5.6.9.9,0,0,0,.277.208A44.521,44.521,0,0,1,95.11,105.44c5.146,5.3,9.4,13.384,10.731,18.836A1,1,0,0,1,104.863,125.51Z"/><path fill="#ff7b7b" d="M74.05,91.29c-7.17,9.55-13.87,9.51-20.11,0a11.028,11.028,0,0,0,1.72-4.55,13.964,13.964,0,0,0,.16-2.2H72.17a13.964,13.964,0,0,0,.16,2.2A11.028,11.028,0,0,0,74.05,91.29Z"/><path fill="#ff7b7b" d="M74.05,91.29c-7.17,9.55-13.87,9.51-20.11,0a10.332,10.332,0,0,0,1.3-2.74c.04-.1.07-.21.1-.31a13.223,13.223,0,0,0,.32-1.5,13.964,13.964,0,0,0,.16-2.2H72.17a13.964,13.964,0,0,0,.16,2.2,11.108,11.108,0,0,0,.28,1.35,4.419,4.419,0,0,0,.15.48A10.5,10.5,0,0,0,74.05,91.29Z"/><path fill="#452e56" d="M79.86,125.51H49.21c-4.046-27.073,4.73-34.22,4.73-34.22,1.88,2.64,5.67,4.43,10.06,4.43s8.18-1.79,10.05-4.43l.01.01c.23.21,2.83,3.648,4.69,10.878C80.22,107.9,80.45,119.61,79.86,125.51Z"/><path fill="#fff" d="M53.942 91.286A24.425 24.425 0 0 0 45.22 97.03a15.392 15.392 0 0 0-3.82 8.02c-.2 1.015 2.977.359 4.6-.039a.159.159 0 0 1 .129.284c-3.6 2.53-4.852 5.666-4.655 7.33a45.535 45.535 0 0 0 3.9 12.885h7.671S49.438 104.4 53.942 91.286zM81.867 105.3a.159.159 0 0 1 .129-.284c1.626.4 4.806 1.05 4.6.035a15.313 15.313 0 0 0-3.82-8.02 24.278 24.278 0 0 0-8.73-5.74c4.5 13.114.9 34.22.9 34.22h7.671a45.535 45.535 0 0 0 3.9-12.885C86.72 110.961 85.474 107.829 81.867 105.3z"/><path fill="#f74b5b" d="M72.76,88.57c-5.81,5.15-11.65,5.17-17.52-.02.04-.1.07-.21.1-.31a13.223,13.223,0,0,0,.32-1.5,13.964,13.964,0,0,0,.16-2.2H72.17a13.964,13.964,0,0,0,.16,2.2,11.108,11.108,0,0,0,.28,1.35A4.419,4.419,0,0,0,72.76,88.57Z"/><path fill="#ff9595" d="M89.67,53.664c-1.04,15.61-5.07,23.1-11.32,27.95-4.16,3.13-10.97,6.87-14.35,6.87s-10.19-3.74-14.35-6.87c-6.25-4.85-10.28-12.34-11.32-27.95,15.29-6.06,8.76-36.95,24.79-28.74a1.949,1.949,0,0,0,1.76,0C80.91,16.714,74.38,47.6,89.67,53.664Z"/><path fill="#ff9595" d="M89.67,53.664c-1.04,15.61-5.07,23.1-11.32,27.95-4.16,3.13-10.97,6.87-14.35,6.87s-10.19-3.74-14.35-6.87c-6.25-4.85-10.28-12.34-11.32-27.95,15.29-6.06,8.76-36.95,24.79-28.74a1.949,1.949,0,0,0,1.76,0C80.91,16.714,74.38,47.6,89.67,53.664Z"/><path fill="#f74b5b" d="M65.96 61.77a1.5 1.5 0 0 0-1.165.555 3.3 3.3 0 0 1-.8.143 3.4 3.4 0 0 1-.816-.144 1.5 1.5 0 0 0-2.664.946c0 1.8 2.512 2.2 3.48 2.2s3.466-.4 3.466-2.2A1.5 1.5 0 0 0 65.96 61.77zM60.2 71.752a1.494 1.494 0 0 1-1.342-.855 1.519 1.519 0 0 1 .719-2.012 8.051 8.051 0 0 1 3.488-.332c.664.02 1.21.02 1.874 0a8.051 8.051 0 0 1 3.488.332 1.5 1.5 0 0 1-1.3 2.7 12.585 12.585 0 0 0-2.094-.034c-.727.021-1.325.021-2.052 0a11.477 11.477 0 0 0-2.136.052A1.474 1.474 0 0 1 60.2 71.752z"/><path fill="#553670" d="M57.812 45.427a1.5 1.5 0 0 1-.566-.111c-2.961-1.21-11.38-2.844-13.563-.391a1.5 1.5 0 0 1-2.241-2c3.944-4.424 14.937-1.208 16.937-.391a1.5 1.5 0 0 1-.567 2.889zM70.188 45.427a1.5 1.5 0 0 1-.567-2.889c2-.817 12.993-4.035 16.937.391a1.5 1.5 0 0 1-2.241 2c-2.184-2.452-10.6-.818-13.563.391A1.5 1.5 0 0 1 70.188 45.427z"/><path fill="#ffccdc" d="M82.25 70.8a1.5 1.5 0 0 1-1.075-2.546c4.061-4.169 6.317-10.6 7.015-14.835a1.5 1.5 0 1 1 2.96.487c-.278 1.689-1.963 10.422-7.825 16.44A1.493 1.493 0 0 1 82.25 70.8zM45.75 70.8a1.493 1.493 0 0 1-1.075-.454C38.813 64.33 37.128 55.6 36.85 53.908a1.5 1.5 0 1 1 2.96-.487c.7 4.237 2.954 10.666 7.015 14.835A1.5 1.5 0 0 1 45.75 70.8z"/><path fill="#ffe3ee" d="M82.75,67.2a6.7,6.7,0,0,0-3.384-5.155c-3.553-1.923-9.3-3.366-15.366-3.366S52.187,60.12,48.634,62.043A6.7,6.7,0,0,0,45.25,67.2a16.776,16.776,0,0,0,4.316,12.6C53.813,84.239,60,87.239,64,87.239s10.188-3,14.434-7.441A16.776,16.776,0,0,0,82.75,67.2Z"/><path fill="#ffe3ee" d="M64,88.705c-4.6,0-11.1-3.319-15.476-7.891a18.116,18.116,0,0,1-4.7-13.762,8.151,8.151,0,0,1,4.1-6.214C51.965,58.653,58.123,57.3,64,57.3s12.035,1.358,16.072,3.543a8.151,8.151,0,0,1,4.105,6.213h0a18.116,18.116,0,0,1-4.7,13.762C75.105,85.386,68.6,88.705,64,88.705Zm0-28.656c-5.447,0-11.1,1.23-14.761,3.211a5.326,5.326,0,0,0-2.685,4.13,15.4,15.4,0,0,0,3.96,11.521c4.372,4.573,10.211,7.04,13.486,7.04s9.114-2.467,13.486-7.04a15.405,15.405,0,0,0,3.96-11.522,5.326,5.326,0,0,0-2.685-4.129C75.1,61.279,69.447,60.049,64,60.049Z"/><circle cx="51.537" cy="55.364" r="9.438" fill="#ffe3ee"/><circle cx="76.463" cy="55.364" r="9.438" fill="#ffe3ee"/><path fill="#fff" d="M60.975,55.865a1.5,1.5,0,0,1-.529-2.9,9.636,9.636,0,0,1,7.13.008,1.5,1.5,0,0,1-1.1,2.79,6.639,6.639,0,0,0-4.972.009A1.488,1.488,0,0,1,60.975,55.865Z"/><path fill="#fff" d="M51.537 66.3A10.938 10.938 0 1 1 62.475 55.364 10.95 10.95 0 0 1 51.537 66.3zm0-18.875a7.938 7.938 0 1 0 7.938 7.937A7.945 7.945 0 0 0 51.537 47.427zM76.463 66.3A10.938 10.938 0 1 1 87.4 55.364 10.951 10.951 0 0 1 76.463 66.3zm0-18.875A7.938 7.938 0 1 0 84.4 55.364 7.946 7.946 0 0 0 76.463 47.427z"/><circle cx="76.667" cy="54.504" r="2.792" fill="#553670"/><path fill="#452e56" d="M73.207,53.665A1.5,1.5,0,0,1,71.983,51.3a6.214,6.214,0,0,1,5.234-2.466,5.018,5.018,0,0,1,4.2,1.992A1.5,1.5,0,0,1,78.9,52.467a2.218,2.218,0,0,0-1.737-.633,3.327,3.327,0,0,0-2.73,1.2A1.5,1.5,0,0,1,73.207,53.665Z"/><circle cx="51.333" cy="54.504" r="2.792" fill="#553670"/><path fill="#452e56" d="M54.793,53.665A1.5,1.5,0,0,0,56.017,51.3a6.214,6.214,0,0,0-5.234-2.466,5.018,5.018,0,0,0-4.2,1.992A1.5,1.5,0,0,0,49.1,52.467a2.218,2.218,0,0,1,1.737-.633,3.327,3.327,0,0,1,2.73,1.2A1.5,1.5,0,0,0,54.793,53.665Z"/></svg>