<svg xmlns="http://www.w3.org/2000/svg" viewBox="0 0 128 128"><path fill="#fc7070" d="M31.978,124.52h64c8.408,0,12.938-6.844,7.488-13.247a61.774,61.774,0,0,0-6.55-6.563,112.909,112.909,0,0,0-16.5-11.85,13.371,13.371,0,0,1-4.46-3.61,8.966,8.966,0,0,1-1.3-2.87c-.09-.33-.16-.67-.23-1.04-.16-.78-.27-1.66-.37-2.65H53.91c-.1,1-.22,1.89-.37,2.67-.07.37-.15.71-.24,1.03A9.374,9.374,0,0,1,52,89.26a12.965,12.965,0,0,1-4.46,3.6,113.448,113.448,0,0,0-16.5,11.85,61.68,61.68,0,0,0-6.55,6.563C19.04,117.676,23.57,124.52,31.978,124.52Z"/><path fill="#d6d9f2" d="M18.417,125.52h91.146a2.006,2.006,0,0,0,1.882-2.688c-2.306-6.487-6.506-13.158-14.515-20.122-5.25-4.56-11.22-6.77-16.5-9.85a27.521,27.521,0,0,1-4.47-3.61A20.329,20.329,0,0,1,52,89.26a.254.254,0,0,1-.08.1.489.489,0,0,1-.07.11,14.431,14.431,0,0,1-4.3,3.39c-5.27,3.08-11.25,5.29-16.5,9.85-8.009,6.964-12.209,13.635-14.515,20.122A2.006,2.006,0,0,0,18.417,125.52Z"/><path fill="#fff" d="M49.31,102.5c0,9.17,6.21,23.02,6.21,23.02H71.56s5.5-15.81,6.21-22.77a34.254,34.254,0,0,0-1.81-13.5A20.329,20.329,0,0,1,52,89.26c-.042.047-.12.17-.15.21C51.32,90.43,49.31,94.55,49.31,102.5Z"/><path fill="#f0f1ff" d="M58.41 125.516S50.167 108.494 52 89.26a18.051 18.051 0 0 0-7.639 4.822c-3.679 4.137-4.162 12.542-4.154 14 .006 1.183 5.772 1.291 7.794 1.293a.2.2 0 0 1 .1.369c-3.734 2.45-3.376 3.8-3.106 5.176.55 2.819 6.059 9.463 6.941 10.592zM76.024 125.516c.882-1.129 6.391-7.773 6.941-10.592.27-1.381.628-2.726-3.106-5.176a.2.2 0 0 1 .1-.369c2.022 0 7.788-.11 7.794-1.293.008-1.462-.475-9.867-4.154-14A18.079 18.079 0 0 0 75.96 89.25c1.833 19.234-6.406 36.266-6.406 36.266z"/><path fill="#bc465a" d="M34.169,20.976c.718-1.579-.386-2.862,1.5-5.634,2.322-3.42,12.956-11.953,24.764-11.953,8.2,0,14.048,1.763,18.256,4.723a5.973,5.973,0,0,0,3.252,1.182c5.841.14,10.272,5.134,11.79,7.209s.926,3.217.855,4.314c-.452,6.954,2.8,17.986,1.4,28.84H31.976C30.986,41.477,32,25.751,34.169,20.976Z"/><path fill="#fc7070" d="M95.984 48.657c3.312 1.1 4.273 5.979 3.161 9.808-1.249 4.3-4.754 8.364-10.85 6.934l1.7-16.161A7.672 7.672 0 0 1 95.984 48.657zM31.976 48.657a7.673 7.673 0 0 1 5.992.581l1.7 16.161c-6.1 1.43-9.6-2.63-10.85-6.934C27.7 54.636 28.663 49.754 31.976 48.657z"/><path fill="#ea424f" d="M39.7 59.055a1.5 1.5 0 0 0 1.22-2.371 7.112 7.112 0 0 0-6.808-3.144 1.5 1.5 0 1 0 .553 2.948 4.135 4.135 0 0 1 3.812 1.937A1.5 1.5 0 0 0 39.7 59.055zM88.263 59.055a1.5 1.5 0 0 0 1.223-.63A4.134 4.134 0 0 1 93.3 56.488a1.5 1.5 0 1 0 .553-2.948 7.119 7.119 0 0 0-6.809 3.144 1.5 1.5 0 0 0 1.221 2.371z"/><path fill="#f74b5b" d="M53.55,85.36c3.13,2.08,6.54,4.6,10.43,4.6s7.32-2.53,10.46-4.62c-.16-.78-.27-1.66-.37-2.65H53.92C53.82,83.69,53.7,84.58,53.55,85.36Z"/><path fill="#ff8680" d="M43.759,21.4c1.756-1.747,3.4-2.588,6.035-1.957a54.877,54.877,0,0,0,14.186,1.5,54.874,54.874,0,0,0,14.185-1.5c2.638-.631,4.28.21,6.036,1.957,4.972,4.947,6.02,18.233,5.877,24.7-.4,18.194-2.142,26.227-9.412,31.867C75.823,81.607,70.6,86.146,63.98,86.146s-11.843-4.539-16.687-8.173c-7.27-5.64-9.011-13.673-9.412-31.867C37.739,39.636,38.786,26.35,43.759,21.4Z"/><path fill="#9ba3d1" d="M61.972,103.282h4.016a88.986,88.986,0,0,1,3.566,22.234H58.405A88.944,88.944,0,0,1,61.972,103.282Z"/><path fill="#9ba3d1" d="M59.52,99.56a6.13,6.13,0,0,0,.19.85c.67,1.33,2.13,3.58,4.27,3.58s3.6-2.25,4.27-3.57a5.429,5.429,0,0,0,.18-.86,2.2,2.2,0,0,0-.18-.14c-.91-.68-1.57-1.4-2.21-1.94a3.142,3.142,0,0,0-2.06-.92c-1.61,0-2.46,1.49-4.27,2.85C59.65,99.46,59.58,99.51,59.52,99.56Z"/><path fill="#ff6464" d="M60.751,55.639a1.5,1.5,0,0,1,1.3.75,6.375,6.375,0,0,0,1.941.391,6.238,6.238,0,0,0,1.918-.391,1.5,1.5,0,0,1,2.8.75c0,2.528-4.669,2.641-4.717,2.641s-4.74-.113-4.74-2.641A1.5,1.5,0,0,1,60.751,55.639Z"/><circle cx="76.854" cy="48.817" r="2.755" fill="#cc526c"/><path fill="#bc465a" d="M82.116 49.057a1.5 1.5 0 0 0 1.094-2.525c-1.553-1.658-4.395-2.177-6.554-2.108-1.249.04-3.511.309-4.629 1.666A1.5 1.5 0 0 0 74.342 48a4.556 4.556 0 0 1 2.626-.581h.079a5.931 5.931 0 0 1 3.974 1.165A1.5 1.5 0 0 0 82.116 49.057zM85.272 44.157a1.5 1.5 0 0 0 .988-2.629c-3.339-2.922-9.675-3.394-17.384-1.3a1.5 1.5 0 1 0 .789 2.894c6.624-1.8 12.089-1.556 14.62.66A1.492 1.492 0 0 0 85.272 44.157z"/><circle cx="51.106" cy="48.817" r="2.755" fill="#cc526c"/><path fill="#bc465a" d="M45.843 49.057a1.5 1.5 0 0 0 1.095-.474c.666-.711 2.312-1.159 4.053-1.165A4.548 4.548 0 0 1 53.618 48a1.531 1.531 0 0 0 2.115.153 1.472 1.472 0 0 0 .2-2.063c-1.118-1.357-3.38-1.626-4.628-1.666-2.16-.062-5 .45-6.555 2.108a1.5 1.5 0 0 0 1.094 2.525zM42.687 44.157a1.492 1.492 0 0 0 .987-.371c2.532-2.216 8-2.462 14.62-.66a1.5 1.5 0 1 0 .789-2.894c-7.708-2.1-14.045-1.627-17.384 1.3a1.5 1.5 0 0 0 .988 2.629z"/><path fill="#ff6464" d="M63.979,70.689c1.1,0,3.688,0,5.033-1.7a1.5,1.5,0,1,0-2.354-1.859c-.3.373-1.2.562-2.679.562S61.6,67.5,61.3,67.127a1.5,1.5,0,1,0-2.354,1.859C60.292,70.689,62.876,70.689,63.979,70.689Z"/><path fill="#bc465a" d="M63.98,61.232c-4.976,0-7.26,1.555-10.278,3.27a1.682,1.682,0,0,0,.661,3.14c3.952.269,7.567-1.208,9.617-1.208h0c2.05,0,5.664,1.477,9.616,1.208a1.682,1.682,0,0,0,.661-3.14C71.239,62.787,68.955,61.232,63.98,61.232Z"/><path fill="#9ba3d1" d="M72.058,102.643a5.05,5.05,0,0,0,.53-.028,1.5,1.5,0,1,0-.3-2.984c-1.111.114-2.153-.673-3.075-1.367a16.97,16.97,0,0,1-1.425-1.23c-1.039-.97-2.114-1.973-3.8-1.973s-2.766,1-3.8,1.971a16.786,16.786,0,0,1-1.367,1.185c-.982.74-2.016,1.525-3.136,1.414a1.5,1.5,0,0,0-.3,2.984c2.276.234,4.025-1.084,5.184-1.956a19.7,19.7,0,0,0,1.671-1.434c.885-.828,1.292-1.164,1.751-1.164s.872.337,1.759,1.166a19.478,19.478,0,0,0,1.61,1.389A7.935,7.935,0,0,0,72.058,102.643Z"/></svg>