<svg xmlns="http://www.w3.org/2000/svg" viewBox="0 0 128 128"><path fill="#c15764" d="M103.079,123.52H24.921c-9.1,0-13.956-7.8-7.863-14.553a33.389,33.389,0,0,1,5.9-5.227C32,97.58,42.33,92.25,47.41,88.87a11.688,11.688,0,0,0,3.26-3.23,8.716,8.716,0,0,0,.65-1.11,15.129,15.129,0,0,0,.93-4.36l23.51.04a14.493,14.493,0,0,0,.93,4.36,7.733,7.733,0,0,0,.66,1.11,11.723,11.723,0,0,0,3.24,3.19c5.08,3.38,15.41,8.71,24.45,14.87a33.389,33.389,0,0,1,5.9,5.227C117.035,115.725,112.178,123.52,103.079,123.52Z"/><path fill="#473c59" d="M90.477,16a36.373,36.373,0,0,0-52.954,0c-4.189,4.333-6.831,18.639-3.88,32.368H94.357C97.308,34.639,94.666,20.333,90.477,16Z"/><path fill="#c15764" d="M29.331 54.347c.624 7.413 7.056 11.036 11.308 9.63L38.007 47.282C33.845 46.052 28.862 48.786 29.331 54.347zM90.057 47.282l-2.632 16.7c4.251 1.406 10.683-2.217 11.308-9.63C99.2 48.786 94.218 46.052 90.057 47.282z"/><path fill="#a53d4c" d="M40.126 57.594a1.5 1.5 0 0 1-1.177-.57c-.018-.022-2.084-2.54-4.339-2.178a1.5 1.5 0 0 1-.475-2.962c4.014-.65 7.039 3.119 7.166 3.279a1.5 1.5 0 0 1-1.175 2.431zM87.875 57.591A1.5 1.5 0 0 1 86.7 55.163c.126-.16 3.153-3.923 7.166-3.279a1.5 1.5 0 0 1-.475 2.962c-2.26-.362-4.321 2.157-4.342 2.183A1.5 1.5 0 0 1 87.875 57.591zM77.35 85.68a43.75 43.75 0 0 1-9.09 4.45 12.392 12.392 0 0 1-8.45 0 43.974 43.974 0 0 1-9.14-4.49 8.716 8.716 0 0 0 .65-1.11 15.129 15.129 0 0 0 .93-4.36l23.51.04a14.493 14.493 0 0 0 .93 4.36A7.733 7.733 0 0 0 77.35 85.68z"/><path fill="#c9616e" d="M84.66,23.3a4.98,4.98,0,0,0-2.971-2.883,58.557,58.557,0,0,0-17.626-2.787H64a58.55,58.55,0,0,0-17.625,2.787A4.977,4.977,0,0,0,43.4,23.3c-2.438,6.22-5.88,13.212-5.4,23.987a89.147,89.147,0,0,0,2.632,16.7c1.448,4.769,3.338,15.2,19.652,21.127a10.976,10.976,0,0,0,7.481,0c16.315-5.93,18.2-16.358,19.653-21.127a89.23,89.23,0,0,0,2.632-16.695C90.539,36.507,87.1,29.515,84.66,23.3Z"/><path fill="#473c59" d="M42.126,44.646a1.506,1.506,0,0,1-1.343-2.192c1.265-2.529,8.983-5.151,17.8-1.843a1.5,1.5,0,1,1-1.054,2.808c-7.928-2.973-13.542-.351-14.083.412A1.468,1.468,0,0,1,42.126,44.646Z"/><path fill="#b24d5e" d="M67.284,58.507a1.5,1.5,0,0,0-1.3.756,6.46,6.46,0,0,1-1.992.4,6.347,6.347,0,0,1-1.969-.4,1.5,1.5,0,0,0-2.8.743c0,2.546,4.725,2.66,4.773,2.66s4.8-.114,4.8-2.66A1.5,1.5,0,0,0,67.284,58.507Z"/><path fill="#473c59" d="M85.939,44.625A1.5,1.5,0,0,1,84.6,43.8c-.52-.728-6.137-3.347-14.064-.377a1.5,1.5,0,0,1-1.054-2.808c8.817-3.308,16.537-.686,17.8,1.843a1.5,1.5,0,0,1-1.341,2.171Z"/><path fill="#a53d4c" d="M71.759,70.125a1.506,1.506,0,0,1-.211-.014,59.1,59.1,0,0,0-15.128,0,1.5,1.5,0,1,1-.354-2.979,62.1,62.1,0,0,1,15.9,0,1.5,1.5,0,0,1-.207,2.985Z"/><path fill="#ffdbd7" d="M59.952 51.467c0 5.156-3.659 9.162-9.448 9.162-5.434 0-8.884-4.527-8.884-9.546V49.937a5.4 5.4 0 0 1 4.46-5.349 28.787 28.787 0 0 1 9.473-.05 5.363 5.363 0 0 1 4.4 5.332zM86.38 51.467c0 5.156-3.659 9.162-9.448 9.162-5.433 0-8.884-4.527-8.884-9.546V49.937a5.4 5.4 0 0 1 4.46-5.349 28.793 28.793 0 0 1 9.474-.05 5.363 5.363 0 0 1 4.4 5.332z"/><path fill="#ffa95c" d="M60.523,50.912a1.5,1.5,0,0,1-.529-2.905,10.848,10.848,0,0,1,8.034.009,1.5,1.5,0,1,1-1.1,2.79,7.827,7.827,0,0,0-5.874.009A1.516,1.516,0,0,1,60.523,50.912Z"/><path fill="#ffa95c" d="M50.5 62.129c-5.92 0-10.384-4.749-10.384-11.046V49.937a6.867 6.867 0 0 1 5.713-6.829 30.371 30.371 0 0 1 9.965-.049 6.819 6.819 0 0 1 5.654 6.811v1.6C61.452 57.645 56.848 62.129 50.5 62.129zm.528-16.457a28.742 28.742 0 0 0-4.706.4 3.926 3.926 0 0 0-3.206 3.87v1.146c0 3.9 2.588 8.046 7.384 8.046 4.754 0 7.948-3.079 7.948-7.662v-1.6a3.877 3.877 0 0 0-3.143-3.851A26.222 26.222 0 0 0 51.032 45.672zM76.932 62.129c-5.92 0-10.384-4.749-10.384-11.046V49.937a6.867 6.867 0 0 1 5.714-6.829 30.371 30.371 0 0 1 9.965-.049A6.819 6.819 0 0 1 87.88 49.87v1.6C87.88 57.645 83.276 62.129 76.932 62.129zm.529-16.457a28.754 28.754 0 0 0-4.707.4 3.926 3.926 0 0 0-3.206 3.87v1.146c0 3.9 2.588 8.046 7.384 8.046 4.754 0 7.948-3.079 7.948-7.662v-1.6a3.877 3.877 0 0 0-3.143-3.851A26.219 26.219 0 0 0 77.461 45.672z"/><path fill="#119699" d="M89.67,98.58v26.94H38.33V98.58a34.928,34.928,0,0,0,6.65,8.2,109.272,109.272,0,0,0,12.3,9.97c2.08,1.48,3.88,2.68,5.09,3.46a2.969,2.969,0,0,0,3.26,0c1.21-.78,3.01-1.98,5.09-3.46a109.272,109.272,0,0,0,12.3-9.97A34.928,34.928,0,0,0,89.67,98.58Z"/><circle cx="50.702" cy="48.466" r="3.009" fill="#473c59"/><path fill="#473c59" d="M54.852,48.477a1.5,1.5,0,0,1-1.24-.653,4.2,4.2,0,0,0-2.494-.888,6.228,6.228,0,0,0-4.505.869,1.5,1.5,0,0,1-2-2.238c1.775-1.585,4.709-1.872,6.865-1.609,1.024.124,3.522.584,4.609,2.172a1.5,1.5,0,0,1-1.236,2.347Z"/><circle cx="77.361" cy="48.466" r="3.009" fill="#473c59"/><path fill="#473c59" d="M73.212,48.477a1.5,1.5,0,0,1-1.236-2.347c1.086-1.588,3.585-2.048,4.608-2.172,2.157-.264,5.09.024,6.865,1.609a1.5,1.5,0,0,1-2,2.238,6.217,6.217,0,0,0-4.505-.869,4.206,4.206,0,0,0-2.494.888A1.5,1.5,0,0,1,73.212,48.477Z"/><path fill="#d6d9f2" d="M45.555 91.741c-3.835 14.993.485 33.779.485 33.779H10.87a2 2 0 0 1-1.979-2.33c1.171-6.839 7.084-15.692 14.069-20.45a135.067 135.067 0 0 1 13.11-7.67c3.045-1.6 5.87-3.026 8.2-4.322C45.253 90.2 45.833 90.655 45.555 91.741zM117.13 125.52H81.96s3.889-16.913 1.011-31.451c-.454-2.3.8-3.274 2.87-2.177 1.851.982 3.914 2.036 6.089 3.178a135.067 135.067 0 0 1 13.11 7.67c6.985 4.758 12.9 13.611 14.069 20.45A2 2 0 0 1 117.13 125.52z"/><path fill="#f0f1ff" d="M45.55 116.75c.43 4.06.99 7.24 1.29 8.77H35.42a55.889 55.889 0 0 1-3.13-8.77 37.79 37.79 0 0 1-.95-5c-.23-1.96 1.78-5.37 6.11-8.3a.2.2 0 0 0-.15-.37c-1.83.34-5.46.87-5.47-.35-.01-1.66 1.69-4.85 5.86-9.54 2-2.25 5.96-3.55 9.72-4.32-1.9 5.52-2.48 11.95-2.43 17.91A98.944 98.944 0 0 0 45.55 116.75zM92.58 125.52a55.889 55.889 0 0 0 3.13-8.77 37.79 37.79 0 0 0 .95-5c.23-1.96-1.78-5.37-6.11-8.3a.2.2 0 0 1 .15-.37c1.83.34 5.46.87 5.47-.35.01-1.66-1.69-4.85-5.86-9.54-2-2.25-5.96-3.55-9.72-4.32 1.9 5.52 2.48 11.95 2.43 17.91a98.944 98.944 0 0 1-.57 9.97c-.43 4.06-.99 7.24-1.29 8.77z"/></svg>