<svg xmlns="http://www.w3.org/2000/svg" viewBox="0 0 128 128"><path fill="#ff9595" d="M110.649,124.52h-93.3c-6.322,0-6.742-5.9-5.853-7.6A37.55,37.55,0,0,1,22.96,103.74C32,97.58,42.33,92.25,47.41,88.87a9.8,9.8,0,0,0,2.76-2.93c.13-.21.25-.42.37-.65a11.148,11.148,0,0,0,1.23-4.32H76.23a11.084,11.084,0,0,0,1.25,4.35c.11.22.23.42.35.62a9.8,9.8,0,0,0,2.76,2.93c5.08,3.38,15.41,8.71,24.45,14.87A37.55,37.55,0,0,1,116.5,116.923C118.784,121.291,115.578,124.52,110.649,124.52Z"/><path fill="#d6d9f2" d="M45.555 91.741c-3.835 14.993.485 33.779.485 33.779H10.87a2 2 0 0 1-1.979-2.33c1.171-6.839 7.084-15.692 14.069-20.45a135.067 135.067 0 0 1 13.11-7.67c3.045-1.6 5.87-3.026 8.2-4.322C45.253 90.2 45.833 90.655 45.555 91.741zM117.13 125.52H81.96s3.889-16.913 1.011-31.451c-.454-2.3.8-3.274 2.87-2.177 1.851.982 3.914 2.036 6.089 3.178a135.067 135.067 0 0 1 13.11 7.67c6.985 4.758 12.9 13.611 14.069 20.45A2 2 0 0 1 117.13 125.52z"/><path fill="#356d93" d="M32.245,32.152c.278,5,.549,11.951,1.4,16.256H94.356c.85-4.3,1.121-11.256,1.4-16.256C73.677,5.852,52.544,6.935,32.245,32.152Z"/><path fill="#ff7b7b" d="M29.331 54.37c.624 7.414 7.056 11.036 11.308 9.63l-2.61-16.694C33.868 46.075 28.862 48.809 29.331 54.37zM89.971 47.306L87.361 64c4.252 1.406 10.684-2.216 11.308-9.63C99.138 48.809 94.132 46.075 89.971 47.306z"/><path fill="#f74b5b" d="M39.83 56.891a1.5 1.5 0 0 1-1.242-.657 3.492 3.492 0 0 0-3.892-1.38 1.5 1.5 0 0 1-.647-2.93 6.413 6.413 0 0 1 7.019 2.623 1.5 1.5 0 0 1-1.238 2.344zM88.17 56.891a1.5 1.5 0 0 1-1.238-2.344 6.412 6.412 0 0 1 7.019-2.623 1.5 1.5 0 0 1-.647 2.93 3.485 3.485 0 0 0-3.892 1.38A1.5 1.5 0 0 1 88.17 56.891z"/><path fill="#ff9595" d="M89.79,51.24A59.69,59.69,0,0,1,87.36,64c-1.38,4.62-2.85,7.82-3.05,8.54-2.08,7.19-9.5,10.85-18.3,13.97a6.028,6.028,0,0,1-4.02,0c-8.8-3.12-16.22-6.78-18.3-13.97-.2-.72-1.67-3.92-3.05-8.54a59.69,59.69,0,0,1-2.43-12.76c-1.24-17.27,3.82-28.38,8.91-29.18,8.38-1.31,10.5,3.69,16.88,3.69s8.5-5,16.88-3.69C85.97,22.86,91.03,33.97,89.79,51.24Z"/><path fill="#f74b5b" d="M77.48,85.32c-3.83,2.84-8.87,6.79-13.49,6.79-4.65,0-9.65-3.97-13.45-6.82a11.148,11.148,0,0,0,1.23-4.32H76.23A11.084,11.084,0,0,0,77.48,85.32Z"/><path fill="#25567f" d="M64 66.842c2.188 0 7.813 1.784 11.234 2.02a1.419 1.419 0 0 0 .915-2.575C74.36 65.029 70.856 61.372 64 61.372s-10.36 3.657-12.149 4.915a1.419 1.419 0 0 0 .915 2.575C56.187 68.626 61.812 66.842 64 66.842zM69.943 43.539a1.5 1.5 0 0 1-.527-2.905c7.951-2.981 16.879-2.981 18.37 0a1.5 1.5 0 0 1-2.629 1.442c-.874-.688-6.876-1.564-14.687 1.366A1.5 1.5 0 0 1 69.943 43.539zM85.1 41.977h0z"/><circle cx="77.298" cy="48.49" r="2.607" fill="#356d93"/><path fill="#25567f" d="M73.148 48.5a1.484 1.484 0 0 1-.845-.262 1.5 1.5 0 0 1-.391-2.085C73 44.565 75.5 44.105 76.521 43.981c2.156-.263 5.09.025 6.865 1.61a1.5 1.5 0 0 1-2 2.237 6.217 6.217 0 0 0-4.5-.869 4.189 4.189 0 0 0-2.494.889A1.5 1.5 0 0 1 73.148 48.5zM58.057 43.539a1.5 1.5 0 0 1-.527-.1c-7.811-2.929-13.814-2.055-14.687-1.366a1.5 1.5 0 0 1-2.629-1.442c1.492-2.982 10.419-2.983 18.37 0a1.5 1.5 0 0 1-.527 2.905zM42.9 41.977h0z"/><circle cx="50.702" cy="48.49" r="2.607" fill="#356d93"/><path fill="#25567f" d="M54.852,48.5a1.5,1.5,0,0,1-1.24-.652,4.189,4.189,0,0,0-2.494-.889,6.223,6.223,0,0,0-4.505.869,1.5,1.5,0,1,1-2-2.237c1.775-1.586,4.711-1.872,6.865-1.61,1.024.124,3.522.584,4.609,2.172a1.5,1.5,0,0,1-.391,2.085A1.484,1.484,0,0,1,54.852,48.5Z"/><path fill="#ff6464" d="M67.458,57.5a1.5,1.5,0,0,0-1.316.779,6.831,6.831,0,0,1-2.154.442,6.752,6.752,0,0,1-2.129-.441,1.5,1.5,0,0,0-2.816.72c0,2.6,4.9,2.721,4.945,2.721s4.97-.117,4.97-2.721A1.5,1.5,0,0,0,67.458,57.5Z"/><path fill="#25567f" d="M95.75,33.15c-2.59-3.01-11.06-10.71-14.87-11.09C72.5,20.75,70.38,25.75,64,25.75s-8.5-5-16.88-3.69c-3.81.38-12.28,8.08-14.87,11.09-1.71,1.98-4.5-.19-3.89-2.72,1.48-6.1,4-13.7,11.87-20.02C44.98,6.6,52.66,2.53,64,2.53S83.02,6.6,87.77,10.41c7.87,6.32,10.39,13.92,11.87,20.02C100.25,32.96,97.46,35.13,95.75,33.15Z"/><path fill="#466dce" d="M89.67,98.58v26.94H38.33V98.58a34.928,34.928,0,0,0,6.65,8.2c1.98,1.91,4.16,3.76,6.3,5.47,4.46,3.55,8.81,6.48,11.09,7.96a2.969,2.969,0,0,0,3.26,0c2.28-1.48,6.63-4.41,11.09-7.96,2.14-1.71,4.32-3.56,6.3-5.47A34.928,34.928,0,0,0,89.67,98.58Z"/><path fill="#f0f1ff" d="M45.17 112.25a108.139 108.139 0 0 0 1.67 13.27H35.43a49.118 49.118 0 0 1-4.02-13.27c-.03-.17-.05-.34-.07-.51-.23-1.95 1.78-5.37 6.1-8.3a.2.2 0 0 0-.14-.37c-1.83.35-5.46.87-5.47-.35-.01-1.43 1.25-3.99 4.24-7.66.5-.6 1.04-1.22 1.62-1.88 2-2.25 5.96-3.55 9.72-4.32-1.9 5.52-2.48 11.95-2.43 17.92C44.98 108.66 45.06 110.5 45.17 112.25zM96.66 111.75c-.02.17-.04.34-.07.5a49.509 49.509 0 0 1-4.01 13.27H81.16a108.426 108.426 0 0 0 1.67-13.27c.11-1.75.19-3.59.19-5.47.05-5.96-.53-12.39-2.43-17.91 3.76.77 7.72 2.07 9.72 4.32.58.66 1.12 1.28 1.62 1.88 2.99 3.67 4.25 6.23 4.24 7.66-.01 1.21-3.64.69-5.47.35a.2.2 0 0 0-.14.36C94.88 106.37 96.89 109.79 96.66 111.75z"/><path fill="#25567f" d="M87.36,64c-1.38,4.62-2.85,7.82-3.05,8.54-2.08,7.19-9.5,10.85-18.3,13.97a6.028,6.028,0,0,1-4.02,0c-8.8-3.12-16.22-6.78-18.3-13.97-.2-.72-1.67-3.92-3.05-8.54C48.09,66.22,52.22,78.94,64,78.94S79.91,66.22,87.36,64Z"/><path fill="#25567f" d="M64,80.439a1.5,1.5,0,0,1-1.5-1.5V73.872a1.5,1.5,0,0,1,3,0v5.067A1.5,1.5,0,0,1,64,80.439Z"/><path fill="#214868" d="M69.813 19.441a1.5 1.5 0 0 1-1.386-2.075c2.419-5.837 1.652-8.626 1.644-8.654a1.514 1.514 0 0 1 .986-1.866 1.486 1.486 0 0 1 1.866.936c.125.371 1.14 3.821-1.724 10.733A1.5 1.5 0 0 1 69.813 19.441zM62.245 20.9a1.5 1.5 0 0 1-1.4-.965c-2.663-6.965-9.959-7.033-12.306-6.507a1.5 1.5 0 1 1-.656-2.928c4.476-1 12.712.381 15.764 8.364a1.5 1.5 0 0 1-1.4 2.036z"/></svg>