<svg xmlns="http://www.w3.org/2000/svg" viewBox="0 0 128 128"><path fill="#ff7b7b" d="M93.791,123.5H34.209c-10.63,0-13.687-6.616-6.829-14.738a38.513,38.513,0,0,1,4.53-4.532A125.45,125.45,0,0,1,46.87,94.16a14.086,14.086,0,0,0,6.58-8.11,19.581,19.581,0,0,0,.83-4.1H73.72a19.581,19.581,0,0,0,.83,4.1,14.632,14.632,0,0,0,2.85,5.09,14.418,14.418,0,0,0,3.73,3.02,125.45,125.45,0,0,1,14.96,10.07,38.6,38.6,0,0,1,4.531,4.532C107.478,116.884,104.421,123.5,93.791,123.5Z"/><path fill="#d6d9f2" d="M31.908 103.234a34.631 34.631 0 0 0-12.026 19.93 2 2 0 0 0 1.975 2.336H46.873V94.157C41.724 97.169 35.252 100.4 31.908 103.234zM96.092 103.234c-3.344-2.835-9.816-6.065-14.965-9.077V125.5h25.016a2 2 0 0 0 1.975-2.336A34.631 34.631 0 0 0 96.092 103.234z"/><path fill="#24a6c9" d="M83,106.38c0,8.34-.5,19.12-.5,19.12H46.58a157.135,157.135,0,0,1-1.08-18,28.984,28.984,0,0,1,1.76-9.83,26.486,26.486,0,0,1,3.34-6.53c3.57,2.2,9.29,7.88,13.4,7.88s9.83-5.68,13.4-7.88c.01.01.02.01.02.02a29.6,29.6,0,0,1,3.48,5.95A23.337,23.337,0,0,1,83,106.38Z"/><path fill="#36c1d8" d="M81.68,94.48c-.24.81-.5,1.7-.78,2.63-.32,1.04-.65,2.13-.99,3.22a16.32,16.32,0,0,1-3.99,6.49,4.031,4.031,0,0,1-4.8.69,16.356,16.356,0,0,1-1.94-1.32c-2.2-1.65-3.23-3.47-5.18-3.47a3.762,3.762,0,0,0-2.5,1.12c-.78.66-1.59,1.52-2.69,2.35a16.356,16.356,0,0,1-1.94,1.32,4.016,4.016,0,0,1-4.79-.69,16.438,16.438,0,0,1-4-6.49c-.28-.9-.56-1.79-.82-2.66-.34-1.13-.66-2.22-.94-3.19.19-.11.37-.21.55-.32a15.1,15.1,0,0,0,3.73-3.02c3.57,2.2,9.29,7.88,13.4,7.88s9.834-5.682,13.4-7.882A28.179,28.179,0,0,0,81.13,94.16C81.31,94.27,81.49,94.37,81.68,94.48Z"/><path fill="#f0f1ff" d="M42.411 95.618c-3.2 3.6-4.941 7.133-4.934 8.407 0 .927 3.41.409 5.168.079a.2.2 0 0 1 .145.361c-3.363 2.258-5.865 5.017-5.69 6.492.561 4.726 2.417 12.228 3.48 14.543h8.585s-2.62-22.567 1.431-34.362C47.794 92.093 43.949 93.888 42.411 95.618zM85.21 104.465a.2.2 0 0 1 .145-.361c1.758.33 5.164.848 5.168-.079.007-1.274-1.729-4.8-4.934-8.407-1.538-1.73-5.383-3.525-8.185-4.48 4.051 11.8 1.431 34.362 1.431 34.362H87.42c1.063-2.315 2.919-9.817 3.48-14.543C91.076 109.482 88.573 106.723 85.21 104.465z"/><path fill="#ffdbd7" d="M98.7,29.208a20.431,20.431,0,0,1-5-7.191c-3.033-7.582-8.6-12.869-16.246-13.1a10.553,10.553,0,0,1-6.029-2.277C60.658-1.571,41.378,4.341,34.3,22.005a20.624,20.624,0,0,1-5.027,7.227c-4.418,4.2-9.09,12.277-6.193,23.753a22.272,22.272,0,0,1,.533,3.165c.781,7.572,8.5,26.337,30.3,26.169H74.083c21.8.168,29.519-18.6,30.3-26.169a22.091,22.091,0,0,1,.533-3.162C107.819,41.488,103.124,33.4,98.7,29.208Z"/><path fill="#ff7b7b" d="M38.746 62.492c-3.532 1.47-8.157-1.124-8.85-7.072h8.85zM98.1 55.354c-.693 5.948-5.318 8.608-8.85 7.138v-9.3z"/><path fill="#f74b5b" d="M74.55,86.05A22.252,22.252,0,0,1,64,89.39a22.252,22.252,0,0,1-10.55-3.34,19.581,19.581,0,0,0,.83-4.1H73.72A19.581,19.581,0,0,0,74.55,86.05Z"/><path fill="#ff9595" d="M37.487,55.42a65.1,65.1,0,0,0,2.129,10.357C43.015,76.955,55.807,85.388,64,85.388s20.985-8.433,24.384-19.611A75.606,75.606,0,0,0,90.86,53.251c0-7.334-.421-16.389-3.193-20.751C74.038,11.06,51.928,12.444,40.5,34.25,38,39.014,36.75,48,37.487,55.42Z"/><path fill="#ff6464" d="M67 57.284a1.5 1.5 0 0 0-1.3.756 6.7 6.7 0 0 1-1.634.724 6.072 6.072 0 0 1-1.708-.724 1.5 1.5 0 0 0-2.8.744c0 1.942 3.739 2.978 4.466 2.978.756 0 4.482-1 4.482-2.978A1.5 1.5 0 0 0 67 57.284zM73.183 71.278a1.5 1.5 0 0 1-1.293-2.257c1.071-1.831-1.04-3.885-1.062-3.906A1.5 1.5 0 1 1 72.9 62.949c1.432 1.371 3.375 4.512 1.576 7.587A1.5 1.5 0 0 1 73.183 71.278z"/><path fill="#fff" d="M44.092,49.2H57.653a2.263,2.263,0,0,1,2.263,2.263v0a5.255,5.255,0,0,1-5.255,5.255H47.083a5.255,5.255,0,0,1-5.255-5.255v0A2.263,2.263,0,0,1,44.092,49.2Z"/><path fill="#fff" d="M73.339,49.2h7.579a5.255,5.255,0,0,1,5.255,5.255v0a2.263,2.263,0,0,1-2.263,2.263H70.348a2.263,2.263,0,0,1-2.263-2.263v0A5.255,5.255,0,0,1,73.339,49.2Z" transform="rotate(180 77.129 52.954)"/><path fill="#ffdbd7" d="M54.662 58.213H47.083a6.762 6.762 0 0 1-6.755-6.754A3.769 3.769 0 0 1 44.092 47.7H57.653a3.768 3.768 0 0 1 3.764 3.764A6.762 6.762 0 0 1 54.662 58.213zM44.092 50.7a.765.765 0 0 0-.764.764 3.758 3.758 0 0 0 3.755 3.754h7.579a3.759 3.759 0 0 0 3.755-3.754.765.765 0 0 0-.764-.764zM80.918 58.213H73.339a6.762 6.762 0 0 1-6.755-6.754A3.768 3.768 0 0 1 70.348 47.7H83.909a3.769 3.769 0 0 1 3.764 3.764A6.762 6.762 0 0 1 80.918 58.213zM70.348 50.7a.765.765 0 0 0-.764.764 3.759 3.759 0 0 0 3.755 3.754h7.579a3.759 3.759 0 0 0 3.755-3.754.765.765 0 0 0-.764-.764z"/><path fill="#ffdbd7" d="M68.086,52.959a1.6,1.6,0,0,1-.265-.023,21.592,21.592,0,0,0-7.639,0,1.5,1.5,0,0,1-.531-2.954,24.666,24.666,0,0,1,8.7,0,1.5,1.5,0,0,1-.261,2.977Z"/><path fill="#ffc1bb" d="M85.667 42.889a12.608 12.608 0 0 0-3.714-1.516 26.172 26.172 0 0 0-3.774-.639A35.1 35.1 0 0 0 70.6 40.8a1.3 1.3 0 1 0 .311 2.574l.031 0 .03-.005a32.75 32.75 0 0 1 7.008-.253 23.916 23.916 0 0 1 3.444.482 10.5 10.5 0 0 1 3.068 1.129l.032.019a1.089 1.089 0 0 0 1.147-1.851zM42.212 42.889a12.608 12.608 0 0 1 3.714-1.516 26.172 26.172 0 0 1 3.774-.639 35.113 35.113 0 0 1 7.584.064 1.3 1.3 0 0 1-.312 2.574l-.031 0-.03-.005A32.75 32.75 0 0 0 49.9 43.11a23.916 23.916 0 0 0-3.444.482 10.5 10.5 0 0 0-3.068 1.129l-.032.019a1.089 1.089 0 0 1-1.147-1.851z"/><path fill="#fff" d="M59.654,66.061a.913.913,0,0,0-.914,1.064,5.367,5.367,0,0,0,10.52,0,.913.913,0,0,0-.914-1.064Z"/><path fill="#ffdbd7" d="M65.25,13.875q-.835,0-1.65.031c-19.54.743-34.783,17.271-34.783,36.826v4.412C42.994,59.207,47.053,45.8,47,36.558A14.6,14.6,0,0,1,70.217,24.337a5.938,5.938,0,0,0,3.8.971c8.295-.4,9.362,13.519,10.036,18.339.908,6.483,7.953,12.238,15.344,11.562C99.4,55.209,102.625,13.875,65.25,13.875Z"/><path fill="#ffc1bb" d="M33.732,57.4a19.384,19.384,0,0,1-5.328-.809A1.5,1.5,0,0,1,29.23,53.7c4.251,1.221,7.755.814,10.416-1.206,4.365-3.311,5.884-10.4,5.85-15.929A16.1,16.1,0,0,1,71.2,23.2a4.892,4.892,0,0,0,3.019.6h.152c8.657,0,10.237,12.4,11,18.37.059.471.114.9.166,1.268.834,5.959,7.382,10.877,13.722,10.277a1.5,1.5,0,0,1,.273,2.988c-7.988.726-15.906-5.274-16.966-12.849-.054-.382-.11-.821-.172-1.3-.652-5.121-2.008-15.75-8.041-15.75h-.085a7.615,7.615,0,0,1-4.843-1.181A13.1,13.1,0,0,0,48.5,36.549c.019,3.035-.433,13.327-7.037,18.337A12.447,12.447,0,0,1,33.732,57.4Z"/><circle cx="51.083" cy="49.633" r="3.321" fill="#36c1d8"/><circle cx="76.917" cy="49.633" r="3.321" fill="#36c1d8"/><circle cx="64" cy="110.167" r="1.917" fill="#fff"/><circle cx="64" cy="118.042" r="1.917" fill="#fff"/></svg>