<svg xmlns="http://www.w3.org/2000/svg" viewBox="0 0 128 128"><path fill="#ff7b7b" d="M102.018,124.52H25.982c-4.808,0-7.937-3.08-5.749-7.362A44.384,44.384,0,0,1,31.05,103.71c5.25-4.56,11.22-7.77,16.5-10.85,2.84-1.66,4.43-3.22,5.37-5.54.1-.26.2-.52.28-.8a21.107,21.107,0,0,0,.82-4.45H73.98a21.107,21.107,0,0,0,.82,4.45c.08.28.18.54.28.8.94,2.32,2.53,3.88,5.37,5.54,5.28,3.08,11.25,6.29,16.5,10.85a44.384,44.384,0,0,1,10.817,13.448C109.955,121.44,106.826,124.52,102.018,124.52Z"/><path fill="#47c4a6" d="M80.375,125.52H47.5c-4.567,0-28.529-2.8-26.5-6.892,2.239-4.525,4.574-9.153,10.054-13.918a112.909,112.909,0,0,1,16.5-11.85c.5-.29.96-.59,1.39-.87v-.01a11.353,11.353,0,0,0,2.92-2.73c2.25,6.54,4.23,8.76,8.29,11.23a5.3,5.3,0,0,1,1.17.99,4.98,4.98,0,0,1,1.11,2.31c.14.69.35,1.83.59,3.05a1,1,0,0,0,1.96,0c.24-1.22.45-2.36.59-3.05a4.962,4.962,0,0,1,2.28-3.3c4.06-2.47,6.04-4.69,8.29-11.23a13.426,13.426,0,0,0,4.31,3.61,112.909,112.909,0,0,1,16.5,11.85A44.158,44.158,0,0,1,108,118.628C110.029,122.721,84.942,125.52,80.375,125.52Z"/><path fill="#fcd7d4" d="M53.43 125.52H19.376a2 2 0 0 1-1.9-2.634c2.117-6.5 5.541-13.192 13.573-20.176 3.71-3.23 7.79-5.28 11.72-7.29 1.63-.83 3.23-1.66 4.78-2.56.5-.29.96-.59 1.39-.87A73.362 73.362 0 0 0 53.43 125.52zM108.624 125.52H74.57a73.362 73.362 0 0 0 4.49-33.53c.43.28.89.58 1.39.87 1.55.9 3.15 1.73 4.78 2.56 3.93 2.01 8.01 4.06 11.72 7.29 8.032 6.984 11.456 13.673 13.573 20.176A2 2 0 0 1 108.624 125.52z"/><path fill="#ff7b7b" d="M34.021 49.646c-2.981 1.008-4.366 4.472-3.779 7.791.8 4.521 5.616 8.121 10.967 7.234L38.917 50C38.006 49.3 35.509 49.143 34.021 49.646zM93.979 49.646c-1.488-.5-3.985-.342-4.9.354L86.791 64.671c5.351.887 10.167-2.713 10.967-7.234C98.345 54.118 96.96 50.654 93.979 49.646z"/><path fill="#f74b5b" d="M87.312 58.547a1.5 1.5 0 0 1-1.2-2.4c2.267-3.037 6.509-2.282 6.69-2.248a1.5 1.5 0 0 1-.546 2.95c-.046-.009-2.6-.432-3.739 1.093A1.5 1.5 0 0 1 87.312 58.547zM40.688 58.547a1.5 1.5 0 0 1-1.2-.6c-1.143-1.531-3.708-1.1-3.732-1.1A1.5 1.5 0 1 1 35.2 53.9c.18-.035 4.423-.789 6.69 2.248a1.5 1.5 0 0 1-1.2 2.4z"/><path fill="#ff9595" d="M89.08,50a69.876,69.876,0,0,1-.69,7.4c0,.01,0,.01-.01.02-1.76,11.7-6.31,18.66-10.46,21.81-4.3,3.29-8.61,6.31-13.92,6.31s-9.62-3.02-13.92-6.31c-4.15-3.15-8.7-10.11-10.46-21.81-.01-.01-.01-.01-.01-.02a69.876,69.876,0,0,1-.69-7.4s3.22-28.13,23.91-28.67C91.49,20.58,89.08,50,89.08,50Z"/><path fill="#c1464f" d="M99.358,36.243c5.524-7.386-.109-15.666-6.1-16.237a.927.927,0,0,1-.832-.959,6.425,6.425,0,0,0-7.745-6.59.934.934,0,0,1-1.107-.646,8.1,8.1,0,0,0-11.09-5.2.947.947,0,0,1-1.117-.246,9.6,9.6,0,0,0-14.711.018.944.944,0,0,1-1.114.238,8.1,8.1,0,0,0-11.118,5.194.934.934,0,0,1-1.107.646,6.426,6.426,0,0,0-7.745,6.59.927.927,0,0,1-.832.959c-5.99.571-11.623,8.851-6.1,16.237a.948.948,0,0,1-.212,1.293c-3.378,2.79-3.75,11.084,3.1,13.314,7.58,2.47,12.09-4.31,12.61-9.67.41-4.23,4.86-7.59,9.9-6.32.02,0,.03.01.05.01,6.78,2.49,13.9.03,16.34-4.87a2.96,2.96,0,0,1,4.31-1.04A8.907,8.907,0,0,1,78.07,33a5.593,5.593,0,0,0,4.107,3.538,1.964,1.964,0,0,1,1.592,2.055c-.527,5.953,4.246,15.016,12.7,12.257,6.85-2.23,6.478-10.524,3.1-13.314A.948.948,0,0,1,99.358,36.243Z"/><path fill="#c1464f" d="M42.913,47.157a1.5,1.5,0,0,1-1.11-2.509c2.939-3.233,10.263-4.571,15.677-2.866a1.5,1.5,0,1,1-.9,2.861c-4.617-1.455-10.641-.082-12.555,2.023A1.5,1.5,0,0,1,42.913,47.157Z"/><path fill="#ff6464" d="M66.176,54.467a1.5,1.5,0,0,0-1.2.593,3.926,3.926,0,0,1-.987.181,4.032,4.032,0,0,1-1-.182,1.5,1.5,0,0,0-2.694.908c0,2.212,3.66,2.274,3.7,2.274s3.682-.062,3.682-2.274A1.5,1.5,0,0,0,66.176,54.467Z"/><path fill="#c1464f" d="M47.952,51a1.5,1.5,0,0,1-1.171-2.436,7.532,7.532,0,0,1,9-1.776,1.5,1.5,0,0,1-1.336,2.686,4.567,4.567,0,0,0-5.315.962A1.5,1.5,0,0,1,47.952,51Z"/><circle cx="52.433" cy="50.851" r="2.505" fill="#c1464f"/><path fill="#c1464f" d="M85.333,47.649a1.5,1.5,0,0,1-1.11-.491c-2.039-2.244-8.476-3.877-12.8-2.515a1.5,1.5,0,1,1-.9-2.861c5.143-1.621,12.881.01,15.923,3.359a1.5,1.5,0,0,1-1.11,2.508Z"/><path fill="#c1464f" d="M80.048,51a1.5,1.5,0,0,1-1.173-.564,4.562,4.562,0,0,0-5.315-.962,1.5,1.5,0,1,1-1.336-2.686,7.536,7.536,0,0,1,8.995,1.776A1.5,1.5,0,0,1,80.048,51Z"/><circle cx="75.567" cy="50.851" r="2.505" fill="#c1464f"/><path fill="#f74b5b" d="M74.8,86.52c-3.31,2.28-6.76,4.02-10.8,4.02s-7.49-1.74-10.8-4.02a21.107,21.107,0,0,0,.82-4.45H73.98A21.107,21.107,0,0,0,74.8,86.52Z"/><path fill="#c1464f" d="M88.38,57.42c-1.76,11.7-6.31,19.66-10.46,22.81-4.3,3.29-8.61,6.31-13.92,6.31s-9.62-3.02-13.92-6.31c-4.15-3.15-8.7-11.11-10.46-22.81.62,2.1,4.19,5.06,6.53,6.3a8.753,8.753,0,0,0,8.11-.7c2.47-1.79,4.29-2.95,9.74-2.95s7.27,1.16,9.74,2.95a8.753,8.753,0,0,0,8.11.7C84.19,62.48,87.76,59.52,88.38,57.42Z"/><path fill="#ad3645" d="M64,67.886c-1.1,0-3.688,0-5.032-1.7a1.5,1.5,0,1,1,2.353-1.859c.3.373,1.2.562,2.679.562s2.384-.189,2.678-.562a1.5,1.5,0,0,1,2.355,1.859C67.689,67.886,65.1,67.886,64,67.886Z"/><path fill="#5ddbba" d="M61.32 101.47c-2.44 0-6.65 5.44-8.36 5.16-2.08-.36-4.32-5.18-4.32-11.01a22.782 22.782 0 0 1 .3-3.63v-.01a11.353 11.353 0 0 0 2.92-2.73c2.25 6.54 4.23 8.76 8.29 11.23A5.3 5.3 0 0 1 61.32 101.47zM66.68 101.47c2.44 0 6.65 5.44 8.36 5.16 2.08-.36 4.32-5.18 4.32-11.01a22.782 22.782 0 0 0-.3-3.63v-.01a11.353 11.353 0 0 1-2.92-2.73c-2.25 6.54-4.23 8.76-8.29 11.23A5.3 5.3 0 0 0 66.68 101.47z"/><path fill="#ffe8e6" d="M76.628 87.832a1.5 1.5 0 0 0-1.906.93c-2.136 6.208-3.862 8.131-7.657 10.44A6.459 6.459 0 0 0 64.1 103.48c-.031.15-.065.32-.1.507-.035-.182-.068-.346-.1-.487a6.478 6.478 0 0 0-2.973-4.3c-3.79-2.3-5.516-4.228-7.652-10.436a1.5 1.5 0 1 0-2.836.976c2.454 7.133 4.738 9.474 8.924 12.02a3.481 3.481 0 0 1 1.594 2.321c.075.369.17.867.279 1.438l.3 1.584a2.5 2.5 0 0 0 4.908.018l.309-1.6c.109-.571.2-1.069.283-1.458a3.462 3.462 0 0 1 1.585-2.3c4.191-2.55 6.475-4.891 8.929-12.024A1.5 1.5 0 0 0 76.628 87.832zM85.23 95.42a12.993 12.993 0 0 0-6.17-3.44 73.425 73.425 0 0 1-4.49 33.54h5.78c5.7-7.58 13.79-9.69 14.98-13.52C95.98 109.94 91.04 100.61 85.23 95.42zM48.94 91.98a12.993 12.993 0 0 0-6.17 3.44c-5.81 5.19-10.75 14.52-10.1 16.58 1.19 3.83 9.28 5.94 14.98 13.52h5.78A73.425 73.425 0 0 1 48.94 91.98z"/></svg>