<svg xmlns="http://www.w3.org/2000/svg" viewBox="0 0 128 128"><path fill="#d6d9f2" d="M96.163,101.655H32.083c-7.228,5.563-10.518,15.715-11.368,21.579a2,2,0,0,0,1.983,2.278h82.851a2,2,0,0,0,1.983-2.278C106.681,117.37,103.391,107.218,96.163,101.655Z"/><path fill="#473c59" d="M96.468,67.726c8.239-29.249-1.9-63.608-32.345-63.608S23.539,38.477,31.779,67.726C37.2,86.97,24.416,89.552,28.185,101.56c3.161,10.073,27.261,17.706,35.938,17.706s32.777-7.633,35.939-17.706C103.831,89.552,91.047,86.97,96.468,67.726Z"/><path fill="#ff9595" d="M81.4,30.354c-4.139-6.143-9.384-9.865-17.279-9.865s-13.14,3.722-17.279,9.865c-6.765,10.039-7.975,22.6-4.108,34.068,1.745,5.179,4.307,8.952,7.567,11.439,4.29,3.274,10.314,6.068,13.82,6.068s9.53-2.794,13.821-6.068c3.26-2.487,5.821-6.26,7.567-11.439C89.378,52.95,88.168,40.393,81.4,30.354Z"/><path fill="#3a314c" d="M64.123,83.429c-4.185,0-10.578-3.207-14.73-6.375-3.557-2.714-6.275-6.8-8.079-12.153-4.144-12.3-2.582-25.193,4.286-35.385,4.839-7.182,10.725-10.527,18.523-10.527s13.684,3.345,18.523,10.527h0c6.869,10.192,8.431,23.089,4.286,35.385-1.8,5.35-4.521,9.439-8.078,12.153C74.7,80.222,68.308,83.429,64.123,83.429Zm0-61.44c-6.8,0-11.746,2.838-16.035,9.2C41.747,40.6,40.313,52.54,44.157,63.942c1.609,4.774,3.983,8.382,7.055,10.727,4.234,3.229,9.9,5.76,12.911,5.76S72.8,77.9,77.034,74.669c3.073-2.345,5.446-5.953,7.055-10.727C87.933,52.54,86.5,40.6,80.158,31.191h0C75.87,24.827,70.924,21.989,64.123,21.989Z"/><circle cx="51.281" cy="48.164" r="2.893" fill="#423859"/><path fill="#3a314c" d="M55.114,46.878c-.9-.206-1.7-.451-2.473-.644a10.62,10.62,0,0,0-2.235-.344,6.956,6.956,0,0,0-2.127.235,17.91,17.91,0,0,1-2.22.594l-.08.013a.916.916,0,0,1-.869-1.466,4.966,4.966,0,0,1,2.419-1.607,8.5,8.5,0,0,1,2.957-.441,15.991,15.991,0,0,1,5.292,1.337l.031.011a1.21,1.21,0,0,1-.7,2.312Z"/><path fill="#3a314c" d="M55.958,43.228a22.716,22.716,0,0,0-3.586-1.255,20.561,20.561,0,0,0-3.74-.58,14.388,14.388,0,0,0-3.708.282,8.672,8.672,0,0,0-1.68.573,3.348,3.348,0,0,0-1.2.892,1.027,1.027,0,1,1-1.686-1.173c.013-.019.027-.037.041-.055l.013-.016a5.235,5.235,0,0,1,1.982-1.444,10.609,10.609,0,0,1,2.087-.711,17.652,17.652,0,0,1,4.216-.425,25.209,25.209,0,0,1,4.163.416,34.158,34.158,0,0,1,4.051,1.022,1.328,1.328,0,0,1-.773,2.54A1.262,1.262,0,0,1,56,43.245Z"/><path fill="#3a314c" d="M41.7 62.337a1.5 1.5 0 0 1-1.2-.6c-.149-.2-14.691-19.964 3.908-43.241a1.5 1.5 0 0 1 2.343 1.873C29.6 41.849 42.763 59.753 42.9 59.932a1.5 1.5 0 0 1-1.2 2.405zM86.544 62.337a1.5 1.5 0 0 1-1.195-2.405C85.9 59.2 98.6 41.781 81.49 20.374A1.5 1.5 0 0 1 83.834 18.5c18.6 23.277 4.056 43.044 3.907 43.241A1.5 1.5 0 0 1 86.544 62.337z"/><circle cx="76.965" cy="48.164" r="2.893" fill="#423859"/><path fill="#3a314c" d="M72.469,44.555a15.985,15.985,0,0,1,5.291-1.337,8.506,8.506,0,0,1,2.958.441,4.975,4.975,0,0,1,2.419,1.607.916.916,0,0,1-.867,1.466l-.083-.013a17.957,17.957,0,0,1-2.22-.594,6.953,6.953,0,0,0-2.126-.235,10.61,10.61,0,0,0-2.235.344c-.772.193-1.571.438-2.474.644a1.21,1.21,0,0,1-.7-2.312Z"/><path fill="#3a314c" d="M71.341,40.754a34.142,34.142,0,0,1,4.05-1.022,25.22,25.22,0,0,1,4.163-.416,17.652,17.652,0,0,1,4.216.425,10.565,10.565,0,0,1,2.087.711A5.238,5.238,0,0,1,87.84,41.9l.011.014a1.027,1.027,0,1,1-1.6,1.287c-.015-.018-.03-.038-.043-.057a3.334,3.334,0,0,0-1.2-.892,8.7,8.7,0,0,0-1.68-.573,14.392,14.392,0,0,0-3.709-.282,20.564,20.564,0,0,0-3.739.58,22.681,22.681,0,0,0-3.586,1.255l-.04.017A1.327,1.327,0,0,1,71.206,40.8,1.373,1.373,0,0,1,71.341,40.754Z"/><path fill="#f0f1ff" d="M84.933,60.61a7.432,7.432,0,0,0-3.755-5.721c-3.944-2.135-10.322-3.736-17.055-3.736s-13.111,1.6-17.054,3.736a7.433,7.433,0,0,0-3.756,5.721A18.619,18.619,0,0,0,48.1,74.6c4.712,4.929,11.58,8.258,16.019,8.258S75.43,79.524,80.143,74.6A18.618,18.618,0,0,0,84.933,60.61Z"/><path fill="#f0f1ff" d="M64.123,84.354c-5.078,0-12.271-3.668-17.1-8.722a20.026,20.026,0,0,1-5.2-15.206,9,9,0,0,1,4.53-6.857c4.464-2.416,11.272-3.917,17.769-3.917s13.306,1.5,17.769,3.917a9,9,0,0,1,4.53,6.857,20.025,20.025,0,0,1-5.194,15.2C76.4,80.686,69.2,84.354,64.123,84.354Zm0-31.7c-6.028,0-12.289,1.363-16.34,3.556A5.913,5.913,0,0,0,44.8,60.794a17.069,17.069,0,0,0,4.386,12.765c4.841,5.062,11.308,7.8,14.935,7.8s10.094-2.733,14.936-7.8a17.07,17.07,0,0,0,4.385-12.764h0a5.91,5.91,0,0,0-2.981-4.585C76.413,54.015,70.151,52.652,64.123,52.652Z"/><path fill="#3a314c" d="M62.1 99.028a26.278 26.278 0 0 1-5.021-.5c-8.136-1.59-14.656-6.507-17.89-13.491a1.5 1.5 0 0 1 2.723-1.26c4.011 8.662 12.345 11.143 15.742 11.807 5.675 1.11 10-.015 11.623-1.527a1.5 1.5 0 0 1 2.047 2.193C69.394 98.054 66.017 99.028 62.1 99.028zM69.12 105.857a1.5 1.5 0 0 1 0-3c6.908 0 14.765-4.591 16.484-9.634a1.5 1.5 0 1 1 2.839.968C86.325 100.406 77.3 105.857 69.12 105.857z"/></svg>