<svg xmlns="http://www.w3.org/2000/svg" viewBox="0 0 128 128"><path fill="#bc465a" d="M102,71.833C101,36,90.566,8.06,64,8.06S27,36,26,71.833c-.316,11.313,2.83,24.1,21.03,25.684H80.97C99.17,95.934,102.316,83.146,102,71.833Z"/><path fill="#ff7b7b" d="M92.944,123.54H35.056c-7.953,0-12.552-6.2-7.617-12.433a41.749,41.749,0,0,1,6.311-6.232A64.14,64.14,0,0,1,44.31,97.95c1.577-.805,3.172-1.641,4.64-2.5,2.68-1.57,4.27-4.25,5.23-7.36a32.241,32.241,0,0,0,1.21-6.42l17.22.03a31.673,31.673,0,0,0,1.2,6.39c.97,3.11,2.56,5.79,5.24,7.36,1.4.817,3.142,1.733,4.64,2.5a68.038,68.038,0,0,1,10.893,7.3,37.256,37.256,0,0,1,5.978,5.857C105.5,117.344,100.9,123.54,92.944,123.54Z"/><path fill="#f74b5b" d="M73.81,88.09c-3.61,1.8-7.49,3.07-9.81,3.07s-6.21-1.27-9.82-3.07a32.241,32.241,0,0,0,1.21-6.42l17.22.03A31.673,31.673,0,0,0,73.81,88.09Z"/><path fill="#ff9595" d="M90.522,41.32Q62.2,7.651,37.478,41.32s-.1,6.875,0,9.855c.538,16.163,5.233,23.87,11.693,28.882,4.305,3.229,11.333,6.1,14.829,6.1s10.524-2.869,14.829-6.1c6.46-5.012,11.155-12.719,11.693-28.882C90.621,48.2,90.522,41.32,90.522,41.32Z"/><path fill="#466dce" d="M104.818,125.54H23.182a2,2,0,0,1-1.969-2.368A32.574,32.574,0,0,1,33.12,104.45c3.25-2.56,7.29-4.51,11.19-6.5,2.19,5.13,11.28,13.35,18.56,18.43a1.987,1.987,0,0,0,2.26,0c7.28-5.08,16.37-13.3,18.56-18.43,3.9,1.99,7.94,3.94,11.19,6.5a32.574,32.574,0,0,1,11.907,18.722A2,2,0,0,1,104.818,125.54Z"/><circle cx="51.945" cy="54.044" r="2.885" fill="#bc465a"/><path fill="#ad3645" d="M54.984,52.706a1.489,1.489,0,0,1-1.006-.389,5.345,5.345,0,0,0-5.706-.24A1.5,1.5,0,1,1,46.317,49.8c2.162-1.856,7.05-2.085,9.674.293a1.5,1.5,0,0,1-1.007,2.611Z"/><circle cx="76.055" cy="54.044" r="2.885" fill="#bc465a"/><path fill="#ad3645" d="M73.016 52.706A1.5 1.5 0 0 1 72.009 50.1c2.625-2.379 7.512-2.149 9.674-.293a1.5 1.5 0 1 1-1.955 2.275 5.345 5.345 0 0 0-5.706.24A1.489 1.489 0 0 1 73.016 52.706zM45.856 45.82a1.5 1.5 0 0 1-.793-2.773c2.327-1.447 8.4-1.826 11.61-.727a1.5 1.5 0 0 1-.975 2.838c-2.494-.856-7.6-.466-9.051.436A1.494 1.494 0 0 1 45.856 45.82z"/><path fill="#bc465a" d="M89.083,30.25c-3.739-5.415-7.349-10.083-25.05-10.083S42.39,24.973,38.125,30.25c-2.825,3.5-5.75,15.875-.686,17.174,9.576,2.455,13.19-9.286,14.877-14.886a1.968,1.968,0,0,1,3.536-.472c5.39,8.414,11.106,17.351,21.481,14.976A3.617,3.617,0,0,0,79.7,45.317C86.322,49.817,99.5,49.417,89.083,30.25Z"/><path fill="#ff7b7b" d="M65.715,58.528a1.5,1.5,0,0,0-1.127.51,2.815,2.815,0,0,1-.6.1,2.782,2.782,0,0,1-.608-.1,1.5,1.5,0,0,0-2.627.99c0,2.087,3.2,2.112,3.235,2.112s3.224-.025,3.224-2.112A1.5,1.5,0,0,0,65.715,58.528Z"/><path fill="#ad3645" d="M90.42,29.569a1.5,1.5,0,0,0-2.674,1.362c3.692,7.253,4.547,12.525,2.344,14.466-1.825,1.612-5.573.949-8.484-.64,1.185-3.536-.057-8.241-.221-8.828a1.5,1.5,0,0,0-2.889.808c.38,1.36,1.568,5.988-.05,7.787-1.547,1.722-4.08,1.464-5.275,1.376-7.009-.519-11.417-7.4-16.057-14.643a3.467,3.467,0,0,0-6.235.848c-2.018,6.7-4.781,13.356-10.01,14.081-.936.129-3.381.265-4.191-1.361-1.625-3.256.991-11.061,2.713-13.77a1.5,1.5,0,1,0-2.532-1.61C34.8,32.69,32.1,41.413,33.888,45.929a4.615,4.615,0,0,0,3.179,2.948,11.979,11.979,0,0,0,2.97.394c8.805,0,12.187-11.228,13.715-16.3a.419.419,0,0,1,.367-.307.476.476,0,0,1,.485.234c5.47,8.539,11.668,18.218,23.064,15.606a5.16,5.16,0,0,0,2.32-1.218,15.13,15.13,0,0,0,7.139,2.019,7.316,7.316,0,0,0,4.947-1.657C95.531,44.6,94.976,38.518,90.42,29.569Z"/><path fill="#3c51aa" d="M63.976,123.245a4.5,4.5,0,0,1-2.312-.638c-6.612-3.941-17.3-13.249-20.651-18.895a1.5,1.5,0,1,1,2.58-1.531c3.05,5.135,13.33,14.108,19.607,17.85a1.515,1.515,0,0,0,1.552,0c6.276-3.742,16.557-12.714,19.607-17.85a1.5,1.5,0,1,1,2.58,1.531c-3.353,5.646-14.04,14.954-20.651,18.895A4.506,4.506,0,0,1,63.976,123.245Z"/><path fill="#f74b5b" d="M64.033,71.221a8.143,8.143,0,0,1-5.624-1.878,1.5,1.5,0,0,1,2.1-2.147,5.439,5.439,0,0,0,3.528,1.025,5.418,5.418,0,0,0,3.548-1.043,1.509,1.509,0,0,1,2.11.074,1.487,1.487,0,0,1-.034,2.091A8.14,8.14,0,0,1,64.033,71.221Z"/><path fill="#ffccdc" d="M82.25 66.8a1.5 1.5 0 0 1-1.075-2.546c4.061-4.169 6.317-10.6 7.015-14.835a1.5 1.5 0 1 1 2.96.487c-.278 1.689-1.963 10.422-7.825 16.44A1.493 1.493 0 0 1 82.25 66.8zM45.75 66.8a1.493 1.493 0 0 1-1.075-.454C38.813 60.33 37.128 51.6 36.85 49.908a1.5 1.5 0 1 1 2.96-.487c.7 4.237 2.954 10.666 7.015 14.835A1.5 1.5 0 0 1 45.75 66.8z"/><path fill="#ffe3ee" d="M82.75,66.2a6.7,6.7,0,0,0-3.384-5.155c-3.553-1.923-9.3-3.366-15.366-3.366S52.187,59.12,48.634,61.043A6.7,6.7,0,0,0,45.25,66.2a16.776,16.776,0,0,0,4.316,12.6C53.812,83.239,60,86.239,64,86.239s10.187-3,14.434-7.441A16.776,16.776,0,0,0,82.75,66.2Z"/><path fill="#ffe3ee" d="M64,87.705c-4.6,0-11.1-3.319-15.476-7.891a18.116,18.116,0,0,1-4.7-13.762,8.151,8.151,0,0,1,4.1-6.214C51.965,57.653,58.123,56.3,64,56.3s12.035,1.358,16.072,3.543a8.151,8.151,0,0,1,4.105,6.213h0a18.116,18.116,0,0,1-4.7,13.762C75.105,84.386,68.6,87.705,64,87.705Zm0-28.656c-5.447,0-11.1,1.23-14.761,3.211a5.326,5.326,0,0,0-2.685,4.13,15.4,15.4,0,0,0,3.96,11.521c4.372,4.573,10.211,7.04,13.486,7.04s9.114-2.467,13.486-7.04a15.405,15.405,0,0,0,3.96-11.522,5.326,5.326,0,0,0-2.685-4.129C75.1,60.279,69.447,59.049,64,59.049Z"/></svg>