<svg xmlns="http://www.w3.org/2000/svg" viewBox="0 0 128 128"><path fill="#ff7b7b" d="M89.923,123.49H38.064c-9.034,0-14.069-7.7-8.073-14.462a25.715,25.715,0,0,1,3.549-3.318c5.35-4.12,10.57-6.93,15.6-9.87a14.652,14.652,0,0,0,6.87-9.63,37.322,37.322,0,0,0,.47-3.77H71.52a37.322,37.322,0,0,0,.47,3.77,14.652,14.652,0,0,0,6.87,9.63c5.03,2.94,10.25,5.75,15.6,9.87a25.588,25.588,0,0,1,3.233,2.969C103.954,115.492,99.176,123.49,89.923,123.49Z"/><path fill="#ffe3ee" d="M103.254 125.49H24.746a2 2 0 0 1-1.976-2.33c.868-5.219 4.007-13.249 10.77-18.45 5.35-4.12 10.57-5.93 15.6-8.87a13.961 13.961 0 0 0 5.15-5.2 37.4 37.4 0 0 0 19.42 0 13.961 13.961 0 0 0 5.15 5.2c5.03 2.94 10.25 4.75 15.6 8.87 6.763 5.2 9.9 13.231 10.77 18.45A2 2 0 0 1 103.254 125.49zM103.781 32.764c-2.062-8-6.83-17.883-11.1-21.911C84.072 2.743 71.1 2.966 64 2.966s-20.072-.223-28.678 7.887c-4.273 4.028-9.041 13.916-11.1 21.911a9.572 9.572 0 0 0 .5 6.221 43.88 43.88 0 0 0 8.807 12.693H94.478a43.88 43.88 0 0 0 8.807-12.693A9.572 9.572 0 0 0 103.781 32.764z"/><path fill="#466dce" d="M64,13.264c-24.783,0-31.451,24.331-28.3,38.954H92.3C95.451,37.6,88.783,13.264,64,13.264Z"/><path fill="#ff7b7b" d="M33.522 51.678c-3 1.36-3.718 5.068-2.735 8.454A8.316 8.316 0 0 0 41.018 65.8l-2.307-14.06A7.045 7.045 0 0 0 33.522 51.678zM94.478 51.678a7.045 7.045 0 0 0-5.189.066L86.982 65.8a8.316 8.316 0 0 0 10.231-5.672C98.2 56.746 97.474 53.038 94.478 51.678z"/><path fill="#f74b5b" d="M71.99,86.21c-3.02,1.63-6.07,2.84-7.99,2.84s-4.97-1.21-7.99-2.84a37.322,37.322,0,0,0,.47-3.77H71.52A37.322,37.322,0,0,0,71.99,86.21Z"/><path fill="#ff9595" d="M65.041,26.949a3.092,3.092,0,0,1-2.079,0c-18.6-6.666-13.4,16.17-24.251,24.8,1.025,15.386,4.951,22.811,11.15,27.54C53.94,82.4,60.667,86.052,64,86.052S74.06,82.4,78.139,79.284c6.2-4.729,10.125-12.154,11.15-27.54C78.44,43.119,83.638,20.283,65.041,26.949Z"/><path fill="#f74b5b" d="M39.452 60.2a1.5 1.5 0 0 1-1.2-.6 3.107 3.107 0 0 0-2.707-1.247 1.5 1.5 0 1 1-.439-2.967 6.1 6.1 0 0 1 5.55 2.419 1.5 1.5 0 0 1-1.2 2.4zM88.548 60.2a1.5 1.5 0 0 1-1.2-2.4 6.1 6.1 0 0 1 5.55-2.419 1.5 1.5 0 0 1-.423 2.969A3.1 3.1 0 0 0 89.751 59.6 1.5 1.5 0 0 1 88.548 60.2z"/><circle cx="50.916" cy="52.964" r="2.75" fill="#5885dd"/><path fill="#466dce" d="M45.952 52.2a1.5 1.5 0 0 1-.822-2.756 9.762 9.762 0 0 1 7.634-1.536 4.475 4.475 0 0 1 2.947 1.9 1.5 1.5 0 0 1-2.6 1.492c-.445-.536-3.245-1.368-6.337.652A1.5 1.5 0 0 1 45.952 52.2zM56.424 45.8a21.122 21.122 0 0 0-6.166-.6 31.209 31.209 0 0 0-3.191.28 24.9 24.9 0 0 0-3.085.62l-.072.021a1.031 1.031 0 0 1-.822-1.869 12.824 12.824 0 0 1 3.418-1.437 18.914 18.914 0 0 1 3.579-.616 14.683 14.683 0 0 1 7.3 1.135 1.327 1.327 0 0 1-.906 2.483z"/><circle cx="77.084" cy="52.964" r="2.75" fill="#5885dd"/><path fill="#466dce" d="M82.048 52.2a1.5 1.5 0 0 1-.819-.244c-3.105-2.029-5.916-1.18-6.343-.645a1.488 1.488 0 0 1-2.035.558 1.513 1.513 0 0 1-.562-2.057 4.475 4.475 0 0 1 2.947-1.9 9.762 9.762 0 0 1 7.634 1.536 1.5 1.5 0 0 1-.822 2.756zM70.62 43.329a14.683 14.683 0 0 1 7.3-1.135 18.914 18.914 0 0 1 3.579.616 12.824 12.824 0 0 1 3.418 1.437 1.031 1.031 0 0 1-.821 1.869l-.073-.021a24.9 24.9 0 0 0-3.085-.62 31.209 31.209 0 0 0-3.191-.28 21.122 21.122 0 0 0-6.166.6l-.05.013a1.327 1.327 0 0 1-.906-2.483zM37.388 80.356a1.494 1.494 0 0 1-1.214-.617c-3.373-4.63-1.734-9.433-.148-14.079 1.516-4.439 3.082-9.029 1.263-14.437a1.5 1.5 0 1 1 2.844-.957c2.143 6.372.331 11.68-1.268 16.364-1.52 4.454-2.721 7.973-.266 11.344a1.5 1.5 0 0 1-1.211 2.382zM90.612 80.356A1.5 1.5 0 0 1 89.4 77.974c2.455-3.371 1.254-6.89-.266-11.344-1.6-4.684-3.411-9.992-1.268-16.364a1.5 1.5 0 1 1 2.844.957c-1.819 5.408-.253 10 1.263 14.437 1.586 4.646 3.225 9.449-.148 14.079A1.494 1.494 0 0 1 90.612 80.356z"/><path fill="#ff6464" d="M65.7,57.888a1.5,1.5,0,0,0-1.125.508,1.822,1.822,0,0,1-1.185,0,1.5,1.5,0,0,0-2.624.992c0,2.083,3.19,2.107,3.223,2.107s3.211-.024,3.211-2.107A1.5,1.5,0,0,0,65.7,57.888Z"/><path fill="#f74b5b" d="M64,69.731a13.872,13.872,0,0,1-4.778-.94,1.5,1.5,0,0,1,1.306-2.7,9.724,9.724,0,0,0,6.944,0,1.5,1.5,0,0,1,1.306,2.7A13.872,13.872,0,0,1,64,69.731Z"/><path fill="#ffccdc" d="M63.966 93.427A43.1 43.1 0 0 1 53.948 92.1a1.5 1.5 0 0 1 .684-2.922 36.113 36.113 0 0 0 18.74 0 1.5 1.5 0 0 1 .676 2.924A43.968 43.968 0 0 1 63.966 93.427zM63.986 100.324a29.021 29.021 0 0 1-6.6-.764 1.5 1.5 0 0 1 .683-2.922 25.982 25.982 0 0 0 11.861 0 1.5 1.5 0 1 1 .677 2.922A29.355 29.355 0 0 1 63.986 100.324z"/></svg>