<svg xmlns="http://www.w3.org/2000/svg" viewBox="0 0 128 128"><path fill="#ffb255" d="M48.368,78.377c-11.043,10.829-27.4-5.806-36.5,5.005-8,9.507-1.99,27.493,17.158,24.832,0,0,8.755-.9,14.914-4.036C52.625,99.75,57.7,87.713,57.7,87.713Z"/><path fill="#ff7b7b" d="M91.306,124.51H36.694c-8.948,0-13.741-8.645-7.708-15.254a34.2,34.2,0,0,1,4.134-3.836,102.518,102.518,0,0,1,13.91-8.93c.6-.326,1.341-.732,1.92-1.07a11.343,11.343,0,0,0,4.76-5.38c.12-.26.23-.54.34-.81a25.263,25.263,0,0,0,1.34-6.38H72.61a24.477,24.477,0,0,0,1.36,6.4q.15.42.33.81a11.375,11.375,0,0,0,4.75,5.36c.5.292,1.4.787,1.92,1.07a102.948,102.948,0,0,1,13.91,8.93,34.2,34.2,0,0,1,4.134,3.836C105.047,115.865,100.254,124.51,91.306,124.51Z"/><path fill="#ef3a65" d="M104.819,125.51H23.181a2,2,0,0,1-1.969-2.368A32.557,32.557,0,0,1,33.12,104.42c4.02-3.16,9.24-5.41,13.91-7.93,2.17,5.07,7.88,12.72,15.72,19.46a1.936,1.936,0,0,0,2.5,0c7.84-6.74,13.55-14.39,15.72-19.46,4.67,2.52,9.89,4.77,13.91,7.93a32.557,32.557,0,0,1,11.908,18.722A2,2,0,0,1,104.819,125.51Z"/><path fill="#ffb255" d="M64,5.028c-28.946,0-37.22,32.693-31.964,47.046H95.964C101.22,37.721,92.946,5.028,64,5.028Z"/><path fill="#ff7b7b" d="M32.036 50.074c-3.142 1.426-3.9 5.316-2.868 8.866A8.722 8.722 0 0 0 39.9 64.889l-2.42-14.746A7.393 7.393 0 0 0 32.036 50.074zM95.964 50.074a7.393 7.393 0 0 0-5.442.069L88.1 64.889a8.722 8.722 0 0 0 10.73-5.949C99.863 55.39 99.106 51.5 95.964 50.074z"/><path fill="#f74b5b" d="M88.624 59.57a1.5 1.5 0 0 1-1.163-2.446 7.792 7.792 0 0 1 6.18-3.086 1.5 1.5 0 0 1-.181 2.994 4.845 4.845 0 0 0-3.671 1.984A1.5 1.5 0 0 1 88.624 59.57zM39.376 59.57a1.5 1.5 0 0 1-1.165-.554 4.849 4.849 0 0 0-3.652-1.985 1.5 1.5 0 1 1-.2-2.993 7.8 7.8 0 0 1 6.18 3.086 1.5 1.5 0 0 1-1.163 2.446zM73.97 89.25c-3.65 2.14-7.61 3.87-9.97 3.87s-6.3-1.75-9.95-3.89a25.263 25.263 0 0 0 1.34-6.38H72.61A24.477 24.477 0 0 0 73.97 89.25z"/><path fill="#ff8c83" d="M65.335,21.84a4.125,4.125,0,0,1-2.67,0c-19.2-6.6-13.859,19.3-25.187,28.3,1.075,16.137,5.233,23.87,11.693,28.883,4.305,3.229,11.333,7.1,14.829,7.1s10.551-3.835,14.829-7.1c6.5-4.96,10.618-12.746,11.693-28.883C79.194,41.138,84.535,15.244,65.335,21.84Z"/><path fill="#d65656" d="M80.144 41.789a1.491 1.491 0 0 1-.791-.226 9.385 9.385 0 0 0-7.051-.437 1.5 1.5 0 1 1-.975-2.837c3.152-1.083 7.194-.777 9.61.727a1.5 1.5 0 0 1-.793 2.773zM47.856 41.789a1.5 1.5 0 0 1-.793-2.773c2.416-1.5 6.458-1.811 9.61-.727a1.5 1.5 0 1 1-.975 2.837 9.393 9.393 0 0 0-7.051.437A1.494 1.494 0 0 1 47.856 41.789z"/><path fill="#ffdbd7" d="M85.179,64.356a7.567,7.567,0,0,0-3.822-5.823c-4.014-2.172-10.5-3.8-17.357-3.8s-13.343,1.63-17.357,3.8a7.567,7.567,0,0,0-3.822,5.823A18.945,18.945,0,0,0,47.7,78.588c4.8,5.017,11.786,8.405,16.3,8.405s11.507-3.388,16.3-8.405A18.945,18.945,0,0,0,85.179,64.356Z"/><path fill="#ffdbd7" d="M64,88.494c-5.161,0-12.474-3.73-17.388-8.869a20.338,20.338,0,0,1-5.279-15.454,9.121,9.121,0,0,1,4.6-6.957c4.537-2.457,11.461-3.983,18.07-3.983s13.533,1.526,18.07,3.983a9.121,9.121,0,0,1,4.6,6.957h0a20.338,20.338,0,0,1-5.279,15.454C76.474,84.764,69.161,88.494,64,88.494Zm0-32.263c-6.141,0-12.518,1.388-16.643,3.621a6.042,6.042,0,0,0-3.047,4.687,17.4,17.4,0,0,0,4.47,13.013C53.713,82.71,60.3,85.494,64,85.494s10.287-2.784,15.22-7.942A17.394,17.394,0,0,0,83.69,64.54h0a6.038,6.038,0,0,0-3.047-4.686C76.518,57.619,70.141,56.231,64,56.231Z"/><path fill="#fff" d="M64,50.34c-2.789,0-3.515,5.662-6.9,6.887-4.637,1.678-10.75.406-13.012-.032-3.1-.6-5.8-2.764-5.8-9.192a3.24,3.24,0,0,1,2.4-3.331C47.2,43.146,56.8,42.849,64,42.849s16.8.3,23.312,1.823A3.24,3.24,0,0,1,89.716,48c-.006,6.428-2.7,8.592-5.8,9.192-2.262.438-8.375,1.71-13.012.032C67.515,56,66.789,50.34,64,50.34Z"/><path fill="#589fe0" d="M76.456,59.573a17.979,17.979,0,0,1-6.066-.935c-2.167-.784-3.409-2.828-4.407-4.471C65.32,53.077,64.569,51.84,64,51.84s-1.32,1.237-1.983,2.327c-1,1.643-2.24,3.687-4.407,4.471-4.882,1.767-10.982.58-13.587.073l-.22-.043c-4.653-.9-7.014-4.488-7.019-10.664a4.73,4.73,0,0,1,3.562-4.793C45.621,41.975,53.58,41.349,64,41.349s18.379.626,23.654,1.862a4.73,4.73,0,0,1,3.562,4.794c0,6.175-2.366,9.763-7.019,10.663l-.22.043A39.25,39.25,0,0,1,76.456,59.573ZM64,48.84c2.257,0,3.474,2,4.547,3.77.832,1.368,1.691,2.783,2.864,3.207,4.1,1.484,9.632.408,11.992-.051l.224-.043c1.968-.381,4.584-1.6,4.589-7.721a1.753,1.753,0,0,0-1.245-1.87C81.918,44.949,74.19,44.349,64,44.349s-17.918.6-22.971,1.783A1.752,1.752,0,0,0,39.784,48c.005,6.126,2.621,7.341,4.589,7.722l.224.043c2.361.459,7.891,1.536,11.992.051,1.173-.424,2.032-1.839,2.864-3.207C60.526,50.843,61.743,48.84,64,48.84Z"/><circle cx="76.055" cy="51.013" r="2.885" fill="#6eb5ea"/><circle cx="51.945" cy="51.013" r="2.885" fill="#6eb5ea"/><path fill="#d65656" d="M73.021 49.644a1.49 1.49 0 0 1-1.152-2.436c1.066-1.264 3.156-1.56 4.006-1.628.942-.077 3.294-.111 4.808 1.191a1.5 1.5 0 1 1-1.955 2.275c-.957-.82-4.012-.51-4.567.1A1.544 1.544 0 0 1 73.021 49.644zM54.985 49.675a1.5 1.5 0 0 1-1.146-.532c-.557-.607-3.611-.919-4.567-.1a1.5 1.5 0 1 1-1.955-2.275c1.514-1.3 3.866-1.267 4.808-1.191.85.068 2.94.364 4.006 1.628a1.5 1.5 0 0 1-1.146 2.467z"/></svg>