<svg xmlns="http://www.w3.org/2000/svg" viewBox="0 0 128 128"><path fill="#ff7b7b" d="M99.393,123.52H28.607c-7.116,0-9.739-4.86-5.773-10.769a40.633,40.633,0,0,1,7.216-8.041,129.9,129.9,0,0,1,17.5-12.85c3.35-1.96,4.96-3.52,5.81-6.49a21.413,21.413,0,0,0,.66-3.83H73.98a21.551,21.551,0,0,0,.67,3.86c.85,2.95,2.46,4.5,5.8,6.46a129.9,129.9,0,0,1,17.5,12.85,40.633,40.633,0,0,1,7.216,8.041C109.132,118.66,106.509,123.52,99.393,123.52Z"/><path fill="#fafaff" d="M55.986,98.474v15.943H71.908V98.474S62.241,99.179,55.986,98.474Z"/><path fill="#46467a" d="M65.09,125.52H19.336a2,2,0,0,1-1.915-2.578C19.354,116.421,22,109.714,30.05,102.71c5.25-4.56,12.22-7.77,17.5-10.85a19.938,19.938,0,0,0,3.41-2.38l.01.01a41.948,41.948,0,0,0,11.86,16.1c1.06.91,1.88,1.55,2.32,1.98a1.714,1.714,0,0,1,.31.38C66.19,109.42,65.6,121.9,65.09,125.52Z"/><path fill="#54548e" d="M108.662,125.52H62.91c-.51-3.62-1.1-16.1-.37-17.57.64-1.27,9.12-5.81,14.49-18.46l.01-.01a19.938,19.938,0,0,0,3.41,2.38c5.28,3.08,12.25,6.29,17.5,10.85a37.578,37.578,0,0,1,10.52,14.2,57.307,57.307,0,0,1,2.113,6.048A2,2,0,0,1,108.662,125.52Z"/><path fill="#ffb255" d="M97.568,27.875c-.784-5.522-4.765-9.37-6.586-10.906a.964.964,0,0,1-.229-1.228c.309-.5.322-1.174-.44-2.042-4.4-5.009-10.968-5.753-14.665-5.725a.994.994,0,0,1-.823-1.581c.748-.968,1.054-2.125-.681-2.895-4.468-1.985-17.323-.776-25.311,5.308a1,1,0,0,1-1.6-.592,2.5,2.5,0,0,0-1.2-1.862c-2.448-1.378-4.038,1.525-4.607,3.778a.987.987,0,0,1-.872.736c-1.7.158-5.8.734-6.089,2.619A2.3,2.3,0,0,0,36.542,16.3a.993.993,0,0,1,.437,1.691c-2.82,2.685-6.953,7.53-6.953,10.524a2.4,2.4,0,0,0,1.147,2.311,2.008,2.008,0,0,1,1.09,1.8c-.093,3.14-.259,11.932.042,17.305a1,1,0,0,0,1,.945h61.2a1,1,0,0,0,1-.955c.152-4.236-.312-12.5-.613-16.2A2.679,2.679,0,0,1,96.3,31.25,3.275,3.275,0,0,0,97.568,27.875Z"/><path fill="#ff7b7b" d="M30.331 55.192c.624 6.865 7.056 10.087 11.308 8.785L39.007 48.65C34.845 47.51 29.862 50.042 30.331 55.192zM89.057 48.65L86.425 63.977c4.252 1.3 10.684-1.92 11.308-8.785C98.2 50.042 93.219 47.51 89.057 48.65z"/><path fill="#3d3d6d" d="M108.47,116.91c-3.02.42-8.49-2.98-11.28-6.47-1.87-2.33-.8-5.19.76-7.73A37.578,37.578,0,0,1,108.47,116.91Z"/><path fill="#54548e" d="M34.574,111.922H50.419a1,1,0,0,1,1.006,1.006v3.089a1,1,0,0,1-.633.935c-1.74.682-6.579,2.515-8.3,2.515s-6.556-1.833-8.3-2.515a1,1,0,0,1-.633-.935v-3.089A1.006,1.006,0,0,1,34.574,111.922Z"/><path fill="#f74b5b" d="M39.743 56.822a1.494 1.494 0 0 1-.828-.25A4.921 4.921 0 0 0 35.7 55.86a1.5 1.5 0 1 1-.646-2.929 7.813 7.813 0 0 1 5.523 1.141 1.5 1.5 0 0 1-.83 2.75zM88.324 56.818a1.5 1.5 0 0 1-.834-2.746 7.8 7.8 0 0 1 5.525-1.141 1.5 1.5 0 1 1-.647 2.929 4.918 4.918 0 0 0-3.226.716A1.5 1.5 0 0 1 88.324 56.818zM74.65 85.4a43.217 43.217 0 0 1-8.43 3.68 6.979 6.979 0 0 1-4.38 0 43.183 43.183 0 0 1-8.48-3.71 21.413 21.413 0 0 0 .66-3.83H73.98A21.551 21.551 0 0 0 74.65 85.4z"/><path fill="#ff9595" d="M85.9,29.192a12.019,12.019,0,0,0-8.279-6.947,61.66,61.66,0,0,0-13.56-1.62H64a61.66,61.66,0,0,0-13.56,1.62,12.017,12.017,0,0,0-8.279,6.947C39.994,34.216,37.6,39.644,38.007,48.65a74.438,74.438,0,0,0,2.632,15.327c1.493,4.916,3.455,15.329,21.2,21.107a7.091,7.091,0,0,0,4.379,0c17.749-5.778,19.711-16.191,21.2-21.107A74.438,74.438,0,0,0,90.057,48.65C90.461,39.644,88.07,34.216,85.9,29.192Z"/><circle cx="76.853" cy="51.13" r="2.75" fill="#cc526c"/><path fill="#bc465a" d="M81.976,50.259a1.5,1.5,0,0,1-1.09-.469c-1.184-1.253-5.595-1.546-7.285-.147a1.5,1.5,0,0,1-1.911-2.315c2.772-2.286,9.043-2.065,11.375.4a1.5,1.5,0,0,1-1.089,2.531Z"/><path fill="#bc465a" d="M85.166,46.333a1.489,1.489,0,0,1-.826-.249A14.869,14.869,0,0,0,71.313,44a1.5,1.5,0,1,1-.876-2.869,17.959,17.959,0,0,1,15.557,2.447,1.5,1.5,0,0,1-.828,2.751Z"/><circle cx="51.147" cy="51.13" r="2.75" fill="#cc526c"/><path fill="#bc465a" d="M46.024,50.259a1.5,1.5,0,0,1-1.089-2.531c2.332-2.465,8.6-2.686,11.375-.4A1.5,1.5,0,0,1,54.4,49.643c-1.691-1.4-6.1-1.106-7.285.147A1.5,1.5,0,0,1,46.024,50.259Z"/><path fill="#bc465a" d="M42.834,46.333a1.5,1.5,0,0,1-.828-2.751,17.96,17.96,0,0,1,15.557-2.447A1.5,1.5,0,1,1,56.687,44a14.866,14.866,0,0,0-13.027,2.08A1.489,1.489,0,0,1,42.834,46.333Z"/><path fill="#ff6464" d="M63.994 61.24c-.037 0-3.7-.061-3.7-2.273a1.5 1.5 0 0 1 2.694-.908 4.022 4.022 0 0 0 1 .181 3.96 3.96 0 0 0 .987-.18 1.5 1.5 0 0 1 2.7.907C67.676 61.179 64.031 61.24 63.994 61.24zM64 68.981c-1.252 0-4.183 0-5.677-1.892a1.5 1.5 0 1 1 2.356-1.86c.592.752 2.646.752 3.321.752s2.729 0 3.323-.752a1.5 1.5 0 1 1 2.354 1.86C68.182 68.981 65.251 68.981 64 68.981z"/><path fill="#ef3a65" d="M82.25,121.917a1.5,1.5,0,0,1-1.5-1.5V112a1.5,1.5,0,0,1,3,0v8.417A1.5,1.5,0,0,1,82.25,121.917Z"/><path fill="#ef3a65" d="M85.853,119.883a1.5,1.5,0,0,1-.775-.216l-7.207-4.349a1.5,1.5,0,1,1,1.551-2.568l7.207,4.349a1.5,1.5,0,0,1-.776,2.784Z"/><path fill="#ef3a65" d="M78.647,119.883a1.5,1.5,0,0,1-.776-2.784l7.207-4.349a1.5,1.5,0,1,1,1.551,2.568l-7.207,4.349A1.5,1.5,0,0,1,78.647,119.883Z"/><circle cx="42.497" cy="115.694" r="1.561" fill="#ffdbd7"/><path fill="#5d5d9b" d="M81.689,90.167c-.831-1.313-5.533-3.941-6.223-2.283A43.194,43.194,0,0,1,68.72,99.726a1,1,0,0,0,.519,1.588c2.75.8,4.622,2.016,7.677,3.77a1.972,1.972,0,0,0,2.9-1.282C80.9,98.962,82.767,91.871,81.689,90.167Z"/><path fill="#54548e" d="M46.167,90.167c-1.078,1.7.788,8.781,1.866,13.622a1.982,1.982,0,0,0,2.919,1.287c3.046-1.748,4.791-2.893,7.5-3.667a1,1,0,0,0,.534-1.573,46.411,46.411,0,0,1-6.6-11.952C51.7,86.226,47,88.854,46.167,90.167Z"/></svg>