<svg xmlns="http://www.w3.org/2000/svg" viewBox="0 0 128 128"><path fill="#ff5050" d="M50.344,72.594,47.4,75.6c-5.556,8.384-23.136,1.612-31.173,5.322-5.137,2.372-7.445,7.71-5.388,11.508-2.66,5.834.682,10.178,5.325,11.238,0,0,.928,7.981,10.151,4.522,0,0,9.656-.753,16.184-3.191C55.806,100.5,63,79.416,63,79.416Z"/><path fill="#ff7b7b" d="M108.59,124.6H18.41c.19-5.17,3.4-13.31,12.85-21.34,3.5-2.98,11.36-7.37,16.76-10.53a15.256,15.256,0,0,0,6.55-7.69,19.941,19.941,0,0,0,1.34-5.62H72.09a20.5,20.5,0,0,0,1.34,5.65,15.218,15.218,0,0,0,6.54,7.66c5.41,3.16,13.26,7.55,16.77,10.53C106.19,111.29,108.39,119.43,108.59,124.6Z"/><path fill="#fafaff" d="M55.986,98.474v15.943H71.908V98.474S62.241,99.179,55.986,98.474Z"/><path fill="#46467a" d="M65.09,125.52H19.336a2,2,0,0,1-1.915-2.578C19.354,116.421,22,109.714,30.05,102.71c5.25-4.56,12.22-7.77,17.5-10.85a19.938,19.938,0,0,0,3.41-2.38l.01.01a41.948,41.948,0,0,0,11.86,16.1c1.06.91,1.88,1.55,2.32,1.98a1.714,1.714,0,0,1,.31.38C66.19,109.42,65.6,121.9,65.09,125.52Z"/><path fill="#54548e" d="M108.662,125.52H62.91c-.51-3.62-1.1-16.1-.37-17.57.64-1.27,9.12-5.81,14.49-18.46l.01-.01a19.938,19.938,0,0,0,3.41,2.38c5.28,3.08,12.25,6.29,17.5,10.85a37.578,37.578,0,0,1,10.52,14.2,57.307,57.307,0,0,1,2.113,6.048A2,2,0,0,1,108.662,125.52Z"/><path fill="#3d3d6d" d="M108.47,116.91c-3.02.42-8.49-2.98-11.28-6.47-1.87-2.33-.8-5.19.76-7.73A37.578,37.578,0,0,1,108.47,116.91Z"/><path fill="#54548e" d="M34.574,111.922H50.419a1,1,0,0,1,1.006,1.006v3.089a1,1,0,0,1-.633.935c-1.74.682-6.579,2.515-8.3,2.515s-6.556-1.833-8.3-2.515a1,1,0,0,1-.633-.935v-3.089A1.006,1.006,0,0,1,34.574,111.922Z"/><circle cx="42.497" cy="115.694" r="1.561" fill="#ffdbd7"/><path fill="#ef3a65" d="M82.25,121.917a1.5,1.5,0,0,1-1.5-1.5V112a1.5,1.5,0,0,1,3,0v8.417A1.5,1.5,0,0,1,82.25,121.917Z"/><path fill="#ef3a65" d="M85.853,119.883a1.5,1.5,0,0,1-.775-.216l-7.207-4.349a1.5,1.5,0,1,1,1.551-2.568l7.207,4.349a1.5,1.5,0,0,1-.776,2.784Z"/><path fill="#ef3a65" d="M78.647,119.883a1.5,1.5,0,0,1-.776-2.784l7.207-4.349a1.5,1.5,0,1,1,1.551,2.568l-7.207,4.349A1.5,1.5,0,0,1,78.647,119.883Z"/><path fill="#f74b5b" d="M73.43,85.07a44,44,0,0,1-7.21,3.01,6.979,6.979,0,0,1-4.38,0,44.348,44.348,0,0,1-7.27-3.04,19.941,19.941,0,0,0,1.34-5.62H72.09A20.5,20.5,0,0,0,73.43,85.07Z"/><path fill="#ff7b7b" d="M30.25 55.322A8.946 8.946 0 0 0 41.322 64L38.943 48.384C34.781 47.245 30.219 49.375 30.25 55.322zM89.045 48.384L86.666 64a8.946 8.946 0 0 0 11.072-8.678C97.769 49.375 93.207 47.245 89.045 48.384z"/><path fill="#f74b5b" d="M41.323 59a1.5 1.5 0 0 1-1.313-.774 4.152 4.152 0 0 0-4.541-2.241 1.5 1.5 0 1 1-.647-2.929 7.1 7.1 0 0 1 7.813 3.718A1.5 1.5 0 0 1 41.323 59zM86.677 59a1.5 1.5 0 0 1-1.312-2.226 7.1 7.1 0 0 1 7.813-3.718 1.5 1.5 0 1 1-.647 2.929 4.15 4.15 0 0 0-4.541 2.241A1.5 1.5 0 0 1 86.677 59z"/><path fill="#ffa6a2" d="M38.943,48.384C39.406,63.147,44,73.041,48.8,76.911c4.354,3.507,11.617,7.535,15.2,7.535s10.846-4.028,15.2-7.535c4.8-3.87,9.394-13.764,9.857-28.527,0,0,2.276-30.134-25.057-30.134C38.614,18.25,38.943,48.384,38.943,48.384Z"/><path fill="#ff5050" d="M96,33.481C92.422,18.709,79.612,7,63.971,7,48.414,7,34.8,19.323,31.213,34c-1.5,6.132.891,14.783,7.73,15.384,10.515.924,5.07-12.819,11.825-21.286,2.207-2.767,5.439-2.74,5.91-1.18,5.77,19.109,15.556,20,22.918,15.5a.989.989,0,0,1,1.412.444c1.491,3.3,3.648,6.227,8.037,6.518C94.15,49.722,98.476,43.693,96,33.481Z"/><path fill="#ff6464" d="M63.994,60.24c-.037,0-3.7-.061-3.7-2.273a1.5,1.5,0,0,1,2.694-.908,4.022,4.022,0,0,0,1,.181,3.96,3.96,0,0,0,.987-.18,1.5,1.5,0,0,1,2.7.907C67.676,60.179,64.031,60.24,63.994,60.24Z"/><circle cx="51.682" cy="51.532" r="2.525" fill="#3898a8"/><path fill="#fff" d="M59.648,65.84a.954.954,0,0,0-1,1.143,5.445,5.445,0,0,0,10.71,0,.954.954,0,0,0-1-1.143c-1.267.077-3.056-.123-4.352-.123S60.915,65.917,59.648,65.84Z"/><path fill="#ff5050" d="M56.7,44.721a16.559,16.559,0,0,0-5.915-.738,14.065,14.065,0,0,0-5.711,1.651,1.164,1.164,0,0,1-1.153-2.022l.008,0a16.587,16.587,0,0,1,6.6-2.276,19.365,19.365,0,0,1,6.973.5,1.5,1.5,0,1,1-.718,2.914l-.069-.018Z"/><circle cx="76.318" cy="51.532" r="2.525" fill="#3898a8"/><path fill="#bc465a" d="M55.33 51.623a6.716 6.716 0 0 0-2.019-1.255 6.228 6.228 0 0 0-2.319-.5 4 4 0 0 0-2.063.479 3.46 3.46 0 0 1-.976.417 2.984 2.984 0 0 1-1.208.029 3.961 3.961 0 0 1-1.724-.782.827.827 0 0 1-.169-1.157.843.843 0 0 1 .633-.333 5.521 5.521 0 0 0 1.272-.183 7.418 7.418 0 0 0 .624-.485 6.415 6.415 0 0 1 3.676-1.024 8.156 8.156 0 0 1 3.479.933A7.739 7.739 0 0 1 57.3 50.077a1.251 1.251 0 0 1-1.88 1.636zM70.7 50.077a7.728 7.728 0 0 1 2.766-2.312 8.161 8.161 0 0 1 3.48-.933 6.414 6.414 0 0 1 3.675 1.024 7.418 7.418 0 0 0 .624.485 7.5 7.5 0 0 0 1.268.183.827.827 0 0 1 .468 1.49 3.961 3.961 0 0 1-1.724.782 2.984 2.984 0 0 1-1.208-.029 3.46 3.46 0 0 1-.976-.417 4 4 0 0 0-2.063-.479 6.228 6.228 0 0 0-2.319.5 6.716 6.716 0 0 0-2.019 1.255l-.093.09A1.25 1.25 0 0 1 70.7 50.077z"/><path fill="#5d5d9b" d="M81.9,90.167c-.83-1.313-5.533-3.941-6.223-2.283a43.194,43.194,0,0,1-6.746,11.842,1,1,0,0,0,.519,1.588c2.751.8,4.623,2.016,7.678,3.77a1.971,1.971,0,0,0,2.9-1.282C81.105,98.962,82.975,91.871,81.9,90.167Z"/><path fill="#54548e" d="M46.167,90.167c-1.078,1.7.788,8.781,1.866,13.622a1.982,1.982,0,0,0,2.919,1.287c3.046-1.748,4.791-2.893,7.5-3.667a1,1,0,0,0,.534-1.573,46.411,46.411,0,0,1-6.6-11.952C51.7,86.226,47,88.854,46.167,90.167Z"/></svg>