<svg xmlns="http://www.w3.org/2000/svg" viewBox="0 0 128 128"><path fill="#25567f" d="M64.186,3.05C50.629,2.741,35.678,15.34,30.991,29.9,23.224,54.031,32,92.2,21.922,115.25l68.745-.365a254.255,254.255,0,0,0,2.666-71.218c-1.029-9.519-2.6-20.767-8.666-28C77.959,7.672,71.445,4.015,68.141,3.3A15.726,15.726,0,0,0,64.186,3.05Z"/><path fill="#ff7b7b" d="M92.339,123.6H35.661c-9.389,0-14.323-8.249-7.867-15.067a43.993,43.993,0,0,1,3.466-3.273c3.5-2.98,11.36-9.37,16.76-12.53a15.418,15.418,0,0,0,6.96-8.79,31.954,31.954,0,0,0,.93-5.52H72.09a31.954,31.954,0,0,0,.93,5.52,15.4,15.4,0,0,0,6.95,8.79c5.41,3.16,13.26,9.55,16.77,12.53a44.014,44.014,0,0,1,3.467,3.275C106.66,115.353,101.727,123.6,92.339,123.6Z"/><path fill="#f7bfd4" d="M96.742,103.263c-3.508-2.982-11.361-7.371-16.77-10.534L65.715,124.6H106.4a2,2,0,0,0,1.987-2.26C107.661,117.223,104.905,110.2,96.742,103.263Z"/><path fill="#ffccdc" d="M48.025,92.729c-5.409,3.163-13.262,7.552-16.77,10.534-8.163,6.941-10.919,13.96-11.642,19.078A2,2,0,0,0,21.6,124.6H63.04Z"/><path fill="#ff7b7b" d="M38.943,47.389a6.212,6.212,0,0,0-4.974-.076c-2.886,1.464-3.275,5.27-2.306,8,1.244,3.505,5.1,7.013,9.225,5.678Z"/><path fill="#f74b5b" d="M40.89 56.6a1.5 1.5 0 0 1-1.256-.678A4.289 4.289 0 0 0 36.312 54.3a.243.243 0 0 1-.027 0 1.5 1.5 0 0 1-.023-3c.149 0 3.909-.031 5.882 2.981A1.5 1.5 0 0 1 40.89 56.6zM73.02 83.94c-3.38 1.86-6.87 3.27-9.02 3.27s-5.64-1.41-9.02-3.27a31.954 31.954 0 0 0 .93-5.52H72.09A31.954 31.954 0 0 0 73.02 83.94z"/><path fill="#ff9595" d="M88.035,45.377C86.856,32.946,77.086,18.506,70.89,21.34a1.174,1.174,0,0,1-1.265-.181C59.28,11.993,59.292,44.028,38.943,47.389,39.406,61.643,44,71.2,48.8,74.933c4.354,3.386,11.617,7.276,15.2,7.276s10.846-3.89,15.2-7.276C84.227,71.023,89.487,60.676,88.035,45.377Z"/><circle cx="76.435" cy="49.446" r="2.525" fill="#356d93"/><path fill="#25567f" d="M71.948 46.2a5.512 5.512 0 0 1 2.719-1.7 7.072 7.072 0 0 1 3-.142 8.761 8.761 0 0 1 2.689.885 2.237 2.237 0 0 0 .933.2l.294-.01a1.03 1.03 0 0 1 1.063 1 1.043 1.043 0 0 1-.077.425 2.233 2.233 0 0 1-1.352 1.223 2.948 2.948 0 0 1-2.105-.125 7.252 7.252 0 0 0-1.874-.472 4.934 4.934 0 0 0-1.746.088 3.182 3.182 0 0 0-1.351.682l-.115.092A1.5 1.5 0 0 1 71.948 46.2zM70.925 39.188a19.387 19.387 0 0 1 6.973-.5 16.589 16.589 0 0 1 6.6 2.277l0 0a1.164 1.164 0 0 1-1.15 2.024 14.061 14.061 0 0 0-5.711-1.651 16.561 16.561 0 0 0-5.915.738l-.009 0a1.5 1.5 0 0 1-.865-2.874z"/><circle cx="51.565" cy="49.446" r="2.525" fill="#356d93"/><path fill="#25567f" d="M53.864 48.256a3.182 3.182 0 0 0-1.351-.682 4.934 4.934 0 0 0-1.746-.088 7.252 7.252 0 0 0-1.874.472 2.948 2.948 0 0 1-2.105.125 2.233 2.233 0 0 1-1.352-1.223 1.03 1.03 0 0 1 .981-1.42l.3.01a2.237 2.237 0 0 0 .933-.2 8.761 8.761 0 0 1 2.689-.885 7.072 7.072 0 0 1 2.995.142 5.512 5.512 0 0 1 2.719 1.7 1.5 1.5 0 0 1-2.073 2.145zM56.274 42.079a16.561 16.561 0 0 0-5.915-.738 14.061 14.061 0 0 0-5.711 1.651A1.164 1.164 0 0 1 43.5 40.97l.008 0a16.589 16.589 0 0 1 6.6-2.277 19.387 19.387 0 0 1 6.973.5 1.5 1.5 0 0 1-.719 2.914l-.068-.019z"/><path fill="#f74b5b" d="M69.916,65.278a.973.973,0,0,0-1.234-.613l-.084.028a1.3,1.3,0,0,1-.769.026c-.3-.059-.7-.206-1.254-.323a3.842,3.842,0,0,0-1.978.085,4.176,4.176,0,0,0-.611.262,4.236,4.236,0,0,0-.612-.262A3.838,3.838,0,0,0,61.4,64.4c-.553.117-.953.264-1.255.323a1.3,1.3,0,0,1-.769-.026l-.084-.029a.975.975,0,0,0-.856,1.732,3.382,3.382,0,0,0,1.841.528c.6,0,1.078-.08,1.421-.073s.989.75,1.225.943a1.813,1.813,0,0,0,2.347-.216c.123-.152.659-.724,1.009-.727s.821.076,1.422.073a3.381,3.381,0,0,0,1.84-.528A.976.976,0,0,0,69.916,65.278Z"/><path fill="#ff6464" d="M65.715,56.528a1.5,1.5,0,0,0-1.127.51,2.815,2.815,0,0,1-.6.1,2.782,2.782,0,0,1-.608-.1,1.5,1.5,0,0,0-2.627.99c0,2.087,3.2,2.112,3.235,2.112s3.224-.025,3.224-2.112A1.5,1.5,0,0,0,65.715,56.528Z"/><path fill="#f74b5b" d="M64.96,69.671H63.04a1.5,1.5,0,0,0,0,3h1.92a1.5,1.5,0,0,0,0-3Z"/><path fill="#ffd7e5" d="M83.921,92.834A8.076,8.076,0,0,0,79.653,90.2c-.949-.321-1.782-.224-2.223.675-2.779,5.665-8.254,17.431-13.743,28.253V124.6h2.9c.882-1.129,10.511-6.882,11.229-9.663a6.038,6.038,0,0,0-.6-5.267.619.619,0,0,1,.678-.926c3,.775,10.043,1.641,10.043-.557C87.937,106.031,87.6,96.971,83.921,92.834Z"/><path fill="#ffe3ee" d="M66.583,124.6c-6.021-13.913-12.564-26.7-16.012-33.73-.441-.9-1.275-.995-2.224-.674a8.071,8.071,0,0,0-4.268,2.638c-3.679,4.137-4.016,13.2-4.016,15.353,0,2.2,7.038,1.332,10.043.557a.619.619,0,0,1,.678.926,6.038,6.038,0,0,0-.6,5.267c.718,2.781,8.1,8.534,8.979,9.663Z"/><path fill="#25567f" d="M77.06,123.09a2.941,2.941,0,0,1-2.62-4.1c4.56-10.97-4.764-27.284-2.354-39.574A56.95,56.95,0,0,0,79.2,74.93c5.03-3.91,10.29-14.25,8.84-29.55-1.157-12.186-10.569-26.3-16.781-24.187a.084.084,0,0,1-.092-.136c1.74-1.949,2.234-7.259-2.073-11.619-3.252-3.292-4.341-6.472-2.727-6.383,12.854.71,26.225,13.13,30.643,26.845,5.15,16,1.65,36.97,3.99,56.77C102.5,99.32,111.56,124.1,77.06,123.09Z"/><rect width="16.375" height="5.563" x="31.037" y="115.25" fill="#fff" rx="2" ry="2"/></svg>