<svg xmlns="http://www.w3.org/2000/svg" viewBox="0 0 128 128"><path fill="#ff7b7b" d="M96.917,100.419c-3.312-2.816-8.227-5.6-13.334-8.586-4.416-2.583-7.8-5.84-8.348-11.392H52.765c-.55,5.552-3.932,8.809-8.348,11.392C39.31,94.82,34.4,97.6,31.083,100.419c-8.916,7.581-13,20.206-13.184,25.091h92.2C109.917,120.625,105.833,108,96.917,100.419Z"/><path fill="#119699" d="M110.1,125.51H17.9c.18-4.89,4.27-17.51,13.18-25.09,3.32-2.82,8.23-5.6,13.34-8.59a17.583,17.583,0,0,0,6.76-6.26c12.72,6.34,22.65,2.44,26.05.67a18.39,18.39,0,0,0,6.35,5.59c5.11,2.99,10.02,5.77,13.34,8.59C105.83,108,109.92,120.62,110.1,125.51Z"/><path fill="#25567f" d="M64,32.833c-22.25,0-33.625,9.75-33.625,9.75s.75,6.334,1.167,9L64,51.491l32.458.092c.417-2.666,1.167-9,1.167-9S86.25,32.833,64,32.833Z"/><path fill="#ff7b7b" d="M32.835 48.337c-3.257 1.624-3.265 5.6-2.523 8.246A9.019 9.019 0 0 0 40.581 63L37.576 47.821A8.186 8.186 0 0 0 32.835 48.337zM95.155 48.337a8.182 8.182 0 0 0-4.74-.516L87.41 63a9.02 9.02 0 0 0 10.269-6.419C98.421 53.942 98.413 49.961 95.155 48.337z"/><path fill="#f74b5b" d="M39.959 56.605a1.5 1.5 0 0 1-1.2-.6C38 55 35.987 55.14 35.489 55.233a1.5 1.5 0 1 1-.552-2.948c.17-.034 4.217-.757 6.221 1.92a1.5 1.5 0 0 1-1.2 2.4zM88.041 56.605a1.5 1.5 0 0 1-1.2-2.4c2-2.675 6.051-1.953 6.221-1.92a1.5 1.5 0 1 1-.552 2.948c-.612-.109-2.537-.2-3.269.771A1.5 1.5 0 0 1 88.041 56.605z"/><path fill="#ff9595" d="M36.858,40.34A136.56,136.56,0,0,0,38.75,55.43c2.032,11.032,6.769,24.535,21.357,28.033a16.643,16.643,0,0,0,7.776,0c14.589-3.5,19.325-17,21.358-28.033A147.712,147.712,0,0,0,91.2,40.255C91.168,21.746,36.829,21.831,36.858,40.34Z"/><path fill="#119699" d="M64,35.635c15.255,0,29.746,5.552,33.621,6.948,0,0,2.541-24.416-1.834-28.558C88.85,7.463,77.02,2.676,64,2.676S39.141,7.463,32.209,14.025c-4.376,4.142-1.834,28.558-1.834,28.558C34.25,41.188,48.741,35.635,64,35.635Z"/><path fill="#25567f" d="M58.834 40.667a1.535 1.535 0 0 1-.36-.044c-3.608-.891-9.646-2.381-14.754-.7a1.5 1.5 0 1 1-.94-2.849c5.934-1.953 12.493-.333 16.412.634a1.5 1.5 0 0 1-.358 2.957zM69.166 40.667a1.5 1.5 0 0 1-.358-2.957c3.92-.968 10.481-2.589 16.412-.634a1.5 1.5 0 1 1-.94 2.849c-5.106-1.683-11.146-.192-14.754.7A1.535 1.535 0 0 1 69.166 40.667z"/><path fill="#ffdbd7" d="M84.5,63.7a7.322,7.322,0,0,0-3.7-5.635c-3.884-2.1-10.167-3.68-16.8-3.68s-12.914,1.577-16.8,3.68A7.322,7.322,0,0,0,43.5,63.7a18.334,18.334,0,0,0,4.718,13.774C52.863,82.332,59.627,85.612,64,85.612s11.137-3.28,15.779-8.135A18.334,18.334,0,0,0,84.5,63.7Z"/><path fill="#ffdbd7" d="M64,87.112c-5.008,0-12.1-3.616-16.862-8.6a19.737,19.737,0,0,1-5.123-14.995,8.878,8.878,0,0,1,4.473-6.77C50.887,54.368,57.6,52.888,64,52.888s13.113,1.48,17.512,3.861a8.878,8.878,0,0,1,4.473,6.769h0a19.737,19.737,0,0,1-5.123,14.995C76.1,83.5,69.008,87.112,64,87.112Zm0-31.224c-5.935,0-12.1,1.341-16.084,3.5a5.8,5.8,0,0,0-2.925,4.5,16.783,16.783,0,0,0,4.315,12.554C54.069,81.423,60.432,84.112,64,84.112s9.931-2.689,14.694-7.671a16.783,16.783,0,0,0,4.315-12.554,5.8,5.8,0,0,0-2.925-4.5C76.1,57.229,69.935,55.888,64,55.888Z"/><path fill="#ffc1bb" d="M84.394,90.093a7.893,7.893,0,0,1-1.05-.067,5.132,5.132,0,0,1-4.162-2.754,1.5,1.5,0,0,1,2.7-1.305,2.2,2.2,0,0,0,1.854,1.085,5.712,5.712,0,0,0,4.373-1.223,1.5,1.5,0,0,1,2.27,1.963A8.4,8.4,0,0,1,84.394,90.093Z"/><path fill="#ffdbd7" d="M97.615,44.084A1.512,1.512,0,0,1,97.106,44l-.633-.23c-4.506-1.64-18.218-6.63-32.478-6.63s-27.973,4.99-32.478,6.63l-.633.23a1.5,1.5,0,0,1-1.018-2.823l.625-.226c4.629-1.685,18.716-6.811,33.5-6.811s28.875,5.126,33.5,6.811l.625.226a1.5,1.5,0,0,1-.509,2.912Z"/><path fill="#25567f" d="M60.284,49.706a1.5,1.5,0,0,1-.528-2.9,11.483,11.483,0,0,1,8.511.009,1.5,1.5,0,0,1-1.1,2.79,8.467,8.467,0,0,0-6.353.008A1.48,1.48,0,0,1,60.284,49.706Z"/><path fill="#fff" d="M60.742 50.4c0 5.51-3.91 9.791-10.1 9.791-5.807 0-9.494-4.838-9.494-10.2V48.768a5.773 5.773 0 0 1 4.766-5.717A30.769 30.769 0 0 1 56.042 43a5.731 5.731 0 0 1 4.7 5.7zM86.849 50.4c0 5.51-3.91 9.791-10.1 9.791-5.807 0-9.494-4.838-9.494-10.2V48.768a5.773 5.773 0 0 1 4.766-5.717A30.769 30.769 0 0 1 82.149 43a5.731 5.731 0 0 1 4.7 5.7z"/><path fill="#25567f" d="M51.212 44.106a30.752 30.752 0 0 0-5.049.425 4.3 4.3 0 0 0-3.512 4.237v1.225c0 4.218 2.8 8.7 7.995 8.7 5.141 0 8.6-3.332 8.6-8.291V48.7A4.248 4.248 0 0 0 55.8 44.478 28.089 28.089 0 0 0 51.212 44.106zm-.566 17.588c-6.268 0-10.995-5.03-10.995-11.7V48.768a7.234 7.234 0 0 1 6.02-7.2 32.4 32.4 0 0 1 10.615-.054A7.186 7.186 0 0 1 62.242 48.7V50.4C62.242 56.946 57.365 61.694 50.646 61.694zM76.752 61.694c-6.268 0-10.994-5.03-10.994-11.7V48.768a7.234 7.234 0 0 1 6.02-7.2 32.4 32.4 0 0 1 10.615-.054A7.186 7.186 0 0 1 88.349 48.7V50.4C88.349 56.946 83.472 61.694 76.752 61.694zm.566-17.588a30.728 30.728 0 0 0-5.047.425 4.3 4.3 0 0 0-3.513 4.237v1.225c0 4.218 2.8 8.7 7.994 8.7 5.142 0 8.6-3.332 8.6-8.291V48.7A4.249 4.249 0 0 0 81.9 44.478 28.089 28.089 0 0 0 77.318 44.106z"/><path fill="#ffdbd7" d="M65.227,91.57a32.726,32.726,0,0,1-14.716-3.658,1.5,1.5,0,0,1,1.34-2.685c11.98,5.976,21.253,2.466,24.685.68a1.5,1.5,0,0,1,1.386,2.661A27.772,27.772,0,0,1,65.227,91.57Z"/><path fill="#ffdbd7" d="M81.657,88.468a3.163,3.163,0,0,1-2.09-.7c-2.128-1.789-.826-5.981.592-7.667a4.487,4.487,0,0,1,6.312-.547h0a4.479,4.479,0,0,1,.548,6.311A8.028,8.028,0,0,1,81.657,88.468ZM83.59,81.5a1.483,1.483,0,0,0-1.135.527c-.813.969-1.339,3.137-.934,3.466.356.287,2.386-.594,3.2-1.562a1.483,1.483,0,0,0-.182-2.084h0A1.475,1.475,0,0,0,83.59,81.5Z"/><path fill="#34adad" d="M39.343 102.455c-1.825-4.587-7.212-8.868-12.305-8.25-4 .485-7.323 4.751-9.267 9.364a.208.208 0 0 1-.4-.069c-.113-2.129-.654-5.428-2.851-6.182-1.114-.382-2.458.033-2.655.786-1.146 4.394-.44 19.895-.144 25.426a2.093 2.093 0 0 0 2.094 1.979h17.5C34.008 119.625 42.165 109.549 39.343 102.455zM88.657 102.455c1.825-4.587 7.212-8.868 12.305-8.25 4 .485 7.323 4.751 9.267 9.364a.208.208 0 0 0 .4-.069c.113-2.129.654-5.428 2.851-6.182 1.114-.382 2.458.033 2.655.786 1.146 4.394.441 19.895.144 25.426a2.093 2.093 0 0 1-2.094 1.979h-17.5C93.992 119.625 85.835 109.549 88.657 102.455z"/></svg>