<svg xmlns="http://www.w3.org/2000/svg" viewBox="0 0 128 128"><path fill="#ff7b7b" d="M9.792,103.542s-4.04-3.754-6.981-1.821,3.879,5.323,9.251,10.123Z"/><path fill="#ff7b7b" d="M9.792,103.542s-4.04-3.754-6.981-1.821,3.879,5.323,9.251,10.123Z"/><path fill="#ffdbd7" d="M105.285,52.713c-3.825-11.008-7.931-14.448-9.9-21.5C92.367,20.418,83.326,6.845,73.46,8.778,58.424-.465,38.711,12.391,32.742,32.221c-2.11,7.012-6.2,9.484-10.027,20.492C16.291,71.2,34.647,88.094,55.95,88.567H72.114C93.417,88.094,111.709,71.2,105.285,52.713Z"/><path fill="#ff7b7b" d="M103.252,125.5H22.63c.19-4.93,2.12-13.5,11.28-21.27a37.069,37.069,0,0,1,6.15-3.85l.01-.01c3.23-1.74,6.89-3.51,9.8-5.21a15,15,0,0,0,2.79-2.05,13.959,13.959,0,0,0,3.87-6.03,18.465,18.465,0,0,0,.85-4.11h13.3a18.767,18.767,0,0,0,.85,4.08,14.038,14.038,0,0,0,3.86,6.05,15.943,15.943,0,0,0,2.8,2.06c2.89,1.69,6.51,3.45,9.73,5.17a38.437,38.437,0,0,1,6.24,3.9c7.886,6.7,10.417,13.988,11.08,19.031A1.993,1.993,0,0,1,103.252,125.5Z"/><path fill="#553670" d="M87.94,100.38l-.02-.05c-3.22-1.72-6.84-3.48-9.73-5.17a15.943,15.943,0,0,1-2.8-2.06c-3.13,2.47-8.25,3.53-11.39,3.53s-8.21-1.05-11.34-3.52a15,15,0,0,1-2.79,2.05c-2.91,1.7-6.57,3.47-9.8,5.21l-.01.01a207.37,207.37,0,0,0-2,25.12v.01H89.94v-.01A207.5,207.5,0,0,0,87.94,100.38Z"/><path fill="#ff7b7b" d="M32.574 52.83c-2 1.721-2.483 5.06-1.386 7.666 1.22 2.9 3.991 6.176 9.306 5.5L37.829 51.475C35.884 51.335 34.2 51.429 32.574 52.83zM95.426 52.83c-1.63-1.4-3.31-1.495-5.255-1.355L87.506 66c5.315.672 8.086-2.6 9.306-5.5C97.909 57.89 97.426 54.551 95.426 52.83z"/><path fill="#f74b5b" d="M71.53,87.05A18.919,18.919,0,0,1,64,88.91a18.88,18.88,0,0,1-7.47-1.83,18.465,18.465,0,0,0,.85-4.11h13.3A18.767,18.767,0,0,0,71.53,87.05Z"/><path fill="#ff9595" d="M38.135 54.15A72.272 72.272 0 0 0 40.494 66C43.771 76.776 56.1 84.906 64 84.906S84.229 76.776 87.506 66a72.837 72.837 0 0 0 2.387-12.075c-3.125-8.371-2.083-17.337-5.206-22.675C73.9 12.808 58.162 13.255 46.25 31.563 42.536 37.271 41.488 45.111 38.135 54.15zM31.48 112.32a4.984 4.984 0 0 1-1.36-3.54c.17-3.3.36-6.95.01-8.44a2.414 2.414 0 0 0-1.47-1.85c-1.08-.44-2.37-.06-2.55.83-.645 3.137-1.447 7.738-1.732 9.4a.152.152 0 0 1-.3.02c-.915-3.069-2.554-9.851-3.4-11.5-.58-1.13-1.17-2.44-3.09-2.8-1.29-.25-2.61.76-2.55 1.66.18 2.4 2.042 9.747 2.8 12.724a.2.2 0 0 1-.377.116c-1.415-2.533-2.884-7.628-3.8-9.56-.8-1.7-2.22-3.74-4.34-4.32a2.109 2.109 0 0 0-2.7 2.45c.28 1.24 1.882 3.622 2.776 5.865 1.046 2.625 1.229 5.75 2.754 10.485A7.781 7.781 0 0 0 15.9 117.9a6.057 6.057 0 0 1 3.347 4.1c.15.67.28 1.319.38 1.869a2 2 0 0 0 1.97 1.64H35.12S34.54 115.73 31.48 112.32z"/><path fill="#bc465a" d="M85.667 42.889a12.608 12.608 0 0 0-3.714-1.516 26.172 26.172 0 0 0-3.774-.639A35.1 35.1 0 0 0 70.6 40.8a1.3 1.3 0 1 0 .311 2.574l.031 0 .03-.005a32.75 32.75 0 0 1 7.008-.253 23.916 23.916 0 0 1 3.444.482 10.5 10.5 0 0 1 3.068 1.129l.032.019a1.089 1.089 0 0 0 1.147-1.851zM42.212 42.889a12.608 12.608 0 0 1 3.714-1.516 26.172 26.172 0 0 1 3.774-.639 35.113 35.113 0 0 1 7.584.064 1.3 1.3 0 0 1-.312 2.574l-.031 0-.03-.005A32.75 32.75 0 0 0 49.9 43.11a23.916 23.916 0 0 0-3.444.482 10.5 10.5 0 0 0-3.068 1.129l-.032.019a1.089 1.089 0 0 1-1.147-1.851z"/><path fill="#ffdbd7" d="M79.337 58.963a36.971 36.971 0 0 1-6.514-.157c-4.175-.47-5.245-6.845-5.23-8.238.016-1.532 1.115-2.427 2.621-2.852a50.024 50.024 0 0 1 13.467-1.228c1.558.136 2.8.524 2.817 2.056C86.513 49.738 85.427 58.587 79.337 58.963zM48.663 58.963a36.971 36.971 0 0 0 6.514-.157c4.175-.47 5.245-6.845 5.23-8.238-.016-1.532-1.115-2.427-2.621-2.852a50.024 50.024 0 0 0-13.467-1.228c-1.558.136-2.8.524-2.817 2.056C41.487 49.738 42.573 58.587 48.663 58.963z"/><path fill="#ff6464" d="M65.735,59.006a1.5,1.5,0,0,0-1.122.505,2.917,2.917,0,0,1-.618.1,2.83,2.83,0,0,1-.607-.1,1.5,1.5,0,0,0-2.623.994c0,2.085,3.2,2.109,3.23,2.109s3.24-.024,3.24-2.109A1.5,1.5,0,0,0,65.735,59.006Z"/><circle cx="77.045" cy="51.428" r="2.927" fill="#bc465a"/><circle cx="50.955" cy="51.428" r="2.927" fill="#bc465a"/><path fill="#fff" d="M59.621 66.686a.921.921 0 0 0-.922 1.072 5.412 5.412 0 0 0 10.609 0 .921.921 0 0 0-.922-1.072zM63.792 113.339c-.133-.018-13.277-2.041-15.406-17.984a1.5 1.5 0 0 1 2.973-.4c1.606 12.029 10.043 14.778 12.309 15.3a1.455 1.455 0 0 0 .666 0C66.6 109.74 75.1 107 76.7 94.958a1.5 1.5 0 1 1 2.973.4C77.549 111.3 64.34 113.321 64.207 113.34A3.025 3.025 0 0 1 63.792 113.339z"/><circle cx="64" cy="111.854" r="2.816" fill="#ffdbd7"/><circle cx="37.384" cy="66.686" r="1.995" fill="#fff"/><circle cx="90.616" cy="66.686" r="1.995" fill="#fff"/><path fill="#ff4d5e" d="M76.938 60.538a38.062 38.062 0 0 1-4.284-.241c-5.5-.62-6.577-8.265-6.561-9.745.021-2.06 1.375-3.62 3.714-4.28a50.927 50.927 0 0 1 14-1.278c2.752.241 4.161 1.429 4.186 3.532.023 1.874-1.374 11.491-8.568 11.934C78.588 60.512 77.76 60.538 76.938 60.538zm4.69-12.627A50.1 50.1 0 0 0 70.621 49.16c-1.518.428-1.525 1.151-1.528 1.423-.012 1.11.967 6.4 3.9 6.733a35.753 35.753 0 0 0 6.254.15h0c4.695-.29 5.767-7.839 5.754-8.9 0-.2-.006-.455-1.448-.581C83 47.934 82.344 47.911 81.628 47.911zM51.062 60.538c-.822 0-1.65-.026-2.492-.078h0C41.376 60.017 39.979 50.4 40 48.525c.025-2.1 1.434-3.29 4.186-3.531a50.9 50.9 0 0 1 14 1.278c2.339.66 3.693 2.22 3.714 4.281.016 1.479-1.062 9.124-6.561 9.744A38.062 38.062 0 0 1 51.062 60.538zM46.373 47.911c-.717 0-1.369.023-1.923.071-1.442.126-1.446.378-1.448.58-.013 1.065 1.059 8.614 5.754 8.9h0a35.75 35.75 0 0 0 6.254-.15c2.93-.33 3.909-5.623 3.9-6.733 0-.272-.01-.995-1.528-1.423A50.087 50.087 0 0 0 46.373 47.911z"/><path fill="#ff4d5e" d="M67.594,52.068a1.486,1.486,0,0,1-.4-.054,11.965,11.965,0,0,0-6.394,0,1.5,1.5,0,1,1-.787-2.894,14.9,14.9,0,0,1,7.976,0,1.5,1.5,0,0,1-.4,2.946Z"/><path fill="#ffdbd7" d="M93.814,56.792c-4.858-8.327-.252-20.442-6.308-30.618C84.185,20.593,79.86,12,65.735,12s-17.716,6.476-21.4,11.272C36.6,33.348,40.053,48.465,35.2,56.792c-.856,1.467,2.027,2.517,3.074,1.181,3.2-4.083,9.405-10.491,11.026-18.694C51.837,26.423,61.29,15.584,71.814,23.4c12.016.169,6.793,25.533,18.925,34.575C92.1,58.988,94.669,58.259,93.814,56.792Z"/><path fill="#ffc1bb" d="M36.86,60.081a3.826,3.826,0,0,1-2.119-.628,2.5,2.5,0,0,1-.843-3.417c1.942-3.327,2.442-8.048,2.972-13.045.723-6.814,1.541-14.537,6.283-20.639a1.5,1.5,0,1,1,2.369,1.841C41.3,29.62,40.566,36.578,39.854,43.307c-.542,5.115-1.056,9.957-3.1,13.772a.533.533,0,0,0,.341-.036c.489-.625,1.053-1.309,1.66-2.044,3.278-3.978,7.769-9.426,9.071-16.011,1.822-9.22,6.831-16.658,12.76-18.947,3.842-1.483,7.894-.834,11.741,1.876,7.036.433,8.766,8.041,10.593,16.084,1.574,6.925,3.357,14.774,8.718,18.77a1.039,1.039,0,0,0,.548.172c-2.193-4.189-2.416-9.3-2.634-14.251-.24-5.483-.489-11.152-3.32-15.729a1.5,1.5,0,1,1,2.551-1.578c3.242,5.241,3.509,11.309,3.766,17.176.222,5.051.432,9.822,2.562,13.475a2.382,2.382,0,0,1-.435,3.081,4.045,4.045,0,0,1-4.831.059c-6.248-4.657-8.161-13.079-9.85-20.51-1.93-8.492-3.358-13.7-8.2-13.768a1.5,1.5,0,0,1-.874-.295c-3.138-2.33-6.25-2.923-9.256-1.764-4.915,1.9-9.294,8.622-10.9,16.731-1.45,7.327-6.218,13.113-9.7,17.337-.589.715-1.137,1.38-1.617,1.991A3.23,3.23,0,0,1,36.86,60.081Zm55.66-2.53h0Z"/><path fill="#bc465a" d="M54.479 50.681a1.494 1.494 0 0 1-1.1-.485 4.182 4.182 0 0 0-3.156-1.182 2.968 2.968 0 0 0-2.176.855A1.5 1.5 0 0 1 45.7 48a5.826 5.826 0 0 1 4.416-1.981 7.161 7.161 0 0 1 5.469 2.15 1.5 1.5 0 0 1-1.105 2.515zM73.521 50.681a1.5 1.5 0 0 1-1.105-2.515 7.18 7.18 0 0 1 5.469-2.15A5.826 5.826 0 0 1 82.3 48a1.5 1.5 0 0 1-2.344 1.872 2.968 2.968 0 0 0-2.176-.855A4.17 4.17 0 0 0 74.625 50.2 1.5 1.5 0 0 1 73.521 50.681z"/></svg>